<?xml version="1.0" encoding="utf-8" standalone="no"?>
<!DOCTYPE svg PUBLIC "-//W3C//DTD SVG 1.1//EN"
  "http://www.w3.org/Graphics/SVG/1.1/DTD/svg11.dtd">
<svg xmlns:xlink="http://www.w3.org/1999/xlink" width="864pt" height="360pt" viewBox="0 0 864 360" xmlns="http://www.w3.org/2000/svg" version="1.1">
 <metadata>
  <rdf:RDF xmlns:dc="http://purl.org/dc/elements/1.1/" xmlns:cc="http://creativecommons.org/ns#" xmlns:rdf="http://www.w3.org/1999/02/22-rdf-syntax-ns#">
   <cc:Work>
    <dc:type rdf:resource="http://purl.org/dc/dcmitype/StillImage"/>
    <dc:date>2024-08-05T20:05:11.888437</dc:date>
    <dc:format>image/svg+xml</dc:format>
    <dc:creator>
     <cc:Agent>
      <dc:title>Matplotlib v3.9.0, https://matplotlib.org/</dc:title>
     </cc:Agent>
    </dc:creator>
   </cc:Work>
  </rdf:RDF>
 </metadata>
 <defs>
  <style type="text/css">*{stroke-linejoin: round; stroke-linecap: butt}</style>
 </defs>
 <g id="figure_1">
  <g id="patch_1">
   <path d="M 0 360 
L 864 360 
L 864 0 
L 0 0 
L 0 360 
z
" style="fill: none; opacity: 0"/>
  </g>
  <g id="axes_1">
   <g id="patch_2">
    <path d="M 108 320.4 
L 777.6 320.4 
L 777.6 43.2 
L 108 43.2 
L 108 320.4 
z
" style="fill: none; opacity: 0"/>
   </g>
   <g id="matplotlib.axis_1">
    <g id="xtick_1">
     <g id="line2d_1">
      <path d="M 159.862685 320.4 
L 159.862685 43.2 
" clip-path="url(#pe192744d15)" style="fill: none; stroke-dasharray: 5.12,1.28,0.8,1.28; stroke-dashoffset: 0; stroke: #b0b0b0; stroke-width: 0.8"/>
     </g>
     <g id="line2d_2">
      <defs>
       <path id="m6c57cf614b" d="M 0 0 
L 0 3.5 
" style="stroke: #a9a9a9; stroke-width: 0.8"/>
      </defs>
      <g>
       <use xlink:href="#m6c57cf614b" x="159.862685" y="320.4" style="fill: #a9a9a9; stroke: #a9a9a9; stroke-width: 0.8"/>
      </g>
     </g>
     <g id="text_1">
      <!-- 2021-09 -->
      <g style="fill: #a9a9a9" transform="translate(138.971278 334.998438) scale(0.1 -0.1)">
       <defs>
        <path id="DejaVuSans-32" d="M 1228 531 
L 3431 531 
L 3431 0 
L 469 0 
L 469 531 
Q 828 903 1448 1529 
Q 2069 2156 2228 2338 
Q 2531 2678 2651 2914 
Q 2772 3150 2772 3378 
Q 2772 3750 2511 3984 
Q 2250 4219 1831 4219 
Q 1534 4219 1204 4116 
Q 875 4013 500 3803 
L 500 4441 
Q 881 4594 1212 4672 
Q 1544 4750 1819 4750 
Q 2544 4750 2975 4387 
Q 3406 4025 3406 3419 
Q 3406 3131 3298 2873 
Q 3191 2616 2906 2266 
Q 2828 2175 2409 1742 
Q 1991 1309 1228 531 
z
" transform="scale(0.015625)"/>
        <path id="DejaVuSans-30" d="M 2034 4250 
Q 1547 4250 1301 3770 
Q 1056 3291 1056 2328 
Q 1056 1369 1301 889 
Q 1547 409 2034 409 
Q 2525 409 2770 889 
Q 3016 1369 3016 2328 
Q 3016 3291 2770 3770 
Q 2525 4250 2034 4250 
z
M 2034 4750 
Q 2819 4750 3233 4129 
Q 3647 3509 3647 2328 
Q 3647 1150 3233 529 
Q 2819 -91 2034 -91 
Q 1250 -91 836 529 
Q 422 1150 422 2328 
Q 422 3509 836 4129 
Q 1250 4750 2034 4750 
z
" transform="scale(0.015625)"/>
        <path id="DejaVuSans-31" d="M 794 531 
L 1825 531 
L 1825 4091 
L 703 3866 
L 703 4441 
L 1819 4666 
L 2450 4666 
L 2450 531 
L 3481 531 
L 3481 0 
L 794 0 
L 794 531 
z
" transform="scale(0.015625)"/>
        <path id="DejaVuSans-2d" d="M 313 2009 
L 1997 2009 
L 1997 1497 
L 313 1497 
L 313 2009 
z
" transform="scale(0.015625)"/>
        <path id="DejaVuSans-39" d="M 703 97 
L 703 672 
Q 941 559 1184 500 
Q 1428 441 1663 441 
Q 2288 441 2617 861 
Q 2947 1281 2994 2138 
Q 2813 1869 2534 1725 
Q 2256 1581 1919 1581 
Q 1219 1581 811 2004 
Q 403 2428 403 3163 
Q 403 3881 828 4315 
Q 1253 4750 1959 4750 
Q 2769 4750 3195 4129 
Q 3622 3509 3622 2328 
Q 3622 1225 3098 567 
Q 2575 -91 1691 -91 
Q 1453 -91 1209 -44 
Q 966 3 703 97 
z
M 1959 2075 
Q 2384 2075 2632 2365 
Q 2881 2656 2881 3163 
Q 2881 3666 2632 3958 
Q 2384 4250 1959 4250 
Q 1534 4250 1286 3958 
Q 1038 3666 1038 3163 
Q 1038 2656 1286 2365 
Q 1534 2075 1959 2075 
z
" transform="scale(0.015625)"/>
       </defs>
       <use xlink:href="#DejaVuSans-32"/>
       <use xlink:href="#DejaVuSans-30" x="63.623047"/>
       <use xlink:href="#DejaVuSans-32" x="127.246094"/>
       <use xlink:href="#DejaVuSans-31" x="190.869141"/>
       <use xlink:href="#DejaVuSans-2d" x="254.492188"/>
       <use xlink:href="#DejaVuSans-30" x="290.576172"/>
       <use xlink:href="#DejaVuSans-39" x="354.199219"/>
      </g>
     </g>
    </g>
    <g id="xtick_2">
     <g id="line2d_3">
      <path d="M 226.888612 320.4 
L 226.888612 43.2 
" clip-path="url(#pe192744d15)" style="fill: none; stroke-dasharray: 5.12,1.28,0.8,1.28; stroke-dashoffset: 0; stroke: #b0b0b0; stroke-width: 0.8"/>
     </g>
     <g id="line2d_4">
      <g>
       <use xlink:href="#m6c57cf614b" x="226.888612" y="320.4" style="fill: #a9a9a9; stroke: #a9a9a9; stroke-width: 0.8"/>
      </g>
     </g>
     <g id="text_2">
      <!-- 2022-01 -->
      <g style="fill: #a9a9a9" transform="translate(205.997205 334.998438) scale(0.1 -0.1)">
       <use xlink:href="#DejaVuSans-32"/>
       <use xlink:href="#DejaVuSans-30" x="63.623047"/>
       <use xlink:href="#DejaVuSans-32" x="127.246094"/>
       <use xlink:href="#DejaVuSans-32" x="190.869141"/>
       <use xlink:href="#DejaVuSans-2d" x="254.492188"/>
       <use xlink:href="#DejaVuSans-30" x="290.576172"/>
       <use xlink:href="#DejaVuSans-31" x="354.199219"/>
      </g>
     </g>
    </g>
    <g id="xtick_3">
     <g id="line2d_5">
      <path d="M 292.815753 320.4 
L 292.815753 43.2 
" clip-path="url(#pe192744d15)" style="fill: none; stroke-dasharray: 5.12,1.28,0.8,1.28; stroke-dashoffset: 0; stroke: #b0b0b0; stroke-width: 0.8"/>
     </g>
     <g id="line2d_6">
      <g>
       <use xlink:href="#m6c57cf614b" x="292.815753" y="320.4" style="fill: #a9a9a9; stroke: #a9a9a9; stroke-width: 0.8"/>
      </g>
     </g>
     <g id="text_3">
      <!-- 2022-05 -->
      <g style="fill: #a9a9a9" transform="translate(271.924347 334.998438) scale(0.1 -0.1)">
       <defs>
        <path id="DejaVuSans-35" d="M 691 4666 
L 3169 4666 
L 3169 4134 
L 1269 4134 
L 1269 2991 
Q 1406 3038 1543 3061 
Q 1681 3084 1819 3084 
Q 2600 3084 3056 2656 
Q 3513 2228 3513 1497 
Q 3513 744 3044 326 
Q 2575 -91 1722 -91 
Q 1428 -91 1123 -41 
Q 819 9 494 109 
L 494 744 
Q 775 591 1075 516 
Q 1375 441 1709 441 
Q 2250 441 2565 725 
Q 2881 1009 2881 1497 
Q 2881 1984 2565 2268 
Q 2250 2553 1709 2553 
Q 1456 2553 1204 2497 
Q 953 2441 691 2322 
L 691 4666 
z
" transform="scale(0.015625)"/>
       </defs>
       <use xlink:href="#DejaVuSans-32"/>
       <use xlink:href="#DejaVuSans-30" x="63.623047"/>
       <use xlink:href="#DejaVuSans-32" x="127.246094"/>
       <use xlink:href="#DejaVuSans-32" x="190.869141"/>
       <use xlink:href="#DejaVuSans-2d" x="254.492188"/>
       <use xlink:href="#DejaVuSans-30" x="290.576172"/>
       <use xlink:href="#DejaVuSans-35" x="354.199219"/>
      </g>
     </g>
    </g>
    <g id="xtick_4">
     <g id="line2d_7">
      <path d="M 360.391073 320.4 
L 360.391073 43.2 
" clip-path="url(#pe192744d15)" style="fill: none; stroke-dasharray: 5.12,1.28,0.8,1.28; stroke-dashoffset: 0; stroke: #b0b0b0; stroke-width: 0.8"/>
     </g>
     <g id="line2d_8">
      <g>
       <use xlink:href="#m6c57cf614b" x="360.391073" y="320.4" style="fill: #a9a9a9; stroke: #a9a9a9; stroke-width: 0.8"/>
      </g>
     </g>
     <g id="text_4">
      <!-- 2022-09 -->
      <g style="fill: #a9a9a9" transform="translate(339.499667 334.998438) scale(0.1 -0.1)">
       <use xlink:href="#DejaVuSans-32"/>
       <use xlink:href="#DejaVuSans-30" x="63.623047"/>
       <use xlink:href="#DejaVuSans-32" x="127.246094"/>
       <use xlink:href="#DejaVuSans-32" x="190.869141"/>
       <use xlink:href="#DejaVuSans-2d" x="254.492188"/>
       <use xlink:href="#DejaVuSans-30" x="290.576172"/>
       <use xlink:href="#DejaVuSans-39" x="354.199219"/>
      </g>
     </g>
    </g>
    <g id="xtick_5">
     <g id="line2d_9">
      <path d="M 427.417 320.4 
L 427.417 43.2 
" clip-path="url(#pe192744d15)" style="fill: none; stroke-dasharray: 5.12,1.28,0.8,1.28; stroke-dashoffset: 0; stroke: #b0b0b0; stroke-width: 0.8"/>
     </g>
     <g id="line2d_10">
      <g>
       <use xlink:href="#m6c57cf614b" x="427.417" y="320.4" style="fill: #a9a9a9; stroke: #a9a9a9; stroke-width: 0.8"/>
      </g>
     </g>
     <g id="text_5">
      <!-- 2023-01 -->
      <g style="fill: #a9a9a9" transform="translate(406.525594 334.998438) scale(0.1 -0.1)">
       <defs>
        <path id="DejaVuSans-33" d="M 2597 2516 
Q 3050 2419 3304 2112 
Q 3559 1806 3559 1356 
Q 3559 666 3084 287 
Q 2609 -91 1734 -91 
Q 1441 -91 1130 -33 
Q 819 25 488 141 
L 488 750 
Q 750 597 1062 519 
Q 1375 441 1716 441 
Q 2309 441 2620 675 
Q 2931 909 2931 1356 
Q 2931 1769 2642 2001 
Q 2353 2234 1838 2234 
L 1294 2234 
L 1294 2753 
L 1863 2753 
Q 2328 2753 2575 2939 
Q 2822 3125 2822 3475 
Q 2822 3834 2567 4026 
Q 2313 4219 1838 4219 
Q 1578 4219 1281 4162 
Q 984 4106 628 3988 
L 628 4550 
Q 988 4650 1302 4700 
Q 1616 4750 1894 4750 
Q 2613 4750 3031 4423 
Q 3450 4097 3450 3541 
Q 3450 3153 3228 2886 
Q 3006 2619 2597 2516 
z
" transform="scale(0.015625)"/>
       </defs>
       <use xlink:href="#DejaVuSans-32"/>
       <use xlink:href="#DejaVuSans-30" x="63.623047"/>
       <use xlink:href="#DejaVuSans-32" x="127.246094"/>
       <use xlink:href="#DejaVuSans-33" x="190.869141"/>
       <use xlink:href="#DejaVuSans-2d" x="254.492188"/>
       <use xlink:href="#DejaVuSans-30" x="290.576172"/>
       <use xlink:href="#DejaVuSans-31" x="354.199219"/>
      </g>
     </g>
    </g>
    <g id="xtick_6">
     <g id="line2d_11">
      <path d="M 493.344142 320.4 
L 493.344142 43.2 
" clip-path="url(#pe192744d15)" style="fill: none; stroke-dasharray: 5.12,1.28,0.8,1.28; stroke-dashoffset: 0; stroke: #b0b0b0; stroke-width: 0.8"/>
     </g>
     <g id="line2d_12">
      <g>
       <use xlink:href="#m6c57cf614b" x="493.344142" y="320.4" style="fill: #a9a9a9; stroke: #a9a9a9; stroke-width: 0.8"/>
      </g>
     </g>
     <g id="text_6">
      <!-- 2023-05 -->
      <g style="fill: #a9a9a9" transform="translate(472.452736 334.998438) scale(0.1 -0.1)">
       <use xlink:href="#DejaVuSans-32"/>
       <use xlink:href="#DejaVuSans-30" x="63.623047"/>
       <use xlink:href="#DejaVuSans-32" x="127.246094"/>
       <use xlink:href="#DejaVuSans-33" x="190.869141"/>
       <use xlink:href="#DejaVuSans-2d" x="254.492188"/>
       <use xlink:href="#DejaVuSans-30" x="290.576172"/>
       <use xlink:href="#DejaVuSans-35" x="354.199219"/>
      </g>
     </g>
    </g>
    <g id="xtick_7">
     <g id="line2d_13">
      <path d="M 560.919462 320.4 
L 560.919462 43.2 
" clip-path="url(#pe192744d15)" style="fill: none; stroke-dasharray: 5.12,1.28,0.8,1.28; stroke-dashoffset: 0; stroke: #b0b0b0; stroke-width: 0.8"/>
     </g>
     <g id="line2d_14">
      <g>
       <use xlink:href="#m6c57cf614b" x="560.919462" y="320.4" style="fill: #a9a9a9; stroke: #a9a9a9; stroke-width: 0.8"/>
      </g>
     </g>
     <g id="text_7">
      <!-- 2023-09 -->
      <g style="fill: #a9a9a9" transform="translate(540.028056 334.998438) scale(0.1 -0.1)">
       <use xlink:href="#DejaVuSans-32"/>
       <use xlink:href="#DejaVuSans-30" x="63.623047"/>
       <use xlink:href="#DejaVuSans-32" x="127.246094"/>
       <use xlink:href="#DejaVuSans-33" x="190.869141"/>
       <use xlink:href="#DejaVuSans-2d" x="254.492188"/>
       <use xlink:href="#DejaVuSans-30" x="290.576172"/>
       <use xlink:href="#DejaVuSans-39" x="354.199219"/>
      </g>
     </g>
    </g>
    <g id="xtick_8">
     <g id="line2d_15">
      <path d="M 627.945389 320.4 
L 627.945389 43.2 
" clip-path="url(#pe192744d15)" style="fill: none; stroke-dasharray: 5.12,1.28,0.8,1.28; stroke-dashoffset: 0; stroke: #b0b0b0; stroke-width: 0.8"/>
     </g>
     <g id="line2d_16">
      <g>
       <use xlink:href="#m6c57cf614b" x="627.945389" y="320.4" style="fill: #a9a9a9; stroke: #a9a9a9; stroke-width: 0.8"/>
      </g>
     </g>
     <g id="text_8">
      <!-- 2024-01 -->
      <g style="fill: #a9a9a9" transform="translate(607.053983 334.998438) scale(0.1 -0.1)">
       <defs>
        <path id="DejaVuSans-34" d="M 2419 4116 
L 825 1625 
L 2419 1625 
L 2419 4116 
z
M 2253 4666 
L 3047 4666 
L 3047 1625 
L 3713 1625 
L 3713 1100 
L 3047 1100 
L 3047 0 
L 2419 0 
L 2419 1100 
L 313 1100 
L 313 1709 
L 2253 4666 
z
" transform="scale(0.015625)"/>
       </defs>
       <use xlink:href="#DejaVuSans-32"/>
       <use xlink:href="#DejaVuSans-30" x="63.623047"/>
       <use xlink:href="#DejaVuSans-32" x="127.246094"/>
       <use xlink:href="#DejaVuSans-34" x="190.869141"/>
       <use xlink:href="#DejaVuSans-2d" x="254.492188"/>
       <use xlink:href="#DejaVuSans-30" x="290.576172"/>
       <use xlink:href="#DejaVuSans-31" x="354.199219"/>
      </g>
     </g>
    </g>
    <g id="xtick_9">
     <g id="line2d_17">
      <path d="M 694.421923 320.4 
L 694.421923 43.2 
" clip-path="url(#pe192744d15)" style="fill: none; stroke-dasharray: 5.12,1.28,0.8,1.28; stroke-dashoffset: 0; stroke: #b0b0b0; stroke-width: 0.8"/>
     </g>
     <g id="line2d_18">
      <g>
       <use xlink:href="#m6c57cf614b" x="694.421923" y="320.4" style="fill: #a9a9a9; stroke: #a9a9a9; stroke-width: 0.8"/>
      </g>
     </g>
     <g id="text_9">
      <!-- 2024-05 -->
      <g style="fill: #a9a9a9" transform="translate(673.530517 334.998438) scale(0.1 -0.1)">
       <use xlink:href="#DejaVuSans-32"/>
       <use xlink:href="#DejaVuSans-30" x="63.623047"/>
       <use xlink:href="#DejaVuSans-32" x="127.246094"/>
       <use xlink:href="#DejaVuSans-34" x="190.869141"/>
       <use xlink:href="#DejaVuSans-2d" x="254.492188"/>
       <use xlink:href="#DejaVuSans-30" x="290.576172"/>
       <use xlink:href="#DejaVuSans-35" x="354.199219"/>
      </g>
     </g>
    </g>
    <g id="xtick_10">
     <g id="line2d_19">
      <path d="M 761.997243 320.4 
L 761.997243 43.2 
" clip-path="url(#pe192744d15)" style="fill: none; stroke-dasharray: 5.12,1.28,0.8,1.28; stroke-dashoffset: 0; stroke: #b0b0b0; stroke-width: 0.8"/>
     </g>
     <g id="line2d_20">
      <g>
       <use xlink:href="#m6c57cf614b" x="761.997243" y="320.4" style="fill: #a9a9a9; stroke: #a9a9a9; stroke-width: 0.8"/>
      </g>
     </g>
     <g id="text_10">
      <!-- 2024-09 -->
      <g style="fill: #a9a9a9" transform="translate(741.105837 334.998438) scale(0.1 -0.1)">
       <use xlink:href="#DejaVuSans-32"/>
       <use xlink:href="#DejaVuSans-30" x="63.623047"/>
       <use xlink:href="#DejaVuSans-32" x="127.246094"/>
       <use xlink:href="#DejaVuSans-34" x="190.869141"/>
       <use xlink:href="#DejaVuSans-2d" x="254.492188"/>
       <use xlink:href="#DejaVuSans-30" x="290.576172"/>
       <use xlink:href="#DejaVuSans-39" x="354.199219"/>
      </g>
     </g>
    </g>
   </g>
   <g id="matplotlib.axis_2">
    <g id="ytick_1">
     <g id="line2d_21">
      <path d="M 108 307.839112 
L 777.6 307.839112 
" clip-path="url(#pe192744d15)" style="fill: none; stroke-dasharray: 5.12,1.28,0.8,1.28; stroke-dashoffset: 0; stroke: #b0b0b0; stroke-width: 0.8"/>
     </g>
     <g id="line2d_22">
      <defs>
       <path id="mf56e2b3fa9" d="M 0 0 
L -3.5 0 
" style="stroke: #a9a9a9; stroke-width: 0.8"/>
      </defs>
      <g>
       <use xlink:href="#mf56e2b3fa9" x="108" y="307.839112" style="fill: #a9a9a9; stroke: #a9a9a9; stroke-width: 0.8"/>
      </g>
     </g>
     <g id="text_11">
      <!-- 0 -->
      <g style="fill: #a9a9a9" transform="translate(94.6375 311.638331) scale(0.1 -0.1)">
       <use xlink:href="#DejaVuSans-30"/>
      </g>
     </g>
    </g>
    <g id="ytick_2">
     <g id="line2d_23">
      <path d="M 108 276.54934 
L 777.6 276.54934 
" clip-path="url(#pe192744d15)" style="fill: none; stroke-dasharray: 5.12,1.28,0.8,1.28; stroke-dashoffset: 0; stroke: #b0b0b0; stroke-width: 0.8"/>
     </g>
     <g id="line2d_24">
      <g>
       <use xlink:href="#mf56e2b3fa9" x="108" y="276.54934" style="fill: #a9a9a9; stroke: #a9a9a9; stroke-width: 0.8"/>
      </g>
     </g>
     <g id="text_12">
      <!-- 800 -->
      <g style="fill: #a9a9a9" transform="translate(81.9125 280.348559) scale(0.1 -0.1)">
       <defs>
        <path id="DejaVuSans-38" d="M 2034 2216 
Q 1584 2216 1326 1975 
Q 1069 1734 1069 1313 
Q 1069 891 1326 650 
Q 1584 409 2034 409 
Q 2484 409 2743 651 
Q 3003 894 3003 1313 
Q 3003 1734 2745 1975 
Q 2488 2216 2034 2216 
z
M 1403 2484 
Q 997 2584 770 2862 
Q 544 3141 544 3541 
Q 544 4100 942 4425 
Q 1341 4750 2034 4750 
Q 2731 4750 3128 4425 
Q 3525 4100 3525 3541 
Q 3525 3141 3298 2862 
Q 3072 2584 2669 2484 
Q 3125 2378 3379 2068 
Q 3634 1759 3634 1313 
Q 3634 634 3220 271 
Q 2806 -91 2034 -91 
Q 1263 -91 848 271 
Q 434 634 434 1313 
Q 434 1759 690 2068 
Q 947 2378 1403 2484 
z
M 1172 3481 
Q 1172 3119 1398 2916 
Q 1625 2713 2034 2713 
Q 2441 2713 2670 2916 
Q 2900 3119 2900 3481 
Q 2900 3844 2670 4047 
Q 2441 4250 2034 4250 
Q 1625 4250 1398 4047 
Q 1172 3844 1172 3481 
z
" transform="scale(0.015625)"/>
       </defs>
       <use xlink:href="#DejaVuSans-38"/>
       <use xlink:href="#DejaVuSans-30" x="63.623047"/>
       <use xlink:href="#DejaVuSans-30" x="127.246094"/>
      </g>
     </g>
    </g>
    <g id="ytick_3">
     <g id="line2d_25">
      <path d="M 108 245.259569 
L 777.6 245.259569 
" clip-path="url(#pe192744d15)" style="fill: none; stroke-dasharray: 5.12,1.28,0.8,1.28; stroke-dashoffset: 0; stroke: #b0b0b0; stroke-width: 0.8"/>
     </g>
     <g id="line2d_26">
      <g>
       <use xlink:href="#mf56e2b3fa9" x="108" y="245.259569" style="fill: #a9a9a9; stroke: #a9a9a9; stroke-width: 0.8"/>
      </g>
     </g>
     <g id="text_13">
      <!-- 1600 -->
      <g style="fill: #a9a9a9" transform="translate(75.55 249.058787) scale(0.1 -0.1)">
       <defs>
        <path id="DejaVuSans-36" d="M 2113 2584 
Q 1688 2584 1439 2293 
Q 1191 2003 1191 1497 
Q 1191 994 1439 701 
Q 1688 409 2113 409 
Q 2538 409 2786 701 
Q 3034 994 3034 1497 
Q 3034 2003 2786 2293 
Q 2538 2584 2113 2584 
z
M 3366 4563 
L 3366 3988 
Q 3128 4100 2886 4159 
Q 2644 4219 2406 4219 
Q 1781 4219 1451 3797 
Q 1122 3375 1075 2522 
Q 1259 2794 1537 2939 
Q 1816 3084 2150 3084 
Q 2853 3084 3261 2657 
Q 3669 2231 3669 1497 
Q 3669 778 3244 343 
Q 2819 -91 2113 -91 
Q 1303 -91 875 529 
Q 447 1150 447 2328 
Q 447 3434 972 4092 
Q 1497 4750 2381 4750 
Q 2619 4750 2861 4703 
Q 3103 4656 3366 4563 
z
" transform="scale(0.015625)"/>
       </defs>
       <use xlink:href="#DejaVuSans-31"/>
       <use xlink:href="#DejaVuSans-36" x="63.623047"/>
       <use xlink:href="#DejaVuSans-30" x="127.246094"/>
       <use xlink:href="#DejaVuSans-30" x="190.869141"/>
      </g>
     </g>
    </g>
    <g id="ytick_4">
     <g id="line2d_27">
      <path d="M 108 213.969797 
L 777.6 213.969797 
" clip-path="url(#pe192744d15)" style="fill: none; stroke-dasharray: 5.12,1.28,0.8,1.28; stroke-dashoffset: 0; stroke: #b0b0b0; stroke-width: 0.8"/>
     </g>
     <g id="line2d_28">
      <g>
       <use xlink:href="#mf56e2b3fa9" x="108" y="213.969797" style="fill: #a9a9a9; stroke: #a9a9a9; stroke-width: 0.8"/>
      </g>
     </g>
     <g id="text_14">
      <!-- 2400 -->
      <g style="fill: #a9a9a9" transform="translate(75.55 217.769015) scale(0.1 -0.1)">
       <use xlink:href="#DejaVuSans-32"/>
       <use xlink:href="#DejaVuSans-34" x="63.623047"/>
       <use xlink:href="#DejaVuSans-30" x="127.246094"/>
       <use xlink:href="#DejaVuSans-30" x="190.869141"/>
      </g>
     </g>
    </g>
    <g id="ytick_5">
     <g id="line2d_29">
      <path d="M 108 182.680025 
L 777.6 182.680025 
" clip-path="url(#pe192744d15)" style="fill: none; stroke-dasharray: 5.12,1.28,0.8,1.28; stroke-dashoffset: 0; stroke: #b0b0b0; stroke-width: 0.8"/>
     </g>
     <g id="line2d_30">
      <g>
       <use xlink:href="#mf56e2b3fa9" x="108" y="182.680025" style="fill: #a9a9a9; stroke: #a9a9a9; stroke-width: 0.8"/>
      </g>
     </g>
     <g id="text_15">
      <!-- 3200 -->
      <g style="fill: #a9a9a9" transform="translate(75.55 186.479244) scale(0.1 -0.1)">
       <use xlink:href="#DejaVuSans-33"/>
       <use xlink:href="#DejaVuSans-32" x="63.623047"/>
       <use xlink:href="#DejaVuSans-30" x="127.246094"/>
       <use xlink:href="#DejaVuSans-30" x="190.869141"/>
      </g>
     </g>
    </g>
    <g id="ytick_6">
     <g id="line2d_31">
      <path d="M 108 151.390253 
L 777.6 151.390253 
" clip-path="url(#pe192744d15)" style="fill: none; stroke-dasharray: 5.12,1.28,0.8,1.28; stroke-dashoffset: 0; stroke: #b0b0b0; stroke-width: 0.8"/>
     </g>
     <g id="line2d_32">
      <g>
       <use xlink:href="#mf56e2b3fa9" x="108" y="151.390253" style="fill: #a9a9a9; stroke: #a9a9a9; stroke-width: 0.8"/>
      </g>
     </g>
     <g id="text_16">
      <!-- 4000 -->
      <g style="fill: #a9a9a9" transform="translate(75.55 155.189472) scale(0.1 -0.1)">
       <use xlink:href="#DejaVuSans-34"/>
       <use xlink:href="#DejaVuSans-30" x="63.623047"/>
       <use xlink:href="#DejaVuSans-30" x="127.246094"/>
       <use xlink:href="#DejaVuSans-30" x="190.869141"/>
      </g>
     </g>
    </g>
    <g id="ytick_7">
     <g id="line2d_33">
      <path d="M 108 120.100481 
L 777.6 120.100481 
" clip-path="url(#pe192744d15)" style="fill: none; stroke-dasharray: 5.12,1.28,0.8,1.28; stroke-dashoffset: 0; stroke: #b0b0b0; stroke-width: 0.8"/>
     </g>
     <g id="line2d_34">
      <g>
       <use xlink:href="#mf56e2b3fa9" x="108" y="120.100481" style="fill: #a9a9a9; stroke: #a9a9a9; stroke-width: 0.8"/>
      </g>
     </g>
     <g id="text_17">
      <!-- 4800 -->
      <g style="fill: #a9a9a9" transform="translate(75.55 123.8997) scale(0.1 -0.1)">
       <use xlink:href="#DejaVuSans-34"/>
       <use xlink:href="#DejaVuSans-38" x="63.623047"/>
       <use xlink:href="#DejaVuSans-30" x="127.246094"/>
       <use xlink:href="#DejaVuSans-30" x="190.869141"/>
      </g>
     </g>
    </g>
    <g id="ytick_8">
     <g id="line2d_35">
      <path d="M 108 88.810709 
L 777.6 88.810709 
" clip-path="url(#pe192744d15)" style="fill: none; stroke-dasharray: 5.12,1.28,0.8,1.28; stroke-dashoffset: 0; stroke: #b0b0b0; stroke-width: 0.8"/>
     </g>
     <g id="line2d_36">
      <g>
       <use xlink:href="#mf56e2b3fa9" x="108" y="88.810709" style="fill: #a9a9a9; stroke: #a9a9a9; stroke-width: 0.8"/>
      </g>
     </g>
     <g id="text_18">
      <!-- 5600 -->
      <g style="fill: #a9a9a9" transform="translate(75.55 92.609928) scale(0.1 -0.1)">
       <use xlink:href="#DejaVuSans-35"/>
       <use xlink:href="#DejaVuSans-36" x="63.623047"/>
       <use xlink:href="#DejaVuSans-30" x="127.246094"/>
       <use xlink:href="#DejaVuSans-30" x="190.869141"/>
      </g>
     </g>
    </g>
    <g id="ytick_9">
     <g id="line2d_37">
      <path d="M 108 57.520937 
L 777.6 57.520937 
" clip-path="url(#pe192744d15)" style="fill: none; stroke-dasharray: 5.12,1.28,0.8,1.28; stroke-dashoffset: 0; stroke: #b0b0b0; stroke-width: 0.8"/>
     </g>
     <g id="line2d_38">
      <g>
       <use xlink:href="#mf56e2b3fa9" x="108" y="57.520937" style="fill: #a9a9a9; stroke: #a9a9a9; stroke-width: 0.8"/>
      </g>
     </g>
     <g id="text_19">
      <!-- 6400 -->
      <g style="fill: #a9a9a9" transform="translate(75.55 61.320156) scale(0.1 -0.1)">
       <use xlink:href="#DejaVuSans-36"/>
       <use xlink:href="#DejaVuSans-34" x="63.623047"/>
       <use xlink:href="#DejaVuSans-30" x="127.246094"/>
       <use xlink:href="#DejaVuSans-30" x="190.869141"/>
      </g>
     </g>
    </g>
   </g>
   <g id="line2d_39">
    <path d="M 138.436364 307.721776 
L 141.732721 307.44799 
L 142.282114 307.213317 
L 143.930292 307.056868 
L 147.226649 306.39196 
L 150.523006 306.118175 
L 151.621792 305.68794 
L 152.171185 304.983921 
L 152.720578 304.592798 
L 153.26997 303.38032 
L 153.819363 303.302095 
L 154.368756 302.871861 
L 155.467542 302.32429 
L 157.665113 300.603352 
L 159.862685 299.547323 
L 161.510863 298.804191 
L 162.060256 297.943722 
L 163.159042 297.161478 
L 163.708435 296.926804 
L 169.202363 296.14456 
L 169.751756 295.870774 
L 173.597506 295.557877 
L 175.245684 295.127642 
L 180.19022 294.462735 
L 180.739613 294.149837 
L 181.289006 294.071613 
L 182.387791 293.719603 
L 186.233541 293.093807 
L 187.332327 292.78091 
L 188.980505 292.624461 
L 190.079291 292.507124 
L 190.628684 292.350675 
L 191.178077 292.311563 
L 192.826255 291.803104 
L 193.925041 291.72488 
L 195.023827 291.568431 
L 196.122612 291.333758 
L 196.672005 291.177309 
L 197.221398 290.434177 
L 198.869577 289.808381 
L 200.517755 289.378147 
L 201.067148 289.104361 
L 201.616541 289.065249 
L 204.363505 288.283005 
L 205.462291 288.20478 
L 206.011684 288.126556 
L 207.659862 287.618097 
L 209.857434 287.070526 
L 210.406826 286.835853 
L 210.956219 286.757628 
L 211.505612 286.483843 
L 216.999541 285.662486 
L 219.746505 284.880242 
L 220.295898 284.528232 
L 222.493469 283.941549 
L 224.69104 282.807295 
L 226.339219 282.416173 
L 226.888612 282.337948 
L 227.438005 282.064163 
L 228.53679 281.868602 
L 229.635576 281.360143 
L 232.38254 280.656123 
L 234.030719 280.225889 
L 235.678897 279.639205 
L 236.22829 279.560981 
L 237.327076 279.130747 
L 238.425862 279.052522 
L 240.07404 278.583176 
L 240.623433 278.583176 
L 241.172826 278.348502 
L 242.271611 278.231166 
L 242.821004 278.035605 
L 243.91979 277.996492 
L 246.117361 277.722707 
L 247.216147 277.175136 
L 253.808861 274.24172 
L 254.358254 273.655036 
L 255.45704 272.012323 
L 256.006433 271.855875 
L 256.555825 271.855875 
L 257.654611 271.034518 
L 258.204004 270.878069 
L 258.753397 270.604284 
L 259.30279 270.486947 
L 259.852182 269.978488 
L 260.401575 269.822039 
L 262.049754 269.039795 
L 263.14854 267.475307 
L 263.697932 267.123297 
L 264.247325 266.184603 
L 264.796718 265.59792 
L 268.093075 263.876983 
L 269.191861 263.016514 
L 269.741254 262.664504 
L 270.290647 261.843148 
L 270.840039 260.630669 
L 271.389432 259.809312 
L 271.938825 259.379078 
L 272.488218 259.144405 
L 274.685789 257.227906 
L 275.784575 256.328325 
L 276.333968 255.858979 
L 276.883361 255.115847 
L 277.982146 254.138041 
L 280.179718 252.690889 
L 280.729111 252.221543 
L 281.278503 252.104206 
L 282.377289 251.517523 
L 284.574861 250.383269 
L 285.673646 249.327239 
L 286.223039 248.662331 
L 287.321825 247.880087 
L 287.871218 247.723638 
L 288.42061 247.449853 
L 289.519396 246.70672 
L 290.068789 246.393823 
L 290.618182 246.315598 
L 294.463932 243.929753 
L 296.661503 242.756387 
L 297.210896 242.247928 
L 306.001181 239.197175 
L 307.099967 238.21937 
L 308.748146 237.437126 
L 309.846931 236.772218 
L 310.945717 236.45932 
L 311.49511 236.10731 
L 312.044503 235.950861 
L 313.692681 234.894832 
L 316.439646 234.229924 
L 318.087824 233.291231 
L 318.637217 233.213006 
L 319.736003 232.939221 
L 320.285395 232.782772 
L 321.933574 231.531181 
L 323.581753 231.140059 
L 324.131145 230.944498 
L 324.680538 230.514264 
L 327.976895 229.419122 
L 328.526288 229.380009 
L 329.075681 229.22356 
L 330.174467 228.754214 
L 334.020217 227.385286 
L 335.119002 227.228837 
L 335.668395 227.072389 
L 336.217788 226.798603 
L 336.767181 226.681266 
L 339.514145 225.390563 
L 341.711716 224.217197 
L 346.106859 222.457147 
L 346.656252 222.378923 
L 347.755038 221.714015 
L 348.304431 221.635791 
L 350.502002 220.73621 
L 352.699573 220.3842 
L 353.798359 219.836629 
L 354.347752 219.367282 
L 354.897145 218.389477 
L 356.545323 218.076579 
L 360.940466 216.003632 
L 364.236823 214.634704 
L 365.335609 214.400031 
L 366.434394 213.85246 
L 366.983787 213.617787 
L 367.53318 213.539562 
L 369.730752 212.561757 
L 371.37893 211.544839 
L 371.928323 211.466615 
L 372.477716 211.271054 
L 373.027109 211.231942 
L 375.22468 210.606146 
L 375.774073 210.567034 
L 376.323466 210.1368 
L 377.422251 209.745677 
L 380.169216 208.689648 
L 380.718608 208.298526 
L 381.268001 208.102964 
L 382.366787 207.516281 
L 384.564358 206.890486 
L 385.113751 206.6167 
L 386.76193 205.325997 
L 387.311323 205.208661 
L 388.410108 204.348192 
L 388.959501 204.269967 
L 389.508894 203.409499 
L 390.058287 203.174825 
L 390.60768 202.744591 
L 391.157073 202.666367 
L 392.255858 202.001459 
L 392.805251 201.884122 
L 393.354644 201.649449 
L 393.904037 201.219215 
L 394.45343 201.023654 
L 396.101608 199.889399 
L 398.29918 198.755145 
L 398.848572 198.676921 
L 400.496751 197.855564 
L 401.046144 196.955983 
L 401.595537 196.486637 
L 402.144929 196.173739 
L 402.694322 196.056402 
L 403.793108 195.352382 
L 404.342501 195.235046 
L 405.441287 194.687475 
L 407.089465 193.983455 
L 408.188251 193.201211 
L 409.287036 192.027844 
L 410.385822 191.362937 
L 410.935215 191.010927 
L 411.484608 190.424243 
L 413.682179 188.937979 
L 414.231572 188.312184 
L 414.780965 187.881949 
L 415.879751 187.490827 
L 416.978536 186.747695 
L 418.626715 185.926339 
L 419.176108 185.848114 
L 420.824286 184.948533 
L 421.923072 184.283626 
L 427.417 182.328015 
L 427.966393 181.897781 
L 430.163965 181.076424 
L 430.713357 180.919975 
L 431.26275 180.489741 
L 434.009714 179.003477 
L 435.1085 176.813193 
L 436.207286 175.561602 
L 437.306072 174.896694 
L 438.95425 174.231786 
L 439.503643 174.153562 
L 440.053036 173.840664 
L 442.8 172.980196 
L 443.349393 172.745522 
L 444.448179 172.00239 
L 446.096357 171.29837 
L 447.195143 170.711687 
L 447.744536 170.320565 
L 448.293928 170.085892 
L 448.843321 169.69477 
L 449.392714 169.108086 
L 450.4915 168.521403 
L 453.238464 167.074251 
L 456.534821 165.47065 
L 457.084214 165.353314 
L 458.732393 164.76663 
L 459.281785 164.610182 
L 461.479357 163.632376 
L 462.578142 163.202142 
L 463.127535 162.771907 
L 464.226321 162.419898 
L 467.522678 160.738072 
L 468.621464 159.877604 
L 469.720249 159.486481 
L 470.269642 159.017135 
L 470.819035 158.93891 
L 471.917821 158.117554 
L 473.016606 157.569983 
L 473.565999 157.33531 
L 474.115392 156.787739 
L 477.961142 155.301474 
L 479.059928 154.832128 
L 480.708106 154.323669 
L 481.806892 154.16722 
L 482.356285 153.932547 
L 482.905678 153.854323 
L 484.004463 153.384976 
L 484.553856 153.345864 
L 486.751428 152.524507 
L 488.399606 151.390253 
L 491.14657 150.09955 
L 493.893535 148.613286 
L 494.442927 148.495949 
L 496.091106 147.557256 
L 497.739285 147.009685 
L 498.83807 146.657675 
L 501.035642 145.953655 
L 502.134427 145.601645 
L 503.782606 145.32786 
L 505.980177 144.62384 
L 506.52957 144.389167 
L 507.078963 144.310942 
L 507.628356 144.037157 
L 508.727141 143.802483 
L 510.37532 143.2158 
L 511.474106 143.098463 
L 512.572891 142.824678 
L 514.22107 142.550892 
L 514.770463 142.394444 
L 515.869248 142.277107 
L 518.616213 141.573087 
L 519.714998 141.299302 
L 520.264391 140.986404 
L 523.011355 140.282384 
L 523.560748 140.165047 
L 525.75832 139.343691 
L 528.505284 138.522334 
L 529.054677 138.522334 
L 530.153462 138.131212 
L 530.702855 137.583641 
L 531.801641 137.153407 
L 535.097998 135.98004 
L 535.647391 135.62803 
L 536.196784 135.510694 
L 536.746177 135.197796 
L 537.844962 135.002235 
L 538.943748 134.572001 
L 539.493141 134.454664 
L 540.042534 134.102654 
L 540.591926 133.985317 
L 541.141319 133.515971 
L 542.789498 133.203073 
L 543.888284 132.694614 
L 544.437676 132.068819 
L 545.536462 131.834146 
L 550.480998 130.778116 
L 551.030391 130.778116 
L 551.579783 130.543442 
L 553.777355 130.15232 
L 554.326748 129.917647 
L 555.974926 129.682974 
L 558.72189 128.822505 
L 561.468855 128.157597 
L 563.666426 127.49269 
L 564.215819 127.375353 
L 564.765212 127.101568 
L 565.314605 127.023343 
L 568.061569 125.967313 
L 568.610962 125.576191 
L 569.709747 125.263293 
L 570.808533 124.911284 
L 571.907319 124.441937 
L 573.555497 123.698805 
L 575.203676 123.581468 
L 577.401247 122.955673 
L 577.95064 122.603663 
L 579.049426 122.290765 
L 581.79639 121.078287 
L 582.345783 121.039174 
L 588.389104 118.966227 
L 590.586675 118.418656 
L 591.136068 118.262207 
L 592.234854 117.753748 
L 593.33364 117.519075 
L 593.883032 117.401738 
L 594.432425 116.971504 
L 594.981818 116.697718 
L 595.531211 116.032811 
L 596.080604 115.641689 
L 597.17939 115.328791 
L 597.728782 114.898557 
L 602.123925 113.099395 
L 602.673318 112.942946 
L 603.222711 112.590936 
L 605.420282 111.926028 
L 606.519068 111.378457 
L 607.617854 110.752662 
L 608.167246 110.635325 
L 609.266032 109.970418 
L 609.815425 109.735744 
L 610.914211 109.070837 
L 612.562389 108.288592 
L 613.111782 107.89747 
L 614.210568 107.54546 
L 615.309353 106.880553 
L 615.858746 106.684991 
L 616.408139 106.293869 
L 623.550246 103.8298 
L 624.099639 103.712463 
L 624.649032 103.360453 
L 625.198425 103.282229 
L 626.29721 103.008443 
L 627.395996 102.77377 
L 631.241746 100.896384 
L 631.791139 100.818159 
L 633.439317 99.918578 
L 636.735674 98.627875 
L 638.933246 97.767406 
L 639.482639 97.610958 
L 640.032032 97.258948 
L 641.130817 97.102499 
L 641.68021 96.750489 
L 642.229603 96.711377 
L 643.328389 96.359367 
L 644.427174 95.811796 
L 644.976567 95.733571 
L 647.723531 94.638429 
L 648.272924 94.521093 
L 649.37171 94.169083 
L 650.470496 93.895297 
L 651.569281 93.621512 
L 653.21746 92.995716 
L 655.415031 91.783238 
L 656.513817 91.353003 
L 657.06321 91.000993 
L 658.161995 90.76632 
L 658.711388 90.453422 
L 659.260781 90.336086 
L 660.90896 89.475617 
L 661.458352 89.319168 
L 663.655924 88.302251 
L 665.304102 87.872016 
L 668.600459 86.581313 
L 670.248638 86.033742 
L 679.038924 82.396306 
L 681.236495 81.535837 
L 682.884673 80.636256 
L 683.434066 80.51892 
L 684.532852 80.088685 
L 685.082245 80.088685 
L 686.181031 79.619339 
L 687.279816 78.641533 
L 687.829209 78.172187 
L 689.477388 77.389943 
L 690.02678 77.272606 
L 690.576173 76.99882 
L 691.125566 76.920596 
L 691.674959 76.529474 
L 692.224352 76.412137 
L 693.323138 75.74723 
L 694.971316 74.925873 
L 695.520709 74.769424 
L 696.619495 74.221853 
L 698.267673 73.830731 
L 701.014637 72.93115 
L 701.56403 72.813813 
L 703.761602 71.757784 
L 704.860387 71.249325 
L 705.959173 70.975539 
L 709.804923 69.176377 
L 712.551887 68.198572 
L 714.200066 67.220767 
L 714.749458 67.10343 
L 715.848244 66.555859 
L 716.94703 66.164737 
L 717.496423 65.69539 
L 718.045816 65.382493 
L 719.693994 64.874034 
L 720.79278 64.130902 
L 721.342173 64.09179 
L 722.440958 63.778892 
L 722.990351 63.661555 
L 725.187923 62.840199 
L 726.836101 62.33174 
L 727.385494 62.253515 
L 728.48428 61.666832 
L 729.033672 61.471271 
L 729.583065 61.041037 
L 731.231244 60.610802 
L 731.780637 60.258792 
L 732.879422 59.985007 
L 734.527601 59.085426 
L 735.076994 59.046314 
L 736.725172 58.537855 
L 737.823958 58.420518 
L 738.922744 57.990284 
L 739.472137 57.833835 
L 740.021529 57.56005 
L 743.867279 56.738693 
L 745.515458 56.15201 
L 746.064851 56.073786 
L 747.163636 55.8 
L 747.163636 55.8 
" clip-path="url(#pe192744d15)" style="fill: none; stroke: #1f77b4; stroke-width: 1.5; stroke-linecap: square"/>
   </g>
   <g id="line2d_40">
    <path d="M 138.985756 307.8 
L 140.633935 307.721776 
L 142.282114 307.682663 
L 145.578471 307.604439 
L 148.325435 307.487102 
L 150.523006 307.487102 
L 151.072399 307.330653 
L 153.26997 307.252429 
L 154.918149 307.056868 
L 156.566328 306.900419 
L 159.862685 306.74397 
L 160.412077 306.74397 
L 160.96147 306.626634 
L 163.159042 306.548409 
L 164.257827 306.470185 
L 168.65297 306.39196 
L 171.399934 306.274624 
L 177.992649 306.196399 
L 180.739613 306.079063 
L 184.03597 306.000838 
L 186.233541 305.922614 
L 191.178077 305.844389 
L 192.826255 305.805277 
L 194.474434 305.766165 
L 196.122612 305.570604 
L 199.418969 305.531492 
L 200.517755 305.453267 
L 204.363505 305.375043 
L 210.406826 305.023033 
L 214.252576 304.944808 
L 215.351362 304.866584 
L 216.999541 304.788359 
L 220.295898 304.631911 
L 222.493469 304.592798 
L 224.141648 304.43635 
L 231.283755 304.006115 
L 234.030719 303.927891 
L 238.975254 303.654105 
L 240.623433 303.575881 
L 246.117361 303.262983 
L 252.160683 303.184759 
L 254.358254 302.950085 
L 255.45704 302.871861 
L 262.599147 302.285178 
L 265.895504 301.854943 
L 268.093075 301.776719 
L 272.488218 301.190036 
L 275.784575 301.111811 
L 277.432754 300.955362 
L 278.531539 300.91625 
L 279.630325 300.798914 
L 281.278503 300.720689 
L 282.377289 300.56424 
L 285.124253 300.251343 
L 287.321825 300.173118 
L 288.42061 300.094894 
L 290.618182 300.016669 
L 291.716968 299.938445 
L 294.463932 299.664659 
L 295.013325 299.50821 
L 298.309682 299.351762 
L 301.056646 299.273537 
L 308.198753 298.843303 
L 309.846931 298.765078 
L 316.989038 298.334844 
L 320.834788 298.25662 
L 321.384181 298.139283 
L 325.779324 298.061059 
L 329.625074 297.865497 
L 335.668395 297.787273 
L 339.514145 297.591712 
L 343.909288 297.513488 
L 348.304431 297.278814 
L 352.150181 297.20059 
L 362.588645 296.535682 
L 368.082573 296.457458 
L 370.280144 296.222784 
L 371.928323 296.183672 
L 373.576501 296.14456 
L 375.774073 295.909887 
L 381.268001 295.596989 
L 384.564358 295.518765 
L 386.212537 295.479652 
L 387.860715 295.44054 
L 389.508894 295.284091 
L 393.904037 295.205867 
L 395.002822 295.049418 
L 396.101608 294.971194 
L 398.848572 294.853857 
L 399.947358 294.775632 
L 401.046144 294.697408 
L 405.990679 294.619184 
L 407.089465 294.501847 
L 409.287036 294.462735 
L 409.836429 294.345398 
L 410.935215 294.267174 
L 411.484608 294.149837 
L 413.132786 294.071613 
L 418.077322 293.797827 
L 419.176108 293.758715 
L 420.824286 293.602266 
L 422.472465 293.563154 
L 424.120643 293.484929 
L 426.867607 293.367593 
L 434.559107 293.289368 
L 438.404857 293.093807 
L 442.8 293.015583 
L 444.997571 292.937358 
L 447.195143 292.898246 
L 448.293928 292.78091 
L 450.4915 292.702685 
L 455.985428 292.389787 
L 459.281785 292.350675 
L 460.929964 292.194226 
L 462.578142 292.155114 
L 466.423892 292.07689 
L 468.621464 291.998665 
L 475.214178 291.920441 
L 477.961142 291.803104 
L 481.257499 291.72488 
L 482.905678 291.529319 
L 486.202035 291.490206 
L 487.850213 291.333758 
L 490.047785 291.255533 
L 496.640499 291.177309 
L 499.387463 291.059972 
L 508.727141 291.02086 
L 509.825927 290.942635 
L 511.474106 290.903523 
L 518.616213 290.825299 
L 519.714998 290.747074 
L 525.75832 290.66885 
L 527.955891 290.590625 
L 534.548605 290.551513 
L 535.647391 290.473289 
L 543.888284 290.434177 
L 545.536462 290.277728 
L 559.271283 290.199503 
L 560.919462 290.160391 
L 575.753069 290.082167 
L 577.401247 290.043054 
L 587.290318 289.96483 
L 588.389104 289.886606 
L 591.136068 289.808381 
L 592.784247 289.651932 
L 595.531211 289.573708 
L 597.728782 289.495483 
L 601.025139 289.417259 
L 602.673318 289.378147 
L 604.870889 289.299922 
L 606.519068 289.26081 
L 609.266032 289.182586 
L 610.364818 289.104361 
L 613.661175 289.026137 
L 616.408139 288.9088 
L 617.506925 288.869688 
L 618.605711 288.791464 
L 620.253889 288.752351 
L 622.45146 288.674127 
L 624.649032 288.595903 
L 631.791139 288.517678 
L 633.98871 288.439454 
L 638.383853 288.361229 
L 642.229603 288.165668 
L 647.174138 288.087444 
L 648.272924 288.009219 
L 658.161995 287.930995 
L 659.810174 287.891883 
L 662.557138 287.85277 
L 664.75471 287.618097 
L 666.402888 287.578985 
L 669.699245 287.500761 
L 675.193174 287.187863 
L 677.940138 287.109638 
L 680.137709 287.031414 
L 686.181031 286.95319 
L 688.927995 286.640292 
L 691.125566 286.562067 
L 694.971316 286.483843 
L 695.520709 286.366506 
L 700.465245 286.288282 
L 703.212209 286.170945 
L 710.354316 286.131833 
L 710.903709 286.014496 
L 715.298851 285.936272 
L 716.94703 285.89716 
L 719.693994 285.818935 
L 721.342173 285.779823 
L 730.681851 285.701599 
L 733.428815 285.584262 
L 741.120315 285.506038 
L 743.317886 285.427813 
L 747.163636 285.388701 
L 747.163636 285.388701 
" clip-path="url(#pe192744d15)" style="fill: none; stroke: #ff7f0e; stroke-width: 1.5; stroke-linecap: square"/>
   </g>
   <g id="patch_3">
    <path d="M 108 320.4 
L 108 43.2 
" style="fill: none; stroke: #a9a9a9; stroke-width: 0.8; stroke-linejoin: miter; stroke-linecap: square"/>
   </g>
   <g id="patch_4">
    <path d="M 777.6 320.4 
L 777.6 43.2 
" style="fill: none"/>
   </g>
   <g id="patch_5">
    <path d="M 108 320.4 
L 777.6 320.4 
" style="fill: none; stroke: #a9a9a9; stroke-width: 0.8; stroke-linejoin: miter; stroke-linecap: square"/>
   </g>
   <g id="patch_6">
    <path d="M 108 43.2 
L 777.6 43.2 
" style="fill: none"/>
   </g>
   <g id="text_20">
    <!-- get_subscribe history -->
    <g style="fill: #a9a9a9" transform="translate(378.6075 37.2) scale(0.12 -0.12)">
     <defs>
      <path id="DejaVuSans-67" d="M 2906 1791 
Q 2906 2416 2648 2759 
Q 2391 3103 1925 3103 
Q 1463 3103 1205 2759 
Q 947 2416 947 1791 
Q 947 1169 1205 825 
Q 1463 481 1925 481 
Q 2391 481 2648 825 
Q 2906 1169 2906 1791 
z
M 3481 434 
Q 3481 -459 3084 -895 
Q 2688 -1331 1869 -1331 
Q 1566 -1331 1297 -1286 
Q 1028 -1241 775 -1147 
L 775 -588 
Q 1028 -725 1275 -790 
Q 1522 -856 1778 -856 
Q 2344 -856 2625 -561 
Q 2906 -266 2906 331 
L 2906 616 
Q 2728 306 2450 153 
Q 2172 0 1784 0 
Q 1141 0 747 490 
Q 353 981 353 1791 
Q 353 2603 747 3093 
Q 1141 3584 1784 3584 
Q 2172 3584 2450 3431 
Q 2728 3278 2906 2969 
L 2906 3500 
L 3481 3500 
L 3481 434 
z
" transform="scale(0.015625)"/>
      <path id="DejaVuSans-65" d="M 3597 1894 
L 3597 1613 
L 953 1613 
Q 991 1019 1311 708 
Q 1631 397 2203 397 
Q 2534 397 2845 478 
Q 3156 559 3463 722 
L 3463 178 
Q 3153 47 2828 -22 
Q 2503 -91 2169 -91 
Q 1331 -91 842 396 
Q 353 884 353 1716 
Q 353 2575 817 3079 
Q 1281 3584 2069 3584 
Q 2775 3584 3186 3129 
Q 3597 2675 3597 1894 
z
M 3022 2063 
Q 3016 2534 2758 2815 
Q 2500 3097 2075 3097 
Q 1594 3097 1305 2825 
Q 1016 2553 972 2059 
L 3022 2063 
z
" transform="scale(0.015625)"/>
      <path id="DejaVuSans-74" d="M 1172 4494 
L 1172 3500 
L 2356 3500 
L 2356 3053 
L 1172 3053 
L 1172 1153 
Q 1172 725 1289 603 
Q 1406 481 1766 481 
L 2356 481 
L 2356 0 
L 1766 0 
Q 1100 0 847 248 
Q 594 497 594 1153 
L 594 3053 
L 172 3053 
L 172 3500 
L 594 3500 
L 594 4494 
L 1172 4494 
z
" transform="scale(0.015625)"/>
      <path id="DejaVuSans-5f" d="M 3263 -1063 
L 3263 -1509 
L -63 -1509 
L -63 -1063 
L 3263 -1063 
z
" transform="scale(0.015625)"/>
      <path id="DejaVuSans-73" d="M 2834 3397 
L 2834 2853 
Q 2591 2978 2328 3040 
Q 2066 3103 1784 3103 
Q 1356 3103 1142 2972 
Q 928 2841 928 2578 
Q 928 2378 1081 2264 
Q 1234 2150 1697 2047 
L 1894 2003 
Q 2506 1872 2764 1633 
Q 3022 1394 3022 966 
Q 3022 478 2636 193 
Q 2250 -91 1575 -91 
Q 1294 -91 989 -36 
Q 684 19 347 128 
L 347 722 
Q 666 556 975 473 
Q 1284 391 1588 391 
Q 1994 391 2212 530 
Q 2431 669 2431 922 
Q 2431 1156 2273 1281 
Q 2116 1406 1581 1522 
L 1381 1569 
Q 847 1681 609 1914 
Q 372 2147 372 2553 
Q 372 3047 722 3315 
Q 1072 3584 1716 3584 
Q 2034 3584 2315 3537 
Q 2597 3491 2834 3397 
z
" transform="scale(0.015625)"/>
      <path id="DejaVuSans-75" d="M 544 1381 
L 544 3500 
L 1119 3500 
L 1119 1403 
Q 1119 906 1312 657 
Q 1506 409 1894 409 
Q 2359 409 2629 706 
Q 2900 1003 2900 1516 
L 2900 3500 
L 3475 3500 
L 3475 0 
L 2900 0 
L 2900 538 
Q 2691 219 2414 64 
Q 2138 -91 1772 -91 
Q 1169 -91 856 284 
Q 544 659 544 1381 
z
M 1991 3584 
L 1991 3584 
z
" transform="scale(0.015625)"/>
      <path id="DejaVuSans-62" d="M 3116 1747 
Q 3116 2381 2855 2742 
Q 2594 3103 2138 3103 
Q 1681 3103 1420 2742 
Q 1159 2381 1159 1747 
Q 1159 1113 1420 752 
Q 1681 391 2138 391 
Q 2594 391 2855 752 
Q 3116 1113 3116 1747 
z
M 1159 2969 
Q 1341 3281 1617 3432 
Q 1894 3584 2278 3584 
Q 2916 3584 3314 3078 
Q 3713 2572 3713 1747 
Q 3713 922 3314 415 
Q 2916 -91 2278 -91 
Q 1894 -91 1617 61 
Q 1341 213 1159 525 
L 1159 0 
L 581 0 
L 581 4863 
L 1159 4863 
L 1159 2969 
z
" transform="scale(0.015625)"/>
      <path id="DejaVuSans-63" d="M 3122 3366 
L 3122 2828 
Q 2878 2963 2633 3030 
Q 2388 3097 2138 3097 
Q 1578 3097 1268 2742 
Q 959 2388 959 1747 
Q 959 1106 1268 751 
Q 1578 397 2138 397 
Q 2388 397 2633 464 
Q 2878 531 3122 666 
L 3122 134 
Q 2881 22 2623 -34 
Q 2366 -91 2075 -91 
Q 1284 -91 818 406 
Q 353 903 353 1747 
Q 353 2603 823 3093 
Q 1294 3584 2113 3584 
Q 2378 3584 2631 3529 
Q 2884 3475 3122 3366 
z
" transform="scale(0.015625)"/>
      <path id="DejaVuSans-72" d="M 2631 2963 
Q 2534 3019 2420 3045 
Q 2306 3072 2169 3072 
Q 1681 3072 1420 2755 
Q 1159 2438 1159 1844 
L 1159 0 
L 581 0 
L 581 3500 
L 1159 3500 
L 1159 2956 
Q 1341 3275 1631 3429 
Q 1922 3584 2338 3584 
Q 2397 3584 2469 3576 
Q 2541 3569 2628 3553 
L 2631 2963 
z
" transform="scale(0.015625)"/>
      <path id="DejaVuSans-69" d="M 603 3500 
L 1178 3500 
L 1178 0 
L 603 0 
L 603 3500 
z
M 603 4863 
L 1178 4863 
L 1178 4134 
L 603 4134 
L 603 4863 
z
" transform="scale(0.015625)"/>
      <path id="DejaVuSans-20" transform="scale(0.015625)"/>
      <path id="DejaVuSans-68" d="M 3513 2113 
L 3513 0 
L 2938 0 
L 2938 2094 
Q 2938 2591 2744 2837 
Q 2550 3084 2163 3084 
Q 1697 3084 1428 2787 
Q 1159 2491 1159 1978 
L 1159 0 
L 581 0 
L 581 4863 
L 1159 4863 
L 1159 2956 
Q 1366 3272 1645 3428 
Q 1925 3584 2291 3584 
Q 2894 3584 3203 3211 
Q 3513 2838 3513 2113 
z
" transform="scale(0.015625)"/>
      <path id="DejaVuSans-6f" d="M 1959 3097 
Q 1497 3097 1228 2736 
Q 959 2375 959 1747 
Q 959 1119 1226 758 
Q 1494 397 1959 397 
Q 2419 397 2687 759 
Q 2956 1122 2956 1747 
Q 2956 2369 2687 2733 
Q 2419 3097 1959 3097 
z
M 1959 3584 
Q 2709 3584 3137 3096 
Q 3566 2609 3566 1747 
Q 3566 888 3137 398 
Q 2709 -91 1959 -91 
Q 1206 -91 779 398 
Q 353 888 353 1747 
Q 353 2609 779 3096 
Q 1206 3584 1959 3584 
z
" transform="scale(0.015625)"/>
      <path id="DejaVuSans-79" d="M 2059 -325 
Q 1816 -950 1584 -1140 
Q 1353 -1331 966 -1331 
L 506 -1331 
L 506 -850 
L 844 -850 
Q 1081 -850 1212 -737 
Q 1344 -625 1503 -206 
L 1606 56 
L 191 3500 
L 800 3500 
L 1894 763 
L 2988 3500 
L 3597 3500 
L 2059 -325 
z
" transform="scale(0.015625)"/>
     </defs>
     <use xlink:href="#DejaVuSans-67"/>
     <use xlink:href="#DejaVuSans-65" x="63.476562"/>
     <use xlink:href="#DejaVuSans-74" x="125"/>
     <use xlink:href="#DejaVuSans-5f" x="164.208984"/>
     <use xlink:href="#DejaVuSans-73" x="214.208984"/>
     <use xlink:href="#DejaVuSans-75" x="266.308594"/>
     <use xlink:href="#DejaVuSans-62" x="329.6875"/>
     <use xlink:href="#DejaVuSans-73" x="393.164062"/>
     <use xlink:href="#DejaVuSans-63" x="445.263672"/>
     <use xlink:href="#DejaVuSans-72" x="500.244141"/>
     <use xlink:href="#DejaVuSans-69" x="541.357422"/>
     <use xlink:href="#DejaVuSans-62" x="569.140625"/>
     <use xlink:href="#DejaVuSans-65" x="632.617188"/>
     <use xlink:href="#DejaVuSans-20" x="694.140625"/>
     <use xlink:href="#DejaVuSans-68" x="725.927734"/>
     <use xlink:href="#DejaVuSans-69" x="789.306641"/>
     <use xlink:href="#DejaVuSans-73" x="817.089844"/>
     <use xlink:href="#DejaVuSans-74" x="869.189453"/>
     <use xlink:href="#DejaVuSans-6f" x="908.398438"/>
     <use xlink:href="#DejaVuSans-72" x="969.580078"/>
     <use xlink:href="#DejaVuSans-79" x="1010.693359"/>
    </g>
   </g>
   <g id="legend_1">
    <g id="line2d_41">
     <path d="M 815.08 328.498438 
L 825.08 328.498438 
L 835.08 328.498438 
" style="fill: none; stroke: #1f77b4; stroke-width: 1.5; stroke-linecap: square"/>
    </g>
    <g id="text_21">
     <!-- star -->
     <g style="fill: #a9a9a9" transform="translate(843.08 331.998438) scale(0.1 -0.1)">
      <defs>
       <path id="DejaVuSans-61" d="M 2194 1759 
Q 1497 1759 1228 1600 
Q 959 1441 959 1056 
Q 959 750 1161 570 
Q 1363 391 1709 391 
Q 2188 391 2477 730 
Q 2766 1069 2766 1631 
L 2766 1759 
L 2194 1759 
z
M 3341 1997 
L 3341 0 
L 2766 0 
L 2766 531 
Q 2569 213 2275 61 
Q 1981 -91 1556 -91 
Q 1019 -91 701 211 
Q 384 513 384 1019 
Q 384 1609 779 1909 
Q 1175 2209 1959 2209 
L 2766 2209 
L 2766 2266 
Q 2766 2663 2505 2880 
Q 2244 3097 1772 3097 
Q 1472 3097 1187 3025 
Q 903 2953 641 2809 
L 641 3341 
Q 956 3463 1253 3523 
Q 1550 3584 1831 3584 
Q 2591 3584 2966 3190 
Q 3341 2797 3341 1997 
z
" transform="scale(0.015625)"/>
      </defs>
      <use xlink:href="#DejaVuSans-73"/>
      <use xlink:href="#DejaVuSans-74" x="52.099609"/>
      <use xlink:href="#DejaVuSans-61" x="91.308594"/>
      <use xlink:href="#DejaVuSans-72" x="152.587891"/>
     </g>
    </g>
    <g id="line2d_42">
     <path d="M 815.08 343.176562 
L 825.08 343.176562 
L 835.08 343.176562 
" style="fill: none; stroke: #ff7f0e; stroke-width: 1.5; stroke-linecap: square"/>
    </g>
    <g id="text_22">
     <!-- fork -->
     <g style="fill: #a9a9a9" transform="translate(843.08 346.676562) scale(0.1 -0.1)">
      <defs>
       <path id="DejaVuSans-66" d="M 2375 4863 
L 2375 4384 
L 1825 4384 
Q 1516 4384 1395 4259 
Q 1275 4134 1275 3809 
L 1275 3500 
L 2222 3500 
L 2222 3053 
L 1275 3053 
L 1275 0 
L 697 0 
L 697 3053 
L 147 3053 
L 147 3500 
L 697 3500 
L 697 3744 
Q 697 4328 969 4595 
Q 1241 4863 1831 4863 
L 2375 4863 
z
" transform="scale(0.015625)"/>
       <path id="DejaVuSans-6b" d="M 581 4863 
L 1159 4863 
L 1159 1991 
L 2875 3500 
L 3609 3500 
L 1753 1863 
L 3688 0 
L 2938 0 
L 1159 1709 
L 1159 0 
L 581 0 
L 581 4863 
z
" transform="scale(0.015625)"/>
      </defs>
      <use xlink:href="#DejaVuSans-66"/>
      <use xlink:href="#DejaVuSans-6f" x="35.205078"/>
      <use xlink:href="#DejaVuSans-72" x="96.386719"/>
      <use xlink:href="#DejaVuSans-6b" x="137.5"/>
     </g>
    </g>
   </g>
  </g>
 </g>
 <defs>
  <clipPath id="pe192744d15">
   <rect x="108" y="43.2" width="669.6" height="277.2"/>
  </clipPath>
 </defs>
</svg>
