<?xml version="1.0" encoding="utf-8" standalone="no"?>
<!DOCTYPE svg PUBLIC "-//W3C//DTD SVG 1.1//EN"
  "http://www.w3.org/Graphics/SVG/1.1/DTD/svg11.dtd">
<svg xmlns:xlink="http://www.w3.org/1999/xlink" width="864pt" height="360pt" viewBox="0 0 864 360" xmlns="http://www.w3.org/2000/svg" version="1.1">
 <metadata>
  <rdf:RDF xmlns:dc="http://purl.org/dc/elements/1.1/" xmlns:cc="http://creativecommons.org/ns#" xmlns:rdf="http://www.w3.org/1999/02/22-rdf-syntax-ns#">
   <cc:Work>
    <dc:type rdf:resource="http://purl.org/dc/dcmitype/StillImage"/>
    <dc:date>2024-08-08T20:05:17.398798</dc:date>
    <dc:format>image/svg+xml</dc:format>
    <dc:creator>
     <cc:Agent>
      <dc:title>Matplotlib v3.9.1.post1, https://matplotlib.org/</dc:title>
     </cc:Agent>
    </dc:creator>
   </cc:Work>
  </rdf:RDF>
 </metadata>
 <defs>
  <style type="text/css">*{stroke-linejoin: round; stroke-linecap: butt}</style>
 </defs>
 <g id="figure_1">
  <g id="patch_1">
   <path d="M 0 360 
L 864 360 
L 864 0 
L 0 0 
L 0 360 
z
" style="fill: none; opacity: 0"/>
  </g>
  <g id="axes_1">
   <g id="patch_2">
    <path d="M 108 320.4 
L 777.6 320.4 
L 777.6 43.2 
L 108 43.2 
L 108 320.4 
z
" style="fill: none; opacity: 0"/>
   </g>
   <g id="matplotlib.axis_1">
    <g id="xtick_1">
     <g id="line2d_1">
      <path d="M 159.804828 320.4 
L 159.804828 43.2 
" clip-path="url(#pf48a78cff2)" style="fill: none; stroke-dasharray: 5.12,1.28,0.8,1.28; stroke-dashoffset: 0; stroke: #b0b0b0; stroke-width: 0.8"/>
     </g>
     <g id="line2d_2">
      <defs>
       <path id="mebac4627f0" d="M 0 0 
L 0 3.5 
" style="stroke: #a9a9a9; stroke-width: 0.8"/>
      </defs>
      <g>
       <use xlink:href="#mebac4627f0" x="159.804828" y="320.4" style="fill: #a9a9a9; stroke: #a9a9a9; stroke-width: 0.8"/>
      </g>
     </g>
     <g id="text_1">
      <!-- 2021-09 -->
      <g style="fill: #a9a9a9" transform="translate(138.913422 334.998438) scale(0.1 -0.1)">
       <defs>
        <path id="DejaVuSans-32" d="M 1228 531 
L 3431 531 
L 3431 0 
L 469 0 
L 469 531 
Q 828 903 1448 1529 
Q 2069 2156 2228 2338 
Q 2531 2678 2651 2914 
Q 2772 3150 2772 3378 
Q 2772 3750 2511 3984 
Q 2250 4219 1831 4219 
Q 1534 4219 1204 4116 
Q 875 4013 500 3803 
L 500 4441 
Q 881 4594 1212 4672 
Q 1544 4750 1819 4750 
Q 2544 4750 2975 4387 
Q 3406 4025 3406 3419 
Q 3406 3131 3298 2873 
Q 3191 2616 2906 2266 
Q 2828 2175 2409 1742 
Q 1991 1309 1228 531 
z
" transform="scale(0.015625)"/>
        <path id="DejaVuSans-30" d="M 2034 4250 
Q 1547 4250 1301 3770 
Q 1056 3291 1056 2328 
Q 1056 1369 1301 889 
Q 1547 409 2034 409 
Q 2525 409 2770 889 
Q 3016 1369 3016 2328 
Q 3016 3291 2770 3770 
Q 2525 4250 2034 4250 
z
M 2034 4750 
Q 2819 4750 3233 4129 
Q 3647 3509 3647 2328 
Q 3647 1150 3233 529 
Q 2819 -91 2034 -91 
Q 1250 -91 836 529 
Q 422 1150 422 2328 
Q 422 3509 836 4129 
Q 1250 4750 2034 4750 
z
" transform="scale(0.015625)"/>
        <path id="DejaVuSans-31" d="M 794 531 
L 1825 531 
L 1825 4091 
L 703 3866 
L 703 4441 
L 1819 4666 
L 2450 4666 
L 2450 531 
L 3481 531 
L 3481 0 
L 794 0 
L 794 531 
z
" transform="scale(0.015625)"/>
        <path id="DejaVuSans-2d" d="M 313 2009 
L 1997 2009 
L 1997 1497 
L 313 1497 
L 313 2009 
z
" transform="scale(0.015625)"/>
        <path id="DejaVuSans-39" d="M 703 97 
L 703 672 
Q 941 559 1184 500 
Q 1428 441 1663 441 
Q 2288 441 2617 861 
Q 2947 1281 2994 2138 
Q 2813 1869 2534 1725 
Q 2256 1581 1919 1581 
Q 1219 1581 811 2004 
Q 403 2428 403 3163 
Q 403 3881 828 4315 
Q 1253 4750 1959 4750 
Q 2769 4750 3195 4129 
Q 3622 3509 3622 2328 
Q 3622 1225 3098 567 
Q 2575 -91 1691 -91 
Q 1453 -91 1209 -44 
Q 966 3 703 97 
z
M 1959 2075 
Q 2384 2075 2632 2365 
Q 2881 2656 2881 3163 
Q 2881 3666 2632 3958 
Q 2384 4250 1959 4250 
Q 1534 4250 1286 3958 
Q 1038 3666 1038 3163 
Q 1038 2656 1286 2365 
Q 1534 2075 1959 2075 
z
" transform="scale(0.015625)"/>
       </defs>
       <use xlink:href="#DejaVuSans-32"/>
       <use xlink:href="#DejaVuSans-30" x="63.623047"/>
       <use xlink:href="#DejaVuSans-32" x="127.246094"/>
       <use xlink:href="#DejaVuSans-31" x="190.869141"/>
       <use xlink:href="#DejaVuSans-2d" x="254.492188"/>
       <use xlink:href="#DejaVuSans-30" x="290.576172"/>
       <use xlink:href="#DejaVuSans-39" x="354.199219"/>
      </g>
     </g>
    </g>
    <g id="xtick_2">
     <g id="line2d_3">
      <path d="M 226.649767 320.4 
L 226.649767 43.2 
" clip-path="url(#pf48a78cff2)" style="fill: none; stroke-dasharray: 5.12,1.28,0.8,1.28; stroke-dashoffset: 0; stroke: #b0b0b0; stroke-width: 0.8"/>
     </g>
     <g id="line2d_4">
      <g>
       <use xlink:href="#mebac4627f0" x="226.649767" y="320.4" style="fill: #a9a9a9; stroke: #a9a9a9; stroke-width: 0.8"/>
      </g>
     </g>
     <g id="text_2">
      <!-- 2022-01 -->
      <g style="fill: #a9a9a9" transform="translate(205.758361 334.998438) scale(0.1 -0.1)">
       <use xlink:href="#DejaVuSans-32"/>
       <use xlink:href="#DejaVuSans-30" x="63.623047"/>
       <use xlink:href="#DejaVuSans-32" x="127.246094"/>
       <use xlink:href="#DejaVuSans-32" x="190.869141"/>
       <use xlink:href="#DejaVuSans-2d" x="254.492188"/>
       <use xlink:href="#DejaVuSans-30" x="290.576172"/>
       <use xlink:href="#DejaVuSans-31" x="354.199219"/>
      </g>
     </g>
    </g>
    <g id="xtick_3">
     <g id="line2d_5">
      <path d="M 292.398887 320.4 
L 292.398887 43.2 
" clip-path="url(#pf48a78cff2)" style="fill: none; stroke-dasharray: 5.12,1.28,0.8,1.28; stroke-dashoffset: 0; stroke: #b0b0b0; stroke-width: 0.8"/>
     </g>
     <g id="line2d_6">
      <g>
       <use xlink:href="#mebac4627f0" x="292.398887" y="320.4" style="fill: #a9a9a9; stroke: #a9a9a9; stroke-width: 0.8"/>
      </g>
     </g>
     <g id="text_3">
      <!-- 2022-05 -->
      <g style="fill: #a9a9a9" transform="translate(271.507481 334.998438) scale(0.1 -0.1)">
       <defs>
        <path id="DejaVuSans-35" d="M 691 4666 
L 3169 4666 
L 3169 4134 
L 1269 4134 
L 1269 2991 
Q 1406 3038 1543 3061 
Q 1681 3084 1819 3084 
Q 2600 3084 3056 2656 
Q 3513 2228 3513 1497 
Q 3513 744 3044 326 
Q 2575 -91 1722 -91 
Q 1428 -91 1123 -41 
Q 819 9 494 109 
L 494 744 
Q 775 591 1075 516 
Q 1375 441 1709 441 
Q 2250 441 2565 725 
Q 2881 1009 2881 1497 
Q 2881 1984 2565 2268 
Q 2250 2553 1709 2553 
Q 1456 2553 1204 2497 
Q 953 2441 691 2322 
L 691 4666 
z
" transform="scale(0.015625)"/>
       </defs>
       <use xlink:href="#DejaVuSans-32"/>
       <use xlink:href="#DejaVuSans-30" x="63.623047"/>
       <use xlink:href="#DejaVuSans-32" x="127.246094"/>
       <use xlink:href="#DejaVuSans-32" x="190.869141"/>
       <use xlink:href="#DejaVuSans-2d" x="254.492188"/>
       <use xlink:href="#DejaVuSans-30" x="290.576172"/>
       <use xlink:href="#DejaVuSans-35" x="354.199219"/>
      </g>
     </g>
    </g>
    <g id="xtick_4">
     <g id="line2d_7">
      <path d="M 359.791736 320.4 
L 359.791736 43.2 
" clip-path="url(#pf48a78cff2)" style="fill: none; stroke-dasharray: 5.12,1.28,0.8,1.28; stroke-dashoffset: 0; stroke: #b0b0b0; stroke-width: 0.8"/>
     </g>
     <g id="line2d_8">
      <g>
       <use xlink:href="#mebac4627f0" x="359.791736" y="320.4" style="fill: #a9a9a9; stroke: #a9a9a9; stroke-width: 0.8"/>
      </g>
     </g>
     <g id="text_4">
      <!-- 2022-09 -->
      <g style="fill: #a9a9a9" transform="translate(338.900329 334.998438) scale(0.1 -0.1)">
       <use xlink:href="#DejaVuSans-32"/>
       <use xlink:href="#DejaVuSans-30" x="63.623047"/>
       <use xlink:href="#DejaVuSans-32" x="127.246094"/>
       <use xlink:href="#DejaVuSans-32" x="190.869141"/>
       <use xlink:href="#DejaVuSans-2d" x="254.492188"/>
       <use xlink:href="#DejaVuSans-30" x="290.576172"/>
       <use xlink:href="#DejaVuSans-39" x="354.199219"/>
      </g>
     </g>
    </g>
    <g id="xtick_5">
     <g id="line2d_9">
      <path d="M 426.636675 320.4 
L 426.636675 43.2 
" clip-path="url(#pf48a78cff2)" style="fill: none; stroke-dasharray: 5.12,1.28,0.8,1.28; stroke-dashoffset: 0; stroke: #b0b0b0; stroke-width: 0.8"/>
     </g>
     <g id="line2d_10">
      <g>
       <use xlink:href="#mebac4627f0" x="426.636675" y="320.4" style="fill: #a9a9a9; stroke: #a9a9a9; stroke-width: 0.8"/>
      </g>
     </g>
     <g id="text_5">
      <!-- 2023-01 -->
      <g style="fill: #a9a9a9" transform="translate(405.745268 334.998438) scale(0.1 -0.1)">
       <defs>
        <path id="DejaVuSans-33" d="M 2597 2516 
Q 3050 2419 3304 2112 
Q 3559 1806 3559 1356 
Q 3559 666 3084 287 
Q 2609 -91 1734 -91 
Q 1441 -91 1130 -33 
Q 819 25 488 141 
L 488 750 
Q 750 597 1062 519 
Q 1375 441 1716 441 
Q 2309 441 2620 675 
Q 2931 909 2931 1356 
Q 2931 1769 2642 2001 
Q 2353 2234 1838 2234 
L 1294 2234 
L 1294 2753 
L 1863 2753 
Q 2328 2753 2575 2939 
Q 2822 3125 2822 3475 
Q 2822 3834 2567 4026 
Q 2313 4219 1838 4219 
Q 1578 4219 1281 4162 
Q 984 4106 628 3988 
L 628 4550 
Q 988 4650 1302 4700 
Q 1616 4750 1894 4750 
Q 2613 4750 3031 4423 
Q 3450 4097 3450 3541 
Q 3450 3153 3228 2886 
Q 3006 2619 2597 2516 
z
" transform="scale(0.015625)"/>
       </defs>
       <use xlink:href="#DejaVuSans-32"/>
       <use xlink:href="#DejaVuSans-30" x="63.623047"/>
       <use xlink:href="#DejaVuSans-32" x="127.246094"/>
       <use xlink:href="#DejaVuSans-33" x="190.869141"/>
       <use xlink:href="#DejaVuSans-2d" x="254.492188"/>
       <use xlink:href="#DejaVuSans-30" x="290.576172"/>
       <use xlink:href="#DejaVuSans-31" x="354.199219"/>
      </g>
     </g>
    </g>
    <g id="xtick_6">
     <g id="line2d_11">
      <path d="M 492.385795 320.4 
L 492.385795 43.2 
" clip-path="url(#pf48a78cff2)" style="fill: none; stroke-dasharray: 5.12,1.28,0.8,1.28; stroke-dashoffset: 0; stroke: #b0b0b0; stroke-width: 0.8"/>
     </g>
     <g id="line2d_12">
      <g>
       <use xlink:href="#mebac4627f0" x="492.385795" y="320.4" style="fill: #a9a9a9; stroke: #a9a9a9; stroke-width: 0.8"/>
      </g>
     </g>
     <g id="text_6">
      <!-- 2023-05 -->
      <g style="fill: #a9a9a9" transform="translate(471.494389 334.998438) scale(0.1 -0.1)">
       <use xlink:href="#DejaVuSans-32"/>
       <use xlink:href="#DejaVuSans-30" x="63.623047"/>
       <use xlink:href="#DejaVuSans-32" x="127.246094"/>
       <use xlink:href="#DejaVuSans-33" x="190.869141"/>
       <use xlink:href="#DejaVuSans-2d" x="254.492188"/>
       <use xlink:href="#DejaVuSans-30" x="290.576172"/>
       <use xlink:href="#DejaVuSans-35" x="354.199219"/>
      </g>
     </g>
    </g>
    <g id="xtick_7">
     <g id="line2d_13">
      <path d="M 559.778643 320.4 
L 559.778643 43.2 
" clip-path="url(#pf48a78cff2)" style="fill: none; stroke-dasharray: 5.12,1.28,0.8,1.28; stroke-dashoffset: 0; stroke: #b0b0b0; stroke-width: 0.8"/>
     </g>
     <g id="line2d_14">
      <g>
       <use xlink:href="#mebac4627f0" x="559.778643" y="320.4" style="fill: #a9a9a9; stroke: #a9a9a9; stroke-width: 0.8"/>
      </g>
     </g>
     <g id="text_7">
      <!-- 2023-09 -->
      <g style="fill: #a9a9a9" transform="translate(538.887237 334.998438) scale(0.1 -0.1)">
       <use xlink:href="#DejaVuSans-32"/>
       <use xlink:href="#DejaVuSans-30" x="63.623047"/>
       <use xlink:href="#DejaVuSans-32" x="127.246094"/>
       <use xlink:href="#DejaVuSans-33" x="190.869141"/>
       <use xlink:href="#DejaVuSans-2d" x="254.492188"/>
       <use xlink:href="#DejaVuSans-30" x="290.576172"/>
       <use xlink:href="#DejaVuSans-39" x="354.199219"/>
      </g>
     </g>
    </g>
    <g id="xtick_8">
     <g id="line2d_15">
      <path d="M 626.623582 320.4 
L 626.623582 43.2 
" clip-path="url(#pf48a78cff2)" style="fill: none; stroke-dasharray: 5.12,1.28,0.8,1.28; stroke-dashoffset: 0; stroke: #b0b0b0; stroke-width: 0.8"/>
     </g>
     <g id="line2d_16">
      <g>
       <use xlink:href="#mebac4627f0" x="626.623582" y="320.4" style="fill: #a9a9a9; stroke: #a9a9a9; stroke-width: 0.8"/>
      </g>
     </g>
     <g id="text_8">
      <!-- 2024-01 -->
      <g style="fill: #a9a9a9" transform="translate(605.732176 334.998438) scale(0.1 -0.1)">
       <defs>
        <path id="DejaVuSans-34" d="M 2419 4116 
L 825 1625 
L 2419 1625 
L 2419 4116 
z
M 2253 4666 
L 3047 4666 
L 3047 1625 
L 3713 1625 
L 3713 1100 
L 3047 1100 
L 3047 0 
L 2419 0 
L 2419 1100 
L 313 1100 
L 313 1709 
L 2253 4666 
z
" transform="scale(0.015625)"/>
       </defs>
       <use xlink:href="#DejaVuSans-32"/>
       <use xlink:href="#DejaVuSans-30" x="63.623047"/>
       <use xlink:href="#DejaVuSans-32" x="127.246094"/>
       <use xlink:href="#DejaVuSans-34" x="190.869141"/>
       <use xlink:href="#DejaVuSans-2d" x="254.492188"/>
       <use xlink:href="#DejaVuSans-30" x="290.576172"/>
       <use xlink:href="#DejaVuSans-31" x="354.199219"/>
      </g>
     </g>
    </g>
    <g id="xtick_9">
     <g id="line2d_17">
      <path d="M 692.920612 320.4 
L 692.920612 43.2 
" clip-path="url(#pf48a78cff2)" style="fill: none; stroke-dasharray: 5.12,1.28,0.8,1.28; stroke-dashoffset: 0; stroke: #b0b0b0; stroke-width: 0.8"/>
     </g>
     <g id="line2d_18">
      <g>
       <use xlink:href="#mebac4627f0" x="692.920612" y="320.4" style="fill: #a9a9a9; stroke: #a9a9a9; stroke-width: 0.8"/>
      </g>
     </g>
     <g id="text_9">
      <!-- 2024-05 -->
      <g style="fill: #a9a9a9" transform="translate(672.029206 334.998438) scale(0.1 -0.1)">
       <use xlink:href="#DejaVuSans-32"/>
       <use xlink:href="#DejaVuSans-30" x="63.623047"/>
       <use xlink:href="#DejaVuSans-32" x="127.246094"/>
       <use xlink:href="#DejaVuSans-34" x="190.869141"/>
       <use xlink:href="#DejaVuSans-2d" x="254.492188"/>
       <use xlink:href="#DejaVuSans-30" x="290.576172"/>
       <use xlink:href="#DejaVuSans-35" x="354.199219"/>
      </g>
     </g>
    </g>
    <g id="xtick_10">
     <g id="line2d_19">
      <path d="M 760.31346 320.4 
L 760.31346 43.2 
" clip-path="url(#pf48a78cff2)" style="fill: none; stroke-dasharray: 5.12,1.28,0.8,1.28; stroke-dashoffset: 0; stroke: #b0b0b0; stroke-width: 0.8"/>
     </g>
     <g id="line2d_20">
      <g>
       <use xlink:href="#mebac4627f0" x="760.31346" y="320.4" style="fill: #a9a9a9; stroke: #a9a9a9; stroke-width: 0.8"/>
      </g>
     </g>
     <g id="text_10">
      <!-- 2024-09 -->
      <g style="fill: #a9a9a9" transform="translate(739.422054 334.998438) scale(0.1 -0.1)">
       <use xlink:href="#DejaVuSans-32"/>
       <use xlink:href="#DejaVuSans-30" x="63.623047"/>
       <use xlink:href="#DejaVuSans-32" x="127.246094"/>
       <use xlink:href="#DejaVuSans-34" x="190.869141"/>
       <use xlink:href="#DejaVuSans-2d" x="254.492188"/>
       <use xlink:href="#DejaVuSans-30" x="290.576172"/>
       <use xlink:href="#DejaVuSans-39" x="354.199219"/>
      </g>
     </g>
    </g>
   </g>
   <g id="matplotlib.axis_2">
    <g id="ytick_1">
     <g id="line2d_21">
      <path d="M 108 307.838997 
L 777.6 307.838997 
" clip-path="url(#pf48a78cff2)" style="fill: none; stroke-dasharray: 5.12,1.28,0.8,1.28; stroke-dashoffset: 0; stroke: #b0b0b0; stroke-width: 0.8"/>
     </g>
     <g id="line2d_22">
      <defs>
       <path id="m33eb547f42" d="M 0 0 
L -3.5 0 
" style="stroke: #a9a9a9; stroke-width: 0.8"/>
      </defs>
      <g>
       <use xlink:href="#m33eb547f42" x="108" y="307.838997" style="fill: #a9a9a9; stroke: #a9a9a9; stroke-width: 0.8"/>
      </g>
     </g>
     <g id="text_11">
      <!-- 0 -->
      <g style="fill: #a9a9a9" transform="translate(94.6375 311.638216) scale(0.1 -0.1)">
       <use xlink:href="#DejaVuSans-30"/>
      </g>
     </g>
    </g>
    <g id="ytick_2">
     <g id="line2d_23">
      <path d="M 108 276.641226 
L 777.6 276.641226 
" clip-path="url(#pf48a78cff2)" style="fill: none; stroke-dasharray: 5.12,1.28,0.8,1.28; stroke-dashoffset: 0; stroke: #b0b0b0; stroke-width: 0.8"/>
     </g>
     <g id="line2d_24">
      <g>
       <use xlink:href="#m33eb547f42" x="108" y="276.641226" style="fill: #a9a9a9; stroke: #a9a9a9; stroke-width: 0.8"/>
      </g>
     </g>
     <g id="text_12">
      <!-- 800 -->
      <g style="fill: #a9a9a9" transform="translate(81.9125 280.440444) scale(0.1 -0.1)">
       <defs>
        <path id="DejaVuSans-38" d="M 2034 2216 
Q 1584 2216 1326 1975 
Q 1069 1734 1069 1313 
Q 1069 891 1326 650 
Q 1584 409 2034 409 
Q 2484 409 2743 651 
Q 3003 894 3003 1313 
Q 3003 1734 2745 1975 
Q 2488 2216 2034 2216 
z
M 1403 2484 
Q 997 2584 770 2862 
Q 544 3141 544 3541 
Q 544 4100 942 4425 
Q 1341 4750 2034 4750 
Q 2731 4750 3128 4425 
Q 3525 4100 3525 3541 
Q 3525 3141 3298 2862 
Q 3072 2584 2669 2484 
Q 3125 2378 3379 2068 
Q 3634 1759 3634 1313 
Q 3634 634 3220 271 
Q 2806 -91 2034 -91 
Q 1263 -91 848 271 
Q 434 634 434 1313 
Q 434 1759 690 2068 
Q 947 2378 1403 2484 
z
M 1172 3481 
Q 1172 3119 1398 2916 
Q 1625 2713 2034 2713 
Q 2441 2713 2670 2916 
Q 2900 3119 2900 3481 
Q 2900 3844 2670 4047 
Q 2441 4250 2034 4250 
Q 1625 4250 1398 4047 
Q 1172 3844 1172 3481 
z
" transform="scale(0.015625)"/>
       </defs>
       <use xlink:href="#DejaVuSans-38"/>
       <use xlink:href="#DejaVuSans-30" x="63.623047"/>
       <use xlink:href="#DejaVuSans-30" x="127.246094"/>
      </g>
     </g>
    </g>
    <g id="ytick_3">
     <g id="line2d_25">
      <path d="M 108 245.443454 
L 777.6 245.443454 
" clip-path="url(#pf48a78cff2)" style="fill: none; stroke-dasharray: 5.12,1.28,0.8,1.28; stroke-dashoffset: 0; stroke: #b0b0b0; stroke-width: 0.8"/>
     </g>
     <g id="line2d_26">
      <g>
       <use xlink:href="#m33eb547f42" x="108" y="245.443454" style="fill: #a9a9a9; stroke: #a9a9a9; stroke-width: 0.8"/>
      </g>
     </g>
     <g id="text_13">
      <!-- 1600 -->
      <g style="fill: #a9a9a9" transform="translate(75.55 249.242673) scale(0.1 -0.1)">
       <defs>
        <path id="DejaVuSans-36" d="M 2113 2584 
Q 1688 2584 1439 2293 
Q 1191 2003 1191 1497 
Q 1191 994 1439 701 
Q 1688 409 2113 409 
Q 2538 409 2786 701 
Q 3034 994 3034 1497 
Q 3034 2003 2786 2293 
Q 2538 2584 2113 2584 
z
M 3366 4563 
L 3366 3988 
Q 3128 4100 2886 4159 
Q 2644 4219 2406 4219 
Q 1781 4219 1451 3797 
Q 1122 3375 1075 2522 
Q 1259 2794 1537 2939 
Q 1816 3084 2150 3084 
Q 2853 3084 3261 2657 
Q 3669 2231 3669 1497 
Q 3669 778 3244 343 
Q 2819 -91 2113 -91 
Q 1303 -91 875 529 
Q 447 1150 447 2328 
Q 447 3434 972 4092 
Q 1497 4750 2381 4750 
Q 2619 4750 2861 4703 
Q 3103 4656 3366 4563 
z
" transform="scale(0.015625)"/>
       </defs>
       <use xlink:href="#DejaVuSans-31"/>
       <use xlink:href="#DejaVuSans-36" x="63.623047"/>
       <use xlink:href="#DejaVuSans-30" x="127.246094"/>
       <use xlink:href="#DejaVuSans-30" x="190.869141"/>
      </g>
     </g>
    </g>
    <g id="ytick_4">
     <g id="line2d_27">
      <path d="M 108 214.245682 
L 777.6 214.245682 
" clip-path="url(#pf48a78cff2)" style="fill: none; stroke-dasharray: 5.12,1.28,0.8,1.28; stroke-dashoffset: 0; stroke: #b0b0b0; stroke-width: 0.8"/>
     </g>
     <g id="line2d_28">
      <g>
       <use xlink:href="#m33eb547f42" x="108" y="214.245682" style="fill: #a9a9a9; stroke: #a9a9a9; stroke-width: 0.8"/>
      </g>
     </g>
     <g id="text_14">
      <!-- 2400 -->
      <g style="fill: #a9a9a9" transform="translate(75.55 218.044901) scale(0.1 -0.1)">
       <use xlink:href="#DejaVuSans-32"/>
       <use xlink:href="#DejaVuSans-34" x="63.623047"/>
       <use xlink:href="#DejaVuSans-30" x="127.246094"/>
       <use xlink:href="#DejaVuSans-30" x="190.869141"/>
      </g>
     </g>
    </g>
    <g id="ytick_5">
     <g id="line2d_29">
      <path d="M 108 183.047911 
L 777.6 183.047911 
" clip-path="url(#pf48a78cff2)" style="fill: none; stroke-dasharray: 5.12,1.28,0.8,1.28; stroke-dashoffset: 0; stroke: #b0b0b0; stroke-width: 0.8"/>
     </g>
     <g id="line2d_30">
      <g>
       <use xlink:href="#m33eb547f42" x="108" y="183.047911" style="fill: #a9a9a9; stroke: #a9a9a9; stroke-width: 0.8"/>
      </g>
     </g>
     <g id="text_15">
      <!-- 3200 -->
      <g style="fill: #a9a9a9" transform="translate(75.55 186.84713) scale(0.1 -0.1)">
       <use xlink:href="#DejaVuSans-33"/>
       <use xlink:href="#DejaVuSans-32" x="63.623047"/>
       <use xlink:href="#DejaVuSans-30" x="127.246094"/>
       <use xlink:href="#DejaVuSans-30" x="190.869141"/>
      </g>
     </g>
    </g>
    <g id="ytick_6">
     <g id="line2d_31">
      <path d="M 108 151.850139 
L 777.6 151.850139 
" clip-path="url(#pf48a78cff2)" style="fill: none; stroke-dasharray: 5.12,1.28,0.8,1.28; stroke-dashoffset: 0; stroke: #b0b0b0; stroke-width: 0.8"/>
     </g>
     <g id="line2d_32">
      <g>
       <use xlink:href="#m33eb547f42" x="108" y="151.850139" style="fill: #a9a9a9; stroke: #a9a9a9; stroke-width: 0.8"/>
      </g>
     </g>
     <g id="text_16">
      <!-- 4000 -->
      <g style="fill: #a9a9a9" transform="translate(75.55 155.649358) scale(0.1 -0.1)">
       <use xlink:href="#DejaVuSans-34"/>
       <use xlink:href="#DejaVuSans-30" x="63.623047"/>
       <use xlink:href="#DejaVuSans-30" x="127.246094"/>
       <use xlink:href="#DejaVuSans-30" x="190.869141"/>
      </g>
     </g>
    </g>
    <g id="ytick_7">
     <g id="line2d_33">
      <path d="M 108 120.652368 
L 777.6 120.652368 
" clip-path="url(#pf48a78cff2)" style="fill: none; stroke-dasharray: 5.12,1.28,0.8,1.28; stroke-dashoffset: 0; stroke: #b0b0b0; stroke-width: 0.8"/>
     </g>
     <g id="line2d_34">
      <g>
       <use xlink:href="#m33eb547f42" x="108" y="120.652368" style="fill: #a9a9a9; stroke: #a9a9a9; stroke-width: 0.8"/>
      </g>
     </g>
     <g id="text_17">
      <!-- 4800 -->
      <g style="fill: #a9a9a9" transform="translate(75.55 124.451586) scale(0.1 -0.1)">
       <use xlink:href="#DejaVuSans-34"/>
       <use xlink:href="#DejaVuSans-38" x="63.623047"/>
       <use xlink:href="#DejaVuSans-30" x="127.246094"/>
       <use xlink:href="#DejaVuSans-30" x="190.869141"/>
      </g>
     </g>
    </g>
    <g id="ytick_8">
     <g id="line2d_35">
      <path d="M 108 89.454596 
L 777.6 89.454596 
" clip-path="url(#pf48a78cff2)" style="fill: none; stroke-dasharray: 5.12,1.28,0.8,1.28; stroke-dashoffset: 0; stroke: #b0b0b0; stroke-width: 0.8"/>
     </g>
     <g id="line2d_36">
      <g>
       <use xlink:href="#m33eb547f42" x="108" y="89.454596" style="fill: #a9a9a9; stroke: #a9a9a9; stroke-width: 0.8"/>
      </g>
     </g>
     <g id="text_18">
      <!-- 5600 -->
      <g style="fill: #a9a9a9" transform="translate(75.55 93.253815) scale(0.1 -0.1)">
       <use xlink:href="#DejaVuSans-35"/>
       <use xlink:href="#DejaVuSans-36" x="63.623047"/>
       <use xlink:href="#DejaVuSans-30" x="127.246094"/>
       <use xlink:href="#DejaVuSans-30" x="190.869141"/>
      </g>
     </g>
    </g>
    <g id="ytick_9">
     <g id="line2d_37">
      <path d="M 108 58.256825 
L 777.6 58.256825 
" clip-path="url(#pf48a78cff2)" style="fill: none; stroke-dasharray: 5.12,1.28,0.8,1.28; stroke-dashoffset: 0; stroke: #b0b0b0; stroke-width: 0.8"/>
     </g>
     <g id="line2d_38">
      <g>
       <use xlink:href="#m33eb547f42" x="108" y="58.256825" style="fill: #a9a9a9; stroke: #a9a9a9; stroke-width: 0.8"/>
      </g>
     </g>
     <g id="text_19">
      <!-- 6400 -->
      <g style="fill: #a9a9a9" transform="translate(75.55 62.056043) scale(0.1 -0.1)">
       <use xlink:href="#DejaVuSans-36"/>
       <use xlink:href="#DejaVuSans-34" x="63.623047"/>
       <use xlink:href="#DejaVuSans-30" x="127.246094"/>
       <use xlink:href="#DejaVuSans-30" x="190.869141"/>
      </g>
     </g>
    </g>
   </g>
   <g id="line2d_39">
    <path d="M 138.436364 307.722006 
L 141.72382 307.449025 
L 142.271729 307.215042 
L 143.915457 307.059053 
L 147.202913 306.3961 
L 150.490369 306.12312 
L 151.586188 305.69415 
L 152.134097 304.992201 
L 152.682006 304.602228 
L 153.229916 303.393315 
L 153.777825 303.31532 
L 154.325734 302.886351 
L 155.421553 302.34039 
L 157.61319 300.624513 
L 159.804828 299.571588 
L 161.448556 298.830641 
L 161.996465 297.972702 
L 163.092284 297.192758 
L 163.640193 296.958774 
L 169.119286 296.17883 
L 169.667196 295.90585 
L 173.502561 295.593872 
L 175.146289 295.164903 
L 180.077473 294.50195 
L 180.625383 294.189972 
L 181.173292 294.111978 
L 182.269111 293.761003 
L 186.104476 293.137047 
L 187.200295 292.82507 
L 188.844023 292.669081 
L 189.939841 292.552089 
L 190.487751 292.3961 
L 191.03566 292.357103 
L 192.679388 291.850139 
L 193.775207 291.772145 
L 194.871025 291.616156 
L 195.966844 291.382173 
L 196.514753 291.226184 
L 197.062663 290.485237 
L 198.706391 289.861281 
L 200.350119 289.432312 
L 200.898028 289.159331 
L 201.445937 289.120334 
L 204.185484 288.34039 
L 205.281303 288.262396 
L 205.829212 288.184401 
L 207.47294 287.677437 
L 209.664577 287.131476 
L 210.212487 286.897493 
L 210.760396 286.819499 
L 211.308305 286.546518 
L 216.787399 285.727577 
L 219.526945 284.947632 
L 220.074855 284.596657 
L 222.266492 284.011699 
L 224.458129 282.88078 
L 226.101857 282.490808 
L 226.649767 282.412813 
L 227.197676 282.139833 
L 228.293495 281.944847 
L 229.389313 281.437883 
L 232.12886 280.735933 
L 233.772588 280.306964 
L 235.416316 279.722006 
L 235.964226 279.644011 
L 237.060044 279.215042 
L 238.155863 279.137047 
L 239.799591 278.669081 
L 240.3475 278.669081 
L 240.89541 278.435097 
L 241.991228 278.318106 
L 242.539138 278.12312 
L 243.634956 278.084123 
L 245.826594 277.811142 
L 246.922412 277.265181 
L 253.497324 274.34039 
L 254.045234 273.755432 
L 255.141052 272.117549 
L 255.688962 271.96156 
L 256.236871 271.96156 
L 257.33269 271.142618 
L 257.880599 270.98663 
L 258.428508 270.713649 
L 258.976418 270.596657 
L 259.524327 270.089694 
L 260.072236 269.933705 
L 261.715964 269.15376 
L 262.811783 267.593872 
L 263.359692 267.242897 
L 263.907602 266.306964 
L 264.455511 265.722006 
L 267.742967 264.006128 
L 268.838786 263.148189 
L 269.386695 262.797214 
L 269.934604 261.978273 
L 270.482514 260.769359 
L 271.030423 259.950418 
L 271.578332 259.521448 
L 272.126242 259.287465 
L 274.317879 257.376602 
L 275.413698 256.479666 
L 275.961607 256.011699 
L 276.509516 255.270752 
L 277.605335 254.295822 
L 279.796972 252.852925 
L 280.344882 252.384958 
L 280.892791 252.267967 
L 281.98861 251.683008 
L 284.180247 250.552089 
L 285.276066 249.499164 
L 285.823975 248.836212 
L 286.919794 248.056267 
L 287.467703 247.900279 
L 288.015612 247.627298 
L 289.111431 246.886351 
L 289.65934 246.574373 
L 290.20725 246.496379 
L 294.042615 244.117549 
L 296.234253 242.947632 
L 296.782162 242.440669 
L 305.548711 239.398886 
L 306.64453 238.423955 
L 308.288258 237.644011 
L 309.384077 236.981058 
L 310.479895 236.669081 
L 311.027805 236.318106 
L 311.575714 236.162117 
L 313.219442 235.109192 
L 315.958989 234.44624 
L 317.602717 233.510306 
L 318.150626 233.432312 
L 319.246445 233.159331 
L 319.794354 233.003343 
L 321.438082 231.755432 
L 323.08181 231.36546 
L 323.629719 231.170474 
L 324.177629 230.741504 
L 327.465085 229.649582 
L 328.012994 229.610585 
L 328.560903 229.454596 
L 329.656722 228.98663 
L 333.492087 227.621727 
L 334.587906 227.465738 
L 335.135815 227.309749 
L 335.683725 227.036769 
L 336.231634 226.919777 
L 338.971181 225.632869 
L 341.162818 224.462953 
L 345.546093 222.708078 
L 346.094002 222.630084 
L 347.189821 221.967131 
L 347.73773 221.889136 
L 349.929367 220.992201 
L 352.121005 220.641226 
L 353.216824 220.095265 
L 353.764733 219.627298 
L 354.312642 218.652368 
L 355.95637 218.34039 
L 360.339645 216.273538 
L 363.627101 214.908635 
L 364.72292 214.674652 
L 365.818738 214.128691 
L 366.366648 213.894708 
L 366.914557 213.816713 
L 369.106194 212.841783 
L 370.749922 211.827855 
L 371.297832 211.749861 
L 371.845741 211.554875 
L 372.39365 211.515877 
L 374.585288 210.891922 
L 375.133197 210.852925 
L 375.681106 210.423955 
L 376.776925 210.033983 
L 379.516472 208.981058 
L 380.064381 208.591086 
L 380.61229 208.3961 
L 381.708109 207.811142 
L 383.899746 207.187187 
L 384.447656 206.914206 
L 386.091384 205.627298 
L 386.639293 205.510306 
L 387.735112 204.652368 
L 388.283021 204.574373 
L 388.83093 203.716435 
L 389.37884 203.482451 
L 389.926749 203.053482 
L 390.474658 202.975487 
L 391.570477 202.312535 
L 392.118386 202.195543 
L 392.666296 201.96156 
L 393.214205 201.532591 
L 393.762114 201.337604 
L 395.405842 200.206685 
L 397.59748 199.075766 
L 398.145389 198.997772 
L 399.789117 198.17883 
L 400.337026 197.281894 
L 400.884936 196.813928 
L 401.432845 196.50195 
L 401.980754 196.384958 
L 403.076573 195.683008 
L 403.624482 195.566017 
L 404.720301 195.020056 
L 406.364029 194.318106 
L 407.459848 193.538162 
L 409.103576 192.01727 
L 410.199394 191.393315 
L 410.747304 190.808357 
L 412.938941 189.326462 
L 413.486851 188.702507 
L 414.03476 188.273538 
L 415.130579 187.883565 
L 416.226397 187.142618 
L 417.870125 186.323677 
L 418.418035 186.245682 
L 420.061763 185.348747 
L 421.157581 184.685794 
L 426.636675 182.735933 
L 427.184584 182.306964 
L 429.376221 181.488022 
L 429.924131 181.332033 
L 430.47204 180.903064 
L 433.211587 179.42117 
L 434.307405 177.237326 
L 435.403224 175.989415 
L 436.499043 175.326462 
L 438.142771 174.66351 
L 438.69068 174.585515 
L 439.238589 174.273538 
L 441.978136 173.415599 
L 442.526045 173.181616 
L 443.621864 172.440669 
L 445.265592 171.738719 
L 446.361411 171.15376 
L 446.90932 170.763788 
L 447.457229 170.529805 
L 448.005139 170.139833 
L 448.553048 169.554875 
L 449.648867 168.969916 
L 452.388413 167.527019 
L 455.675869 165.928134 
L 456.223779 165.811142 
L 457.867507 165.226184 
L 458.415416 165.070195 
L 460.607053 164.095265 
L 461.702872 163.666295 
L 462.250781 163.237326 
L 463.3466 162.886351 
L 466.634056 161.209471 
L 467.729875 160.351532 
L 468.825693 159.96156 
L 469.373603 159.493593 
L 469.921512 159.415599 
L 471.017331 158.596657 
L 472.113149 158.050696 
L 472.661059 157.816713 
L 473.208968 157.270752 
L 477.044334 155.788858 
L 478.140152 155.320891 
L 479.78388 154.813928 
L 480.879699 154.657939 
L 481.427608 154.423955 
L 481.975518 154.345961 
L 483.071336 153.877994 
L 483.619246 153.838997 
L 485.810883 153.020056 
L 487.454611 151.889136 
L 490.194158 150.602228 
L 492.933704 149.120334 
L 493.481614 149.003343 
L 495.125342 148.067409 
L 496.76907 147.521448 
L 497.864888 147.170474 
L 500.056526 146.468524 
L 501.152344 146.117549 
L 502.796072 145.844568 
L 504.98771 145.142618 
L 505.535619 144.908635 
L 506.083528 144.830641 
L 506.631438 144.55766 
L 507.727256 144.323677 
L 509.370984 143.738719 
L 510.466803 143.621727 
L 511.562622 143.348747 
L 513.20635 143.075766 
L 513.754259 142.919777 
L 514.850078 142.802786 
L 517.589624 142.100836 
L 518.685443 141.827855 
L 519.233352 141.515877 
L 521.972899 140.813928 
L 522.520808 140.696936 
L 524.712446 139.877994 
L 527.451992 139.059053 
L 527.999902 139.059053 
L 529.09572 138.669081 
L 529.64363 138.12312 
L 530.739448 137.69415 
L 534.026905 136.524234 
L 534.574814 136.173259 
L 535.122723 136.056267 
L 535.670633 135.74429 
L 536.766451 135.549304 
L 537.86227 135.120334 
L 538.410179 135.003343 
L 538.958089 134.652368 
L 539.505998 134.535376 
L 540.053907 134.067409 
L 541.697635 133.755432 
L 542.793454 133.248468 
L 543.341363 132.624513 
L 544.437182 132.390529 
L 549.368366 131.337604 
L 549.916275 131.337604 
L 550.464185 131.103621 
L 552.655822 130.713649 
L 553.203731 130.479666 
L 555.395369 130.089694 
L 556.491187 129.621727 
L 557.039097 129.58273 
L 558.682825 129.192758 
L 560.326553 128.763788 
L 562.51819 128.100836 
L 563.066099 127.983844 
L 563.614009 127.710864 
L 564.161918 127.632869 
L 566.901465 126.579944 
L 567.449374 126.189972 
L 568.545193 125.877994 
L 569.641011 125.527019 
L 570.73683 125.059053 
L 572.380558 124.318106 
L 574.024286 124.201114 
L 576.215923 123.577159 
L 576.763833 123.226184 
L 577.859651 122.914206 
L 580.599198 121.705292 
L 581.147107 121.666295 
L 587.17411 119.599443 
L 589.365747 119.053482 
L 589.913657 118.897493 
L 591.009475 118.390529 
L 592.105294 118.156546 
L 592.653204 118.039554 
L 593.201113 117.610585 
L 593.749022 117.337604 
L 594.296932 116.674652 
L 594.844841 116.28468 
L 595.94066 115.972702 
L 596.488569 115.543733 
L 600.871844 113.749861 
L 601.419753 113.593872 
L 601.967662 113.242897 
L 604.1593 112.579944 
L 605.255118 112.033983 
L 606.350937 111.410028 
L 606.898846 111.293036 
L 607.994665 110.630084 
L 608.542574 110.3961 
L 609.638393 109.733148 
L 611.282121 108.953203 
L 611.83003 108.563231 
L 612.925849 108.212256 
L 614.021668 107.549304 
L 614.569577 107.354318 
L 615.117486 106.964345 
L 622.240308 104.507521 
L 622.788217 104.390529 
L 623.336126 104.039554 
L 623.884036 103.96156 
L 624.979854 103.688579 
L 626.075673 103.454596 
L 629.911038 101.58273 
L 630.458948 101.504735 
L 632.102676 100.607799 
L 635.390132 99.320891 
L 637.581769 98.462953 
L 638.129678 98.306964 
L 638.677588 97.955989 
L 639.773406 97.8 
L 640.321316 97.449025 
L 640.869225 97.410028 
L 641.965044 97.059053 
L 643.060862 96.513092 
L 643.608772 96.435097 
L 646.348318 95.343175 
L 646.896228 95.226184 
L 647.992046 94.875209 
L 649.087865 94.602228 
L 650.183684 94.329248 
L 651.827412 93.705292 
L 654.019049 92.496379 
L 655.114868 92.067409 
L 655.662777 91.716435 
L 656.758596 91.482451 
L 657.306505 91.170474 
L 657.854415 91.053482 
L 659.498143 90.195543 
L 660.046052 90.039554 
L 662.237689 89.025627 
L 663.881417 88.596657 
L 667.168873 87.309749 
L 668.812601 86.763788 
L 677.579151 83.137047 
L 679.770788 82.279109 
L 681.414516 81.382173 
L 681.962425 81.265181 
L 683.058244 80.836212 
L 683.606153 80.836212 
L 684.701972 80.368245 
L 685.797791 79.393315 
L 686.3457 78.925348 
L 687.989428 78.145404 
L 688.537337 78.028412 
L 689.085247 77.755432 
L 689.633156 77.677437 
L 690.181065 77.287465 
L 690.728975 77.170474 
L 691.824793 76.507521 
L 693.468521 75.688579 
L 694.016431 75.532591 
L 695.112249 74.98663 
L 696.755977 74.596657 
L 699.495524 73.699721 
L 700.043433 73.58273 
L 702.235071 72.529805 
L 703.330889 72.022841 
L 704.426708 71.749861 
L 708.262073 69.955989 
L 711.00162 68.981058 
L 712.645348 68.006128 
L 713.193258 67.889136 
L 714.289076 67.343175 
L 715.384895 66.953203 
L 715.932804 66.485237 
L 716.480714 66.173259 
L 718.124442 65.666295 
L 719.22026 64.925348 
L 719.76817 64.886351 
L 720.863988 64.574373 
L 721.411898 64.457382 
L 723.603535 63.63844 
L 725.247263 63.131476 
L 725.795172 63.053482 
L 726.890991 62.468524 
L 727.4389 62.273538 
L 727.98681 61.844568 
L 729.630538 61.415599 
L 730.178447 61.064624 
L 731.274266 60.791643 
L 732.917994 59.894708 
L 733.465903 59.85571 
L 735.109631 59.348747 
L 736.20545 59.231755 
L 737.301268 58.802786 
L 737.849178 58.646797 
L 738.397087 58.373816 
L 742.232452 57.554875 
L 743.87618 56.969916 
L 744.42409 56.891922 
L 747.163636 55.8 
L 747.163636 55.8 
" clip-path="url(#pf48a78cff2)" style="fill: none; stroke: #1f77b4; stroke-width: 1.5; stroke-linecap: square"/>
   </g>
   <g id="line2d_40">
    <path d="M 138.984273 307.8 
L 140.628001 307.722006 
L 142.271729 307.683008 
L 145.559185 307.605014 
L 148.298732 307.488022 
L 150.490369 307.488022 
L 151.038278 307.332033 
L 153.229916 307.254039 
L 154.873644 307.059053 
L 156.517372 306.903064 
L 159.804828 306.747075 
L 160.352737 306.747075 
L 160.900646 306.630084 
L 163.092284 306.552089 
L 164.188102 306.474095 
L 168.571377 306.3961 
L 171.310924 306.279109 
L 177.885836 306.201114 
L 180.625383 306.084123 
L 183.912839 306.006128 
L 186.104476 305.928134 
L 191.03566 305.850139 
L 192.679388 305.811142 
L 194.323116 305.772145 
L 195.966844 305.577159 
L 199.2543 305.538162 
L 200.350119 305.460167 
L 204.185484 305.382173 
L 210.212487 305.031198 
L 214.047852 304.953203 
L 215.143671 304.875209 
L 216.787399 304.797214 
L 220.074855 304.641226 
L 222.266492 304.602228 
L 223.91022 304.44624 
L 231.033041 304.01727 
L 233.772588 303.939276 
L 238.703772 303.666295 
L 240.3475 303.588301 
L 245.826594 303.276323 
L 251.853596 303.198329 
L 254.045234 302.964345 
L 255.141052 302.886351 
L 262.263874 302.301393 
L 265.55133 301.872423 
L 267.742967 301.794429 
L 272.126242 301.209471 
L 275.413698 301.131476 
L 277.057426 300.975487 
L 278.153244 300.93649 
L 279.249063 300.819499 
L 280.892791 300.741504 
L 281.98861 300.585515 
L 284.728156 300.273538 
L 286.919794 300.195543 
L 288.015612 300.117549 
L 290.20725 300.039554 
L 291.303068 299.96156 
L 294.042615 299.688579 
L 294.590525 299.532591 
L 297.877981 299.376602 
L 300.617527 299.298607 
L 307.740349 298.869638 
L 309.384077 298.791643 
L 316.506898 298.362674 
L 320.342263 298.28468 
L 320.890173 298.167688 
L 325.273447 298.089694 
L 329.108813 297.894708 
L 335.135815 297.816713 
L 338.971181 297.621727 
L 343.354455 297.543733 
L 347.73773 297.309749 
L 351.573095 297.231755 
L 361.983373 296.568802 
L 367.462466 296.490808 
L 369.654104 296.256825 
L 371.297832 296.217827 
L 372.94156 296.17883 
L 375.133197 295.944847 
L 380.61229 295.632869 
L 383.899746 295.554875 
L 385.543474 295.515877 
L 387.187202 295.47688 
L 388.83093 295.320891 
L 393.214205 295.242897 
L 394.310024 295.086908 
L 395.405842 295.008914 
L 398.145389 294.891922 
L 399.241208 294.813928 
L 400.337026 294.735933 
L 405.26821 294.657939 
L 406.364029 294.540947 
L 408.555666 294.50195 
L 409.103576 294.384958 
L 410.199394 294.306964 
L 410.747304 294.189972 
L 412.391032 294.111978 
L 417.322216 293.838997 
L 418.418035 293.8 
L 420.061763 293.644011 
L 421.705491 293.605014 
L 423.349219 293.527019 
L 426.088765 293.410028 
L 433.759496 293.332033 
L 437.594861 293.137047 
L 441.978136 293.059053 
L 444.169773 292.981058 
L 446.361411 292.942061 
L 447.457229 292.82507 
L 449.648867 292.747075 
L 455.12796 292.435097 
L 458.415416 292.3961 
L 460.059144 292.240111 
L 461.702872 292.201114 
L 465.538237 292.12312 
L 467.729875 292.045125 
L 474.304787 291.967131 
L 477.044334 291.850139 
L 480.33179 291.772145 
L 481.975518 291.577159 
L 485.262974 291.538162 
L 486.906702 291.382173 
L 489.098339 291.304178 
L 495.673251 291.226184 
L 498.412798 291.109192 
L 507.727256 291.070195 
L 508.823075 290.992201 
L 510.466803 290.953203 
L 517.589624 290.875209 
L 518.685443 290.797214 
L 524.712446 290.71922 
L 526.904083 290.641226 
L 533.478995 290.602228 
L 534.574814 290.524234 
L 542.793454 290.485237 
L 544.437182 290.329248 
L 558.134915 290.251253 
L 559.778643 290.212256 
L 574.572195 290.134262 
L 576.215923 290.095265 
L 586.078291 290.01727 
L 587.17411 289.939276 
L 589.913657 289.861281 
L 591.557385 289.705292 
L 594.296932 289.627298 
L 596.488569 289.549304 
L 599.776025 289.471309 
L 601.419753 289.432312 
L 603.61139 289.354318 
L 605.255118 289.31532 
L 607.994665 289.237326 
L 609.090484 289.159331 
L 612.37794 289.081337 
L 615.117486 288.964345 
L 616.213305 288.925348 
L 617.309124 288.847354 
L 618.952852 288.808357 
L 621.144489 288.730362 
L 623.336126 288.652368 
L 630.458948 288.574373 
L 632.650585 288.496379 
L 637.03386 288.418384 
L 640.869225 288.223398 
L 645.800409 288.145404 
L 646.896228 288.067409 
L 656.758596 287.989415 
L 658.402324 287.950418 
L 661.141871 287.911421 
L 663.333508 287.677437 
L 664.977236 287.63844 
L 668.264692 287.560446 
L 673.743785 287.248468 
L 676.483332 287.170474 
L 678.674969 287.092479 
L 684.701972 287.014485 
L 687.441519 286.702507 
L 689.633156 286.624513 
L 693.468521 286.546518 
L 694.016431 286.429526 
L 698.947615 286.351532 
L 701.687161 286.23454 
L 708.809983 286.195543 
L 709.357892 286.078552 
L 713.741167 286.000557 
L 715.384895 285.96156 
L 718.124442 285.883565 
L 719.76817 285.844568 
L 729.082628 285.766574 
L 731.822175 285.649582 
L 739.492906 285.571588 
L 741.684543 285.493593 
L 747.163636 285.415599 
L 747.163636 285.415599 
" clip-path="url(#pf48a78cff2)" style="fill: none; stroke: #ff7f0e; stroke-width: 1.5; stroke-linecap: square"/>
   </g>
   <g id="patch_3">
    <path d="M 108 320.4 
L 108 43.2 
" style="fill: none; stroke: #a9a9a9; stroke-width: 0.8; stroke-linejoin: miter; stroke-linecap: square"/>
   </g>
   <g id="patch_4">
    <path d="M 777.6 320.4 
L 777.6 43.2 
" style="fill: none"/>
   </g>
   <g id="patch_5">
    <path d="M 108 320.4 
L 777.6 320.4 
" style="fill: none; stroke: #a9a9a9; stroke-width: 0.8; stroke-linejoin: miter; stroke-linecap: square"/>
   </g>
   <g id="patch_6">
    <path d="M 108 43.2 
L 777.6 43.2 
" style="fill: none"/>
   </g>
   <g id="text_20">
    <!-- get_subscribe history -->
    <g style="fill: #a9a9a9" transform="translate(378.6075 37.2) scale(0.12 -0.12)">
     <defs>
      <path id="DejaVuSans-67" d="M 2906 1791 
Q 2906 2416 2648 2759 
Q 2391 3103 1925 3103 
Q 1463 3103 1205 2759 
Q 947 2416 947 1791 
Q 947 1169 1205 825 
Q 1463 481 1925 481 
Q 2391 481 2648 825 
Q 2906 1169 2906 1791 
z
M 3481 434 
Q 3481 -459 3084 -895 
Q 2688 -1331 1869 -1331 
Q 1566 -1331 1297 -1286 
Q 1028 -1241 775 -1147 
L 775 -588 
Q 1028 -725 1275 -790 
Q 1522 -856 1778 -856 
Q 2344 -856 2625 -561 
Q 2906 -266 2906 331 
L 2906 616 
Q 2728 306 2450 153 
Q 2172 0 1784 0 
Q 1141 0 747 490 
Q 353 981 353 1791 
Q 353 2603 747 3093 
Q 1141 3584 1784 3584 
Q 2172 3584 2450 3431 
Q 2728 3278 2906 2969 
L 2906 3500 
L 3481 3500 
L 3481 434 
z
" transform="scale(0.015625)"/>
      <path id="DejaVuSans-65" d="M 3597 1894 
L 3597 1613 
L 953 1613 
Q 991 1019 1311 708 
Q 1631 397 2203 397 
Q 2534 397 2845 478 
Q 3156 559 3463 722 
L 3463 178 
Q 3153 47 2828 -22 
Q 2503 -91 2169 -91 
Q 1331 -91 842 396 
Q 353 884 353 1716 
Q 353 2575 817 3079 
Q 1281 3584 2069 3584 
Q 2775 3584 3186 3129 
Q 3597 2675 3597 1894 
z
M 3022 2063 
Q 3016 2534 2758 2815 
Q 2500 3097 2075 3097 
Q 1594 3097 1305 2825 
Q 1016 2553 972 2059 
L 3022 2063 
z
" transform="scale(0.015625)"/>
      <path id="DejaVuSans-74" d="M 1172 4494 
L 1172 3500 
L 2356 3500 
L 2356 3053 
L 1172 3053 
L 1172 1153 
Q 1172 725 1289 603 
Q 1406 481 1766 481 
L 2356 481 
L 2356 0 
L 1766 0 
Q 1100 0 847 248 
Q 594 497 594 1153 
L 594 3053 
L 172 3053 
L 172 3500 
L 594 3500 
L 594 4494 
L 1172 4494 
z
" transform="scale(0.015625)"/>
      <path id="DejaVuSans-5f" d="M 3263 -1063 
L 3263 -1509 
L -63 -1509 
L -63 -1063 
L 3263 -1063 
z
" transform="scale(0.015625)"/>
      <path id="DejaVuSans-73" d="M 2834 3397 
L 2834 2853 
Q 2591 2978 2328 3040 
Q 2066 3103 1784 3103 
Q 1356 3103 1142 2972 
Q 928 2841 928 2578 
Q 928 2378 1081 2264 
Q 1234 2150 1697 2047 
L 1894 2003 
Q 2506 1872 2764 1633 
Q 3022 1394 3022 966 
Q 3022 478 2636 193 
Q 2250 -91 1575 -91 
Q 1294 -91 989 -36 
Q 684 19 347 128 
L 347 722 
Q 666 556 975 473 
Q 1284 391 1588 391 
Q 1994 391 2212 530 
Q 2431 669 2431 922 
Q 2431 1156 2273 1281 
Q 2116 1406 1581 1522 
L 1381 1569 
Q 847 1681 609 1914 
Q 372 2147 372 2553 
Q 372 3047 722 3315 
Q 1072 3584 1716 3584 
Q 2034 3584 2315 3537 
Q 2597 3491 2834 3397 
z
" transform="scale(0.015625)"/>
      <path id="DejaVuSans-75" d="M 544 1381 
L 544 3500 
L 1119 3500 
L 1119 1403 
Q 1119 906 1312 657 
Q 1506 409 1894 409 
Q 2359 409 2629 706 
Q 2900 1003 2900 1516 
L 2900 3500 
L 3475 3500 
L 3475 0 
L 2900 0 
L 2900 538 
Q 2691 219 2414 64 
Q 2138 -91 1772 -91 
Q 1169 -91 856 284 
Q 544 659 544 1381 
z
M 1991 3584 
L 1991 3584 
z
" transform="scale(0.015625)"/>
      <path id="DejaVuSans-62" d="M 3116 1747 
Q 3116 2381 2855 2742 
Q 2594 3103 2138 3103 
Q 1681 3103 1420 2742 
Q 1159 2381 1159 1747 
Q 1159 1113 1420 752 
Q 1681 391 2138 391 
Q 2594 391 2855 752 
Q 3116 1113 3116 1747 
z
M 1159 2969 
Q 1341 3281 1617 3432 
Q 1894 3584 2278 3584 
Q 2916 3584 3314 3078 
Q 3713 2572 3713 1747 
Q 3713 922 3314 415 
Q 2916 -91 2278 -91 
Q 1894 -91 1617 61 
Q 1341 213 1159 525 
L 1159 0 
L 581 0 
L 581 4863 
L 1159 4863 
L 1159 2969 
z
" transform="scale(0.015625)"/>
      <path id="DejaVuSans-63" d="M 3122 3366 
L 3122 2828 
Q 2878 2963 2633 3030 
Q 2388 3097 2138 3097 
Q 1578 3097 1268 2742 
Q 959 2388 959 1747 
Q 959 1106 1268 751 
Q 1578 397 2138 397 
Q 2388 397 2633 464 
Q 2878 531 3122 666 
L 3122 134 
Q 2881 22 2623 -34 
Q 2366 -91 2075 -91 
Q 1284 -91 818 406 
Q 353 903 353 1747 
Q 353 2603 823 3093 
Q 1294 3584 2113 3584 
Q 2378 3584 2631 3529 
Q 2884 3475 3122 3366 
z
" transform="scale(0.015625)"/>
      <path id="DejaVuSans-72" d="M 2631 2963 
Q 2534 3019 2420 3045 
Q 2306 3072 2169 3072 
Q 1681 3072 1420 2755 
Q 1159 2438 1159 1844 
L 1159 0 
L 581 0 
L 581 3500 
L 1159 3500 
L 1159 2956 
Q 1341 3275 1631 3429 
Q 1922 3584 2338 3584 
Q 2397 3584 2469 3576 
Q 2541 3569 2628 3553 
L 2631 2963 
z
" transform="scale(0.015625)"/>
      <path id="DejaVuSans-69" d="M 603 3500 
L 1178 3500 
L 1178 0 
L 603 0 
L 603 3500 
z
M 603 4863 
L 1178 4863 
L 1178 4134 
L 603 4134 
L 603 4863 
z
" transform="scale(0.015625)"/>
      <path id="DejaVuSans-20" transform="scale(0.015625)"/>
      <path id="DejaVuSans-68" d="M 3513 2113 
L 3513 0 
L 2938 0 
L 2938 2094 
Q 2938 2591 2744 2837 
Q 2550 3084 2163 3084 
Q 1697 3084 1428 2787 
Q 1159 2491 1159 1978 
L 1159 0 
L 581 0 
L 581 4863 
L 1159 4863 
L 1159 2956 
Q 1366 3272 1645 3428 
Q 1925 3584 2291 3584 
Q 2894 3584 3203 3211 
Q 3513 2838 3513 2113 
z
" transform="scale(0.015625)"/>
      <path id="DejaVuSans-6f" d="M 1959 3097 
Q 1497 3097 1228 2736 
Q 959 2375 959 1747 
Q 959 1119 1226 758 
Q 1494 397 1959 397 
Q 2419 397 2687 759 
Q 2956 1122 2956 1747 
Q 2956 2369 2687 2733 
Q 2419 3097 1959 3097 
z
M 1959 3584 
Q 2709 3584 3137 3096 
Q 3566 2609 3566 1747 
Q 3566 888 3137 398 
Q 2709 -91 1959 -91 
Q 1206 -91 779 398 
Q 353 888 353 1747 
Q 353 2609 779 3096 
Q 1206 3584 1959 3584 
z
" transform="scale(0.015625)"/>
      <path id="DejaVuSans-79" d="M 2059 -325 
Q 1816 -950 1584 -1140 
Q 1353 -1331 966 -1331 
L 506 -1331 
L 506 -850 
L 844 -850 
Q 1081 -850 1212 -737 
Q 1344 -625 1503 -206 
L 1606 56 
L 191 3500 
L 800 3500 
L 1894 763 
L 2988 3500 
L 3597 3500 
L 2059 -325 
z
" transform="scale(0.015625)"/>
     </defs>
     <use xlink:href="#DejaVuSans-67"/>
     <use xlink:href="#DejaVuSans-65" x="63.476562"/>
     <use xlink:href="#DejaVuSans-74" x="125"/>
     <use xlink:href="#DejaVuSans-5f" x="164.208984"/>
     <use xlink:href="#DejaVuSans-73" x="214.208984"/>
     <use xlink:href="#DejaVuSans-75" x="266.308594"/>
     <use xlink:href="#DejaVuSans-62" x="329.6875"/>
     <use xlink:href="#DejaVuSans-73" x="393.164062"/>
     <use xlink:href="#DejaVuSans-63" x="445.263672"/>
     <use xlink:href="#DejaVuSans-72" x="500.244141"/>
     <use xlink:href="#DejaVuSans-69" x="541.357422"/>
     <use xlink:href="#DejaVuSans-62" x="569.140625"/>
     <use xlink:href="#DejaVuSans-65" x="632.617188"/>
     <use xlink:href="#DejaVuSans-20" x="694.140625"/>
     <use xlink:href="#DejaVuSans-68" x="725.927734"/>
     <use xlink:href="#DejaVuSans-69" x="789.306641"/>
     <use xlink:href="#DejaVuSans-73" x="817.089844"/>
     <use xlink:href="#DejaVuSans-74" x="869.189453"/>
     <use xlink:href="#DejaVuSans-6f" x="908.398438"/>
     <use xlink:href="#DejaVuSans-72" x="969.580078"/>
     <use xlink:href="#DejaVuSans-79" x="1010.693359"/>
    </g>
   </g>
   <g id="legend_1">
    <g id="line2d_41">
     <path d="M 815.08 328.498438 
L 825.08 328.498438 
L 835.08 328.498438 
" style="fill: none; stroke: #1f77b4; stroke-width: 1.5; stroke-linecap: square"/>
    </g>
    <g id="text_21">
     <!-- star -->
     <g style="fill: #a9a9a9" transform="translate(843.08 331.998438) scale(0.1 -0.1)">
      <defs>
       <path id="DejaVuSans-61" d="M 2194 1759 
Q 1497 1759 1228 1600 
Q 959 1441 959 1056 
Q 959 750 1161 570 
Q 1363 391 1709 391 
Q 2188 391 2477 730 
Q 2766 1069 2766 1631 
L 2766 1759 
L 2194 1759 
z
M 3341 1997 
L 3341 0 
L 2766 0 
L 2766 531 
Q 2569 213 2275 61 
Q 1981 -91 1556 -91 
Q 1019 -91 701 211 
Q 384 513 384 1019 
Q 384 1609 779 1909 
Q 1175 2209 1959 2209 
L 2766 2209 
L 2766 2266 
Q 2766 2663 2505 2880 
Q 2244 3097 1772 3097 
Q 1472 3097 1187 3025 
Q 903 2953 641 2809 
L 641 3341 
Q 956 3463 1253 3523 
Q 1550 3584 1831 3584 
Q 2591 3584 2966 3190 
Q 3341 2797 3341 1997 
z
" transform="scale(0.015625)"/>
      </defs>
      <use xlink:href="#DejaVuSans-73"/>
      <use xlink:href="#DejaVuSans-74" x="52.099609"/>
      <use xlink:href="#DejaVuSans-61" x="91.308594"/>
      <use xlink:href="#DejaVuSans-72" x="152.587891"/>
     </g>
    </g>
    <g id="line2d_42">
     <path d="M 815.08 343.176562 
L 825.08 343.176562 
L 835.08 343.176562 
" style="fill: none; stroke: #ff7f0e; stroke-width: 1.5; stroke-linecap: square"/>
    </g>
    <g id="text_22">
     <!-- fork -->
     <g style="fill: #a9a9a9" transform="translate(843.08 346.676562) scale(0.1 -0.1)">
      <defs>
       <path id="DejaVuSans-66" d="M 2375 4863 
L 2375 4384 
L 1825 4384 
Q 1516 4384 1395 4259 
Q 1275 4134 1275 3809 
L 1275 3500 
L 2222 3500 
L 2222 3053 
L 1275 3053 
L 1275 0 
L 697 0 
L 697 3053 
L 147 3053 
L 147 3500 
L 697 3500 
L 697 3744 
Q 697 4328 969 4595 
Q 1241 4863 1831 4863 
L 2375 4863 
z
" transform="scale(0.015625)"/>
       <path id="DejaVuSans-6b" d="M 581 4863 
L 1159 4863 
L 1159 1991 
L 2875 3500 
L 3609 3500 
L 1753 1863 
L 3688 0 
L 2938 0 
L 1159 1709 
L 1159 0 
L 581 0 
L 581 4863 
z
" transform="scale(0.015625)"/>
      </defs>
      <use xlink:href="#DejaVuSans-66"/>
      <use xlink:href="#DejaVuSans-6f" x="35.205078"/>
      <use xlink:href="#DejaVuSans-72" x="96.386719"/>
      <use xlink:href="#DejaVuSans-6b" x="137.5"/>
     </g>
    </g>
   </g>
  </g>
 </g>
 <defs>
  <clipPath id="pf48a78cff2">
   <rect x="108" y="43.2" width="669.6" height="277.2"/>
  </clipPath>
 </defs>
</svg>
