<?xml version="1.0" encoding="utf-8" standalone="no"?>
<!DOCTYPE svg PUBLIC "-//W3C//DTD SVG 1.1//EN"
  "http://www.w3.org/Graphics/SVG/1.1/DTD/svg11.dtd">
<svg xmlns:xlink="http://www.w3.org/1999/xlink" width="864pt" height="360pt" viewBox="0 0 864 360" xmlns="http://www.w3.org/2000/svg" version="1.1">
 <metadata>
  <rdf:RDF xmlns:dc="http://purl.org/dc/elements/1.1/" xmlns:cc="http://creativecommons.org/ns#" xmlns:rdf="http://www.w3.org/1999/02/22-rdf-syntax-ns#">
   <cc:Work>
    <dc:type rdf:resource="http://purl.org/dc/dcmitype/StillImage"/>
    <dc:date>2024-08-05T08:12:39.018453</dc:date>
    <dc:format>image/svg+xml</dc:format>
    <dc:creator>
     <cc:Agent>
      <dc:title>Matplotlib v3.9.1, https://matplotlib.org/</dc:title>
     </cc:Agent>
    </dc:creator>
   </cc:Work>
  </rdf:RDF>
 </metadata>
 <defs>
  <style type="text/css">*{stroke-linejoin: round; stroke-linecap: butt}</style>
 </defs>
 <g id="figure_1">
  <g id="patch_1">
   <path d="M 0 360 
L 864 360 
L 864 0 
L 0 0 
L 0 360 
z
" style="fill: none; opacity: 0"/>
  </g>
  <g id="axes_1">
   <g id="patch_2">
    <path d="M 108 320.4 
L 777.6 320.4 
L 777.6 43.2 
L 108 43.2 
L 108 320.4 
z
" style="fill: none; opacity: 0"/>
   </g>
   <g id="matplotlib.axis_1">
    <g id="xtick_1">
     <g id="line2d_1">
      <path d="M 159.862685 320.4 
L 159.862685 43.2 
" clip-path="url(#pc07b3f8720)" style="fill: none; stroke-dasharray: 5.12,1.28,0.8,1.28; stroke-dashoffset: 0; stroke: #b0b0b0; stroke-width: 0.8"/>
     </g>
     <g id="line2d_2">
      <defs>
       <path id="m9f7038d0f6" d="M 0 0 
L 0 3.5 
" style="stroke: #a9a9a9; stroke-width: 0.8"/>
      </defs>
      <g>
       <use xlink:href="#m9f7038d0f6" x="159.862685" y="320.4" style="fill: #a9a9a9; stroke: #a9a9a9; stroke-width: 0.8"/>
      </g>
     </g>
     <g id="text_1">
      <!-- 2021-09 -->
      <g style="fill: #a9a9a9" transform="translate(138.971278 334.998438) scale(0.1 -0.1)">
       <defs>
        <path id="DejaVuSans-32" d="M 1228 531 
L 3431 531 
L 3431 0 
L 469 0 
L 469 531 
Q 828 903 1448 1529 
Q 2069 2156 2228 2338 
Q 2531 2678 2651 2914 
Q 2772 3150 2772 3378 
Q 2772 3750 2511 3984 
Q 2250 4219 1831 4219 
Q 1534 4219 1204 4116 
Q 875 4013 500 3803 
L 500 4441 
Q 881 4594 1212 4672 
Q 1544 4750 1819 4750 
Q 2544 4750 2975 4387 
Q 3406 4025 3406 3419 
Q 3406 3131 3298 2873 
Q 3191 2616 2906 2266 
Q 2828 2175 2409 1742 
Q 1991 1309 1228 531 
z
" transform="scale(0.015625)"/>
        <path id="DejaVuSans-30" d="M 2034 4250 
Q 1547 4250 1301 3770 
Q 1056 3291 1056 2328 
Q 1056 1369 1301 889 
Q 1547 409 2034 409 
Q 2525 409 2770 889 
Q 3016 1369 3016 2328 
Q 3016 3291 2770 3770 
Q 2525 4250 2034 4250 
z
M 2034 4750 
Q 2819 4750 3233 4129 
Q 3647 3509 3647 2328 
Q 3647 1150 3233 529 
Q 2819 -91 2034 -91 
Q 1250 -91 836 529 
Q 422 1150 422 2328 
Q 422 3509 836 4129 
Q 1250 4750 2034 4750 
z
" transform="scale(0.015625)"/>
        <path id="DejaVuSans-31" d="M 794 531 
L 1825 531 
L 1825 4091 
L 703 3866 
L 703 4441 
L 1819 4666 
L 2450 4666 
L 2450 531 
L 3481 531 
L 3481 0 
L 794 0 
L 794 531 
z
" transform="scale(0.015625)"/>
        <path id="DejaVuSans-2d" d="M 313 2009 
L 1997 2009 
L 1997 1497 
L 313 1497 
L 313 2009 
z
" transform="scale(0.015625)"/>
        <path id="DejaVuSans-39" d="M 703 97 
L 703 672 
Q 941 559 1184 500 
Q 1428 441 1663 441 
Q 2288 441 2617 861 
Q 2947 1281 2994 2138 
Q 2813 1869 2534 1725 
Q 2256 1581 1919 1581 
Q 1219 1581 811 2004 
Q 403 2428 403 3163 
Q 403 3881 828 4315 
Q 1253 4750 1959 4750 
Q 2769 4750 3195 4129 
Q 3622 3509 3622 2328 
Q 3622 1225 3098 567 
Q 2575 -91 1691 -91 
Q 1453 -91 1209 -44 
Q 966 3 703 97 
z
M 1959 2075 
Q 2384 2075 2632 2365 
Q 2881 2656 2881 3163 
Q 2881 3666 2632 3958 
Q 2384 4250 1959 4250 
Q 1534 4250 1286 3958 
Q 1038 3666 1038 3163 
Q 1038 2656 1286 2365 
Q 1534 2075 1959 2075 
z
" transform="scale(0.015625)"/>
       </defs>
       <use xlink:href="#DejaVuSans-32"/>
       <use xlink:href="#DejaVuSans-30" x="63.623047"/>
       <use xlink:href="#DejaVuSans-32" x="127.246094"/>
       <use xlink:href="#DejaVuSans-31" x="190.869141"/>
       <use xlink:href="#DejaVuSans-2d" x="254.492188"/>
       <use xlink:href="#DejaVuSans-30" x="290.576172"/>
       <use xlink:href="#DejaVuSans-39" x="354.199219"/>
      </g>
     </g>
    </g>
    <g id="xtick_2">
     <g id="line2d_3">
      <path d="M 226.888612 320.4 
L 226.888612 43.2 
" clip-path="url(#pc07b3f8720)" style="fill: none; stroke-dasharray: 5.12,1.28,0.8,1.28; stroke-dashoffset: 0; stroke: #b0b0b0; stroke-width: 0.8"/>
     </g>
     <g id="line2d_4">
      <g>
       <use xlink:href="#m9f7038d0f6" x="226.888612" y="320.4" style="fill: #a9a9a9; stroke: #a9a9a9; stroke-width: 0.8"/>
      </g>
     </g>
     <g id="text_2">
      <!-- 2022-01 -->
      <g style="fill: #a9a9a9" transform="translate(205.997205 334.998438) scale(0.1 -0.1)">
       <use xlink:href="#DejaVuSans-32"/>
       <use xlink:href="#DejaVuSans-30" x="63.623047"/>
       <use xlink:href="#DejaVuSans-32" x="127.246094"/>
       <use xlink:href="#DejaVuSans-32" x="190.869141"/>
       <use xlink:href="#DejaVuSans-2d" x="254.492188"/>
       <use xlink:href="#DejaVuSans-30" x="290.576172"/>
       <use xlink:href="#DejaVuSans-31" x="354.199219"/>
      </g>
     </g>
    </g>
    <g id="xtick_3">
     <g id="line2d_5">
      <path d="M 292.815753 320.4 
L 292.815753 43.2 
" clip-path="url(#pc07b3f8720)" style="fill: none; stroke-dasharray: 5.12,1.28,0.8,1.28; stroke-dashoffset: 0; stroke: #b0b0b0; stroke-width: 0.8"/>
     </g>
     <g id="line2d_6">
      <g>
       <use xlink:href="#m9f7038d0f6" x="292.815753" y="320.4" style="fill: #a9a9a9; stroke: #a9a9a9; stroke-width: 0.8"/>
      </g>
     </g>
     <g id="text_3">
      <!-- 2022-05 -->
      <g style="fill: #a9a9a9" transform="translate(271.924347 334.998438) scale(0.1 -0.1)">
       <defs>
        <path id="DejaVuSans-35" d="M 691 4666 
L 3169 4666 
L 3169 4134 
L 1269 4134 
L 1269 2991 
Q 1406 3038 1543 3061 
Q 1681 3084 1819 3084 
Q 2600 3084 3056 2656 
Q 3513 2228 3513 1497 
Q 3513 744 3044 326 
Q 2575 -91 1722 -91 
Q 1428 -91 1123 -41 
Q 819 9 494 109 
L 494 744 
Q 775 591 1075 516 
Q 1375 441 1709 441 
Q 2250 441 2565 725 
Q 2881 1009 2881 1497 
Q 2881 1984 2565 2268 
Q 2250 2553 1709 2553 
Q 1456 2553 1204 2497 
Q 953 2441 691 2322 
L 691 4666 
z
" transform="scale(0.015625)"/>
       </defs>
       <use xlink:href="#DejaVuSans-32"/>
       <use xlink:href="#DejaVuSans-30" x="63.623047"/>
       <use xlink:href="#DejaVuSans-32" x="127.246094"/>
       <use xlink:href="#DejaVuSans-32" x="190.869141"/>
       <use xlink:href="#DejaVuSans-2d" x="254.492188"/>
       <use xlink:href="#DejaVuSans-30" x="290.576172"/>
       <use xlink:href="#DejaVuSans-35" x="354.199219"/>
      </g>
     </g>
    </g>
    <g id="xtick_4">
     <g id="line2d_7">
      <path d="M 360.391073 320.4 
L 360.391073 43.2 
" clip-path="url(#pc07b3f8720)" style="fill: none; stroke-dasharray: 5.12,1.28,0.8,1.28; stroke-dashoffset: 0; stroke: #b0b0b0; stroke-width: 0.8"/>
     </g>
     <g id="line2d_8">
      <g>
       <use xlink:href="#m9f7038d0f6" x="360.391073" y="320.4" style="fill: #a9a9a9; stroke: #a9a9a9; stroke-width: 0.8"/>
      </g>
     </g>
     <g id="text_4">
      <!-- 2022-09 -->
      <g style="fill: #a9a9a9" transform="translate(339.499667 334.998438) scale(0.1 -0.1)">
       <use xlink:href="#DejaVuSans-32"/>
       <use xlink:href="#DejaVuSans-30" x="63.623047"/>
       <use xlink:href="#DejaVuSans-32" x="127.246094"/>
       <use xlink:href="#DejaVuSans-32" x="190.869141"/>
       <use xlink:href="#DejaVuSans-2d" x="254.492188"/>
       <use xlink:href="#DejaVuSans-30" x="290.576172"/>
       <use xlink:href="#DejaVuSans-39" x="354.199219"/>
      </g>
     </g>
    </g>
    <g id="xtick_5">
     <g id="line2d_9">
      <path d="M 427.417 320.4 
L 427.417 43.2 
" clip-path="url(#pc07b3f8720)" style="fill: none; stroke-dasharray: 5.12,1.28,0.8,1.28; stroke-dashoffset: 0; stroke: #b0b0b0; stroke-width: 0.8"/>
     </g>
     <g id="line2d_10">
      <g>
       <use xlink:href="#m9f7038d0f6" x="427.417" y="320.4" style="fill: #a9a9a9; stroke: #a9a9a9; stroke-width: 0.8"/>
      </g>
     </g>
     <g id="text_5">
      <!-- 2023-01 -->
      <g style="fill: #a9a9a9" transform="translate(406.525594 334.998438) scale(0.1 -0.1)">
       <defs>
        <path id="DejaVuSans-33" d="M 2597 2516 
Q 3050 2419 3304 2112 
Q 3559 1806 3559 1356 
Q 3559 666 3084 287 
Q 2609 -91 1734 -91 
Q 1441 -91 1130 -33 
Q 819 25 488 141 
L 488 750 
Q 750 597 1062 519 
Q 1375 441 1716 441 
Q 2309 441 2620 675 
Q 2931 909 2931 1356 
Q 2931 1769 2642 2001 
Q 2353 2234 1838 2234 
L 1294 2234 
L 1294 2753 
L 1863 2753 
Q 2328 2753 2575 2939 
Q 2822 3125 2822 3475 
Q 2822 3834 2567 4026 
Q 2313 4219 1838 4219 
Q 1578 4219 1281 4162 
Q 984 4106 628 3988 
L 628 4550 
Q 988 4650 1302 4700 
Q 1616 4750 1894 4750 
Q 2613 4750 3031 4423 
Q 3450 4097 3450 3541 
Q 3450 3153 3228 2886 
Q 3006 2619 2597 2516 
z
" transform="scale(0.015625)"/>
       </defs>
       <use xlink:href="#DejaVuSans-32"/>
       <use xlink:href="#DejaVuSans-30" x="63.623047"/>
       <use xlink:href="#DejaVuSans-32" x="127.246094"/>
       <use xlink:href="#DejaVuSans-33" x="190.869141"/>
       <use xlink:href="#DejaVuSans-2d" x="254.492188"/>
       <use xlink:href="#DejaVuSans-30" x="290.576172"/>
       <use xlink:href="#DejaVuSans-31" x="354.199219"/>
      </g>
     </g>
    </g>
    <g id="xtick_6">
     <g id="line2d_11">
      <path d="M 493.344142 320.4 
L 493.344142 43.2 
" clip-path="url(#pc07b3f8720)" style="fill: none; stroke-dasharray: 5.12,1.28,0.8,1.28; stroke-dashoffset: 0; stroke: #b0b0b0; stroke-width: 0.8"/>
     </g>
     <g id="line2d_12">
      <g>
       <use xlink:href="#m9f7038d0f6" x="493.344142" y="320.4" style="fill: #a9a9a9; stroke: #a9a9a9; stroke-width: 0.8"/>
      </g>
     </g>
     <g id="text_6">
      <!-- 2023-05 -->
      <g style="fill: #a9a9a9" transform="translate(472.452736 334.998438) scale(0.1 -0.1)">
       <use xlink:href="#DejaVuSans-32"/>
       <use xlink:href="#DejaVuSans-30" x="63.623047"/>
       <use xlink:href="#DejaVuSans-32" x="127.246094"/>
       <use xlink:href="#DejaVuSans-33" x="190.869141"/>
       <use xlink:href="#DejaVuSans-2d" x="254.492188"/>
       <use xlink:href="#DejaVuSans-30" x="290.576172"/>
       <use xlink:href="#DejaVuSans-35" x="354.199219"/>
      </g>
     </g>
    </g>
    <g id="xtick_7">
     <g id="line2d_13">
      <path d="M 560.919462 320.4 
L 560.919462 43.2 
" clip-path="url(#pc07b3f8720)" style="fill: none; stroke-dasharray: 5.12,1.28,0.8,1.28; stroke-dashoffset: 0; stroke: #b0b0b0; stroke-width: 0.8"/>
     </g>
     <g id="line2d_14">
      <g>
       <use xlink:href="#m9f7038d0f6" x="560.919462" y="320.4" style="fill: #a9a9a9; stroke: #a9a9a9; stroke-width: 0.8"/>
      </g>
     </g>
     <g id="text_7">
      <!-- 2023-09 -->
      <g style="fill: #a9a9a9" transform="translate(540.028056 334.998438) scale(0.1 -0.1)">
       <use xlink:href="#DejaVuSans-32"/>
       <use xlink:href="#DejaVuSans-30" x="63.623047"/>
       <use xlink:href="#DejaVuSans-32" x="127.246094"/>
       <use xlink:href="#DejaVuSans-33" x="190.869141"/>
       <use xlink:href="#DejaVuSans-2d" x="254.492188"/>
       <use xlink:href="#DejaVuSans-30" x="290.576172"/>
       <use xlink:href="#DejaVuSans-39" x="354.199219"/>
      </g>
     </g>
    </g>
    <g id="xtick_8">
     <g id="line2d_15">
      <path d="M 627.945389 320.4 
L 627.945389 43.2 
" clip-path="url(#pc07b3f8720)" style="fill: none; stroke-dasharray: 5.12,1.28,0.8,1.28; stroke-dashoffset: 0; stroke: #b0b0b0; stroke-width: 0.8"/>
     </g>
     <g id="line2d_16">
      <g>
       <use xlink:href="#m9f7038d0f6" x="627.945389" y="320.4" style="fill: #a9a9a9; stroke: #a9a9a9; stroke-width: 0.8"/>
      </g>
     </g>
     <g id="text_8">
      <!-- 2024-01 -->
      <g style="fill: #a9a9a9" transform="translate(607.053983 334.998438) scale(0.1 -0.1)">
       <defs>
        <path id="DejaVuSans-34" d="M 2419 4116 
L 825 1625 
L 2419 1625 
L 2419 4116 
z
M 2253 4666 
L 3047 4666 
L 3047 1625 
L 3713 1625 
L 3713 1100 
L 3047 1100 
L 3047 0 
L 2419 0 
L 2419 1100 
L 313 1100 
L 313 1709 
L 2253 4666 
z
" transform="scale(0.015625)"/>
       </defs>
       <use xlink:href="#DejaVuSans-32"/>
       <use xlink:href="#DejaVuSans-30" x="63.623047"/>
       <use xlink:href="#DejaVuSans-32" x="127.246094"/>
       <use xlink:href="#DejaVuSans-34" x="190.869141"/>
       <use xlink:href="#DejaVuSans-2d" x="254.492188"/>
       <use xlink:href="#DejaVuSans-30" x="290.576172"/>
       <use xlink:href="#DejaVuSans-31" x="354.199219"/>
      </g>
     </g>
    </g>
    <g id="xtick_9">
     <g id="line2d_17">
      <path d="M 694.421923 320.4 
L 694.421923 43.2 
" clip-path="url(#pc07b3f8720)" style="fill: none; stroke-dasharray: 5.12,1.28,0.8,1.28; stroke-dashoffset: 0; stroke: #b0b0b0; stroke-width: 0.8"/>
     </g>
     <g id="line2d_18">
      <g>
       <use xlink:href="#m9f7038d0f6" x="694.421923" y="320.4" style="fill: #a9a9a9; stroke: #a9a9a9; stroke-width: 0.8"/>
      </g>
     </g>
     <g id="text_9">
      <!-- 2024-05 -->
      <g style="fill: #a9a9a9" transform="translate(673.530517 334.998438) scale(0.1 -0.1)">
       <use xlink:href="#DejaVuSans-32"/>
       <use xlink:href="#DejaVuSans-30" x="63.623047"/>
       <use xlink:href="#DejaVuSans-32" x="127.246094"/>
       <use xlink:href="#DejaVuSans-34" x="190.869141"/>
       <use xlink:href="#DejaVuSans-2d" x="254.492188"/>
       <use xlink:href="#DejaVuSans-30" x="290.576172"/>
       <use xlink:href="#DejaVuSans-35" x="354.199219"/>
      </g>
     </g>
    </g>
    <g id="xtick_10">
     <g id="line2d_19">
      <path d="M 761.997243 320.4 
L 761.997243 43.2 
" clip-path="url(#pc07b3f8720)" style="fill: none; stroke-dasharray: 5.12,1.28,0.8,1.28; stroke-dashoffset: 0; stroke: #b0b0b0; stroke-width: 0.8"/>
     </g>
     <g id="line2d_20">
      <g>
       <use xlink:href="#m9f7038d0f6" x="761.997243" y="320.4" style="fill: #a9a9a9; stroke: #a9a9a9; stroke-width: 0.8"/>
      </g>
     </g>
     <g id="text_10">
      <!-- 2024-09 -->
      <g style="fill: #a9a9a9" transform="translate(741.105837 334.998438) scale(0.1 -0.1)">
       <use xlink:href="#DejaVuSans-32"/>
       <use xlink:href="#DejaVuSans-30" x="63.623047"/>
       <use xlink:href="#DejaVuSans-32" x="127.246094"/>
       <use xlink:href="#DejaVuSans-34" x="190.869141"/>
       <use xlink:href="#DejaVuSans-2d" x="254.492188"/>
       <use xlink:href="#DejaVuSans-30" x="290.576172"/>
       <use xlink:href="#DejaVuSans-39" x="354.199219"/>
      </g>
     </g>
    </g>
   </g>
   <g id="matplotlib.axis_2">
    <g id="ytick_1">
     <g id="line2d_21">
      <path d="M 108 307.839118 
L 777.6 307.839118 
" clip-path="url(#pc07b3f8720)" style="fill: none; stroke-dasharray: 5.12,1.28,0.8,1.28; stroke-dashoffset: 0; stroke: #b0b0b0; stroke-width: 0.8"/>
     </g>
     <g id="line2d_22">
      <defs>
       <path id="md82ced2e89" d="M 0 0 
L -3.5 0 
" style="stroke: #a9a9a9; stroke-width: 0.8"/>
      </defs>
      <g>
       <use xlink:href="#md82ced2e89" x="108" y="307.839118" style="fill: #a9a9a9; stroke: #a9a9a9; stroke-width: 0.8"/>
      </g>
     </g>
     <g id="text_11">
      <!-- 0 -->
      <g style="fill: #a9a9a9" transform="translate(94.6375 311.638337) scale(0.1 -0.1)">
       <use xlink:href="#DejaVuSans-30"/>
      </g>
     </g>
    </g>
    <g id="ytick_2">
     <g id="line2d_23">
      <path d="M 108 276.544489 
L 777.6 276.544489 
" clip-path="url(#pc07b3f8720)" style="fill: none; stroke-dasharray: 5.12,1.28,0.8,1.28; stroke-dashoffset: 0; stroke: #b0b0b0; stroke-width: 0.8"/>
     </g>
     <g id="line2d_24">
      <g>
       <use xlink:href="#md82ced2e89" x="108" y="276.544489" style="fill: #a9a9a9; stroke: #a9a9a9; stroke-width: 0.8"/>
      </g>
     </g>
     <g id="text_12">
      <!-- 800 -->
      <g style="fill: #a9a9a9" transform="translate(81.9125 280.343708) scale(0.1 -0.1)">
       <defs>
        <path id="DejaVuSans-38" d="M 2034 2216 
Q 1584 2216 1326 1975 
Q 1069 1734 1069 1313 
Q 1069 891 1326 650 
Q 1584 409 2034 409 
Q 2484 409 2743 651 
Q 3003 894 3003 1313 
Q 3003 1734 2745 1975 
Q 2488 2216 2034 2216 
z
M 1403 2484 
Q 997 2584 770 2862 
Q 544 3141 544 3541 
Q 544 4100 942 4425 
Q 1341 4750 2034 4750 
Q 2731 4750 3128 4425 
Q 3525 4100 3525 3541 
Q 3525 3141 3298 2862 
Q 3072 2584 2669 2484 
Q 3125 2378 3379 2068 
Q 3634 1759 3634 1313 
Q 3634 634 3220 271 
Q 2806 -91 2034 -91 
Q 1263 -91 848 271 
Q 434 634 434 1313 
Q 434 1759 690 2068 
Q 947 2378 1403 2484 
z
M 1172 3481 
Q 1172 3119 1398 2916 
Q 1625 2713 2034 2713 
Q 2441 2713 2670 2916 
Q 2900 3119 2900 3481 
Q 2900 3844 2670 4047 
Q 2441 4250 2034 4250 
Q 1625 4250 1398 4047 
Q 1172 3844 1172 3481 
z
" transform="scale(0.015625)"/>
       </defs>
       <use xlink:href="#DejaVuSans-38"/>
       <use xlink:href="#DejaVuSans-30" x="63.623047"/>
       <use xlink:href="#DejaVuSans-30" x="127.246094"/>
      </g>
     </g>
    </g>
    <g id="ytick_3">
     <g id="line2d_25">
      <path d="M 108 245.24986 
L 777.6 245.24986 
" clip-path="url(#pc07b3f8720)" style="fill: none; stroke-dasharray: 5.12,1.28,0.8,1.28; stroke-dashoffset: 0; stroke: #b0b0b0; stroke-width: 0.8"/>
     </g>
     <g id="line2d_26">
      <g>
       <use xlink:href="#md82ced2e89" x="108" y="245.24986" style="fill: #a9a9a9; stroke: #a9a9a9; stroke-width: 0.8"/>
      </g>
     </g>
     <g id="text_13">
      <!-- 1600 -->
      <g style="fill: #a9a9a9" transform="translate(75.55 249.049079) scale(0.1 -0.1)">
       <defs>
        <path id="DejaVuSans-36" d="M 2113 2584 
Q 1688 2584 1439 2293 
Q 1191 2003 1191 1497 
Q 1191 994 1439 701 
Q 1688 409 2113 409 
Q 2538 409 2786 701 
Q 3034 994 3034 1497 
Q 3034 2003 2786 2293 
Q 2538 2584 2113 2584 
z
M 3366 4563 
L 3366 3988 
Q 3128 4100 2886 4159 
Q 2644 4219 2406 4219 
Q 1781 4219 1451 3797 
Q 1122 3375 1075 2522 
Q 1259 2794 1537 2939 
Q 1816 3084 2150 3084 
Q 2853 3084 3261 2657 
Q 3669 2231 3669 1497 
Q 3669 778 3244 343 
Q 2819 -91 2113 -91 
Q 1303 -91 875 529 
Q 447 1150 447 2328 
Q 447 3434 972 4092 
Q 1497 4750 2381 4750 
Q 2619 4750 2861 4703 
Q 3103 4656 3366 4563 
z
" transform="scale(0.015625)"/>
       </defs>
       <use xlink:href="#DejaVuSans-31"/>
       <use xlink:href="#DejaVuSans-36" x="63.623047"/>
       <use xlink:href="#DejaVuSans-30" x="127.246094"/>
       <use xlink:href="#DejaVuSans-30" x="190.869141"/>
      </g>
     </g>
    </g>
    <g id="ytick_4">
     <g id="line2d_27">
      <path d="M 108 213.955231 
L 777.6 213.955231 
" clip-path="url(#pc07b3f8720)" style="fill: none; stroke-dasharray: 5.12,1.28,0.8,1.28; stroke-dashoffset: 0; stroke: #b0b0b0; stroke-width: 0.8"/>
     </g>
     <g id="line2d_28">
      <g>
       <use xlink:href="#md82ced2e89" x="108" y="213.955231" style="fill: #a9a9a9; stroke: #a9a9a9; stroke-width: 0.8"/>
      </g>
     </g>
     <g id="text_14">
      <!-- 2400 -->
      <g style="fill: #a9a9a9" transform="translate(75.55 217.75445) scale(0.1 -0.1)">
       <use xlink:href="#DejaVuSans-32"/>
       <use xlink:href="#DejaVuSans-34" x="63.623047"/>
       <use xlink:href="#DejaVuSans-30" x="127.246094"/>
       <use xlink:href="#DejaVuSans-30" x="190.869141"/>
      </g>
     </g>
    </g>
    <g id="ytick_5">
     <g id="line2d_29">
      <path d="M 108 182.660602 
L 777.6 182.660602 
" clip-path="url(#pc07b3f8720)" style="fill: none; stroke-dasharray: 5.12,1.28,0.8,1.28; stroke-dashoffset: 0; stroke: #b0b0b0; stroke-width: 0.8"/>
     </g>
     <g id="line2d_30">
      <g>
       <use xlink:href="#md82ced2e89" x="108" y="182.660602" style="fill: #a9a9a9; stroke: #a9a9a9; stroke-width: 0.8"/>
      </g>
     </g>
     <g id="text_15">
      <!-- 3200 -->
      <g style="fill: #a9a9a9" transform="translate(75.55 186.459821) scale(0.1 -0.1)">
       <use xlink:href="#DejaVuSans-33"/>
       <use xlink:href="#DejaVuSans-32" x="63.623047"/>
       <use xlink:href="#DejaVuSans-30" x="127.246094"/>
       <use xlink:href="#DejaVuSans-30" x="190.869141"/>
      </g>
     </g>
    </g>
    <g id="ytick_6">
     <g id="line2d_31">
      <path d="M 108 151.365973 
L 777.6 151.365973 
" clip-path="url(#pc07b3f8720)" style="fill: none; stroke-dasharray: 5.12,1.28,0.8,1.28; stroke-dashoffset: 0; stroke: #b0b0b0; stroke-width: 0.8"/>
     </g>
     <g id="line2d_32">
      <g>
       <use xlink:href="#md82ced2e89" x="108" y="151.365973" style="fill: #a9a9a9; stroke: #a9a9a9; stroke-width: 0.8"/>
      </g>
     </g>
     <g id="text_16">
      <!-- 4000 -->
      <g style="fill: #a9a9a9" transform="translate(75.55 155.165192) scale(0.1 -0.1)">
       <use xlink:href="#DejaVuSans-34"/>
       <use xlink:href="#DejaVuSans-30" x="63.623047"/>
       <use xlink:href="#DejaVuSans-30" x="127.246094"/>
       <use xlink:href="#DejaVuSans-30" x="190.869141"/>
      </g>
     </g>
    </g>
    <g id="ytick_7">
     <g id="line2d_33">
      <path d="M 108 120.071344 
L 777.6 120.071344 
" clip-path="url(#pc07b3f8720)" style="fill: none; stroke-dasharray: 5.12,1.28,0.8,1.28; stroke-dashoffset: 0; stroke: #b0b0b0; stroke-width: 0.8"/>
     </g>
     <g id="line2d_34">
      <g>
       <use xlink:href="#md82ced2e89" x="108" y="120.071344" style="fill: #a9a9a9; stroke: #a9a9a9; stroke-width: 0.8"/>
      </g>
     </g>
     <g id="text_17">
      <!-- 4800 -->
      <g style="fill: #a9a9a9" transform="translate(75.55 123.870563) scale(0.1 -0.1)">
       <use xlink:href="#DejaVuSans-34"/>
       <use xlink:href="#DejaVuSans-38" x="63.623047"/>
       <use xlink:href="#DejaVuSans-30" x="127.246094"/>
       <use xlink:href="#DejaVuSans-30" x="190.869141"/>
      </g>
     </g>
    </g>
    <g id="ytick_8">
     <g id="line2d_35">
      <path d="M 108 88.776715 
L 777.6 88.776715 
" clip-path="url(#pc07b3f8720)" style="fill: none; stroke-dasharray: 5.12,1.28,0.8,1.28; stroke-dashoffset: 0; stroke: #b0b0b0; stroke-width: 0.8"/>
     </g>
     <g id="line2d_36">
      <g>
       <use xlink:href="#md82ced2e89" x="108" y="88.776715" style="fill: #a9a9a9; stroke: #a9a9a9; stroke-width: 0.8"/>
      </g>
     </g>
     <g id="text_18">
      <!-- 5600 -->
      <g style="fill: #a9a9a9" transform="translate(75.55 92.575934) scale(0.1 -0.1)">
       <use xlink:href="#DejaVuSans-35"/>
       <use xlink:href="#DejaVuSans-36" x="63.623047"/>
       <use xlink:href="#DejaVuSans-30" x="127.246094"/>
       <use xlink:href="#DejaVuSans-30" x="190.869141"/>
      </g>
     </g>
    </g>
    <g id="ytick_9">
     <g id="line2d_37">
      <path d="M 108 57.482086 
L 777.6 57.482086 
" clip-path="url(#pc07b3f8720)" style="fill: none; stroke-dasharray: 5.12,1.28,0.8,1.28; stroke-dashoffset: 0; stroke: #b0b0b0; stroke-width: 0.8"/>
     </g>
     <g id="line2d_38">
      <g>
       <use xlink:href="#md82ced2e89" x="108" y="57.482086" style="fill: #a9a9a9; stroke: #a9a9a9; stroke-width: 0.8"/>
      </g>
     </g>
     <g id="text_19">
      <!-- 6400 -->
      <g style="fill: #a9a9a9" transform="translate(75.55 61.281305) scale(0.1 -0.1)">
       <use xlink:href="#DejaVuSans-36"/>
       <use xlink:href="#DejaVuSans-34" x="63.623047"/>
       <use xlink:href="#DejaVuSans-30" x="127.246094"/>
       <use xlink:href="#DejaVuSans-30" x="190.869141"/>
      </g>
     </g>
    </g>
   </g>
   <g id="line2d_39">
    <path d="M 138.436364 307.721763 
L 141.732721 307.447935 
L 142.282114 307.213226 
L 143.930292 307.056753 
L 147.226649 306.391742 
L 150.523006 306.117914 
L 151.621792 305.687613 
L 152.171185 304.983483 
L 152.720578 304.592301 
L 153.26997 303.379634 
L 153.819363 303.301397 
L 154.368756 302.871096 
L 155.467542 302.32344 
L 157.665113 300.602235 
L 159.862685 299.546042 
L 161.510863 298.802794 
L 162.060256 297.942192 
L 163.159042 297.159826 
L 163.708435 296.925116 
L 169.202363 296.142751 
L 169.751756 295.868923 
L 173.597506 295.555976 
L 175.245684 295.125675 
L 180.19022 294.460664 
L 180.739613 294.147718 
L 181.289006 294.069482 
L 182.387791 293.717417 
L 186.233541 293.091524 
L 187.332327 292.778578 
L 188.980505 292.622105 
L 190.079291 292.50475 
L 190.628684 292.348277 
L 191.178077 292.309159 
L 192.826255 291.800621 
L 193.925041 291.722384 
L 195.023827 291.565911 
L 196.122612 291.331201 
L 196.672005 291.174728 
L 197.221398 290.431481 
L 198.869577 289.805588 
L 200.517755 289.375287 
L 201.067148 289.101459 
L 201.616541 289.062341 
L 204.363505 288.279975 
L 205.462291 288.201739 
L 206.011684 288.123502 
L 207.659862 287.614964 
L 209.857434 287.067308 
L 210.406826 286.832599 
L 210.956219 286.754362 
L 211.505612 286.480534 
L 216.999541 285.65905 
L 219.746505 284.876684 
L 220.295898 284.52462 
L 222.493469 283.937845 
L 224.69104 282.803415 
L 226.339219 282.412232 
L 226.888612 282.333996 
L 227.438005 282.060168 
L 228.53679 281.864576 
L 229.635576 281.356038 
L 232.38254 280.651909 
L 234.030719 280.221608 
L 235.678897 279.634834 
L 236.22829 279.556597 
L 237.327076 279.126296 
L 238.425862 279.04806 
L 240.07404 278.57864 
L 240.623433 278.57864 
L 241.172826 278.34393 
L 242.271611 278.226576 
L 242.821004 278.030984 
L 243.91979 277.991866 
L 246.117361 277.718038 
L 247.216147 277.170382 
L 253.808861 274.23651 
L 254.358254 273.649736 
L 255.45704 272.006768 
L 256.006433 271.850295 
L 256.555825 271.850295 
L 257.654611 271.028811 
L 258.204004 270.872338 
L 258.753397 270.59851 
L 259.30279 270.481155 
L 259.852182 269.972617 
L 260.401575 269.816144 
L 262.049754 269.033778 
L 263.14854 267.469047 
L 263.697932 267.116982 
L 264.247325 266.178143 
L 264.796718 265.591369 
L 268.093075 263.870165 
L 269.191861 263.009562 
L 269.741254 262.657498 
L 270.290647 261.836014 
L 270.840039 260.623347 
L 271.389432 259.801863 
L 271.938825 259.371562 
L 272.488218 259.136852 
L 274.685789 257.220056 
L 275.784575 256.320335 
L 276.333968 255.850916 
L 276.883361 255.107668 
L 277.982146 254.129711 
L 280.179718 252.682335 
L 280.729111 252.212915 
L 281.278503 252.09556 
L 282.377289 251.508786 
L 284.574861 250.374356 
L 285.673646 249.318162 
L 286.223039 248.653151 
L 287.321825 247.870785 
L 287.871218 247.714312 
L 288.42061 247.440484 
L 289.519396 246.697237 
L 290.068789 246.384291 
L 290.618182 246.306054 
L 294.463932 243.919839 
L 296.661503 242.74629 
L 297.210896 242.237752 
L 306.001181 239.186526 
L 307.099967 238.208569 
L 308.748146 237.426203 
L 309.846931 236.761192 
L 310.945717 236.448246 
L 311.49511 236.096181 
L 312.044503 235.939708 
L 313.692681 234.883514 
L 316.439646 234.218504 
L 318.087824 233.279665 
L 318.637217 233.201428 
L 319.736003 232.9276 
L 320.285395 232.771127 
L 321.933574 231.519342 
L 323.581753 231.128159 
L 324.131145 230.932568 
L 324.680538 230.502266 
L 327.976895 229.406954 
L 328.526288 229.367836 
L 329.075681 229.211363 
L 330.174467 228.741943 
L 334.020217 227.372803 
L 335.119002 227.21633 
L 335.668395 227.059857 
L 336.217788 226.786029 
L 336.767181 226.668674 
L 339.514145 225.377771 
L 341.711716 224.204222 
L 346.106859 222.443899 
L 346.656252 222.365663 
L 347.755038 221.700652 
L 348.304431 221.622415 
L 350.502002 220.722695 
L 352.699573 220.37063 
L 353.798359 219.822974 
L 354.347752 219.353555 
L 354.897145 218.375598 
L 356.545323 218.062651 
L 360.940466 215.989382 
L 364.236823 214.620242 
L 365.335609 214.385532 
L 366.434394 213.837876 
L 366.983787 213.603167 
L 367.53318 213.52493 
L 369.730752 212.546973 
L 371.37893 211.529898 
L 371.928323 211.451661 
L 372.477716 211.25607 
L 373.027109 211.216951 
L 375.22468 210.591059 
L 375.774073 210.55194 
L 376.323466 210.121639 
L 377.422251 209.730456 
L 380.169216 208.674263 
L 380.718608 208.28308 
L 381.268001 208.087488 
L 382.366787 207.500714 
L 384.564358 206.874821 
L 385.113751 206.600993 
L 386.76193 205.31009 
L 387.311323 205.192735 
L 388.410108 204.332133 
L 388.959501 204.253896 
L 389.508894 203.393294 
L 390.058287 203.158584 
L 390.60768 202.728283 
L 391.157073 202.650047 
L 392.255858 201.985036 
L 392.805251 201.867681 
L 393.354644 201.632971 
L 393.904037 201.20267 
L 394.45343 201.007079 
L 396.101608 199.872648 
L 398.29918 198.738218 
L 398.848572 198.659981 
L 400.496751 197.838497 
L 401.046144 196.938777 
L 401.595537 196.469357 
L 402.144929 196.156411 
L 402.694322 196.039056 
L 403.793108 195.334927 
L 404.342501 195.217572 
L 405.441287 194.669916 
L 407.089465 193.965787 
L 408.188251 193.183421 
L 409.287036 192.009873 
L 410.385822 191.344862 
L 410.935215 190.992797 
L 411.484608 190.406023 
L 413.682179 188.919528 
L 414.231572 188.293636 
L 414.780965 187.863334 
L 415.879751 187.472152 
L 416.978536 186.728904 
L 418.626715 185.90742 
L 419.176108 185.829183 
L 420.824286 184.929463 
L 421.923072 184.264452 
L 427.417 182.308538 
L 427.966393 181.878237 
L 430.163965 181.056753 
L 430.713357 180.900279 
L 431.26275 180.469978 
L 434.009714 178.983483 
L 435.1085 176.792859 
L 436.207286 175.541074 
L 437.306072 174.876063 
L 438.95425 174.211052 
L 439.503643 174.132816 
L 440.053036 173.81987 
L 442.8 172.959267 
L 443.349393 172.724558 
L 444.448179 171.98131 
L 446.096357 171.277181 
L 448.843321 169.634213 
L 449.392714 169.047439 
L 450.4915 168.460664 
L 453.238464 167.013288 
L 456.534821 165.409438 
L 457.084214 165.292083 
L 458.732393 164.705309 
L 459.281785 164.548836 
L 461.479357 163.570879 
L 462.578142 163.140577 
L 463.127535 162.710276 
L 464.226321 162.358212 
L 467.522678 160.676125 
L 468.621464 159.815523 
L 469.720249 159.42434 
L 470.269642 158.954921 
L 470.819035 158.876684 
L 471.917821 158.0552 
L 473.016606 157.507544 
L 473.565999 157.272835 
L 474.115392 156.725179 
L 477.961142 155.238684 
L 479.059928 154.769264 
L 480.708106 154.260726 
L 481.806892 154.104253 
L 482.356285 153.869544 
L 482.905678 153.791307 
L 484.004463 153.321888 
L 484.553856 153.282769 
L 486.751428 152.461285 
L 488.399606 151.326855 
L 491.14657 150.035952 
L 493.893535 148.549457 
L 494.442927 148.432102 
L 496.091106 147.493263 
L 497.739285 146.945607 
L 498.83807 146.593542 
L 501.035642 145.889413 
L 502.134427 145.537349 
L 503.782606 145.263521 
L 505.980177 144.559391 
L 506.52957 144.324682 
L 507.078963 144.246445 
L 507.628356 143.972617 
L 508.727141 143.737907 
L 510.37532 143.151133 
L 511.474106 143.033778 
L 512.572891 142.75995 
L 514.22107 142.486122 
L 514.770463 142.329649 
L 515.869248 142.212294 
L 518.616213 141.508165 
L 519.714998 141.234337 
L 520.264391 140.921391 
L 523.011355 140.217262 
L 523.560748 140.099907 
L 525.75832 139.278423 
L 528.505284 138.456939 
L 529.054677 138.456939 
L 530.153462 138.065756 
L 530.702855 137.5181 
L 531.801641 137.087799 
L 535.097998 135.91425 
L 535.647391 135.562186 
L 536.196784 135.444831 
L 536.746177 135.131885 
L 537.844962 134.936293 
L 538.943748 134.505992 
L 539.493141 134.388637 
L 540.042534 134.036572 
L 540.591926 133.919218 
L 541.141319 133.449798 
L 542.789498 133.136852 
L 543.888284 132.628314 
L 544.437676 132.002422 
L 545.536462 131.767712 
L 550.480998 130.711518 
L 551.030391 130.711518 
L 551.579783 130.476808 
L 553.777355 130.085626 
L 554.326748 129.850916 
L 555.974926 129.616206 
L 558.72189 128.755604 
L 561.468855 128.090593 
L 563.666426 127.425582 
L 564.215819 127.308227 
L 564.765212 127.034399 
L 565.314605 126.956163 
L 568.061569 125.899969 
L 568.610962 125.508786 
L 569.709747 125.19584 
L 570.808533 124.843775 
L 571.907319 124.374356 
L 573.555497 123.631108 
L 575.203676 123.513753 
L 577.401247 122.887861 
L 577.95064 122.535796 
L 579.049426 122.22285 
L 581.79639 121.010183 
L 582.345783 120.971065 
L 588.389104 118.897796 
L 590.586675 118.35014 
L 591.136068 118.193667 
L 592.234854 117.685129 
L 593.33364 117.450419 
L 593.883032 117.333064 
L 594.432425 116.902763 
L 594.981818 116.628935 
L 595.531211 115.963924 
L 596.080604 115.572741 
L 597.17939 115.259795 
L 597.728782 114.829494 
L 602.123925 113.030053 
L 602.673318 112.87358 
L 603.222711 112.521515 
L 605.420282 111.856504 
L 606.519068 111.308848 
L 607.617854 110.682956 
L 608.167246 110.565601 
L 609.266032 109.90059 
L 609.815425 109.66588 
L 610.914211 109.000869 
L 612.562389 108.218504 
L 613.111782 107.827321 
L 614.210568 107.475256 
L 615.309353 106.810245 
L 615.858746 106.614654 
L 616.408139 106.223471 
L 623.550246 103.759019 
L 624.099639 103.641664 
L 624.649032 103.2896 
L 625.198425 103.211363 
L 626.29721 102.937535 
L 627.395996 102.702825 
L 631.241746 100.825147 
L 631.791139 100.746911 
L 633.439317 99.84719 
L 636.735674 98.556287 
L 638.933246 97.695685 
L 639.482639 97.539211 
L 640.032032 97.187147 
L 641.130817 97.030674 
L 641.68021 96.678609 
L 642.229603 96.639491 
L 643.328389 96.287426 
L 644.427174 95.73977 
L 644.976567 95.661534 
L 647.723531 94.566222 
L 648.272924 94.448867 
L 649.37171 94.096802 
L 650.470496 93.822974 
L 651.569281 93.549146 
L 653.21746 92.923254 
L 655.415031 91.710587 
L 656.513817 91.280286 
L 657.06321 90.928221 
L 658.161995 90.693511 
L 658.711388 90.380565 
L 659.260781 90.26321 
L 660.90896 89.402608 
L 661.458352 89.246135 
L 663.655924 88.229059 
L 665.304102 87.798758 
L 668.600459 86.507855 
L 670.248638 85.960199 
L 679.038924 82.322198 
L 681.236495 81.461596 
L 682.884673 80.561875 
L 683.434066 80.44452 
L 684.532852 80.014219 
L 685.082245 80.014219 
L 686.181031 79.5448 
L 687.279816 78.566843 
L 687.829209 78.097423 
L 689.477388 77.315057 
L 690.02678 77.197703 
L 690.576173 76.923875 
L 691.125566 76.845638 
L 691.674959 76.454455 
L 692.224352 76.3371 
L 693.323138 75.672089 
L 694.971316 74.850605 
L 695.520709 74.694132 
L 696.619495 74.146476 
L 698.267673 73.755293 
L 701.014637 72.855573 
L 701.56403 72.738218 
L 703.761602 71.682024 
L 704.860387 71.173486 
L 705.959173 70.899658 
L 709.804923 69.100217 
L 712.551887 68.12226 
L 714.200066 67.144303 
L 714.749458 67.026948 
L 715.848244 66.479292 
L 716.94703 66.088109 
L 717.496423 65.61869 
L 718.045816 65.305744 
L 719.693994 64.797206 
L 720.79278 64.053958 
L 721.342173 64.01484 
L 722.440958 63.701894 
L 722.990351 63.584539 
L 725.187923 62.763055 
L 726.836101 62.254517 
L 727.385494 62.176281 
L 728.48428 61.589506 
L 729.033672 61.393915 
L 729.583065 60.963614 
L 731.231244 60.533313 
L 731.780637 60.181248 
L 732.879422 59.90742 
L 734.527601 59.007699 
L 735.076994 58.968581 
L 736.725172 58.460043 
L 737.823958 58.342689 
L 738.922744 57.912387 
L 739.472137 57.755914 
L 740.021529 57.482086 
L 743.867279 56.660602 
L 745.515458 56.073828 
L 746.064851 55.995591 
L 746.614244 55.8 
L 747.163636 55.8 
L 747.163636 55.8 
" clip-path="url(#pc07b3f8720)" style="fill: none; stroke: #1f77b4; stroke-width: 1.5; stroke-linecap: square"/>
   </g>
   <g id="line2d_40">
    <path d="M 138.985756 307.8 
L 140.633935 307.721763 
L 142.282114 307.682645 
L 145.578471 307.604409 
L 148.325435 307.487054 
L 150.523006 307.487054 
L 151.072399 307.330581 
L 153.26997 307.252344 
L 154.918149 307.056753 
L 156.566328 306.900279 
L 159.862685 306.743806 
L 160.412077 306.743806 
L 160.96147 306.626451 
L 163.159042 306.548215 
L 164.257827 306.469978 
L 168.65297 306.391742 
L 171.399934 306.274387 
L 177.992649 306.19615 
L 180.739613 306.078795 
L 184.03597 306.000559 
L 186.233541 305.922322 
L 191.178077 305.844086 
L 192.826255 305.804967 
L 194.474434 305.765849 
L 196.122612 305.570258 
L 199.418969 305.531139 
L 200.517755 305.452903 
L 204.363505 305.374666 
L 210.406826 305.022602 
L 214.252576 304.944365 
L 215.351362 304.866129 
L 216.999541 304.787892 
L 220.295898 304.631419 
L 222.493469 304.592301 
L 224.141648 304.435827 
L 231.283755 304.005526 
L 234.030719 303.92729 
L 238.975254 303.653462 
L 240.623433 303.575225 
L 246.117361 303.262279 
L 252.160683 303.184042 
L 254.358254 302.949333 
L 255.45704 302.871096 
L 262.599147 302.284322 
L 265.895504 301.85402 
L 268.093075 301.775784 
L 272.488218 301.18901 
L 275.784575 301.110773 
L 277.432754 300.9543 
L 278.531539 300.915182 
L 279.630325 300.797827 
L 281.278503 300.71959 
L 282.377289 300.563117 
L 285.124253 300.250171 
L 287.321825 300.171934 
L 288.42061 300.093698 
L 290.618182 300.015461 
L 291.716968 299.937224 
L 294.463932 299.663396 
L 295.013325 299.506923 
L 298.309682 299.35045 
L 301.056646 299.272214 
L 308.198753 298.841912 
L 309.846931 298.763676 
L 316.989038 298.333375 
L 320.834788 298.255138 
L 321.384181 298.137783 
L 325.779324 298.059547 
L 329.625074 297.863955 
L 335.668395 297.785719 
L 339.514145 297.590127 
L 343.909288 297.511891 
L 348.304431 297.277181 
L 352.150181 297.198944 
L 362.588645 296.533934 
L 368.082573 296.455697 
L 370.280144 296.220987 
L 371.928323 296.181869 
L 373.576501 296.142751 
L 375.774073 295.908041 
L 381.268001 295.595095 
L 384.564358 295.516858 
L 386.212537 295.47774 
L 387.860715 295.438622 
L 389.508894 295.282148 
L 393.904037 295.203912 
L 395.002822 295.047439 
L 396.101608 294.969202 
L 398.848572 294.851847 
L 399.947358 294.773611 
L 401.046144 294.695374 
L 405.990679 294.617138 
L 407.089465 294.499783 
L 409.287036 294.460664 
L 409.836429 294.34331 
L 410.935215 294.265073 
L 411.484608 294.147718 
L 413.132786 294.069482 
L 418.077322 293.795654 
L 419.176108 293.756535 
L 420.824286 293.600062 
L 422.472465 293.560944 
L 424.120643 293.482707 
L 426.867607 293.365352 
L 434.559107 293.287116 
L 438.404857 293.091524 
L 442.8 293.013288 
L 444.997571 292.935051 
L 447.195143 292.895933 
L 448.293928 292.778578 
L 450.4915 292.700342 
L 455.985428 292.387395 
L 459.281785 292.348277 
L 460.929964 292.191804 
L 462.578142 292.152686 
L 466.423892 292.074449 
L 468.621464 291.996212 
L 475.214178 291.917976 
L 477.961142 291.800621 
L 481.257499 291.722384 
L 482.905678 291.526793 
L 486.202035 291.487675 
L 487.850213 291.331201 
L 490.047785 291.252965 
L 496.640499 291.174728 
L 499.387463 291.057373 
L 508.727141 291.018255 
L 509.825927 290.940019 
L 511.474106 290.9009 
L 518.616213 290.822664 
L 519.714998 290.744427 
L 525.75832 290.666191 
L 527.955891 290.587954 
L 534.548605 290.548836 
L 535.647391 290.470599 
L 543.888284 290.431481 
L 545.536462 290.275008 
L 559.271283 290.196771 
L 560.919462 290.157653 
L 575.753069 290.079416 
L 577.401247 290.040298 
L 587.290318 289.962061 
L 588.389104 289.883825 
L 591.136068 289.805588 
L 592.784247 289.649115 
L 595.531211 289.570879 
L 597.728782 289.492642 
L 601.025139 289.414405 
L 602.673318 289.375287 
L 604.870889 289.297051 
L 606.519068 289.257932 
L 609.266032 289.179696 
L 610.364818 289.101459 
L 613.661175 289.023223 
L 616.408139 288.905868 
L 617.506925 288.866749 
L 618.605711 288.788513 
L 620.253889 288.749395 
L 622.45146 288.671158 
L 624.649032 288.592921 
L 631.791139 288.514685 
L 633.98871 288.436448 
L 638.383853 288.358212 
L 642.229603 288.16262 
L 647.174138 288.084384 
L 648.272924 288.006147 
L 658.161995 287.927911 
L 659.810174 287.888792 
L 662.557138 287.849674 
L 664.75471 287.614964 
L 666.402888 287.575846 
L 669.699245 287.497609 
L 675.193174 287.184663 
L 677.940138 287.106427 
L 680.137709 287.02819 
L 686.181031 286.949953 
L 688.927995 286.637007 
L 691.125566 286.558771 
L 694.971316 286.480534 
L 695.520709 286.363179 
L 700.465245 286.284943 
L 703.212209 286.167588 
L 710.354316 286.128469 
L 710.903709 286.011115 
L 715.298851 285.932878 
L 716.94703 285.89376 
L 719.693994 285.815523 
L 721.342173 285.776405 
L 730.681851 285.698168 
L 733.428815 285.580813 
L 741.120315 285.502577 
L 743.317886 285.42434 
L 747.163636 285.385222 
L 747.163636 285.385222 
" clip-path="url(#pc07b3f8720)" style="fill: none; stroke: #ff7f0e; stroke-width: 1.5; stroke-linecap: square"/>
   </g>
   <g id="patch_3">
    <path d="M 108 320.4 
L 108 43.2 
" style="fill: none; stroke: #a9a9a9; stroke-width: 0.8; stroke-linejoin: miter; stroke-linecap: square"/>
   </g>
   <g id="patch_4">
    <path d="M 777.6 320.4 
L 777.6 43.2 
" style="fill: none"/>
   </g>
   <g id="patch_5">
    <path d="M 108 320.4 
L 777.6 320.4 
" style="fill: none; stroke: #a9a9a9; stroke-width: 0.8; stroke-linejoin: miter; stroke-linecap: square"/>
   </g>
   <g id="patch_6">
    <path d="M 108 43.2 
L 777.6 43.2 
" style="fill: none"/>
   </g>
   <g id="text_20">
    <!-- get_subscribe history -->
    <g style="fill: #a9a9a9" transform="translate(378.6075 37.2) scale(0.12 -0.12)">
     <defs>
      <path id="DejaVuSans-67" d="M 2906 1791 
Q 2906 2416 2648 2759 
Q 2391 3103 1925 3103 
Q 1463 3103 1205 2759 
Q 947 2416 947 1791 
Q 947 1169 1205 825 
Q 1463 481 1925 481 
Q 2391 481 2648 825 
Q 2906 1169 2906 1791 
z
M 3481 434 
Q 3481 -459 3084 -895 
Q 2688 -1331 1869 -1331 
Q 1566 -1331 1297 -1286 
Q 1028 -1241 775 -1147 
L 775 -588 
Q 1028 -725 1275 -790 
Q 1522 -856 1778 -856 
Q 2344 -856 2625 -561 
Q 2906 -266 2906 331 
L 2906 616 
Q 2728 306 2450 153 
Q 2172 0 1784 0 
Q 1141 0 747 490 
Q 353 981 353 1791 
Q 353 2603 747 3093 
Q 1141 3584 1784 3584 
Q 2172 3584 2450 3431 
Q 2728 3278 2906 2969 
L 2906 3500 
L 3481 3500 
L 3481 434 
z
" transform="scale(0.015625)"/>
      <path id="DejaVuSans-65" d="M 3597 1894 
L 3597 1613 
L 953 1613 
Q 991 1019 1311 708 
Q 1631 397 2203 397 
Q 2534 397 2845 478 
Q 3156 559 3463 722 
L 3463 178 
Q 3153 47 2828 -22 
Q 2503 -91 2169 -91 
Q 1331 -91 842 396 
Q 353 884 353 1716 
Q 353 2575 817 3079 
Q 1281 3584 2069 3584 
Q 2775 3584 3186 3129 
Q 3597 2675 3597 1894 
z
M 3022 2063 
Q 3016 2534 2758 2815 
Q 2500 3097 2075 3097 
Q 1594 3097 1305 2825 
Q 1016 2553 972 2059 
L 3022 2063 
z
" transform="scale(0.015625)"/>
      <path id="DejaVuSans-74" d="M 1172 4494 
L 1172 3500 
L 2356 3500 
L 2356 3053 
L 1172 3053 
L 1172 1153 
Q 1172 725 1289 603 
Q 1406 481 1766 481 
L 2356 481 
L 2356 0 
L 1766 0 
Q 1100 0 847 248 
Q 594 497 594 1153 
L 594 3053 
L 172 3053 
L 172 3500 
L 594 3500 
L 594 4494 
L 1172 4494 
z
" transform="scale(0.015625)"/>
      <path id="DejaVuSans-5f" d="M 3263 -1063 
L 3263 -1509 
L -63 -1509 
L -63 -1063 
L 3263 -1063 
z
" transform="scale(0.015625)"/>
      <path id="DejaVuSans-73" d="M 2834 3397 
L 2834 2853 
Q 2591 2978 2328 3040 
Q 2066 3103 1784 3103 
Q 1356 3103 1142 2972 
Q 928 2841 928 2578 
Q 928 2378 1081 2264 
Q 1234 2150 1697 2047 
L 1894 2003 
Q 2506 1872 2764 1633 
Q 3022 1394 3022 966 
Q 3022 478 2636 193 
Q 2250 -91 1575 -91 
Q 1294 -91 989 -36 
Q 684 19 347 128 
L 347 722 
Q 666 556 975 473 
Q 1284 391 1588 391 
Q 1994 391 2212 530 
Q 2431 669 2431 922 
Q 2431 1156 2273 1281 
Q 2116 1406 1581 1522 
L 1381 1569 
Q 847 1681 609 1914 
Q 372 2147 372 2553 
Q 372 3047 722 3315 
Q 1072 3584 1716 3584 
Q 2034 3584 2315 3537 
Q 2597 3491 2834 3397 
z
" transform="scale(0.015625)"/>
      <path id="DejaVuSans-75" d="M 544 1381 
L 544 3500 
L 1119 3500 
L 1119 1403 
Q 1119 906 1312 657 
Q 1506 409 1894 409 
Q 2359 409 2629 706 
Q 2900 1003 2900 1516 
L 2900 3500 
L 3475 3500 
L 3475 0 
L 2900 0 
L 2900 538 
Q 2691 219 2414 64 
Q 2138 -91 1772 -91 
Q 1169 -91 856 284 
Q 544 659 544 1381 
z
M 1991 3584 
L 1991 3584 
z
" transform="scale(0.015625)"/>
      <path id="DejaVuSans-62" d="M 3116 1747 
Q 3116 2381 2855 2742 
Q 2594 3103 2138 3103 
Q 1681 3103 1420 2742 
Q 1159 2381 1159 1747 
Q 1159 1113 1420 752 
Q 1681 391 2138 391 
Q 2594 391 2855 752 
Q 3116 1113 3116 1747 
z
M 1159 2969 
Q 1341 3281 1617 3432 
Q 1894 3584 2278 3584 
Q 2916 3584 3314 3078 
Q 3713 2572 3713 1747 
Q 3713 922 3314 415 
Q 2916 -91 2278 -91 
Q 1894 -91 1617 61 
Q 1341 213 1159 525 
L 1159 0 
L 581 0 
L 581 4863 
L 1159 4863 
L 1159 2969 
z
" transform="scale(0.015625)"/>
      <path id="DejaVuSans-63" d="M 3122 3366 
L 3122 2828 
Q 2878 2963 2633 3030 
Q 2388 3097 2138 3097 
Q 1578 3097 1268 2742 
Q 959 2388 959 1747 
Q 959 1106 1268 751 
Q 1578 397 2138 397 
Q 2388 397 2633 464 
Q 2878 531 3122 666 
L 3122 134 
Q 2881 22 2623 -34 
Q 2366 -91 2075 -91 
Q 1284 -91 818 406 
Q 353 903 353 1747 
Q 353 2603 823 3093 
Q 1294 3584 2113 3584 
Q 2378 3584 2631 3529 
Q 2884 3475 3122 3366 
z
" transform="scale(0.015625)"/>
      <path id="DejaVuSans-72" d="M 2631 2963 
Q 2534 3019 2420 3045 
Q 2306 3072 2169 3072 
Q 1681 3072 1420 2755 
Q 1159 2438 1159 1844 
L 1159 0 
L 581 0 
L 581 3500 
L 1159 3500 
L 1159 2956 
Q 1341 3275 1631 3429 
Q 1922 3584 2338 3584 
Q 2397 3584 2469 3576 
Q 2541 3569 2628 3553 
L 2631 2963 
z
" transform="scale(0.015625)"/>
      <path id="DejaVuSans-69" d="M 603 3500 
L 1178 3500 
L 1178 0 
L 603 0 
L 603 3500 
z
M 603 4863 
L 1178 4863 
L 1178 4134 
L 603 4134 
L 603 4863 
z
" transform="scale(0.015625)"/>
      <path id="DejaVuSans-20" transform="scale(0.015625)"/>
      <path id="DejaVuSans-68" d="M 3513 2113 
L 3513 0 
L 2938 0 
L 2938 2094 
Q 2938 2591 2744 2837 
Q 2550 3084 2163 3084 
Q 1697 3084 1428 2787 
Q 1159 2491 1159 1978 
L 1159 0 
L 581 0 
L 581 4863 
L 1159 4863 
L 1159 2956 
Q 1366 3272 1645 3428 
Q 1925 3584 2291 3584 
Q 2894 3584 3203 3211 
Q 3513 2838 3513 2113 
z
" transform="scale(0.015625)"/>
      <path id="DejaVuSans-6f" d="M 1959 3097 
Q 1497 3097 1228 2736 
Q 959 2375 959 1747 
Q 959 1119 1226 758 
Q 1494 397 1959 397 
Q 2419 397 2687 759 
Q 2956 1122 2956 1747 
Q 2956 2369 2687 2733 
Q 2419 3097 1959 3097 
z
M 1959 3584 
Q 2709 3584 3137 3096 
Q 3566 2609 3566 1747 
Q 3566 888 3137 398 
Q 2709 -91 1959 -91 
Q 1206 -91 779 398 
Q 353 888 353 1747 
Q 353 2609 779 3096 
Q 1206 3584 1959 3584 
z
" transform="scale(0.015625)"/>
      <path id="DejaVuSans-79" d="M 2059 -325 
Q 1816 -950 1584 -1140 
Q 1353 -1331 966 -1331 
L 506 -1331 
L 506 -850 
L 844 -850 
Q 1081 -850 1212 -737 
Q 1344 -625 1503 -206 
L 1606 56 
L 191 3500 
L 800 3500 
L 1894 763 
L 2988 3500 
L 3597 3500 
L 2059 -325 
z
" transform="scale(0.015625)"/>
     </defs>
     <use xlink:href="#DejaVuSans-67"/>
     <use xlink:href="#DejaVuSans-65" x="63.476562"/>
     <use xlink:href="#DejaVuSans-74" x="125"/>
     <use xlink:href="#DejaVuSans-5f" x="164.208984"/>
     <use xlink:href="#DejaVuSans-73" x="214.208984"/>
     <use xlink:href="#DejaVuSans-75" x="266.308594"/>
     <use xlink:href="#DejaVuSans-62" x="329.6875"/>
     <use xlink:href="#DejaVuSans-73" x="393.164062"/>
     <use xlink:href="#DejaVuSans-63" x="445.263672"/>
     <use xlink:href="#DejaVuSans-72" x="500.244141"/>
     <use xlink:href="#DejaVuSans-69" x="541.357422"/>
     <use xlink:href="#DejaVuSans-62" x="569.140625"/>
     <use xlink:href="#DejaVuSans-65" x="632.617188"/>
     <use xlink:href="#DejaVuSans-20" x="694.140625"/>
     <use xlink:href="#DejaVuSans-68" x="725.927734"/>
     <use xlink:href="#DejaVuSans-69" x="789.306641"/>
     <use xlink:href="#DejaVuSans-73" x="817.089844"/>
     <use xlink:href="#DejaVuSans-74" x="869.189453"/>
     <use xlink:href="#DejaVuSans-6f" x="908.398438"/>
     <use xlink:href="#DejaVuSans-72" x="969.580078"/>
     <use xlink:href="#DejaVuSans-79" x="1010.693359"/>
    </g>
   </g>
   <g id="legend_1">
    <g id="line2d_41">
     <path d="M 815.08 328.498438 
L 825.08 328.498438 
L 835.08 328.498438 
" style="fill: none; stroke: #1f77b4; stroke-width: 1.5; stroke-linecap: square"/>
    </g>
    <g id="text_21">
     <!-- star -->
     <g style="fill: #a9a9a9" transform="translate(843.08 331.998438) scale(0.1 -0.1)">
      <defs>
       <path id="DejaVuSans-61" d="M 2194 1759 
Q 1497 1759 1228 1600 
Q 959 1441 959 1056 
Q 959 750 1161 570 
Q 1363 391 1709 391 
Q 2188 391 2477 730 
Q 2766 1069 2766 1631 
L 2766 1759 
L 2194 1759 
z
M 3341 1997 
L 3341 0 
L 2766 0 
L 2766 531 
Q 2569 213 2275 61 
Q 1981 -91 1556 -91 
Q 1019 -91 701 211 
Q 384 513 384 1019 
Q 384 1609 779 1909 
Q 1175 2209 1959 2209 
L 2766 2209 
L 2766 2266 
Q 2766 2663 2505 2880 
Q 2244 3097 1772 3097 
Q 1472 3097 1187 3025 
Q 903 2953 641 2809 
L 641 3341 
Q 956 3463 1253 3523 
Q 1550 3584 1831 3584 
Q 2591 3584 2966 3190 
Q 3341 2797 3341 1997 
z
" transform="scale(0.015625)"/>
      </defs>
      <use xlink:href="#DejaVuSans-73"/>
      <use xlink:href="#DejaVuSans-74" x="52.099609"/>
      <use xlink:href="#DejaVuSans-61" x="91.308594"/>
      <use xlink:href="#DejaVuSans-72" x="152.587891"/>
     </g>
    </g>
    <g id="line2d_42">
     <path d="M 815.08 343.176562 
L 825.08 343.176562 
L 835.08 343.176562 
" style="fill: none; stroke: #ff7f0e; stroke-width: 1.5; stroke-linecap: square"/>
    </g>
    <g id="text_22">
     <!-- fork -->
     <g style="fill: #a9a9a9" transform="translate(843.08 346.676562) scale(0.1 -0.1)">
      <defs>
       <path id="DejaVuSans-66" d="M 2375 4863 
L 2375 4384 
L 1825 4384 
Q 1516 4384 1395 4259 
Q 1275 4134 1275 3809 
L 1275 3500 
L 2222 3500 
L 2222 3053 
L 1275 3053 
L 1275 0 
L 697 0 
L 697 3053 
L 147 3053 
L 147 3500 
L 697 3500 
L 697 3744 
Q 697 4328 969 4595 
Q 1241 4863 1831 4863 
L 2375 4863 
z
" transform="scale(0.015625)"/>
       <path id="DejaVuSans-6b" d="M 581 4863 
L 1159 4863 
L 1159 1991 
L 2875 3500 
L 3609 3500 
L 1753 1863 
L 3688 0 
L 2938 0 
L 1159 1709 
L 1159 0 
L 581 0 
L 581 4863 
z
" transform="scale(0.015625)"/>
      </defs>
      <use xlink:href="#DejaVuSans-66"/>
      <use xlink:href="#DejaVuSans-6f" x="35.205078"/>
      <use xlink:href="#DejaVuSans-72" x="96.386719"/>
      <use xlink:href="#DejaVuSans-6b" x="137.5"/>
     </g>
    </g>
   </g>
  </g>
 </g>
 <defs>
  <clipPath id="pc07b3f8720">
   <rect x="108" y="43.2" width="669.6" height="277.2"/>
  </clipPath>
 </defs>
</svg>
