<?xml version="1.0" encoding="utf-8" standalone="no"?>
<!DOCTYPE svg PUBLIC "-//W3C//DTD SVG 1.1//EN"
  "http://www.w3.org/Graphics/SVG/1.1/DTD/svg11.dtd">
<svg xmlns:xlink="http://www.w3.org/1999/xlink" width="864pt" height="360pt" viewBox="0 0 864 360" xmlns="http://www.w3.org/2000/svg" version="1.1">
 <metadata>
  <rdf:RDF xmlns:dc="http://purl.org/dc/elements/1.1/" xmlns:cc="http://creativecommons.org/ns#" xmlns:rdf="http://www.w3.org/1999/02/22-rdf-syntax-ns#">
   <cc:Work>
    <dc:type rdf:resource="http://purl.org/dc/dcmitype/StillImage"/>
    <dc:date>2024-08-09T20:05:20.941688</dc:date>
    <dc:format>image/svg+xml</dc:format>
    <dc:creator>
     <cc:Agent>
      <dc:title>Matplotlib v3.9.1.post1, https://matplotlib.org/</dc:title>
     </cc:Agent>
    </dc:creator>
   </cc:Work>
  </rdf:RDF>
 </metadata>
 <defs>
  <style type="text/css">*{stroke-linejoin: round; stroke-linecap: butt}</style>
 </defs>
 <g id="figure_1">
  <g id="patch_1">
   <path d="M 0 360 
L 864 360 
L 864 0 
L 0 0 
L 0 360 
z
" style="fill: none; opacity: 0"/>
  </g>
  <g id="axes_1">
   <g id="patch_2">
    <path d="M 108 320.4 
L 777.6 320.4 
L 777.6 43.2 
L 108 43.2 
L 108 320.4 
z
" style="fill: none; opacity: 0"/>
   </g>
   <g id="matplotlib.axis_1">
    <g id="xtick_1">
     <g id="line2d_1">
      <path d="M 159.785612 320.4 
L 159.785612 43.2 
" clip-path="url(#pd754ca0ab4)" style="fill: none; stroke-dasharray: 5.12,1.28,0.8,1.28; stroke-dashoffset: 0; stroke: #b0b0b0; stroke-width: 0.8"/>
     </g>
     <g id="line2d_2">
      <defs>
       <path id="mab0205c919" d="M 0 0 
L 0 3.5 
" style="stroke: #a9a9a9; stroke-width: 0.8"/>
      </defs>
      <g>
       <use xlink:href="#mab0205c919" x="159.785612" y="320.4" style="fill: #a9a9a9; stroke: #a9a9a9; stroke-width: 0.8"/>
      </g>
     </g>
     <g id="text_1">
      <!-- 2021-09 -->
      <g style="fill: #a9a9a9" transform="translate(138.894205 334.998438) scale(0.1 -0.1)">
       <defs>
        <path id="DejaVuSans-32" d="M 1228 531 
L 3431 531 
L 3431 0 
L 469 0 
L 469 531 
Q 828 903 1448 1529 
Q 2069 2156 2228 2338 
Q 2531 2678 2651 2914 
Q 2772 3150 2772 3378 
Q 2772 3750 2511 3984 
Q 2250 4219 1831 4219 
Q 1534 4219 1204 4116 
Q 875 4013 500 3803 
L 500 4441 
Q 881 4594 1212 4672 
Q 1544 4750 1819 4750 
Q 2544 4750 2975 4387 
Q 3406 4025 3406 3419 
Q 3406 3131 3298 2873 
Q 3191 2616 2906 2266 
Q 2828 2175 2409 1742 
Q 1991 1309 1228 531 
z
" transform="scale(0.015625)"/>
        <path id="DejaVuSans-30" d="M 2034 4250 
Q 1547 4250 1301 3770 
Q 1056 3291 1056 2328 
Q 1056 1369 1301 889 
Q 1547 409 2034 409 
Q 2525 409 2770 889 
Q 3016 1369 3016 2328 
Q 3016 3291 2770 3770 
Q 2525 4250 2034 4250 
z
M 2034 4750 
Q 2819 4750 3233 4129 
Q 3647 3509 3647 2328 
Q 3647 1150 3233 529 
Q 2819 -91 2034 -91 
Q 1250 -91 836 529 
Q 422 1150 422 2328 
Q 422 3509 836 4129 
Q 1250 4750 2034 4750 
z
" transform="scale(0.015625)"/>
        <path id="DejaVuSans-31" d="M 794 531 
L 1825 531 
L 1825 4091 
L 703 3866 
L 703 4441 
L 1819 4666 
L 2450 4666 
L 2450 531 
L 3481 531 
L 3481 0 
L 794 0 
L 794 531 
z
" transform="scale(0.015625)"/>
        <path id="DejaVuSans-2d" d="M 313 2009 
L 1997 2009 
L 1997 1497 
L 313 1497 
L 313 2009 
z
" transform="scale(0.015625)"/>
        <path id="DejaVuSans-39" d="M 703 97 
L 703 672 
Q 941 559 1184 500 
Q 1428 441 1663 441 
Q 2288 441 2617 861 
Q 2947 1281 2994 2138 
Q 2813 1869 2534 1725 
Q 2256 1581 1919 1581 
Q 1219 1581 811 2004 
Q 403 2428 403 3163 
Q 403 3881 828 4315 
Q 1253 4750 1959 4750 
Q 2769 4750 3195 4129 
Q 3622 3509 3622 2328 
Q 3622 1225 3098 567 
Q 2575 -91 1691 -91 
Q 1453 -91 1209 -44 
Q 966 3 703 97 
z
M 1959 2075 
Q 2384 2075 2632 2365 
Q 2881 2656 2881 3163 
Q 2881 3666 2632 3958 
Q 2384 4250 1959 4250 
Q 1534 4250 1286 3958 
Q 1038 3666 1038 3163 
Q 1038 2656 1286 2365 
Q 1534 2075 1959 2075 
z
" transform="scale(0.015625)"/>
       </defs>
       <use xlink:href="#DejaVuSans-32"/>
       <use xlink:href="#DejaVuSans-30" x="63.623047"/>
       <use xlink:href="#DejaVuSans-32" x="127.246094"/>
       <use xlink:href="#DejaVuSans-31" x="190.869141"/>
       <use xlink:href="#DejaVuSans-2d" x="254.492188"/>
       <use xlink:href="#DejaVuSans-30" x="290.576172"/>
       <use xlink:href="#DejaVuSans-39" x="354.199219"/>
      </g>
     </g>
    </g>
    <g id="xtick_2">
     <g id="line2d_3">
      <path d="M 226.570438 320.4 
L 226.570438 43.2 
" clip-path="url(#pd754ca0ab4)" style="fill: none; stroke-dasharray: 5.12,1.28,0.8,1.28; stroke-dashoffset: 0; stroke: #b0b0b0; stroke-width: 0.8"/>
     </g>
     <g id="line2d_4">
      <g>
       <use xlink:href="#mab0205c919" x="226.570438" y="320.4" style="fill: #a9a9a9; stroke: #a9a9a9; stroke-width: 0.8"/>
      </g>
     </g>
     <g id="text_2">
      <!-- 2022-01 -->
      <g style="fill: #a9a9a9" transform="translate(205.679032 334.998438) scale(0.1 -0.1)">
       <use xlink:href="#DejaVuSans-32"/>
       <use xlink:href="#DejaVuSans-30" x="63.623047"/>
       <use xlink:href="#DejaVuSans-32" x="127.246094"/>
       <use xlink:href="#DejaVuSans-32" x="190.869141"/>
       <use xlink:href="#DejaVuSans-2d" x="254.492188"/>
       <use xlink:href="#DejaVuSans-30" x="290.576172"/>
       <use xlink:href="#DejaVuSans-31" x="354.199219"/>
      </g>
     </g>
    </g>
    <g id="xtick_3">
     <g id="line2d_5">
      <path d="M 292.260432 320.4 
L 292.260432 43.2 
" clip-path="url(#pd754ca0ab4)" style="fill: none; stroke-dasharray: 5.12,1.28,0.8,1.28; stroke-dashoffset: 0; stroke: #b0b0b0; stroke-width: 0.8"/>
     </g>
     <g id="line2d_6">
      <g>
       <use xlink:href="#mab0205c919" x="292.260432" y="320.4" style="fill: #a9a9a9; stroke: #a9a9a9; stroke-width: 0.8"/>
      </g>
     </g>
     <g id="text_3">
      <!-- 2022-05 -->
      <g style="fill: #a9a9a9" transform="translate(271.369025 334.998438) scale(0.1 -0.1)">
       <defs>
        <path id="DejaVuSans-35" d="M 691 4666 
L 3169 4666 
L 3169 4134 
L 1269 4134 
L 1269 2991 
Q 1406 3038 1543 3061 
Q 1681 3084 1819 3084 
Q 2600 3084 3056 2656 
Q 3513 2228 3513 1497 
Q 3513 744 3044 326 
Q 2575 -91 1722 -91 
Q 1428 -91 1123 -41 
Q 819 9 494 109 
L 494 744 
Q 775 591 1075 516 
Q 1375 441 1709 441 
Q 2250 441 2565 725 
Q 2881 1009 2881 1497 
Q 2881 1984 2565 2268 
Q 2250 2553 1709 2553 
Q 1456 2553 1204 2497 
Q 953 2441 691 2322 
L 691 4666 
z
" transform="scale(0.015625)"/>
       </defs>
       <use xlink:href="#DejaVuSans-32"/>
       <use xlink:href="#DejaVuSans-30" x="63.623047"/>
       <use xlink:href="#DejaVuSans-32" x="127.246094"/>
       <use xlink:href="#DejaVuSans-32" x="190.869141"/>
       <use xlink:href="#DejaVuSans-2d" x="254.492188"/>
       <use xlink:href="#DejaVuSans-30" x="290.576172"/>
       <use xlink:href="#DejaVuSans-35" x="354.199219"/>
      </g>
     </g>
    </g>
    <g id="xtick_4">
     <g id="line2d_7">
      <path d="M 359.592675 320.4 
L 359.592675 43.2 
" clip-path="url(#pd754ca0ab4)" style="fill: none; stroke-dasharray: 5.12,1.28,0.8,1.28; stroke-dashoffset: 0; stroke: #b0b0b0; stroke-width: 0.8"/>
     </g>
     <g id="line2d_8">
      <g>
       <use xlink:href="#mab0205c919" x="359.592675" y="320.4" style="fill: #a9a9a9; stroke: #a9a9a9; stroke-width: 0.8"/>
      </g>
     </g>
     <g id="text_4">
      <!-- 2022-09 -->
      <g style="fill: #a9a9a9" transform="translate(338.701269 334.998438) scale(0.1 -0.1)">
       <use xlink:href="#DejaVuSans-32"/>
       <use xlink:href="#DejaVuSans-30" x="63.623047"/>
       <use xlink:href="#DejaVuSans-32" x="127.246094"/>
       <use xlink:href="#DejaVuSans-32" x="190.869141"/>
       <use xlink:href="#DejaVuSans-2d" x="254.492188"/>
       <use xlink:href="#DejaVuSans-30" x="290.576172"/>
       <use xlink:href="#DejaVuSans-39" x="354.199219"/>
      </g>
     </g>
    </g>
    <g id="xtick_5">
     <g id="line2d_9">
      <path d="M 426.377502 320.4 
L 426.377502 43.2 
" clip-path="url(#pd754ca0ab4)" style="fill: none; stroke-dasharray: 5.12,1.28,0.8,1.28; stroke-dashoffset: 0; stroke: #b0b0b0; stroke-width: 0.8"/>
     </g>
     <g id="line2d_10">
      <g>
       <use xlink:href="#mab0205c919" x="426.377502" y="320.4" style="fill: #a9a9a9; stroke: #a9a9a9; stroke-width: 0.8"/>
      </g>
     </g>
     <g id="text_5">
      <!-- 2023-01 -->
      <g style="fill: #a9a9a9" transform="translate(405.486095 334.998438) scale(0.1 -0.1)">
       <defs>
        <path id="DejaVuSans-33" d="M 2597 2516 
Q 3050 2419 3304 2112 
Q 3559 1806 3559 1356 
Q 3559 666 3084 287 
Q 2609 -91 1734 -91 
Q 1441 -91 1130 -33 
Q 819 25 488 141 
L 488 750 
Q 750 597 1062 519 
Q 1375 441 1716 441 
Q 2309 441 2620 675 
Q 2931 909 2931 1356 
Q 2931 1769 2642 2001 
Q 2353 2234 1838 2234 
L 1294 2234 
L 1294 2753 
L 1863 2753 
Q 2328 2753 2575 2939 
Q 2822 3125 2822 3475 
Q 2822 3834 2567 4026 
Q 2313 4219 1838 4219 
Q 1578 4219 1281 4162 
Q 984 4106 628 3988 
L 628 4550 
Q 988 4650 1302 4700 
Q 1616 4750 1894 4750 
Q 2613 4750 3031 4423 
Q 3450 4097 3450 3541 
Q 3450 3153 3228 2886 
Q 3006 2619 2597 2516 
z
" transform="scale(0.015625)"/>
       </defs>
       <use xlink:href="#DejaVuSans-32"/>
       <use xlink:href="#DejaVuSans-30" x="63.623047"/>
       <use xlink:href="#DejaVuSans-32" x="127.246094"/>
       <use xlink:href="#DejaVuSans-33" x="190.869141"/>
       <use xlink:href="#DejaVuSans-2d" x="254.492188"/>
       <use xlink:href="#DejaVuSans-30" x="290.576172"/>
       <use xlink:href="#DejaVuSans-31" x="354.199219"/>
      </g>
     </g>
    </g>
    <g id="xtick_6">
     <g id="line2d_11">
      <path d="M 492.067495 320.4 
L 492.067495 43.2 
" clip-path="url(#pd754ca0ab4)" style="fill: none; stroke-dasharray: 5.12,1.28,0.8,1.28; stroke-dashoffset: 0; stroke: #b0b0b0; stroke-width: 0.8"/>
     </g>
     <g id="line2d_12">
      <g>
       <use xlink:href="#mab0205c919" x="492.067495" y="320.4" style="fill: #a9a9a9; stroke: #a9a9a9; stroke-width: 0.8"/>
      </g>
     </g>
     <g id="text_6">
      <!-- 2023-05 -->
      <g style="fill: #a9a9a9" transform="translate(471.176089 334.998438) scale(0.1 -0.1)">
       <use xlink:href="#DejaVuSans-32"/>
       <use xlink:href="#DejaVuSans-30" x="63.623047"/>
       <use xlink:href="#DejaVuSans-32" x="127.246094"/>
       <use xlink:href="#DejaVuSans-33" x="190.869141"/>
       <use xlink:href="#DejaVuSans-2d" x="254.492188"/>
       <use xlink:href="#DejaVuSans-30" x="290.576172"/>
       <use xlink:href="#DejaVuSans-35" x="354.199219"/>
      </g>
     </g>
    </g>
    <g id="xtick_7">
     <g id="line2d_13">
      <path d="M 559.399738 320.4 
L 559.399738 43.2 
" clip-path="url(#pd754ca0ab4)" style="fill: none; stroke-dasharray: 5.12,1.28,0.8,1.28; stroke-dashoffset: 0; stroke: #b0b0b0; stroke-width: 0.8"/>
     </g>
     <g id="line2d_14">
      <g>
       <use xlink:href="#mab0205c919" x="559.399738" y="320.4" style="fill: #a9a9a9; stroke: #a9a9a9; stroke-width: 0.8"/>
      </g>
     </g>
     <g id="text_7">
      <!-- 2023-09 -->
      <g style="fill: #a9a9a9" transform="translate(538.508332 334.998438) scale(0.1 -0.1)">
       <use xlink:href="#DejaVuSans-32"/>
       <use xlink:href="#DejaVuSans-30" x="63.623047"/>
       <use xlink:href="#DejaVuSans-32" x="127.246094"/>
       <use xlink:href="#DejaVuSans-33" x="190.869141"/>
       <use xlink:href="#DejaVuSans-2d" x="254.492188"/>
       <use xlink:href="#DejaVuSans-30" x="290.576172"/>
       <use xlink:href="#DejaVuSans-39" x="354.199219"/>
      </g>
     </g>
    </g>
    <g id="xtick_8">
     <g id="line2d_15">
      <path d="M 626.184565 320.4 
L 626.184565 43.2 
" clip-path="url(#pd754ca0ab4)" style="fill: none; stroke-dasharray: 5.12,1.28,0.8,1.28; stroke-dashoffset: 0; stroke: #b0b0b0; stroke-width: 0.8"/>
     </g>
     <g id="line2d_16">
      <g>
       <use xlink:href="#mab0205c919" x="626.184565" y="320.4" style="fill: #a9a9a9; stroke: #a9a9a9; stroke-width: 0.8"/>
      </g>
     </g>
     <g id="text_8">
      <!-- 2024-01 -->
      <g style="fill: #a9a9a9" transform="translate(605.293159 334.998438) scale(0.1 -0.1)">
       <defs>
        <path id="DejaVuSans-34" d="M 2419 4116 
L 825 1625 
L 2419 1625 
L 2419 4116 
z
M 2253 4666 
L 3047 4666 
L 3047 1625 
L 3713 1625 
L 3713 1100 
L 3047 1100 
L 3047 0 
L 2419 0 
L 2419 1100 
L 313 1100 
L 313 1709 
L 2253 4666 
z
" transform="scale(0.015625)"/>
       </defs>
       <use xlink:href="#DejaVuSans-32"/>
       <use xlink:href="#DejaVuSans-30" x="63.623047"/>
       <use xlink:href="#DejaVuSans-32" x="127.246094"/>
       <use xlink:href="#DejaVuSans-34" x="190.869141"/>
       <use xlink:href="#DejaVuSans-2d" x="254.492188"/>
       <use xlink:href="#DejaVuSans-30" x="290.576172"/>
       <use xlink:href="#DejaVuSans-31" x="354.199219"/>
      </g>
     </g>
    </g>
    <g id="xtick_9">
     <g id="line2d_17">
      <path d="M 692.421975 320.4 
L 692.421975 43.2 
" clip-path="url(#pd754ca0ab4)" style="fill: none; stroke-dasharray: 5.12,1.28,0.8,1.28; stroke-dashoffset: 0; stroke: #b0b0b0; stroke-width: 0.8"/>
     </g>
     <g id="line2d_18">
      <g>
       <use xlink:href="#mab0205c919" x="692.421975" y="320.4" style="fill: #a9a9a9; stroke: #a9a9a9; stroke-width: 0.8"/>
      </g>
     </g>
     <g id="text_9">
      <!-- 2024-05 -->
      <g style="fill: #a9a9a9" transform="translate(671.530569 334.998438) scale(0.1 -0.1)">
       <use xlink:href="#DejaVuSans-32"/>
       <use xlink:href="#DejaVuSans-30" x="63.623047"/>
       <use xlink:href="#DejaVuSans-32" x="127.246094"/>
       <use xlink:href="#DejaVuSans-34" x="190.869141"/>
       <use xlink:href="#DejaVuSans-2d" x="254.492188"/>
       <use xlink:href="#DejaVuSans-30" x="290.576172"/>
       <use xlink:href="#DejaVuSans-35" x="354.199219"/>
      </g>
     </g>
    </g>
    <g id="xtick_10">
     <g id="line2d_19">
      <path d="M 759.754218 320.4 
L 759.754218 43.2 
" clip-path="url(#pd754ca0ab4)" style="fill: none; stroke-dasharray: 5.12,1.28,0.8,1.28; stroke-dashoffset: 0; stroke: #b0b0b0; stroke-width: 0.8"/>
     </g>
     <g id="line2d_20">
      <g>
       <use xlink:href="#mab0205c919" x="759.754218" y="320.4" style="fill: #a9a9a9; stroke: #a9a9a9; stroke-width: 0.8"/>
      </g>
     </g>
     <g id="text_10">
      <!-- 2024-09 -->
      <g style="fill: #a9a9a9" transform="translate(738.862812 334.998438) scale(0.1 -0.1)">
       <use xlink:href="#DejaVuSans-32"/>
       <use xlink:href="#DejaVuSans-30" x="63.623047"/>
       <use xlink:href="#DejaVuSans-32" x="127.246094"/>
       <use xlink:href="#DejaVuSans-34" x="190.869141"/>
       <use xlink:href="#DejaVuSans-2d" x="254.492188"/>
       <use xlink:href="#DejaVuSans-30" x="290.576172"/>
       <use xlink:href="#DejaVuSans-39" x="354.199219"/>
      </g>
     </g>
    </g>
   </g>
   <g id="matplotlib.axis_2">
    <g id="ytick_1">
     <g id="line2d_21">
      <path d="M 108 307.838967 
L 777.6 307.838967 
" clip-path="url(#pd754ca0ab4)" style="fill: none; stroke-dasharray: 5.12,1.28,0.8,1.28; stroke-dashoffset: 0; stroke: #b0b0b0; stroke-width: 0.8"/>
     </g>
     <g id="line2d_22">
      <defs>
       <path id="m994054ea2b" d="M 0 0 
L -3.5 0 
" style="stroke: #a9a9a9; stroke-width: 0.8"/>
      </defs>
      <g>
       <use xlink:href="#m994054ea2b" x="108" y="307.838967" style="fill: #a9a9a9; stroke: #a9a9a9; stroke-width: 0.8"/>
      </g>
     </g>
     <g id="text_11">
      <!-- 0 -->
      <g style="fill: #a9a9a9" transform="translate(94.6375 311.638186) scale(0.1 -0.1)">
       <use xlink:href="#DejaVuSans-30"/>
      </g>
     </g>
    </g>
    <g id="ytick_2">
     <g id="line2d_23">
      <path d="M 108 276.665316 
L 777.6 276.665316 
" clip-path="url(#pd754ca0ab4)" style="fill: none; stroke-dasharray: 5.12,1.28,0.8,1.28; stroke-dashoffset: 0; stroke: #b0b0b0; stroke-width: 0.8"/>
     </g>
     <g id="line2d_24">
      <g>
       <use xlink:href="#m994054ea2b" x="108" y="276.665316" style="fill: #a9a9a9; stroke: #a9a9a9; stroke-width: 0.8"/>
      </g>
     </g>
     <g id="text_12">
      <!-- 800 -->
      <g style="fill: #a9a9a9" transform="translate(81.9125 280.464535) scale(0.1 -0.1)">
       <defs>
        <path id="DejaVuSans-38" d="M 2034 2216 
Q 1584 2216 1326 1975 
Q 1069 1734 1069 1313 
Q 1069 891 1326 650 
Q 1584 409 2034 409 
Q 2484 409 2743 651 
Q 3003 894 3003 1313 
Q 3003 1734 2745 1975 
Q 2488 2216 2034 2216 
z
M 1403 2484 
Q 997 2584 770 2862 
Q 544 3141 544 3541 
Q 544 4100 942 4425 
Q 1341 4750 2034 4750 
Q 2731 4750 3128 4425 
Q 3525 4100 3525 3541 
Q 3525 3141 3298 2862 
Q 3072 2584 2669 2484 
Q 3125 2378 3379 2068 
Q 3634 1759 3634 1313 
Q 3634 634 3220 271 
Q 2806 -91 2034 -91 
Q 1263 -91 848 271 
Q 434 634 434 1313 
Q 434 1759 690 2068 
Q 947 2378 1403 2484 
z
M 1172 3481 
Q 1172 3119 1398 2916 
Q 1625 2713 2034 2713 
Q 2441 2713 2670 2916 
Q 2900 3119 2900 3481 
Q 2900 3844 2670 4047 
Q 2441 4250 2034 4250 
Q 1625 4250 1398 4047 
Q 1172 3844 1172 3481 
z
" transform="scale(0.015625)"/>
       </defs>
       <use xlink:href="#DejaVuSans-38"/>
       <use xlink:href="#DejaVuSans-30" x="63.623047"/>
       <use xlink:href="#DejaVuSans-30" x="127.246094"/>
      </g>
     </g>
    </g>
    <g id="ytick_3">
     <g id="line2d_25">
      <path d="M 108 245.491665 
L 777.6 245.491665 
" clip-path="url(#pd754ca0ab4)" style="fill: none; stroke-dasharray: 5.12,1.28,0.8,1.28; stroke-dashoffset: 0; stroke: #b0b0b0; stroke-width: 0.8"/>
     </g>
     <g id="line2d_26">
      <g>
       <use xlink:href="#m994054ea2b" x="108" y="245.491665" style="fill: #a9a9a9; stroke: #a9a9a9; stroke-width: 0.8"/>
      </g>
     </g>
     <g id="text_13">
      <!-- 1600 -->
      <g style="fill: #a9a9a9" transform="translate(75.55 249.290884) scale(0.1 -0.1)">
       <defs>
        <path id="DejaVuSans-36" d="M 2113 2584 
Q 1688 2584 1439 2293 
Q 1191 2003 1191 1497 
Q 1191 994 1439 701 
Q 1688 409 2113 409 
Q 2538 409 2786 701 
Q 3034 994 3034 1497 
Q 3034 2003 2786 2293 
Q 2538 2584 2113 2584 
z
M 3366 4563 
L 3366 3988 
Q 3128 4100 2886 4159 
Q 2644 4219 2406 4219 
Q 1781 4219 1451 3797 
Q 1122 3375 1075 2522 
Q 1259 2794 1537 2939 
Q 1816 3084 2150 3084 
Q 2853 3084 3261 2657 
Q 3669 2231 3669 1497 
Q 3669 778 3244 343 
Q 2819 -91 2113 -91 
Q 1303 -91 875 529 
Q 447 1150 447 2328 
Q 447 3434 972 4092 
Q 1497 4750 2381 4750 
Q 2619 4750 2861 4703 
Q 3103 4656 3366 4563 
z
" transform="scale(0.015625)"/>
       </defs>
       <use xlink:href="#DejaVuSans-31"/>
       <use xlink:href="#DejaVuSans-36" x="63.623047"/>
       <use xlink:href="#DejaVuSans-30" x="127.246094"/>
       <use xlink:href="#DejaVuSans-30" x="190.869141"/>
      </g>
     </g>
    </g>
    <g id="ytick_4">
     <g id="line2d_27">
      <path d="M 108 214.318015 
L 777.6 214.318015 
" clip-path="url(#pd754ca0ab4)" style="fill: none; stroke-dasharray: 5.12,1.28,0.8,1.28; stroke-dashoffset: 0; stroke: #b0b0b0; stroke-width: 0.8"/>
     </g>
     <g id="line2d_28">
      <g>
       <use xlink:href="#m994054ea2b" x="108" y="214.318015" style="fill: #a9a9a9; stroke: #a9a9a9; stroke-width: 0.8"/>
      </g>
     </g>
     <g id="text_14">
      <!-- 2400 -->
      <g style="fill: #a9a9a9" transform="translate(75.55 218.117233) scale(0.1 -0.1)">
       <use xlink:href="#DejaVuSans-32"/>
       <use xlink:href="#DejaVuSans-34" x="63.623047"/>
       <use xlink:href="#DejaVuSans-30" x="127.246094"/>
       <use xlink:href="#DejaVuSans-30" x="190.869141"/>
      </g>
     </g>
    </g>
    <g id="ytick_5">
     <g id="line2d_29">
      <path d="M 108 183.144364 
L 777.6 183.144364 
" clip-path="url(#pd754ca0ab4)" style="fill: none; stroke-dasharray: 5.12,1.28,0.8,1.28; stroke-dashoffset: 0; stroke: #b0b0b0; stroke-width: 0.8"/>
     </g>
     <g id="line2d_30">
      <g>
       <use xlink:href="#m994054ea2b" x="108" y="183.144364" style="fill: #a9a9a9; stroke: #a9a9a9; stroke-width: 0.8"/>
      </g>
     </g>
     <g id="text_15">
      <!-- 3200 -->
      <g style="fill: #a9a9a9" transform="translate(75.55 186.943582) scale(0.1 -0.1)">
       <use xlink:href="#DejaVuSans-33"/>
       <use xlink:href="#DejaVuSans-32" x="63.623047"/>
       <use xlink:href="#DejaVuSans-30" x="127.246094"/>
       <use xlink:href="#DejaVuSans-30" x="190.869141"/>
      </g>
     </g>
    </g>
    <g id="ytick_6">
     <g id="line2d_31">
      <path d="M 108 151.970713 
L 777.6 151.970713 
" clip-path="url(#pd754ca0ab4)" style="fill: none; stroke-dasharray: 5.12,1.28,0.8,1.28; stroke-dashoffset: 0; stroke: #b0b0b0; stroke-width: 0.8"/>
     </g>
     <g id="line2d_32">
      <g>
       <use xlink:href="#m994054ea2b" x="108" y="151.970713" style="fill: #a9a9a9; stroke: #a9a9a9; stroke-width: 0.8"/>
      </g>
     </g>
     <g id="text_16">
      <!-- 4000 -->
      <g style="fill: #a9a9a9" transform="translate(75.55 155.769932) scale(0.1 -0.1)">
       <use xlink:href="#DejaVuSans-34"/>
       <use xlink:href="#DejaVuSans-30" x="63.623047"/>
       <use xlink:href="#DejaVuSans-30" x="127.246094"/>
       <use xlink:href="#DejaVuSans-30" x="190.869141"/>
      </g>
     </g>
    </g>
    <g id="ytick_7">
     <g id="line2d_33">
      <path d="M 108 120.797062 
L 777.6 120.797062 
" clip-path="url(#pd754ca0ab4)" style="fill: none; stroke-dasharray: 5.12,1.28,0.8,1.28; stroke-dashoffset: 0; stroke: #b0b0b0; stroke-width: 0.8"/>
     </g>
     <g id="line2d_34">
      <g>
       <use xlink:href="#m994054ea2b" x="108" y="120.797062" style="fill: #a9a9a9; stroke: #a9a9a9; stroke-width: 0.8"/>
      </g>
     </g>
     <g id="text_17">
      <!-- 4800 -->
      <g style="fill: #a9a9a9" transform="translate(75.55 124.596281) scale(0.1 -0.1)">
       <use xlink:href="#DejaVuSans-34"/>
       <use xlink:href="#DejaVuSans-38" x="63.623047"/>
       <use xlink:href="#DejaVuSans-30" x="127.246094"/>
       <use xlink:href="#DejaVuSans-30" x="190.869141"/>
      </g>
     </g>
    </g>
    <g id="ytick_8">
     <g id="line2d_35">
      <path d="M 108 89.623411 
L 777.6 89.623411 
" clip-path="url(#pd754ca0ab4)" style="fill: none; stroke-dasharray: 5.12,1.28,0.8,1.28; stroke-dashoffset: 0; stroke: #b0b0b0; stroke-width: 0.8"/>
     </g>
     <g id="line2d_36">
      <g>
       <use xlink:href="#m994054ea2b" x="108" y="89.623411" style="fill: #a9a9a9; stroke: #a9a9a9; stroke-width: 0.8"/>
      </g>
     </g>
     <g id="text_18">
      <!-- 5600 -->
      <g style="fill: #a9a9a9" transform="translate(75.55 93.42263) scale(0.1 -0.1)">
       <use xlink:href="#DejaVuSans-35"/>
       <use xlink:href="#DejaVuSans-36" x="63.623047"/>
       <use xlink:href="#DejaVuSans-30" x="127.246094"/>
       <use xlink:href="#DejaVuSans-30" x="190.869141"/>
      </g>
     </g>
    </g>
    <g id="ytick_9">
     <g id="line2d_37">
      <path d="M 108 58.44976 
L 777.6 58.44976 
" clip-path="url(#pd754ca0ab4)" style="fill: none; stroke-dasharray: 5.12,1.28,0.8,1.28; stroke-dashoffset: 0; stroke: #b0b0b0; stroke-width: 0.8"/>
     </g>
     <g id="line2d_38">
      <g>
       <use xlink:href="#m994054ea2b" x="108" y="58.44976" style="fill: #a9a9a9; stroke: #a9a9a9; stroke-width: 0.8"/>
      </g>
     </g>
     <g id="text_19">
      <!-- 6400 -->
      <g style="fill: #a9a9a9" transform="translate(75.55 62.248979) scale(0.1 -0.1)">
       <use xlink:href="#DejaVuSans-36"/>
       <use xlink:href="#DejaVuSans-34" x="63.623047"/>
       <use xlink:href="#DejaVuSans-30" x="127.246094"/>
       <use xlink:href="#DejaVuSans-30" x="190.869141"/>
      </g>
     </g>
    </g>
   </g>
   <g id="line2d_39">
    <path d="M 138.436364 307.722066 
L 141.720863 307.449296 
L 142.26828 307.215494 
L 143.91053 307.059626 
L 147.195029 306.397186 
L 150.479529 306.124416 
L 151.574362 305.695779 
L 152.121779 304.994371 
L 152.669196 304.604701 
L 153.216612 303.396722 
L 153.764029 303.318788 
L 154.311445 302.89015 
L 155.406279 302.344611 
L 157.595945 300.63006 
L 159.785612 299.57795 
L 161.427861 298.837575 
L 161.975278 297.9803 
L 163.070111 297.200959 
L 163.617528 296.967156 
L 169.091694 296.187815 
L 169.639111 295.915046 
L 173.471027 295.603309 
L 175.113277 295.174671 
L 180.040026 294.512231 
L 180.587443 294.200495 
L 181.134859 294.122561 
L 182.229693 293.771857 
L 186.061609 293.148384 
L 187.156442 292.836648 
L 188.798692 292.680779 
L 189.893525 292.563878 
L 190.440942 292.40801 
L 190.988358 292.369043 
L 192.630608 291.862471 
L 193.725441 291.784537 
L 194.820275 291.628669 
L 195.915108 291.394866 
L 196.462525 291.238998 
L 197.009941 290.498624 
L 198.652191 289.875151 
L 200.294441 289.446513 
L 200.841857 289.173744 
L 201.389274 289.134777 
L 204.126357 288.355435 
L 205.22119 288.277501 
L 205.768607 288.199567 
L 207.410857 287.692995 
L 209.600523 287.147456 
L 210.14794 286.913654 
L 210.695356 286.83572 
L 211.242773 286.56295 
L 216.716939 285.744642 
L 219.454022 284.965301 
L 220.001439 284.614597 
L 222.191105 284.030091 
L 224.380772 282.900046 
L 226.023022 282.510376 
L 226.570438 282.432442 
L 227.117855 282.159672 
L 228.212688 281.964837 
L 229.307521 281.458265 
L 232.044604 280.756858 
L 233.686854 280.32822 
L 235.329104 279.743714 
L 235.876521 279.66578 
L 236.971354 279.237142 
L 238.066187 279.159208 
L 239.708437 278.691604 
L 240.255853 278.691604 
L 240.80327 278.457801 
L 241.898103 278.3409 
L 242.44552 278.146065 
L 243.540353 278.107098 
L 245.73002 277.834328 
L 246.824853 277.288789 
L 253.393852 274.366259 
L 253.941269 273.781754 
L 255.036102 272.145137 
L 255.583519 271.989269 
L 256.130935 271.989269 
L 257.225768 271.17096 
L 257.773185 271.015092 
L 258.320602 270.742323 
L 258.868018 270.625421 
L 259.415435 270.11885 
L 259.962852 269.962981 
L 261.605101 269.18364 
L 262.699935 267.624957 
L 263.247351 267.274254 
L 263.794768 266.339044 
L 264.342184 265.754538 
L 267.626684 264.039988 
L 268.721517 263.182712 
L 269.268934 262.832009 
L 269.816351 262.0137 
L 270.363767 260.805721 
L 270.911184 259.987413 
L 271.4586 259.558775 
L 272.006017 259.324973 
L 274.195683 257.415587 
L 275.290517 256.519344 
L 275.837933 256.05174 
L 276.38535 255.311365 
L 277.480183 254.337189 
L 279.66985 252.895407 
L 280.217266 252.427803 
L 280.764683 252.310901 
L 281.859516 251.726396 
L 284.049182 250.596351 
L 285.144016 249.54424 
L 285.691432 248.8818 
L 286.786266 248.102459 
L 287.333682 247.94659 
L 287.881099 247.673821 
L 288.975932 246.933447 
L 289.523349 246.62171 
L 290.070765 246.543776 
L 293.902681 244.166785 
L 296.092348 242.997773 
L 296.639765 242.491201 
L 305.39843 239.451771 
L 306.493264 238.477594 
L 308.135513 237.698253 
L 309.230347 237.035813 
L 310.32518 236.724076 
L 310.872596 236.373373 
L 311.420013 236.217504 
L 313.062263 235.165394 
L 315.799346 234.502953 
L 317.441596 233.567744 
L 317.989012 233.48981 
L 319.083846 233.21704 
L 319.631262 233.061172 
L 321.273512 231.814226 
L 322.915762 231.424555 
L 323.463179 231.22972 
L 324.010595 230.801082 
L 327.295095 229.710005 
L 327.842511 229.671038 
L 328.389928 229.515169 
L 329.484761 229.047565 
L 333.316678 227.683717 
L 334.411511 227.527849 
L 334.958927 227.371981 
L 335.506344 227.099211 
L 336.053761 226.98231 
L 338.790844 225.696397 
L 340.98051 224.527385 
L 345.359843 222.773867 
L 345.90726 222.695933 
L 347.002093 222.033493 
L 347.549509 221.955559 
L 349.739176 221.059317 
L 351.928842 220.74758 
L 353.023676 220.202041 
L 353.571092 219.734436 
L 354.118509 218.76026 
L 355.760759 218.448523 
L 360.140092 216.383269 
L 363.424591 215.019422 
L 364.519424 214.785619 
L 365.614258 214.24008 
L 366.161674 214.006278 
L 366.709091 213.928344 
L 368.898757 212.954167 
L 370.541007 211.941024 
L 371.088424 211.86309 
L 371.63584 211.668254 
L 372.183257 211.629287 
L 374.372923 211.005814 
L 374.92034 210.966847 
L 375.467757 210.538209 
L 376.015173 210.421308 
L 377.657423 209.797835 
L 378.20484 209.641967 
L 378.752256 209.291263 
L 379.299673 209.135395 
L 379.84709 208.745724 
L 380.394506 208.550889 
L 381.489339 207.966383 
L 383.679006 207.34291 
L 384.226422 207.070141 
L 385.868672 205.784228 
L 386.416089 205.667326 
L 387.510922 204.810051 
L 388.058339 204.732117 
L 388.605755 203.874842 
L 389.153172 203.641039 
L 389.700589 203.212401 
L 390.248005 203.134467 
L 391.342838 202.472027 
L 391.890255 202.355126 
L 392.437672 202.121324 
L 392.985088 201.692686 
L 393.532505 201.497851 
L 395.174755 200.367806 
L 397.364421 199.237761 
L 397.911838 199.159827 
L 399.554088 198.341518 
L 400.101504 197.445276 
L 400.648921 196.977671 
L 401.196337 196.665935 
L 401.743754 196.549034 
L 402.838587 195.847626 
L 403.386004 195.730725 
L 404.480837 195.185186 
L 406.123087 194.483779 
L 407.21792 193.704438 
L 408.86017 192.184722 
L 409.955003 191.561249 
L 410.50242 190.976743 
L 412.692086 189.495995 
L 413.239503 188.872522 
L 413.78692 188.443884 
L 414.881753 188.054214 
L 415.976586 187.313839 
L 417.618836 186.495531 
L 418.166252 186.417597 
L 419.808502 185.521355 
L 420.903336 184.858914 
L 426.377502 182.910561 
L 426.924918 182.481924 
L 429.114585 181.663615 
L 429.662001 181.507747 
L 430.209418 181.079109 
L 432.946501 179.598361 
L 434.041334 177.416205 
L 435.136167 176.169259 
L 436.231001 175.506819 
L 437.87325 174.844379 
L 438.420667 174.766445 
L 438.968084 174.454709 
L 441.705167 173.597433 
L 442.252583 173.363631 
L 443.347417 172.623257 
L 444.989666 171.921849 
L 446.0845 171.337343 
L 446.631916 170.947673 
L 447.179333 170.71387 
L 447.72675 170.3242 
L 448.274166 169.739694 
L 449.368999 169.155188 
L 452.106082 167.713407 
L 455.390582 166.115757 
L 455.937999 165.998856 
L 457.580249 165.41435 
L 458.127665 165.258482 
L 460.317332 164.284305 
L 461.412165 163.855667 
L 461.959581 163.42703 
L 463.054415 163.076326 
L 466.338914 161.400742 
L 467.433748 160.543467 
L 468.528581 160.153796 
L 469.075997 159.686191 
L 469.623414 159.608257 
L 470.718247 158.789949 
L 471.81308 158.24441 
L 472.360497 158.010608 
L 472.907914 157.465069 
L 476.73983 155.98432 
L 477.834663 155.516716 
L 479.476913 155.010144 
L 480.571746 154.854276 
L 481.119163 154.620473 
L 481.666579 154.542539 
L 482.761413 154.074934 
L 483.308829 154.035967 
L 485.498496 153.217659 
L 487.140746 152.087614 
L 489.877829 150.801701 
L 492.614912 149.320953 
L 493.162328 149.204051 
L 494.804578 148.268842 
L 496.446828 147.723303 
L 497.541661 147.372599 
L 499.731328 146.671192 
L 500.826161 146.320489 
L 502.468411 146.047719 
L 504.658077 145.346312 
L 505.205494 145.11251 
L 505.75291 145.034576 
L 506.300327 144.761806 
L 507.39516 144.528004 
L 509.03741 143.943498 
L 510.132243 143.826597 
L 511.227077 143.553827 
L 512.869326 143.281058 
L 513.416743 143.125189 
L 514.511576 143.008288 
L 517.248659 142.306881 
L 518.343492 142.034112 
L 518.890909 141.722375 
L 521.627992 141.020968 
L 522.175409 140.904067 
L 524.365075 140.085758 
L 527.102158 139.26745 
L 527.649575 139.26745 
L 528.744408 138.877779 
L 529.291825 138.332241 
L 530.386658 137.903603 
L 533.671158 136.734591 
L 534.218574 136.383887 
L 534.765991 136.266986 
L 535.313407 135.95525 
L 536.408241 135.760414 
L 537.503074 135.331777 
L 538.050491 135.214876 
L 538.597907 134.864172 
L 539.145324 134.747271 
L 539.69274 134.279666 
L 541.33499 133.967929 
L 542.429823 133.461358 
L 542.97724 132.837885 
L 544.072073 132.604082 
L 548.998823 131.551972 
L 549.546239 131.551972 
L 550.093656 131.318169 
L 552.283322 130.928499 
L 552.830739 130.694696 
L 555.020405 130.305026 
L 556.115239 129.837421 
L 556.662655 129.798454 
L 558.304905 129.408783 
L 559.947155 128.980145 
L 562.136821 128.317705 
L 562.684238 128.200804 
L 563.231655 127.928035 
L 563.779071 127.850101 
L 566.516154 126.79799 
L 567.063571 126.408319 
L 568.158404 126.096583 
L 569.253237 125.745879 
L 570.348071 125.278274 
L 571.99032 124.5379 
L 573.63257 124.420999 
L 575.822237 123.797526 
L 576.369653 123.446822 
L 577.464487 123.135086 
L 580.20157 121.927107 
L 580.748986 121.88814 
L 586.770569 119.822885 
L 588.960235 119.277347 
L 589.507652 119.121478 
L 590.602485 118.614906 
L 591.697319 118.381104 
L 592.244735 118.264203 
L 592.792152 117.835565 
L 593.339568 117.562796 
L 593.886985 116.900356 
L 594.434402 116.510685 
L 595.529235 116.198949 
L 596.076651 115.770311 
L 600.455984 113.977826 
L 601.003401 113.821958 
L 601.550818 113.471254 
L 603.740484 112.808814 
L 604.835317 112.263275 
L 605.93015 111.639802 
L 606.477567 111.522901 
L 607.5724 110.860461 
L 608.119817 110.626658 
L 609.21465 109.964218 
L 610.8569 109.184877 
L 611.404317 108.795206 
L 612.49915 108.444503 
L 613.593983 107.782063 
L 614.1414 107.587227 
L 614.688816 107.197557 
L 621.805232 104.742632 
L 622.352649 104.625731 
L 622.900065 104.275027 
L 623.447482 104.197093 
L 624.542315 103.924323 
L 625.637148 103.690521 
L 629.469065 101.820102 
L 630.016481 101.742168 
L 631.658731 100.845925 
L 634.943231 99.560012 
L 637.132897 98.702737 
L 637.680314 98.546869 
L 638.227731 98.196165 
L 639.322564 98.040297 
L 639.86998 97.689593 
L 640.417397 97.650626 
L 641.51223 97.299923 
L 642.607063 96.754384 
L 643.15448 96.67645 
L 645.891563 95.585372 
L 646.43898 95.468471 
L 647.533813 95.117767 
L 648.628646 94.844998 
L 649.723479 94.572228 
L 651.365729 93.948755 
L 653.555396 92.740776 
L 654.650229 92.312139 
L 655.197646 91.961435 
L 656.292479 91.727633 
L 656.839895 91.415896 
L 657.387312 91.298995 
L 659.029562 90.441719 
L 659.576978 90.285851 
L 661.766645 89.272708 
L 663.408895 88.84407 
L 666.693394 87.558157 
L 668.335644 87.012618 
L 677.09431 83.388681 
L 679.283976 82.531406 
L 680.926226 81.635163 
L 681.473643 81.518262 
L 682.568476 81.089624 
L 683.115893 81.089624 
L 684.210726 80.622019 
L 685.305559 79.647843 
L 685.852976 79.180238 
L 687.495226 78.400897 
L 688.042642 78.283996 
L 688.590059 78.011226 
L 689.137475 77.933292 
L 689.684892 77.543621 
L 690.232309 77.42672 
L 691.327142 76.76428 
L 692.969392 75.945972 
L 693.516808 75.790104 
L 694.611642 75.244565 
L 696.253891 74.854894 
L 698.990974 73.958652 
L 699.538391 73.84175 
L 701.728058 72.78964 
L 702.822891 72.283068 
L 703.917724 72.010298 
L 707.74964 70.217814 
L 710.486723 69.243637 
L 712.128973 68.26946 
L 712.67639 68.152559 
L 713.771223 67.60702 
L 714.866056 67.21735 
L 715.413473 66.749745 
L 715.960889 66.438008 
L 717.603139 65.931437 
L 718.697973 65.191062 
L 719.245389 65.152095 
L 720.340222 64.840359 
L 720.887639 64.723458 
L 723.077305 63.905149 
L 724.719555 63.398577 
L 725.266972 63.320643 
L 726.361805 62.736137 
L 726.909222 62.541302 
L 727.456638 62.112664 
L 729.098888 61.684027 
L 729.646305 61.333323 
L 730.741138 61.060554 
L 732.383388 60.164311 
L 732.930804 60.125344 
L 734.573054 59.618772 
L 735.667888 59.501871 
L 736.762721 59.073233 
L 737.310137 58.917365 
L 737.857554 58.644596 
L 741.68947 57.826287 
L 743.33172 57.241781 
L 743.879137 57.163847 
L 746.068803 56.345539 
L 747.163636 55.8 
L 747.163636 55.8 
" clip-path="url(#pd754ca0ab4)" style="fill: none; stroke: #1f77b4; stroke-width: 1.5; stroke-linecap: square"/>
   </g>
   <g id="line2d_40">
    <path d="M 138.98378 307.8 
L 140.62603 307.722066 
L 142.26828 307.683099 
L 145.55278 307.605165 
L 148.289863 307.488263 
L 150.479529 307.488263 
L 151.026946 307.332395 
L 153.216612 307.254461 
L 154.858862 307.059626 
L 156.501112 306.903758 
L 159.785612 306.747889 
L 160.333028 306.747889 
L 160.880445 306.630988 
L 163.070111 306.553054 
L 164.164944 306.47512 
L 168.544277 306.397186 
L 171.28136 306.280285 
L 177.85036 306.20235 
L 180.587443 306.085449 
L 183.871942 306.007515 
L 186.061609 305.929581 
L 190.988358 305.851647 
L 192.630608 305.81268 
L 194.272858 305.773713 
L 195.915108 305.578877 
L 199.199608 305.53991 
L 200.294441 305.461976 
L 204.126357 305.384042 
L 210.14794 305.033338 
L 213.979856 304.955404 
L 215.074689 304.87747 
L 216.716939 304.799536 
L 220.001439 304.643668 
L 222.191105 304.604701 
L 223.833355 304.448833 
L 230.949771 304.020195 
L 233.686854 303.942261 
L 238.613604 303.669491 
L 240.255853 303.591557 
L 245.73002 303.279821 
L 251.751602 303.201887 
L 253.941269 302.968084 
L 255.036102 302.89015 
L 262.152518 302.305644 
L 265.437018 301.877006 
L 267.626684 301.799072 
L 272.006017 301.214566 
L 275.290517 301.136632 
L 276.932767 300.980764 
L 278.0276 300.941797 
L 279.122433 300.824896 
L 280.764683 300.746961 
L 281.859516 300.591093 
L 284.596599 300.279357 
L 286.786266 300.201423 
L 287.881099 300.123488 
L 290.070765 300.045554 
L 291.165598 299.96762 
L 293.902681 299.694851 
L 294.450098 299.538983 
L 297.734598 299.383114 
L 300.471681 299.30518 
L 307.588097 298.876542 
L 309.230347 298.798608 
L 316.346763 298.369971 
L 320.178679 298.292036 
L 320.726095 298.175135 
L 325.105428 298.097201 
L 328.937345 297.902366 
L 334.958927 297.824432 
L 338.790844 297.629596 
L 343.170177 297.551662 
L 347.549509 297.31786 
L 351.381426 297.239926 
L 361.782341 296.577486 
L 367.256508 296.499552 
L 369.446174 296.265749 
L 371.088424 296.226782 
L 372.730674 296.187815 
L 374.92034 295.954013 
L 380.394506 295.642276 
L 383.679006 295.564342 
L 385.321256 295.525375 
L 386.963506 295.486408 
L 388.605755 295.33054 
L 392.985088 295.252606 
L 394.079922 295.096737 
L 395.174755 295.018803 
L 397.911838 294.901902 
L 399.006671 294.823968 
L 400.101504 294.746034 
L 405.028254 294.6681 
L 406.123087 294.551198 
L 408.312753 294.512231 
L 408.86017 294.39533 
L 409.955003 294.317396 
L 410.50242 294.200495 
L 412.14467 294.122561 
L 417.071419 293.849791 
L 418.166252 293.810824 
L 419.808502 293.654956 
L 421.450752 293.615989 
L 423.093002 293.538055 
L 425.830085 293.421154 
L 433.493918 293.343219 
L 437.325834 293.148384 
L 441.705167 293.07045 
L 443.894833 292.992516 
L 446.0845 292.953549 
L 447.179333 292.836648 
L 449.368999 292.758713 
L 454.843165 292.446977 
L 458.127665 292.40801 
L 459.769915 292.252142 
L 461.412165 292.213175 
L 465.244081 292.13524 
L 467.433748 292.057306 
L 474.002747 291.979372 
L 476.73983 291.862471 
L 480.02433 291.784537 
L 481.666579 291.589702 
L 484.951079 291.550734 
L 486.593329 291.394866 
L 488.782995 291.316932 
L 495.351995 291.238998 
L 498.089078 291.122097 
L 507.39516 291.08313 
L 508.489993 291.005196 
L 510.132243 290.966229 
L 517.248659 290.888294 
L 518.343492 290.81036 
L 524.365075 290.732426 
L 526.554742 290.654492 
L 533.123741 290.615525 
L 534.218574 290.537591 
L 542.429823 290.498624 
L 544.072073 290.342756 
L 557.757489 290.264821 
L 559.399738 290.225854 
L 574.179987 290.14792 
L 575.822237 290.108953 
L 585.675736 290.031019 
L 586.770569 289.953085 
L 589.507652 289.875151 
L 591.149902 289.719283 
L 593.886985 289.641348 
L 596.076651 289.563414 
L 599.361151 289.48548 
L 601.003401 289.446513 
L 603.193067 289.368579 
L 604.835317 289.329612 
L 607.5724 289.251678 
L 608.667233 289.173744 
L 611.951733 289.095809 
L 614.688816 288.978908 
L 615.783649 288.939941 
L 616.878483 288.862007 
L 618.520733 288.82304 
L 620.710399 288.745106 
L 622.900065 288.667172 
L 630.016481 288.589238 
L 632.206148 288.511304 
L 636.585481 288.433369 
L 640.417397 288.238534 
L 645.344147 288.1606 
L 646.43898 288.082666 
L 656.292479 288.004732 
L 657.934729 287.965765 
L 660.671812 287.926798 
L 662.861478 287.692995 
L 664.503728 287.654028 
L 667.788228 287.576094 
L 673.262394 287.264358 
L 675.999477 287.186423 
L 678.189143 287.108489 
L 684.210726 287.030555 
L 686.947809 286.718819 
L 689.137475 286.640884 
L 692.969392 286.56295 
L 693.516808 286.446049 
L 698.443558 286.368115 
L 701.180641 286.251214 
L 708.297057 286.212247 
L 708.844474 286.095346 
L 713.223806 286.017411 
L 714.866056 285.978444 
L 717.603139 285.90051 
L 719.245389 285.861543 
L 728.551472 285.783609 
L 731.288555 285.666708 
L 738.952387 285.588774 
L 741.142054 285.51084 
L 747.163636 285.432906 
L 747.163636 285.432906 
" clip-path="url(#pd754ca0ab4)" style="fill: none; stroke: #ff7f0e; stroke-width: 1.5; stroke-linecap: square"/>
   </g>
   <g id="patch_3">
    <path d="M 108 320.4 
L 108 43.2 
" style="fill: none; stroke: #a9a9a9; stroke-width: 0.8; stroke-linejoin: miter; stroke-linecap: square"/>
   </g>
   <g id="patch_4">
    <path d="M 777.6 320.4 
L 777.6 43.2 
" style="fill: none"/>
   </g>
   <g id="patch_5">
    <path d="M 108 320.4 
L 777.6 320.4 
" style="fill: none; stroke: #a9a9a9; stroke-width: 0.8; stroke-linejoin: miter; stroke-linecap: square"/>
   </g>
   <g id="patch_6">
    <path d="M 108 43.2 
L 777.6 43.2 
" style="fill: none"/>
   </g>
   <g id="text_20">
    <!-- get_subscribe history -->
    <g style="fill: #a9a9a9" transform="translate(378.6075 37.2) scale(0.12 -0.12)">
     <defs>
      <path id="DejaVuSans-67" d="M 2906 1791 
Q 2906 2416 2648 2759 
Q 2391 3103 1925 3103 
Q 1463 3103 1205 2759 
Q 947 2416 947 1791 
Q 947 1169 1205 825 
Q 1463 481 1925 481 
Q 2391 481 2648 825 
Q 2906 1169 2906 1791 
z
M 3481 434 
Q 3481 -459 3084 -895 
Q 2688 -1331 1869 -1331 
Q 1566 -1331 1297 -1286 
Q 1028 -1241 775 -1147 
L 775 -588 
Q 1028 -725 1275 -790 
Q 1522 -856 1778 -856 
Q 2344 -856 2625 -561 
Q 2906 -266 2906 331 
L 2906 616 
Q 2728 306 2450 153 
Q 2172 0 1784 0 
Q 1141 0 747 490 
Q 353 981 353 1791 
Q 353 2603 747 3093 
Q 1141 3584 1784 3584 
Q 2172 3584 2450 3431 
Q 2728 3278 2906 2969 
L 2906 3500 
L 3481 3500 
L 3481 434 
z
" transform="scale(0.015625)"/>
      <path id="DejaVuSans-65" d="M 3597 1894 
L 3597 1613 
L 953 1613 
Q 991 1019 1311 708 
Q 1631 397 2203 397 
Q 2534 397 2845 478 
Q 3156 559 3463 722 
L 3463 178 
Q 3153 47 2828 -22 
Q 2503 -91 2169 -91 
Q 1331 -91 842 396 
Q 353 884 353 1716 
Q 353 2575 817 3079 
Q 1281 3584 2069 3584 
Q 2775 3584 3186 3129 
Q 3597 2675 3597 1894 
z
M 3022 2063 
Q 3016 2534 2758 2815 
Q 2500 3097 2075 3097 
Q 1594 3097 1305 2825 
Q 1016 2553 972 2059 
L 3022 2063 
z
" transform="scale(0.015625)"/>
      <path id="DejaVuSans-74" d="M 1172 4494 
L 1172 3500 
L 2356 3500 
L 2356 3053 
L 1172 3053 
L 1172 1153 
Q 1172 725 1289 603 
Q 1406 481 1766 481 
L 2356 481 
L 2356 0 
L 1766 0 
Q 1100 0 847 248 
Q 594 497 594 1153 
L 594 3053 
L 172 3053 
L 172 3500 
L 594 3500 
L 594 4494 
L 1172 4494 
z
" transform="scale(0.015625)"/>
      <path id="DejaVuSans-5f" d="M 3263 -1063 
L 3263 -1509 
L -63 -1509 
L -63 -1063 
L 3263 -1063 
z
" transform="scale(0.015625)"/>
      <path id="DejaVuSans-73" d="M 2834 3397 
L 2834 2853 
Q 2591 2978 2328 3040 
Q 2066 3103 1784 3103 
Q 1356 3103 1142 2972 
Q 928 2841 928 2578 
Q 928 2378 1081 2264 
Q 1234 2150 1697 2047 
L 1894 2003 
Q 2506 1872 2764 1633 
Q 3022 1394 3022 966 
Q 3022 478 2636 193 
Q 2250 -91 1575 -91 
Q 1294 -91 989 -36 
Q 684 19 347 128 
L 347 722 
Q 666 556 975 473 
Q 1284 391 1588 391 
Q 1994 391 2212 530 
Q 2431 669 2431 922 
Q 2431 1156 2273 1281 
Q 2116 1406 1581 1522 
L 1381 1569 
Q 847 1681 609 1914 
Q 372 2147 372 2553 
Q 372 3047 722 3315 
Q 1072 3584 1716 3584 
Q 2034 3584 2315 3537 
Q 2597 3491 2834 3397 
z
" transform="scale(0.015625)"/>
      <path id="DejaVuSans-75" d="M 544 1381 
L 544 3500 
L 1119 3500 
L 1119 1403 
Q 1119 906 1312 657 
Q 1506 409 1894 409 
Q 2359 409 2629 706 
Q 2900 1003 2900 1516 
L 2900 3500 
L 3475 3500 
L 3475 0 
L 2900 0 
L 2900 538 
Q 2691 219 2414 64 
Q 2138 -91 1772 -91 
Q 1169 -91 856 284 
Q 544 659 544 1381 
z
M 1991 3584 
L 1991 3584 
z
" transform="scale(0.015625)"/>
      <path id="DejaVuSans-62" d="M 3116 1747 
Q 3116 2381 2855 2742 
Q 2594 3103 2138 3103 
Q 1681 3103 1420 2742 
Q 1159 2381 1159 1747 
Q 1159 1113 1420 752 
Q 1681 391 2138 391 
Q 2594 391 2855 752 
Q 3116 1113 3116 1747 
z
M 1159 2969 
Q 1341 3281 1617 3432 
Q 1894 3584 2278 3584 
Q 2916 3584 3314 3078 
Q 3713 2572 3713 1747 
Q 3713 922 3314 415 
Q 2916 -91 2278 -91 
Q 1894 -91 1617 61 
Q 1341 213 1159 525 
L 1159 0 
L 581 0 
L 581 4863 
L 1159 4863 
L 1159 2969 
z
" transform="scale(0.015625)"/>
      <path id="DejaVuSans-63" d="M 3122 3366 
L 3122 2828 
Q 2878 2963 2633 3030 
Q 2388 3097 2138 3097 
Q 1578 3097 1268 2742 
Q 959 2388 959 1747 
Q 959 1106 1268 751 
Q 1578 397 2138 397 
Q 2388 397 2633 464 
Q 2878 531 3122 666 
L 3122 134 
Q 2881 22 2623 -34 
Q 2366 -91 2075 -91 
Q 1284 -91 818 406 
Q 353 903 353 1747 
Q 353 2603 823 3093 
Q 1294 3584 2113 3584 
Q 2378 3584 2631 3529 
Q 2884 3475 3122 3366 
z
" transform="scale(0.015625)"/>
      <path id="DejaVuSans-72" d="M 2631 2963 
Q 2534 3019 2420 3045 
Q 2306 3072 2169 3072 
Q 1681 3072 1420 2755 
Q 1159 2438 1159 1844 
L 1159 0 
L 581 0 
L 581 3500 
L 1159 3500 
L 1159 2956 
Q 1341 3275 1631 3429 
Q 1922 3584 2338 3584 
Q 2397 3584 2469 3576 
Q 2541 3569 2628 3553 
L 2631 2963 
z
" transform="scale(0.015625)"/>
      <path id="DejaVuSans-69" d="M 603 3500 
L 1178 3500 
L 1178 0 
L 603 0 
L 603 3500 
z
M 603 4863 
L 1178 4863 
L 1178 4134 
L 603 4134 
L 603 4863 
z
" transform="scale(0.015625)"/>
      <path id="DejaVuSans-20" transform="scale(0.015625)"/>
      <path id="DejaVuSans-68" d="M 3513 2113 
L 3513 0 
L 2938 0 
L 2938 2094 
Q 2938 2591 2744 2837 
Q 2550 3084 2163 3084 
Q 1697 3084 1428 2787 
Q 1159 2491 1159 1978 
L 1159 0 
L 581 0 
L 581 4863 
L 1159 4863 
L 1159 2956 
Q 1366 3272 1645 3428 
Q 1925 3584 2291 3584 
Q 2894 3584 3203 3211 
Q 3513 2838 3513 2113 
z
" transform="scale(0.015625)"/>
      <path id="DejaVuSans-6f" d="M 1959 3097 
Q 1497 3097 1228 2736 
Q 959 2375 959 1747 
Q 959 1119 1226 758 
Q 1494 397 1959 397 
Q 2419 397 2687 759 
Q 2956 1122 2956 1747 
Q 2956 2369 2687 2733 
Q 2419 3097 1959 3097 
z
M 1959 3584 
Q 2709 3584 3137 3096 
Q 3566 2609 3566 1747 
Q 3566 888 3137 398 
Q 2709 -91 1959 -91 
Q 1206 -91 779 398 
Q 353 888 353 1747 
Q 353 2609 779 3096 
Q 1206 3584 1959 3584 
z
" transform="scale(0.015625)"/>
      <path id="DejaVuSans-79" d="M 2059 -325 
Q 1816 -950 1584 -1140 
Q 1353 -1331 966 -1331 
L 506 -1331 
L 506 -850 
L 844 -850 
Q 1081 -850 1212 -737 
Q 1344 -625 1503 -206 
L 1606 56 
L 191 3500 
L 800 3500 
L 1894 763 
L 2988 3500 
L 3597 3500 
L 2059 -325 
z
" transform="scale(0.015625)"/>
     </defs>
     <use xlink:href="#DejaVuSans-67"/>
     <use xlink:href="#DejaVuSans-65" x="63.476562"/>
     <use xlink:href="#DejaVuSans-74" x="125"/>
     <use xlink:href="#DejaVuSans-5f" x="164.208984"/>
     <use xlink:href="#DejaVuSans-73" x="214.208984"/>
     <use xlink:href="#DejaVuSans-75" x="266.308594"/>
     <use xlink:href="#DejaVuSans-62" x="329.6875"/>
     <use xlink:href="#DejaVuSans-73" x="393.164062"/>
     <use xlink:href="#DejaVuSans-63" x="445.263672"/>
     <use xlink:href="#DejaVuSans-72" x="500.244141"/>
     <use xlink:href="#DejaVuSans-69" x="541.357422"/>
     <use xlink:href="#DejaVuSans-62" x="569.140625"/>
     <use xlink:href="#DejaVuSans-65" x="632.617188"/>
     <use xlink:href="#DejaVuSans-20" x="694.140625"/>
     <use xlink:href="#DejaVuSans-68" x="725.927734"/>
     <use xlink:href="#DejaVuSans-69" x="789.306641"/>
     <use xlink:href="#DejaVuSans-73" x="817.089844"/>
     <use xlink:href="#DejaVuSans-74" x="869.189453"/>
     <use xlink:href="#DejaVuSans-6f" x="908.398438"/>
     <use xlink:href="#DejaVuSans-72" x="969.580078"/>
     <use xlink:href="#DejaVuSans-79" x="1010.693359"/>
    </g>
   </g>
   <g id="legend_1">
    <g id="line2d_41">
     <path d="M 815.08 328.498438 
L 825.08 328.498438 
L 835.08 328.498438 
" style="fill: none; stroke: #1f77b4; stroke-width: 1.5; stroke-linecap: square"/>
    </g>
    <g id="text_21">
     <!-- star -->
     <g style="fill: #a9a9a9" transform="translate(843.08 331.998438) scale(0.1 -0.1)">
      <defs>
       <path id="DejaVuSans-61" d="M 2194 1759 
Q 1497 1759 1228 1600 
Q 959 1441 959 1056 
Q 959 750 1161 570 
Q 1363 391 1709 391 
Q 2188 391 2477 730 
Q 2766 1069 2766 1631 
L 2766 1759 
L 2194 1759 
z
M 3341 1997 
L 3341 0 
L 2766 0 
L 2766 531 
Q 2569 213 2275 61 
Q 1981 -91 1556 -91 
Q 1019 -91 701 211 
Q 384 513 384 1019 
Q 384 1609 779 1909 
Q 1175 2209 1959 2209 
L 2766 2209 
L 2766 2266 
Q 2766 2663 2505 2880 
Q 2244 3097 1772 3097 
Q 1472 3097 1187 3025 
Q 903 2953 641 2809 
L 641 3341 
Q 956 3463 1253 3523 
Q 1550 3584 1831 3584 
Q 2591 3584 2966 3190 
Q 3341 2797 3341 1997 
z
" transform="scale(0.015625)"/>
      </defs>
      <use xlink:href="#DejaVuSans-73"/>
      <use xlink:href="#DejaVuSans-74" x="52.099609"/>
      <use xlink:href="#DejaVuSans-61" x="91.308594"/>
      <use xlink:href="#DejaVuSans-72" x="152.587891"/>
     </g>
    </g>
    <g id="line2d_42">
     <path d="M 815.08 343.176562 
L 825.08 343.176562 
L 835.08 343.176562 
" style="fill: none; stroke: #ff7f0e; stroke-width: 1.5; stroke-linecap: square"/>
    </g>
    <g id="text_22">
     <!-- fork -->
     <g style="fill: #a9a9a9" transform="translate(843.08 346.676562) scale(0.1 -0.1)">
      <defs>
       <path id="DejaVuSans-66" d="M 2375 4863 
L 2375 4384 
L 1825 4384 
Q 1516 4384 1395 4259 
Q 1275 4134 1275 3809 
L 1275 3500 
L 2222 3500 
L 2222 3053 
L 1275 3053 
L 1275 0 
L 697 0 
L 697 3053 
L 147 3053 
L 147 3500 
L 697 3500 
L 697 3744 
Q 697 4328 969 4595 
Q 1241 4863 1831 4863 
L 2375 4863 
z
" transform="scale(0.015625)"/>
       <path id="DejaVuSans-6b" d="M 581 4863 
L 1159 4863 
L 1159 1991 
L 2875 3500 
L 3609 3500 
L 1753 1863 
L 3688 0 
L 2938 0 
L 1159 1709 
L 1159 0 
L 581 0 
L 581 4863 
z
" transform="scale(0.015625)"/>
      </defs>
      <use xlink:href="#DejaVuSans-66"/>
      <use xlink:href="#DejaVuSans-6f" x="35.205078"/>
      <use xlink:href="#DejaVuSans-72" x="96.386719"/>
      <use xlink:href="#DejaVuSans-6b" x="137.5"/>
     </g>
    </g>
   </g>
  </g>
 </g>
 <defs>
  <clipPath id="pd754ca0ab4">
   <rect x="108" y="43.2" width="669.6" height="277.2"/>
  </clipPath>
 </defs>
</svg>
