<?xml version="1.0" encoding="utf-8" standalone="no"?>
<!DOCTYPE svg PUBLIC "-//W3C//DTD SVG 1.1//EN"
  "http://www.w3.org/Graphics/SVG/1.1/DTD/svg11.dtd">
<svg xmlns:xlink="http://www.w3.org/1999/xlink" width="864pt" height="360pt" viewBox="0 0 864 360" xmlns="http://www.w3.org/2000/svg" version="1.1">
 <metadata>
  <rdf:RDF xmlns:dc="http://purl.org/dc/elements/1.1/" xmlns:cc="http://creativecommons.org/ns#" xmlns:rdf="http://www.w3.org/1999/02/22-rdf-syntax-ns#">
   <cc:Work>
    <dc:type rdf:resource="http://purl.org/dc/dcmitype/StillImage"/>
    <dc:date>2024-08-07T20:05:44.286370</dc:date>
    <dc:format>image/svg+xml</dc:format>
    <dc:creator>
     <cc:Agent>
      <dc:title>Matplotlib v3.9.1.post1, https://matplotlib.org/</dc:title>
     </cc:Agent>
    </dc:creator>
   </cc:Work>
  </rdf:RDF>
 </metadata>
 <defs>
  <style type="text/css">*{stroke-linejoin: round; stroke-linecap: butt}</style>
 </defs>
 <g id="figure_1">
  <g id="patch_1">
   <path d="M 0 360 
L 864 360 
L 864 0 
L 0 0 
L 0 360 
z
" style="fill: none; opacity: 0"/>
  </g>
  <g id="axes_1">
   <g id="patch_2">
    <path d="M 108 320.4 
L 777.6 320.4 
L 777.6 43.2 
L 108 43.2 
L 108 320.4 
z
" style="fill: none; opacity: 0"/>
   </g>
   <g id="matplotlib.axis_1">
    <g id="xtick_1">
     <g id="line2d_1">
      <path d="M 159.824079 320.4 
L 159.824079 43.2 
" clip-path="url(#pde75673cc0)" style="fill: none; stroke-dasharray: 5.12,1.28,0.8,1.28; stroke-dashoffset: 0; stroke: #b0b0b0; stroke-width: 0.8"/>
     </g>
     <g id="line2d_2">
      <defs>
       <path id="mfd1e37c2ef" d="M 0 0 
L 0 3.5 
" style="stroke: #a9a9a9; stroke-width: 0.8"/>
      </defs>
      <g>
       <use xlink:href="#mfd1e37c2ef" x="159.824079" y="320.4" style="fill: #a9a9a9; stroke: #a9a9a9; stroke-width: 0.8"/>
      </g>
     </g>
     <g id="text_1">
      <!-- 2021-09 -->
      <g style="fill: #a9a9a9" transform="translate(138.932672 334.998438) scale(0.1 -0.1)">
       <defs>
        <path id="DejaVuSans-32" d="M 1228 531 
L 3431 531 
L 3431 0 
L 469 0 
L 469 531 
Q 828 903 1448 1529 
Q 2069 2156 2228 2338 
Q 2531 2678 2651 2914 
Q 2772 3150 2772 3378 
Q 2772 3750 2511 3984 
Q 2250 4219 1831 4219 
Q 1534 4219 1204 4116 
Q 875 4013 500 3803 
L 500 4441 
Q 881 4594 1212 4672 
Q 1544 4750 1819 4750 
Q 2544 4750 2975 4387 
Q 3406 4025 3406 3419 
Q 3406 3131 3298 2873 
Q 3191 2616 2906 2266 
Q 2828 2175 2409 1742 
Q 1991 1309 1228 531 
z
" transform="scale(0.015625)"/>
        <path id="DejaVuSans-30" d="M 2034 4250 
Q 1547 4250 1301 3770 
Q 1056 3291 1056 2328 
Q 1056 1369 1301 889 
Q 1547 409 2034 409 
Q 2525 409 2770 889 
Q 3016 1369 3016 2328 
Q 3016 3291 2770 3770 
Q 2525 4250 2034 4250 
z
M 2034 4750 
Q 2819 4750 3233 4129 
Q 3647 3509 3647 2328 
Q 3647 1150 3233 529 
Q 2819 -91 2034 -91 
Q 1250 -91 836 529 
Q 422 1150 422 2328 
Q 422 3509 836 4129 
Q 1250 4750 2034 4750 
z
" transform="scale(0.015625)"/>
        <path id="DejaVuSans-31" d="M 794 531 
L 1825 531 
L 1825 4091 
L 703 3866 
L 703 4441 
L 1819 4666 
L 2450 4666 
L 2450 531 
L 3481 531 
L 3481 0 
L 794 0 
L 794 531 
z
" transform="scale(0.015625)"/>
        <path id="DejaVuSans-2d" d="M 313 2009 
L 1997 2009 
L 1997 1497 
L 313 1497 
L 313 2009 
z
" transform="scale(0.015625)"/>
        <path id="DejaVuSans-39" d="M 703 97 
L 703 672 
Q 941 559 1184 500 
Q 1428 441 1663 441 
Q 2288 441 2617 861 
Q 2947 1281 2994 2138 
Q 2813 1869 2534 1725 
Q 2256 1581 1919 1581 
Q 1219 1581 811 2004 
Q 403 2428 403 3163 
Q 403 3881 828 4315 
Q 1253 4750 1959 4750 
Q 2769 4750 3195 4129 
Q 3622 3509 3622 2328 
Q 3622 1225 3098 567 
Q 2575 -91 1691 -91 
Q 1453 -91 1209 -44 
Q 966 3 703 97 
z
M 1959 2075 
Q 2384 2075 2632 2365 
Q 2881 2656 2881 3163 
Q 2881 3666 2632 3958 
Q 2384 4250 1959 4250 
Q 1534 4250 1286 3958 
Q 1038 3666 1038 3163 
Q 1038 2656 1286 2365 
Q 1534 2075 1959 2075 
z
" transform="scale(0.015625)"/>
       </defs>
       <use xlink:href="#DejaVuSans-32"/>
       <use xlink:href="#DejaVuSans-30" x="63.623047"/>
       <use xlink:href="#DejaVuSans-32" x="127.246094"/>
       <use xlink:href="#DejaVuSans-31" x="190.869141"/>
       <use xlink:href="#DejaVuSans-2d" x="254.492188"/>
       <use xlink:href="#DejaVuSans-30" x="290.576172"/>
       <use xlink:href="#DejaVuSans-39" x="354.199219"/>
      </g>
     </g>
    </g>
    <g id="xtick_2">
     <g id="line2d_3">
      <path d="M 226.729238 320.4 
L 226.729238 43.2 
" clip-path="url(#pde75673cc0)" style="fill: none; stroke-dasharray: 5.12,1.28,0.8,1.28; stroke-dashoffset: 0; stroke: #b0b0b0; stroke-width: 0.8"/>
     </g>
     <g id="line2d_4">
      <g>
       <use xlink:href="#mfd1e37c2ef" x="226.729238" y="320.4" style="fill: #a9a9a9; stroke: #a9a9a9; stroke-width: 0.8"/>
      </g>
     </g>
     <g id="text_2">
      <!-- 2022-01 -->
      <g style="fill: #a9a9a9" transform="translate(205.837832 334.998438) scale(0.1 -0.1)">
       <use xlink:href="#DejaVuSans-32"/>
       <use xlink:href="#DejaVuSans-30" x="63.623047"/>
       <use xlink:href="#DejaVuSans-32" x="127.246094"/>
       <use xlink:href="#DejaVuSans-32" x="190.869141"/>
       <use xlink:href="#DejaVuSans-2d" x="254.492188"/>
       <use xlink:href="#DejaVuSans-30" x="290.576172"/>
       <use xlink:href="#DejaVuSans-31" x="354.199219"/>
      </g>
     </g>
    </g>
    <g id="xtick_3">
     <g id="line2d_5">
      <path d="M 292.537592 320.4 
L 292.537592 43.2 
" clip-path="url(#pde75673cc0)" style="fill: none; stroke-dasharray: 5.12,1.28,0.8,1.28; stroke-dashoffset: 0; stroke: #b0b0b0; stroke-width: 0.8"/>
     </g>
     <g id="line2d_6">
      <g>
       <use xlink:href="#mfd1e37c2ef" x="292.537592" y="320.4" style="fill: #a9a9a9; stroke: #a9a9a9; stroke-width: 0.8"/>
      </g>
     </g>
     <g id="text_3">
      <!-- 2022-05 -->
      <g style="fill: #a9a9a9" transform="translate(271.646186 334.998438) scale(0.1 -0.1)">
       <defs>
        <path id="DejaVuSans-35" d="M 691 4666 
L 3169 4666 
L 3169 4134 
L 1269 4134 
L 1269 2991 
Q 1406 3038 1543 3061 
Q 1681 3084 1819 3084 
Q 2600 3084 3056 2656 
Q 3513 2228 3513 1497 
Q 3513 744 3044 326 
Q 2575 -91 1722 -91 
Q 1428 -91 1123 -41 
Q 819 9 494 109 
L 494 744 
Q 775 591 1075 516 
Q 1375 441 1709 441 
Q 2250 441 2565 725 
Q 2881 1009 2881 1497 
Q 2881 1984 2565 2268 
Q 2250 2553 1709 2553 
Q 1456 2553 1204 2497 
Q 953 2441 691 2322 
L 691 4666 
z
" transform="scale(0.015625)"/>
       </defs>
       <use xlink:href="#DejaVuSans-32"/>
       <use xlink:href="#DejaVuSans-30" x="63.623047"/>
       <use xlink:href="#DejaVuSans-32" x="127.246094"/>
       <use xlink:href="#DejaVuSans-32" x="190.869141"/>
       <use xlink:href="#DejaVuSans-2d" x="254.492188"/>
       <use xlink:href="#DejaVuSans-30" x="290.576172"/>
       <use xlink:href="#DejaVuSans-35" x="354.199219"/>
      </g>
     </g>
    </g>
    <g id="xtick_4">
     <g id="line2d_7">
      <path d="M 359.991155 320.4 
L 359.991155 43.2 
" clip-path="url(#pde75673cc0)" style="fill: none; stroke-dasharray: 5.12,1.28,0.8,1.28; stroke-dashoffset: 0; stroke: #b0b0b0; stroke-width: 0.8"/>
     </g>
     <g id="line2d_8">
      <g>
       <use xlink:href="#mfd1e37c2ef" x="359.991155" y="320.4" style="fill: #a9a9a9; stroke: #a9a9a9; stroke-width: 0.8"/>
      </g>
     </g>
     <g id="text_4">
      <!-- 2022-09 -->
      <g style="fill: #a9a9a9" transform="translate(339.099749 334.998438) scale(0.1 -0.1)">
       <use xlink:href="#DejaVuSans-32"/>
       <use xlink:href="#DejaVuSans-30" x="63.623047"/>
       <use xlink:href="#DejaVuSans-32" x="127.246094"/>
       <use xlink:href="#DejaVuSans-32" x="190.869141"/>
       <use xlink:href="#DejaVuSans-2d" x="254.492188"/>
       <use xlink:href="#DejaVuSans-30" x="290.576172"/>
       <use xlink:href="#DejaVuSans-39" x="354.199219"/>
      </g>
     </g>
    </g>
    <g id="xtick_5">
     <g id="line2d_9">
      <path d="M 426.896314 320.4 
L 426.896314 43.2 
" clip-path="url(#pde75673cc0)" style="fill: none; stroke-dasharray: 5.12,1.28,0.8,1.28; stroke-dashoffset: 0; stroke: #b0b0b0; stroke-width: 0.8"/>
     </g>
     <g id="line2d_10">
      <g>
       <use xlink:href="#mfd1e37c2ef" x="426.896314" y="320.4" style="fill: #a9a9a9; stroke: #a9a9a9; stroke-width: 0.8"/>
      </g>
     </g>
     <g id="text_5">
      <!-- 2023-01 -->
      <g style="fill: #a9a9a9" transform="translate(406.004908 334.998438) scale(0.1 -0.1)">
       <defs>
        <path id="DejaVuSans-33" d="M 2597 2516 
Q 3050 2419 3304 2112 
Q 3559 1806 3559 1356 
Q 3559 666 3084 287 
Q 2609 -91 1734 -91 
Q 1441 -91 1130 -33 
Q 819 25 488 141 
L 488 750 
Q 750 597 1062 519 
Q 1375 441 1716 441 
Q 2309 441 2620 675 
Q 2931 909 2931 1356 
Q 2931 1769 2642 2001 
Q 2353 2234 1838 2234 
L 1294 2234 
L 1294 2753 
L 1863 2753 
Q 2328 2753 2575 2939 
Q 2822 3125 2822 3475 
Q 2822 3834 2567 4026 
Q 2313 4219 1838 4219 
Q 1578 4219 1281 4162 
Q 984 4106 628 3988 
L 628 4550 
Q 988 4650 1302 4700 
Q 1616 4750 1894 4750 
Q 2613 4750 3031 4423 
Q 3450 4097 3450 3541 
Q 3450 3153 3228 2886 
Q 3006 2619 2597 2516 
z
" transform="scale(0.015625)"/>
       </defs>
       <use xlink:href="#DejaVuSans-32"/>
       <use xlink:href="#DejaVuSans-30" x="63.623047"/>
       <use xlink:href="#DejaVuSans-32" x="127.246094"/>
       <use xlink:href="#DejaVuSans-33" x="190.869141"/>
       <use xlink:href="#DejaVuSans-2d" x="254.492188"/>
       <use xlink:href="#DejaVuSans-30" x="290.576172"/>
       <use xlink:href="#DejaVuSans-31" x="354.199219"/>
      </g>
     </g>
    </g>
    <g id="xtick_6">
     <g id="line2d_11">
      <path d="M 492.704668 320.4 
L 492.704668 43.2 
" clip-path="url(#pde75673cc0)" style="fill: none; stroke-dasharray: 5.12,1.28,0.8,1.28; stroke-dashoffset: 0; stroke: #b0b0b0; stroke-width: 0.8"/>
     </g>
     <g id="line2d_12">
      <g>
       <use xlink:href="#mfd1e37c2ef" x="492.704668" y="320.4" style="fill: #a9a9a9; stroke: #a9a9a9; stroke-width: 0.8"/>
      </g>
     </g>
     <g id="text_6">
      <!-- 2023-05 -->
      <g style="fill: #a9a9a9" transform="translate(471.813262 334.998438) scale(0.1 -0.1)">
       <use xlink:href="#DejaVuSans-32"/>
       <use xlink:href="#DejaVuSans-30" x="63.623047"/>
       <use xlink:href="#DejaVuSans-32" x="127.246094"/>
       <use xlink:href="#DejaVuSans-33" x="190.869141"/>
       <use xlink:href="#DejaVuSans-2d" x="254.492188"/>
       <use xlink:href="#DejaVuSans-30" x="290.576172"/>
       <use xlink:href="#DejaVuSans-35" x="354.199219"/>
      </g>
     </g>
    </g>
    <g id="xtick_7">
     <g id="line2d_13">
      <path d="M 560.158231 320.4 
L 560.158231 43.2 
" clip-path="url(#pde75673cc0)" style="fill: none; stroke-dasharray: 5.12,1.28,0.8,1.28; stroke-dashoffset: 0; stroke: #b0b0b0; stroke-width: 0.8"/>
     </g>
     <g id="line2d_14">
      <g>
       <use xlink:href="#mfd1e37c2ef" x="560.158231" y="320.4" style="fill: #a9a9a9; stroke: #a9a9a9; stroke-width: 0.8"/>
      </g>
     </g>
     <g id="text_7">
      <!-- 2023-09 -->
      <g style="fill: #a9a9a9" transform="translate(539.266825 334.998438) scale(0.1 -0.1)">
       <use xlink:href="#DejaVuSans-32"/>
       <use xlink:href="#DejaVuSans-30" x="63.623047"/>
       <use xlink:href="#DejaVuSans-32" x="127.246094"/>
       <use xlink:href="#DejaVuSans-33" x="190.869141"/>
       <use xlink:href="#DejaVuSans-2d" x="254.492188"/>
       <use xlink:href="#DejaVuSans-30" x="290.576172"/>
       <use xlink:href="#DejaVuSans-39" x="354.199219"/>
      </g>
     </g>
    </g>
    <g id="xtick_8">
     <g id="line2d_15">
      <path d="M 627.063391 320.4 
L 627.063391 43.2 
" clip-path="url(#pde75673cc0)" style="fill: none; stroke-dasharray: 5.12,1.28,0.8,1.28; stroke-dashoffset: 0; stroke: #b0b0b0; stroke-width: 0.8"/>
     </g>
     <g id="line2d_16">
      <g>
       <use xlink:href="#mfd1e37c2ef" x="627.063391" y="320.4" style="fill: #a9a9a9; stroke: #a9a9a9; stroke-width: 0.8"/>
      </g>
     </g>
     <g id="text_8">
      <!-- 2024-01 -->
      <g style="fill: #a9a9a9" transform="translate(606.171984 334.998438) scale(0.1 -0.1)">
       <defs>
        <path id="DejaVuSans-34" d="M 2419 4116 
L 825 1625 
L 2419 1625 
L 2419 4116 
z
M 2253 4666 
L 3047 4666 
L 3047 1625 
L 3713 1625 
L 3713 1100 
L 3047 1100 
L 3047 0 
L 2419 0 
L 2419 1100 
L 313 1100 
L 313 1709 
L 2253 4666 
z
" transform="scale(0.015625)"/>
       </defs>
       <use xlink:href="#DejaVuSans-32"/>
       <use xlink:href="#DejaVuSans-30" x="63.623047"/>
       <use xlink:href="#DejaVuSans-32" x="127.246094"/>
       <use xlink:href="#DejaVuSans-34" x="190.869141"/>
       <use xlink:href="#DejaVuSans-2d" x="254.492188"/>
       <use xlink:href="#DejaVuSans-30" x="290.576172"/>
       <use xlink:href="#DejaVuSans-31" x="354.199219"/>
      </g>
     </g>
    </g>
    <g id="xtick_9">
     <g id="line2d_17">
      <path d="M 693.420147 320.4 
L 693.420147 43.2 
" clip-path="url(#pde75673cc0)" style="fill: none; stroke-dasharray: 5.12,1.28,0.8,1.28; stroke-dashoffset: 0; stroke: #b0b0b0; stroke-width: 0.8"/>
     </g>
     <g id="line2d_18">
      <g>
       <use xlink:href="#mfd1e37c2ef" x="693.420147" y="320.4" style="fill: #a9a9a9; stroke: #a9a9a9; stroke-width: 0.8"/>
      </g>
     </g>
     <g id="text_9">
      <!-- 2024-05 -->
      <g style="fill: #a9a9a9" transform="translate(672.528741 334.998438) scale(0.1 -0.1)">
       <use xlink:href="#DejaVuSans-32"/>
       <use xlink:href="#DejaVuSans-30" x="63.623047"/>
       <use xlink:href="#DejaVuSans-32" x="127.246094"/>
       <use xlink:href="#DejaVuSans-34" x="190.869141"/>
       <use xlink:href="#DejaVuSans-2d" x="254.492188"/>
       <use xlink:href="#DejaVuSans-30" x="290.576172"/>
       <use xlink:href="#DejaVuSans-35" x="354.199219"/>
      </g>
     </g>
    </g>
    <g id="xtick_10">
     <g id="line2d_19">
      <path d="M 760.87371 320.4 
L 760.87371 43.2 
" clip-path="url(#pde75673cc0)" style="fill: none; stroke-dasharray: 5.12,1.28,0.8,1.28; stroke-dashoffset: 0; stroke: #b0b0b0; stroke-width: 0.8"/>
     </g>
     <g id="line2d_20">
      <g>
       <use xlink:href="#mfd1e37c2ef" x="760.87371" y="320.4" style="fill: #a9a9a9; stroke: #a9a9a9; stroke-width: 0.8"/>
      </g>
     </g>
     <g id="text_10">
      <!-- 2024-09 -->
      <g style="fill: #a9a9a9" transform="translate(739.982304 334.998438) scale(0.1 -0.1)">
       <use xlink:href="#DejaVuSans-32"/>
       <use xlink:href="#DejaVuSans-30" x="63.623047"/>
       <use xlink:href="#DejaVuSans-32" x="127.246094"/>
       <use xlink:href="#DejaVuSans-34" x="190.869141"/>
       <use xlink:href="#DejaVuSans-2d" x="254.492188"/>
       <use xlink:href="#DejaVuSans-30" x="290.576172"/>
       <use xlink:href="#DejaVuSans-39" x="354.199219"/>
      </g>
     </g>
    </g>
   </g>
   <g id="matplotlib.axis_2">
    <g id="ytick_1">
     <g id="line2d_21">
      <path d="M 108 307.839046 
L 777.6 307.839046 
" clip-path="url(#pde75673cc0)" style="fill: none; stroke-dasharray: 5.12,1.28,0.8,1.28; stroke-dashoffset: 0; stroke: #b0b0b0; stroke-width: 0.8"/>
     </g>
     <g id="line2d_22">
      <defs>
       <path id="m9afc702561" d="M 0 0 
L -3.5 0 
" style="stroke: #a9a9a9; stroke-width: 0.8"/>
      </defs>
      <g>
       <use xlink:href="#m9afc702561" x="108" y="307.839046" style="fill: #a9a9a9; stroke: #a9a9a9; stroke-width: 0.8"/>
      </g>
     </g>
     <g id="text_11">
      <!-- 0 -->
      <g style="fill: #a9a9a9" transform="translate(94.6375 311.638264) scale(0.1 -0.1)">
       <use xlink:href="#DejaVuSans-30"/>
      </g>
     </g>
    </g>
    <g id="ytick_2">
     <g id="line2d_23">
      <path d="M 108 276.602603 
L 777.6 276.602603 
" clip-path="url(#pde75673cc0)" style="fill: none; stroke-dasharray: 5.12,1.28,0.8,1.28; stroke-dashoffset: 0; stroke: #b0b0b0; stroke-width: 0.8"/>
     </g>
     <g id="line2d_24">
      <g>
       <use xlink:href="#m9afc702561" x="108" y="276.602603" style="fill: #a9a9a9; stroke: #a9a9a9; stroke-width: 0.8"/>
      </g>
     </g>
     <g id="text_12">
      <!-- 800 -->
      <g style="fill: #a9a9a9" transform="translate(81.9125 280.401822) scale(0.1 -0.1)">
       <defs>
        <path id="DejaVuSans-38" d="M 2034 2216 
Q 1584 2216 1326 1975 
Q 1069 1734 1069 1313 
Q 1069 891 1326 650 
Q 1584 409 2034 409 
Q 2484 409 2743 651 
Q 3003 894 3003 1313 
Q 3003 1734 2745 1975 
Q 2488 2216 2034 2216 
z
M 1403 2484 
Q 997 2584 770 2862 
Q 544 3141 544 3541 
Q 544 4100 942 4425 
Q 1341 4750 2034 4750 
Q 2731 4750 3128 4425 
Q 3525 4100 3525 3541 
Q 3525 3141 3298 2862 
Q 3072 2584 2669 2484 
Q 3125 2378 3379 2068 
Q 3634 1759 3634 1313 
Q 3634 634 3220 271 
Q 2806 -91 2034 -91 
Q 1263 -91 848 271 
Q 434 634 434 1313 
Q 434 1759 690 2068 
Q 947 2378 1403 2484 
z
M 1172 3481 
Q 1172 3119 1398 2916 
Q 1625 2713 2034 2713 
Q 2441 2713 2670 2916 
Q 2900 3119 2900 3481 
Q 2900 3844 2670 4047 
Q 2441 4250 2034 4250 
Q 1625 4250 1398 4047 
Q 1172 3844 1172 3481 
z
" transform="scale(0.015625)"/>
       </defs>
       <use xlink:href="#DejaVuSans-38"/>
       <use xlink:href="#DejaVuSans-30" x="63.623047"/>
       <use xlink:href="#DejaVuSans-30" x="127.246094"/>
      </g>
     </g>
    </g>
    <g id="ytick_3">
     <g id="line2d_25">
      <path d="M 108 245.366161 
L 777.6 245.366161 
" clip-path="url(#pde75673cc0)" style="fill: none; stroke-dasharray: 5.12,1.28,0.8,1.28; stroke-dashoffset: 0; stroke: #b0b0b0; stroke-width: 0.8"/>
     </g>
     <g id="line2d_26">
      <g>
       <use xlink:href="#m9afc702561" x="108" y="245.366161" style="fill: #a9a9a9; stroke: #a9a9a9; stroke-width: 0.8"/>
      </g>
     </g>
     <g id="text_13">
      <!-- 1600 -->
      <g style="fill: #a9a9a9" transform="translate(75.55 249.165379) scale(0.1 -0.1)">
       <defs>
        <path id="DejaVuSans-36" d="M 2113 2584 
Q 1688 2584 1439 2293 
Q 1191 2003 1191 1497 
Q 1191 994 1439 701 
Q 1688 409 2113 409 
Q 2538 409 2786 701 
Q 3034 994 3034 1497 
Q 3034 2003 2786 2293 
Q 2538 2584 2113 2584 
z
M 3366 4563 
L 3366 3988 
Q 3128 4100 2886 4159 
Q 2644 4219 2406 4219 
Q 1781 4219 1451 3797 
Q 1122 3375 1075 2522 
Q 1259 2794 1537 2939 
Q 1816 3084 2150 3084 
Q 2853 3084 3261 2657 
Q 3669 2231 3669 1497 
Q 3669 778 3244 343 
Q 2819 -91 2113 -91 
Q 1303 -91 875 529 
Q 447 1150 447 2328 
Q 447 3434 972 4092 
Q 1497 4750 2381 4750 
Q 2619 4750 2861 4703 
Q 3103 4656 3366 4563 
z
" transform="scale(0.015625)"/>
       </defs>
       <use xlink:href="#DejaVuSans-31"/>
       <use xlink:href="#DejaVuSans-36" x="63.623047"/>
       <use xlink:href="#DejaVuSans-30" x="127.246094"/>
       <use xlink:href="#DejaVuSans-30" x="190.869141"/>
      </g>
     </g>
    </g>
    <g id="ytick_4">
     <g id="line2d_27">
      <path d="M 108 214.129718 
L 777.6 214.129718 
" clip-path="url(#pde75673cc0)" style="fill: none; stroke-dasharray: 5.12,1.28,0.8,1.28; stroke-dashoffset: 0; stroke: #b0b0b0; stroke-width: 0.8"/>
     </g>
     <g id="line2d_28">
      <g>
       <use xlink:href="#m9afc702561" x="108" y="214.129718" style="fill: #a9a9a9; stroke: #a9a9a9; stroke-width: 0.8"/>
      </g>
     </g>
     <g id="text_14">
      <!-- 2400 -->
      <g style="fill: #a9a9a9" transform="translate(75.55 217.928937) scale(0.1 -0.1)">
       <use xlink:href="#DejaVuSans-32"/>
       <use xlink:href="#DejaVuSans-34" x="63.623047"/>
       <use xlink:href="#DejaVuSans-30" x="127.246094"/>
       <use xlink:href="#DejaVuSans-30" x="190.869141"/>
      </g>
     </g>
    </g>
    <g id="ytick_5">
     <g id="line2d_29">
      <path d="M 108 182.893275 
L 777.6 182.893275 
" clip-path="url(#pde75673cc0)" style="fill: none; stroke-dasharray: 5.12,1.28,0.8,1.28; stroke-dashoffset: 0; stroke: #b0b0b0; stroke-width: 0.8"/>
     </g>
     <g id="line2d_30">
      <g>
       <use xlink:href="#m9afc702561" x="108" y="182.893275" style="fill: #a9a9a9; stroke: #a9a9a9; stroke-width: 0.8"/>
      </g>
     </g>
     <g id="text_15">
      <!-- 3200 -->
      <g style="fill: #a9a9a9" transform="translate(75.55 186.692494) scale(0.1 -0.1)">
       <use xlink:href="#DejaVuSans-33"/>
       <use xlink:href="#DejaVuSans-32" x="63.623047"/>
       <use xlink:href="#DejaVuSans-30" x="127.246094"/>
       <use xlink:href="#DejaVuSans-30" x="190.869141"/>
      </g>
     </g>
    </g>
    <g id="ytick_6">
     <g id="line2d_31">
      <path d="M 108 151.656833 
L 777.6 151.656833 
" clip-path="url(#pde75673cc0)" style="fill: none; stroke-dasharray: 5.12,1.28,0.8,1.28; stroke-dashoffset: 0; stroke: #b0b0b0; stroke-width: 0.8"/>
     </g>
     <g id="line2d_32">
      <g>
       <use xlink:href="#m9afc702561" x="108" y="151.656833" style="fill: #a9a9a9; stroke: #a9a9a9; stroke-width: 0.8"/>
      </g>
     </g>
     <g id="text_16">
      <!-- 4000 -->
      <g style="fill: #a9a9a9" transform="translate(75.55 155.456052) scale(0.1 -0.1)">
       <use xlink:href="#DejaVuSans-34"/>
       <use xlink:href="#DejaVuSans-30" x="63.623047"/>
       <use xlink:href="#DejaVuSans-30" x="127.246094"/>
       <use xlink:href="#DejaVuSans-30" x="190.869141"/>
      </g>
     </g>
    </g>
    <g id="ytick_7">
     <g id="line2d_33">
      <path d="M 108 120.42039 
L 777.6 120.42039 
" clip-path="url(#pde75673cc0)" style="fill: none; stroke-dasharray: 5.12,1.28,0.8,1.28; stroke-dashoffset: 0; stroke: #b0b0b0; stroke-width: 0.8"/>
     </g>
     <g id="line2d_34">
      <g>
       <use xlink:href="#m9afc702561" x="108" y="120.42039" style="fill: #a9a9a9; stroke: #a9a9a9; stroke-width: 0.8"/>
      </g>
     </g>
     <g id="text_17">
      <!-- 4800 -->
      <g style="fill: #a9a9a9" transform="translate(75.55 124.219609) scale(0.1 -0.1)">
       <use xlink:href="#DejaVuSans-34"/>
       <use xlink:href="#DejaVuSans-38" x="63.623047"/>
       <use xlink:href="#DejaVuSans-30" x="127.246094"/>
       <use xlink:href="#DejaVuSans-30" x="190.869141"/>
      </g>
     </g>
    </g>
    <g id="ytick_8">
     <g id="line2d_35">
      <path d="M 108 89.183948 
L 777.6 89.183948 
" clip-path="url(#pde75673cc0)" style="fill: none; stroke-dasharray: 5.12,1.28,0.8,1.28; stroke-dashoffset: 0; stroke: #b0b0b0; stroke-width: 0.8"/>
     </g>
     <g id="line2d_36">
      <g>
       <use xlink:href="#m9afc702561" x="108" y="89.183948" style="fill: #a9a9a9; stroke: #a9a9a9; stroke-width: 0.8"/>
      </g>
     </g>
     <g id="text_18">
      <!-- 5600 -->
      <g style="fill: #a9a9a9" transform="translate(75.55 92.983167) scale(0.1 -0.1)">
       <use xlink:href="#DejaVuSans-35"/>
       <use xlink:href="#DejaVuSans-36" x="63.623047"/>
       <use xlink:href="#DejaVuSans-30" x="127.246094"/>
       <use xlink:href="#DejaVuSans-30" x="190.869141"/>
      </g>
     </g>
    </g>
    <g id="ytick_9">
     <g id="line2d_37">
      <path d="M 108 57.947505 
L 777.6 57.947505 
" clip-path="url(#pde75673cc0)" style="fill: none; stroke-dasharray: 5.12,1.28,0.8,1.28; stroke-dashoffset: 0; stroke: #b0b0b0; stroke-width: 0.8"/>
     </g>
     <g id="line2d_38">
      <g>
       <use xlink:href="#m9afc702561" x="108" y="57.947505" style="fill: #a9a9a9; stroke: #a9a9a9; stroke-width: 0.8"/>
      </g>
     </g>
     <g id="text_19">
      <!-- 6400 -->
      <g style="fill: #a9a9a9" transform="translate(75.55 61.746724) scale(0.1 -0.1)">
       <use xlink:href="#DejaVuSans-36"/>
       <use xlink:href="#DejaVuSans-34" x="63.623047"/>
       <use xlink:href="#DejaVuSans-30" x="127.246094"/>
       <use xlink:href="#DejaVuSans-30" x="190.869141"/>
      </g>
     </g>
    </g>
   </g>
   <g id="line2d_39">
    <path d="M 138.436364 307.721909 
L 141.726781 307.44859 
L 142.275184 307.214317 
L 143.920393 307.058134 
L 147.210811 306.39436 
L 150.501229 306.121041 
L 151.598034 305.69154 
L 152.146437 304.98872 
L 152.69484 304.598265 
L 153.243243 303.387852 
L 153.791646 303.309761 
L 154.340049 302.88026 
L 155.436855 302.333623 
L 157.630467 300.615618 
L 159.824079 299.561388 
L 161.469287 298.819523 
L 162.01769 297.960521 
L 163.114496 297.17961 
L 163.662899 296.945336 
L 169.146929 296.164425 
L 169.695332 295.891106 
L 173.534152 295.578742 
L 175.179361 295.149241 
L 180.114988 294.485466 
L 180.663391 294.173102 
L 181.211794 294.095011 
L 182.3086 293.743601 
L 186.14742 293.118872 
L 187.244226 292.806508 
L 188.889435 292.650325 
L 189.986241 292.533189 
L 190.534644 292.377007 
L 191.083047 292.337961 
L 192.728256 291.830369 
L 193.825061 291.752278 
L 194.921867 291.596095 
L 196.018673 291.361822 
L 196.567076 291.20564 
L 197.115479 290.463774 
L 198.760688 289.839046 
L 200.405897 289.409544 
L 200.9543 289.136226 
L 201.502703 289.09718 
L 204.244717 288.316269 
L 205.341523 288.238178 
L 205.889926 288.160087 
L 207.535135 287.652495 
L 209.728747 287.105857 
L 210.27715 286.871584 
L 210.825553 286.793492 
L 211.373956 286.520174 
L 216.857985 285.700217 
L 219.6 284.919306 
L 220.148403 284.567896 
L 222.342015 283.982213 
L 224.535627 282.849892 
L 226.180835 282.459436 
L 226.729238 282.381345 
L 227.277641 282.108026 
L 228.374447 281.912798 
L 229.471253 281.405206 
L 232.213268 280.702386 
L 233.858477 280.272885 
L 235.503686 279.687202 
L 236.052088 279.609111 
L 237.148894 279.17961 
L 238.2457 279.101518 
L 239.890909 278.632972 
L 240.439312 278.632972 
L 240.987715 278.398698 
L 242.084521 278.281562 
L 242.632924 278.086334 
L 243.72973 278.047289 
L 245.923342 277.77397 
L 247.020147 277.227332 
L 253.600983 274.298915 
L 254.149386 273.713232 
L 255.246192 272.073319 
L 255.794595 271.917137 
L 256.342998 271.917137 
L 257.439803 271.09718 
L 257.988206 270.940998 
L 258.536609 270.667679 
L 259.085012 270.550542 
L 259.633415 270.04295 
L 260.181818 269.886768 
L 261.827027 269.105857 
L 262.923833 267.544035 
L 263.472236 267.192625 
L 264.020639 266.255531 
L 264.569042 265.669848 
L 267.859459 263.951844 
L 268.956265 263.092842 
L 269.504668 262.741432 
L 270.053071 261.921475 
L 270.601474 260.711063 
L 271.149877 259.891106 
L 271.69828 259.461605 
L 272.246683 259.227332 
L 274.440295 257.3141 
L 275.537101 256.416052 
L 276.085504 255.947505 
L 276.633907 255.20564 
L 277.730713 254.229501 
L 279.924324 252.784816 
L 280.472727 252.316269 
L 281.02113 252.199132 
L 282.117936 251.613449 
L 284.311548 250.481128 
L 285.408354 249.426898 
L 285.956757 248.763124 
L 287.053563 247.982213 
L 287.601966 247.82603 
L 288.150369 247.552711 
L 289.247174 246.810846 
L 289.795577 246.498482 
L 290.34398 246.42039 
L 294.182801 244.038612 
L 296.376413 242.867245 
L 296.924816 242.359653 
L 305.699263 239.3141 
L 306.796069 238.337961 
L 308.441278 237.55705 
L 309.538084 236.893275 
L 310.634889 236.580911 
L 311.183292 236.229501 
L 311.731695 236.073319 
L 313.376904 235.019089 
L 316.118919 234.355315 
L 317.764128 233.418221 
L 318.312531 233.34013 
L 319.409337 233.066811 
L 319.95774 232.910629 
L 321.602948 231.661171 
L 323.248157 231.270716 
L 323.79656 231.075488 
L 324.344963 230.645987 
L 327.635381 229.552711 
L 328.183784 229.513666 
L 328.732187 229.357484 
L 329.828993 228.888937 
L 333.667813 227.522343 
L 334.764619 227.366161 
L 335.313022 227.209978 
L 335.861425 226.936659 
L 336.409828 226.819523 
L 339.151843 225.53102 
L 341.345455 224.359653 
L 345.732678 222.602603 
L 346.281081 222.524512 
L 347.377887 221.860738 
L 347.92629 221.782646 
L 350.119902 220.884599 
L 352.313514 220.533189 
L 353.410319 219.986551 
L 353.958722 219.518004 
L 354.507125 218.541866 
L 356.152334 218.229501 
L 360.539558 216.160087 
L 363.829975 214.793492 
L 364.926781 214.559219 
L 366.023587 214.012581 
L 366.57199 213.778308 
L 367.120393 213.700217 
L 369.314005 212.724078 
L 370.959214 211.708894 
L 371.507617 211.630803 
L 372.05602 211.435575 
L 372.604423 211.396529 
L 374.798034 210.7718 
L 375.346437 210.732755 
L 375.89484 210.303254 
L 376.991646 209.912798 
L 379.733661 208.858568 
L 380.282064 208.468113 
L 380.830467 208.272885 
L 381.927273 207.687202 
L 384.120885 207.062473 
L 384.669287 206.789154 
L 386.314496 205.500651 
L 386.862899 205.383514 
L 387.959705 204.524512 
L 388.508108 204.446421 
L 389.056511 203.587419 
L 389.604914 203.353145 
L 390.153317 202.923644 
L 390.70172 202.845553 
L 391.798526 202.181779 
L 392.346929 202.064642 
L 392.895332 201.830369 
L 393.443735 201.400868 
L 393.992138 201.20564 
L 395.637346 200.073319 
L 397.830958 198.940998 
L 398.379361 198.862907 
L 400.02457 198.04295 
L 400.572973 197.144902 
L 401.121376 196.676356 
L 401.669779 196.363991 
L 402.218182 196.246855 
L 403.314988 195.544035 
L 403.863391 195.426898 
L 404.960197 194.88026 
L 406.605405 194.17744 
L 407.702211 193.396529 
L 408.799017 192.225163 
L 409.895823 191.561388 
L 410.444226 191.209978 
L 410.992629 190.624295 
L 413.186241 189.140564 
L 413.734644 188.515835 
L 414.283047 188.086334 
L 415.379853 187.695879 
L 416.476658 186.954013 
L 418.121867 186.134056 
L 418.67027 186.055965 
L 420.315479 185.157918 
L 421.412285 184.494143 
L 426.896314 182.541866 
L 427.444717 182.112364 
L 429.638329 181.292408 
L 430.186732 181.136226 
L 430.735135 180.706725 
L 433.47715 179.222993 
L 434.573956 177.036443 
L 435.670762 175.786985 
L 436.767568 175.12321 
L 438.412776 174.459436 
L 438.961179 174.381345 
L 439.509582 174.06898 
L 442.251597 173.209978 
L 442.8 172.975705 
L 443.896806 172.233839 
L 445.542015 171.53102 
L 446.638821 170.945336 
L 447.187224 170.554881 
L 447.735627 170.320607 
L 448.284029 169.930152 
L 448.832432 169.344469 
L 449.929238 168.758785 
L 452.671253 167.3141 
L 455.961671 165.713232 
L 456.510074 165.596095 
L 458.155283 165.010412 
L 458.703686 164.85423 
L 460.897297 163.878091 
L 461.994103 163.44859 
L 462.542506 163.019089 
L 463.639312 162.667679 
L 466.92973 160.98872 
L 468.026536 160.129718 
L 469.123342 159.739262 
L 469.671744 159.270716 
L 470.220147 159.192625 
L 471.316953 158.372668 
L 472.413759 157.82603 
L 472.962162 157.591757 
L 473.510565 157.045119 
L 477.349386 155.561388 
L 478.446192 155.092842 
L 480.0914 154.585249 
L 481.188206 154.429067 
L 481.736609 154.194794 
L 482.285012 154.116703 
L 483.381818 153.648156 
L 483.930221 153.609111 
L 486.123833 152.789154 
L 487.769042 151.656833 
L 490.511057 150.36833 
L 493.253071 148.884599 
L 493.801474 148.767462 
L 495.446683 147.830369 
L 497.091892 147.283731 
L 498.188698 146.932321 
L 500.38231 146.229501 
L 501.479115 145.878091 
L 503.124324 145.604772 
L 505.317936 144.901952 
L 505.866339 144.667679 
L 506.414742 144.589588 
L 506.963145 144.316269 
L 508.059951 144.081996 
L 509.70516 143.496312 
L 510.801966 143.379176 
L 511.898771 143.105857 
L 513.54398 142.832538 
L 514.092383 142.676356 
L 515.189189 142.559219 
L 517.931204 141.856399 
L 519.02801 141.58308 
L 519.576413 141.270716 
L 522.318428 140.567896 
L 522.86683 140.450759 
L 525.060442 139.630803 
L 527.802457 138.810846 
L 528.35086 138.810846 
L 529.447666 138.42039 
L 529.996069 137.873753 
L 531.092875 137.444252 
L 534.383292 136.272885 
L 534.931695 135.921475 
L 535.480098 135.804338 
L 536.028501 135.491974 
L 537.125307 135.296746 
L 538.222113 134.867245 
L 538.770516 134.750108 
L 539.318919 134.398698 
L 539.867322 134.281562 
L 540.415725 133.813015 
L 542.060934 133.500651 
L 543.15774 132.993059 
L 543.706143 132.36833 
L 544.802948 132.134056 
L 549.738575 131.079826 
L 550.286978 131.079826 
L 550.835381 130.845553 
L 553.028993 130.455098 
L 553.577396 130.220824 
L 555.771007 129.830369 
L 556.867813 129.361822 
L 557.416216 129.322777 
L 559.061425 128.932321 
L 560.706634 128.50282 
L 562.900246 127.839046 
L 563.448649 127.721909 
L 563.997052 127.44859 
L 564.545455 127.370499 
L 567.287469 126.316269 
L 567.835872 125.925813 
L 568.932678 125.613449 
L 570.029484 125.262039 
L 571.12629 124.793492 
L 572.771499 124.051627 
L 574.416708 123.93449 
L 576.610319 123.309761 
L 577.158722 122.958351 
L 578.255528 122.645987 
L 580.997543 121.435575 
L 581.545946 121.396529 
L 587.578378 119.327115 
L 589.77199 118.780477 
L 590.320393 118.624295 
L 591.417199 118.116703 
L 592.514005 117.88243 
L 593.062408 117.765293 
L 593.610811 117.335792 
L 594.159214 117.062473 
L 594.707617 116.398698 
L 595.25602 116.008243 
L 596.352826 115.695879 
L 596.901229 115.266377 
L 601.288452 113.470282 
L 601.836855 113.3141 
L 602.385258 112.96269 
L 604.57887 112.298915 
L 605.675676 111.752278 
L 606.772482 111.127549 
L 607.320885 111.010412 
L 608.41769 110.346638 
L 608.966093 110.112364 
L 610.062899 109.44859 
L 611.708108 108.667679 
L 612.256511 108.277223 
L 613.353317 107.925813 
L 614.450123 107.262039 
L 614.998526 107.066811 
L 615.546929 106.676356 
L 622.676167 104.216486 
L 623.22457 104.099349 
L 623.772973 103.747939 
L 624.321376 103.669848 
L 625.418182 103.396529 
L 626.514988 103.162256 
L 630.353808 101.288069 
L 630.902211 101.209978 
L 632.54742 100.311931 
L 635.837838 99.023427 
L 638.03145 98.164425 
L 638.579853 98.008243 
L 639.128256 97.656833 
L 640.225061 97.500651 
L 640.773464 97.149241 
L 641.321867 97.110195 
L 642.418673 96.758785 
L 643.515479 96.212148 
L 644.063882 96.134056 
L 646.805897 95.040781 
L 647.3543 94.923644 
L 648.451106 94.572234 
L 649.547912 94.298915 
L 650.644717 94.025597 
L 652.289926 93.400868 
L 654.483538 92.190456 
L 655.580344 91.760954 
L 656.128747 91.409544 
L 657.225553 91.175271 
L 657.773956 90.862907 
L 658.322359 90.74577 
L 659.967568 89.886768 
L 660.515971 89.730586 
L 662.709582 88.715401 
L 664.354791 88.2859 
L 667.645209 86.997397 
L 669.290418 86.450759 
L 678.064865 82.819523 
L 680.258477 81.960521 
L 681.903686 81.062473 
L 682.452088 80.945336 
L 683.548894 80.515835 
L 684.097297 80.515835 
L 685.194103 80.047289 
L 686.290909 79.07115 
L 686.839312 78.602603 
L 688.484521 77.821692 
L 689.032924 77.704555 
L 689.581327 77.431236 
L 690.12973 77.353145 
L 690.678133 76.96269 
L 691.226536 76.845553 
L 692.323342 76.181779 
L 693.96855 75.361822 
L 694.516953 75.20564 
L 695.613759 74.659002 
L 697.258968 74.268547 
L 700.000983 73.370499 
L 700.549386 73.253362 
L 702.742998 72.199132 
L 703.839803 71.69154 
L 704.936609 71.418221 
L 708.77543 69.622126 
L 711.517445 68.645987 
L 713.162654 67.669848 
L 713.711057 67.552711 
L 714.807862 67.006074 
L 715.904668 66.615618 
L 716.453071 66.147072 
L 717.001474 65.834707 
L 718.646683 65.327115 
L 719.743489 64.585249 
L 720.291892 64.546204 
L 721.388698 64.233839 
L 721.937101 64.116703 
L 724.130713 63.296746 
L 725.775921 62.789154 
L 726.324324 62.711063 
L 727.42113 62.12538 
L 727.969533 61.930152 
L 728.517936 61.500651 
L 730.163145 61.07115 
L 730.711548 60.71974 
L 731.808354 60.446421 
L 733.453563 59.548373 
L 734.001966 59.509328 
L 735.647174 59.001735 
L 736.74398 58.884599 
L 737.840786 58.455098 
L 738.389189 58.298915 
L 738.937592 58.025597 
L 742.776413 57.20564 
L 744.421622 56.619957 
L 744.970025 56.541866 
L 747.163636 55.8 
L 747.163636 55.8 
" clip-path="url(#pde75673cc0)" style="fill: none; stroke: #1f77b4; stroke-width: 1.5; stroke-linecap: square"/>
   </g>
   <g id="line2d_40">
    <path d="M 138.984767 307.8 
L 140.629975 307.721909 
L 142.275184 307.682863 
L 145.565602 307.604772 
L 148.307617 307.487636 
L 150.501229 307.487636 
L 151.049631 307.331453 
L 153.243243 307.253362 
L 154.888452 307.058134 
L 156.533661 306.901952 
L 159.824079 306.74577 
L 160.372482 306.74577 
L 160.920885 306.628633 
L 163.114496 306.550542 
L 164.211302 306.472451 
L 168.598526 306.39436 
L 171.340541 306.277223 
L 177.921376 306.199132 
L 180.663391 306.081996 
L 183.953808 306.003905 
L 186.14742 305.925813 
L 191.083047 305.847722 
L 192.728256 305.808677 
L 194.373464 305.769631 
L 196.018673 305.574403 
L 199.309091 305.535358 
L 200.405897 305.457267 
L 204.244717 305.379176 
L 210.27715 305.027766 
L 214.115971 304.949675 
L 215.212776 304.871584 
L 216.857985 304.793492 
L 220.148403 304.63731 
L 222.342015 304.598265 
L 223.987224 304.442082 
L 231.116462 304.012581 
L 233.858477 303.93449 
L 238.794103 303.661171 
L 240.439312 303.58308 
L 245.923342 303.270716 
L 251.955774 303.192625 
L 254.149386 302.958351 
L 255.246192 302.88026 
L 262.37543 302.294577 
L 265.665848 301.865076 
L 267.859459 301.786985 
L 272.246683 301.201302 
L 275.537101 301.12321 
L 277.18231 300.967028 
L 278.279115 300.927983 
L 279.375921 300.810846 
L 281.02113 300.732755 
L 282.117936 300.576573 
L 284.859951 300.264208 
L 287.053563 300.186117 
L 288.150369 300.108026 
L 290.34398 300.029935 
L 291.440786 299.951844 
L 294.182801 299.678525 
L 294.731204 299.522343 
L 298.021622 299.366161 
L 300.763636 299.288069 
L 307.892875 298.858568 
L 309.538084 298.780477 
L 316.667322 298.350976 
L 320.506143 298.272885 
L 321.054545 298.155748 
L 325.441769 298.077657 
L 329.28059 297.88243 
L 335.313022 297.804338 
L 339.151843 297.609111 
L 343.539066 297.53102 
L 347.92629 297.296746 
L 351.765111 297.218655 
L 362.184767 296.554881 
L 367.668796 296.47679 
L 369.862408 296.242516 
L 371.507617 296.203471 
L 373.152826 296.164425 
L 375.346437 295.930152 
L 380.830467 295.617787 
L 384.120885 295.539696 
L 385.766093 295.500651 
L 387.411302 295.461605 
L 389.056511 295.305423 
L 393.443735 295.227332 
L 394.540541 295.07115 
L 395.637346 294.993059 
L 398.379361 294.875922 
L 399.476167 294.797831 
L 400.572973 294.71974 
L 405.5086 294.641649 
L 406.605405 294.524512 
L 408.799017 294.485466 
L 409.34742 294.36833 
L 410.444226 294.290239 
L 410.992629 294.173102 
L 412.637838 294.095011 
L 417.573464 293.821692 
L 418.67027 293.782646 
L 420.315479 293.626464 
L 421.960688 293.587419 
L 423.605897 293.509328 
L 426.347912 293.392191 
L 434.025553 293.3141 
L 437.864373 293.118872 
L 442.251597 293.040781 
L 444.445209 292.96269 
L 446.638821 292.923644 
L 447.735627 292.806508 
L 449.929238 292.728416 
L 455.413268 292.416052 
L 458.703686 292.377007 
L 460.348894 292.220824 
L 461.994103 292.181779 
L 465.832924 292.103688 
L 468.026536 292.025597 
L 474.607371 291.947505 
L 477.349386 291.830369 
L 480.639803 291.752278 
L 482.285012 291.55705 
L 485.57543 291.518004 
L 487.220639 291.361822 
L 489.414251 291.283731 
L 495.995086 291.20564 
L 498.737101 291.088503 
L 508.059951 291.049458 
L 509.156757 290.971367 
L 510.801966 290.932321 
L 517.931204 290.85423 
L 519.02801 290.776139 
L 525.060442 290.698048 
L 527.254054 290.619957 
L 533.834889 290.580911 
L 534.931695 290.50282 
L 543.15774 290.463774 
L 544.802948 290.307592 
L 558.513022 290.229501 
L 560.158231 290.190456 
L 574.965111 290.112364 
L 576.610319 290.073319 
L 586.481572 289.995228 
L 587.578378 289.917137 
L 590.320393 289.839046 
L 591.965602 289.682863 
L 594.707617 289.604772 
L 596.901229 289.526681 
L 600.191646 289.44859 
L 601.836855 289.409544 
L 604.030467 289.331453 
L 605.675676 289.292408 
L 608.41769 289.214317 
L 609.514496 289.136226 
L 612.804914 289.058134 
L 615.546929 288.940998 
L 616.643735 288.901952 
L 617.740541 288.823861 
L 619.385749 288.784816 
L 621.579361 288.706725 
L 623.772973 288.628633 
L 630.902211 288.550542 
L 633.095823 288.472451 
L 637.483047 288.39436 
L 641.321867 288.199132 
L 646.257494 288.121041 
L 647.3543 288.04295 
L 657.225553 287.964859 
L 658.870762 287.925813 
L 661.612776 287.886768 
L 663.806388 287.652495 
L 665.451597 287.613449 
L 668.742015 287.535358 
L 674.226044 287.222993 
L 676.968059 287.144902 
L 679.161671 287.066811 
L 685.194103 286.98872 
L 687.936118 286.676356 
L 690.12973 286.598265 
L 693.96855 286.520174 
L 694.516953 286.403037 
L 699.45258 286.324946 
L 702.194595 286.207809 
L 709.323833 286.168764 
L 709.872236 286.051627 
L 714.259459 285.973536 
L 715.904668 285.93449 
L 718.646683 285.856399 
L 720.291892 285.817354 
L 729.614742 285.739262 
L 732.356757 285.622126 
L 740.034398 285.544035 
L 742.22801 285.465944 
L 747.163636 285.387852 
L 747.163636 285.387852 
" clip-path="url(#pde75673cc0)" style="fill: none; stroke: #ff7f0e; stroke-width: 1.5; stroke-linecap: square"/>
   </g>
   <g id="patch_3">
    <path d="M 108 320.4 
L 108 43.2 
" style="fill: none; stroke: #a9a9a9; stroke-width: 0.8; stroke-linejoin: miter; stroke-linecap: square"/>
   </g>
   <g id="patch_4">
    <path d="M 777.6 320.4 
L 777.6 43.2 
" style="fill: none"/>
   </g>
   <g id="patch_5">
    <path d="M 108 320.4 
L 777.6 320.4 
" style="fill: none; stroke: #a9a9a9; stroke-width: 0.8; stroke-linejoin: miter; stroke-linecap: square"/>
   </g>
   <g id="patch_6">
    <path d="M 108 43.2 
L 777.6 43.2 
" style="fill: none"/>
   </g>
   <g id="text_20">
    <!-- get_subscribe history -->
    <g style="fill: #a9a9a9" transform="translate(378.6075 37.2) scale(0.12 -0.12)">
     <defs>
      <path id="DejaVuSans-67" d="M 2906 1791 
Q 2906 2416 2648 2759 
Q 2391 3103 1925 3103 
Q 1463 3103 1205 2759 
Q 947 2416 947 1791 
Q 947 1169 1205 825 
Q 1463 481 1925 481 
Q 2391 481 2648 825 
Q 2906 1169 2906 1791 
z
M 3481 434 
Q 3481 -459 3084 -895 
Q 2688 -1331 1869 -1331 
Q 1566 -1331 1297 -1286 
Q 1028 -1241 775 -1147 
L 775 -588 
Q 1028 -725 1275 -790 
Q 1522 -856 1778 -856 
Q 2344 -856 2625 -561 
Q 2906 -266 2906 331 
L 2906 616 
Q 2728 306 2450 153 
Q 2172 0 1784 0 
Q 1141 0 747 490 
Q 353 981 353 1791 
Q 353 2603 747 3093 
Q 1141 3584 1784 3584 
Q 2172 3584 2450 3431 
Q 2728 3278 2906 2969 
L 2906 3500 
L 3481 3500 
L 3481 434 
z
" transform="scale(0.015625)"/>
      <path id="DejaVuSans-65" d="M 3597 1894 
L 3597 1613 
L 953 1613 
Q 991 1019 1311 708 
Q 1631 397 2203 397 
Q 2534 397 2845 478 
Q 3156 559 3463 722 
L 3463 178 
Q 3153 47 2828 -22 
Q 2503 -91 2169 -91 
Q 1331 -91 842 396 
Q 353 884 353 1716 
Q 353 2575 817 3079 
Q 1281 3584 2069 3584 
Q 2775 3584 3186 3129 
Q 3597 2675 3597 1894 
z
M 3022 2063 
Q 3016 2534 2758 2815 
Q 2500 3097 2075 3097 
Q 1594 3097 1305 2825 
Q 1016 2553 972 2059 
L 3022 2063 
z
" transform="scale(0.015625)"/>
      <path id="DejaVuSans-74" d="M 1172 4494 
L 1172 3500 
L 2356 3500 
L 2356 3053 
L 1172 3053 
L 1172 1153 
Q 1172 725 1289 603 
Q 1406 481 1766 481 
L 2356 481 
L 2356 0 
L 1766 0 
Q 1100 0 847 248 
Q 594 497 594 1153 
L 594 3053 
L 172 3053 
L 172 3500 
L 594 3500 
L 594 4494 
L 1172 4494 
z
" transform="scale(0.015625)"/>
      <path id="DejaVuSans-5f" d="M 3263 -1063 
L 3263 -1509 
L -63 -1509 
L -63 -1063 
L 3263 -1063 
z
" transform="scale(0.015625)"/>
      <path id="DejaVuSans-73" d="M 2834 3397 
L 2834 2853 
Q 2591 2978 2328 3040 
Q 2066 3103 1784 3103 
Q 1356 3103 1142 2972 
Q 928 2841 928 2578 
Q 928 2378 1081 2264 
Q 1234 2150 1697 2047 
L 1894 2003 
Q 2506 1872 2764 1633 
Q 3022 1394 3022 966 
Q 3022 478 2636 193 
Q 2250 -91 1575 -91 
Q 1294 -91 989 -36 
Q 684 19 347 128 
L 347 722 
Q 666 556 975 473 
Q 1284 391 1588 391 
Q 1994 391 2212 530 
Q 2431 669 2431 922 
Q 2431 1156 2273 1281 
Q 2116 1406 1581 1522 
L 1381 1569 
Q 847 1681 609 1914 
Q 372 2147 372 2553 
Q 372 3047 722 3315 
Q 1072 3584 1716 3584 
Q 2034 3584 2315 3537 
Q 2597 3491 2834 3397 
z
" transform="scale(0.015625)"/>
      <path id="DejaVuSans-75" d="M 544 1381 
L 544 3500 
L 1119 3500 
L 1119 1403 
Q 1119 906 1312 657 
Q 1506 409 1894 409 
Q 2359 409 2629 706 
Q 2900 1003 2900 1516 
L 2900 3500 
L 3475 3500 
L 3475 0 
L 2900 0 
L 2900 538 
Q 2691 219 2414 64 
Q 2138 -91 1772 -91 
Q 1169 -91 856 284 
Q 544 659 544 1381 
z
M 1991 3584 
L 1991 3584 
z
" transform="scale(0.015625)"/>
      <path id="DejaVuSans-62" d="M 3116 1747 
Q 3116 2381 2855 2742 
Q 2594 3103 2138 3103 
Q 1681 3103 1420 2742 
Q 1159 2381 1159 1747 
Q 1159 1113 1420 752 
Q 1681 391 2138 391 
Q 2594 391 2855 752 
Q 3116 1113 3116 1747 
z
M 1159 2969 
Q 1341 3281 1617 3432 
Q 1894 3584 2278 3584 
Q 2916 3584 3314 3078 
Q 3713 2572 3713 1747 
Q 3713 922 3314 415 
Q 2916 -91 2278 -91 
Q 1894 -91 1617 61 
Q 1341 213 1159 525 
L 1159 0 
L 581 0 
L 581 4863 
L 1159 4863 
L 1159 2969 
z
" transform="scale(0.015625)"/>
      <path id="DejaVuSans-63" d="M 3122 3366 
L 3122 2828 
Q 2878 2963 2633 3030 
Q 2388 3097 2138 3097 
Q 1578 3097 1268 2742 
Q 959 2388 959 1747 
Q 959 1106 1268 751 
Q 1578 397 2138 397 
Q 2388 397 2633 464 
Q 2878 531 3122 666 
L 3122 134 
Q 2881 22 2623 -34 
Q 2366 -91 2075 -91 
Q 1284 -91 818 406 
Q 353 903 353 1747 
Q 353 2603 823 3093 
Q 1294 3584 2113 3584 
Q 2378 3584 2631 3529 
Q 2884 3475 3122 3366 
z
" transform="scale(0.015625)"/>
      <path id="DejaVuSans-72" d="M 2631 2963 
Q 2534 3019 2420 3045 
Q 2306 3072 2169 3072 
Q 1681 3072 1420 2755 
Q 1159 2438 1159 1844 
L 1159 0 
L 581 0 
L 581 3500 
L 1159 3500 
L 1159 2956 
Q 1341 3275 1631 3429 
Q 1922 3584 2338 3584 
Q 2397 3584 2469 3576 
Q 2541 3569 2628 3553 
L 2631 2963 
z
" transform="scale(0.015625)"/>
      <path id="DejaVuSans-69" d="M 603 3500 
L 1178 3500 
L 1178 0 
L 603 0 
L 603 3500 
z
M 603 4863 
L 1178 4863 
L 1178 4134 
L 603 4134 
L 603 4863 
z
" transform="scale(0.015625)"/>
      <path id="DejaVuSans-20" transform="scale(0.015625)"/>
      <path id="DejaVuSans-68" d="M 3513 2113 
L 3513 0 
L 2938 0 
L 2938 2094 
Q 2938 2591 2744 2837 
Q 2550 3084 2163 3084 
Q 1697 3084 1428 2787 
Q 1159 2491 1159 1978 
L 1159 0 
L 581 0 
L 581 4863 
L 1159 4863 
L 1159 2956 
Q 1366 3272 1645 3428 
Q 1925 3584 2291 3584 
Q 2894 3584 3203 3211 
Q 3513 2838 3513 2113 
z
" transform="scale(0.015625)"/>
      <path id="DejaVuSans-6f" d="M 1959 3097 
Q 1497 3097 1228 2736 
Q 959 2375 959 1747 
Q 959 1119 1226 758 
Q 1494 397 1959 397 
Q 2419 397 2687 759 
Q 2956 1122 2956 1747 
Q 2956 2369 2687 2733 
Q 2419 3097 1959 3097 
z
M 1959 3584 
Q 2709 3584 3137 3096 
Q 3566 2609 3566 1747 
Q 3566 888 3137 398 
Q 2709 -91 1959 -91 
Q 1206 -91 779 398 
Q 353 888 353 1747 
Q 353 2609 779 3096 
Q 1206 3584 1959 3584 
z
" transform="scale(0.015625)"/>
      <path id="DejaVuSans-79" d="M 2059 -325 
Q 1816 -950 1584 -1140 
Q 1353 -1331 966 -1331 
L 506 -1331 
L 506 -850 
L 844 -850 
Q 1081 -850 1212 -737 
Q 1344 -625 1503 -206 
L 1606 56 
L 191 3500 
L 800 3500 
L 1894 763 
L 2988 3500 
L 3597 3500 
L 2059 -325 
z
" transform="scale(0.015625)"/>
     </defs>
     <use xlink:href="#DejaVuSans-67"/>
     <use xlink:href="#DejaVuSans-65" x="63.476562"/>
     <use xlink:href="#DejaVuSans-74" x="125"/>
     <use xlink:href="#DejaVuSans-5f" x="164.208984"/>
     <use xlink:href="#DejaVuSans-73" x="214.208984"/>
     <use xlink:href="#DejaVuSans-75" x="266.308594"/>
     <use xlink:href="#DejaVuSans-62" x="329.6875"/>
     <use xlink:href="#DejaVuSans-73" x="393.164062"/>
     <use xlink:href="#DejaVuSans-63" x="445.263672"/>
     <use xlink:href="#DejaVuSans-72" x="500.244141"/>
     <use xlink:href="#DejaVuSans-69" x="541.357422"/>
     <use xlink:href="#DejaVuSans-62" x="569.140625"/>
     <use xlink:href="#DejaVuSans-65" x="632.617188"/>
     <use xlink:href="#DejaVuSans-20" x="694.140625"/>
     <use xlink:href="#DejaVuSans-68" x="725.927734"/>
     <use xlink:href="#DejaVuSans-69" x="789.306641"/>
     <use xlink:href="#DejaVuSans-73" x="817.089844"/>
     <use xlink:href="#DejaVuSans-74" x="869.189453"/>
     <use xlink:href="#DejaVuSans-6f" x="908.398438"/>
     <use xlink:href="#DejaVuSans-72" x="969.580078"/>
     <use xlink:href="#DejaVuSans-79" x="1010.693359"/>
    </g>
   </g>
   <g id="legend_1">
    <g id="line2d_41">
     <path d="M 815.08 328.498438 
L 825.08 328.498438 
L 835.08 328.498438 
" style="fill: none; stroke: #1f77b4; stroke-width: 1.5; stroke-linecap: square"/>
    </g>
    <g id="text_21">
     <!-- star -->
     <g style="fill: #a9a9a9" transform="translate(843.08 331.998438) scale(0.1 -0.1)">
      <defs>
       <path id="DejaVuSans-61" d="M 2194 1759 
Q 1497 1759 1228 1600 
Q 959 1441 959 1056 
Q 959 750 1161 570 
Q 1363 391 1709 391 
Q 2188 391 2477 730 
Q 2766 1069 2766 1631 
L 2766 1759 
L 2194 1759 
z
M 3341 1997 
L 3341 0 
L 2766 0 
L 2766 531 
Q 2569 213 2275 61 
Q 1981 -91 1556 -91 
Q 1019 -91 701 211 
Q 384 513 384 1019 
Q 384 1609 779 1909 
Q 1175 2209 1959 2209 
L 2766 2209 
L 2766 2266 
Q 2766 2663 2505 2880 
Q 2244 3097 1772 3097 
Q 1472 3097 1187 3025 
Q 903 2953 641 2809 
L 641 3341 
Q 956 3463 1253 3523 
Q 1550 3584 1831 3584 
Q 2591 3584 2966 3190 
Q 3341 2797 3341 1997 
z
" transform="scale(0.015625)"/>
      </defs>
      <use xlink:href="#DejaVuSans-73"/>
      <use xlink:href="#DejaVuSans-74" x="52.099609"/>
      <use xlink:href="#DejaVuSans-61" x="91.308594"/>
      <use xlink:href="#DejaVuSans-72" x="152.587891"/>
     </g>
    </g>
    <g id="line2d_42">
     <path d="M 815.08 343.176562 
L 825.08 343.176562 
L 835.08 343.176562 
" style="fill: none; stroke: #ff7f0e; stroke-width: 1.5; stroke-linecap: square"/>
    </g>
    <g id="text_22">
     <!-- fork -->
     <g style="fill: #a9a9a9" transform="translate(843.08 346.676562) scale(0.1 -0.1)">
      <defs>
       <path id="DejaVuSans-66" d="M 2375 4863 
L 2375 4384 
L 1825 4384 
Q 1516 4384 1395 4259 
Q 1275 4134 1275 3809 
L 1275 3500 
L 2222 3500 
L 2222 3053 
L 1275 3053 
L 1275 0 
L 697 0 
L 697 3053 
L 147 3053 
L 147 3500 
L 697 3500 
L 697 3744 
Q 697 4328 969 4595 
Q 1241 4863 1831 4863 
L 2375 4863 
z
" transform="scale(0.015625)"/>
       <path id="DejaVuSans-6b" d="M 581 4863 
L 1159 4863 
L 1159 1991 
L 2875 3500 
L 3609 3500 
L 1753 1863 
L 3688 0 
L 2938 0 
L 1159 1709 
L 1159 0 
L 581 0 
L 581 4863 
z
" transform="scale(0.015625)"/>
      </defs>
      <use xlink:href="#DejaVuSans-66"/>
      <use xlink:href="#DejaVuSans-6f" x="35.205078"/>
      <use xlink:href="#DejaVuSans-72" x="96.386719"/>
      <use xlink:href="#DejaVuSans-6b" x="137.5"/>
     </g>
    </g>
   </g>
  </g>
 </g>
 <defs>
  <clipPath id="pde75673cc0">
   <rect x="108" y="43.2" width="669.6" height="277.2"/>
  </clipPath>
 </defs>
</svg>
