<?xml version="1.0" encoding="utf-8" standalone="no"?>
<!DOCTYPE svg PUBLIC "-//W3C//DTD SVG 1.1//EN"
  "http://www.w3.org/Graphics/SVG/1.1/DTD/svg11.dtd">
<svg xmlns:xlink="http://www.w3.org/1999/xlink" width="864pt" height="360pt" viewBox="0 0 864 360" xmlns="http://www.w3.org/2000/svg" version="1.1">
 <metadata>
  <rdf:RDF xmlns:dc="http://purl.org/dc/elements/1.1/" xmlns:cc="http://creativecommons.org/ns#" xmlns:rdf="http://www.w3.org/1999/02/22-rdf-syntax-ns#">
   <cc:Work>
    <dc:type rdf:resource="http://purl.org/dc/dcmitype/StillImage"/>
    <dc:date>2024-08-06T20:05:29.349524</dc:date>
    <dc:format>image/svg+xml</dc:format>
    <dc:creator>
     <cc:Agent>
      <dc:title>Matplotlib v3.9.0, https://matplotlib.org/</dc:title>
     </cc:Agent>
    </dc:creator>
   </cc:Work>
  </rdf:RDF>
 </metadata>
 <defs>
  <style type="text/css">*{stroke-linejoin: round; stroke-linecap: butt}</style>
 </defs>
 <g id="figure_1">
  <g id="patch_1">
   <path d="M 0 360 
L 864 360 
L 864 0 
L 0 0 
L 0 360 
z
" style="fill: none; opacity: 0"/>
  </g>
  <g id="axes_1">
   <g id="patch_2">
    <path d="M 108 320.4 
L 777.6 320.4 
L 777.6 43.2 
L 108 43.2 
L 108 320.4 
z
" style="fill: none; opacity: 0"/>
   </g>
   <g id="matplotlib.axis_1">
    <g id="xtick_1">
     <g id="line2d_1">
      <path d="M 159.843364 320.4 
L 159.843364 43.2 
" clip-path="url(#p5253f9f657)" style="fill: none; stroke-dasharray: 5.12,1.28,0.8,1.28; stroke-dashoffset: 0; stroke: #b0b0b0; stroke-width: 0.8"/>
     </g>
     <g id="line2d_2">
      <defs>
       <path id="m616c036fc2" d="M 0 0 
L 0 3.5 
" style="stroke: #a9a9a9; stroke-width: 0.8"/>
      </defs>
      <g>
       <use xlink:href="#m616c036fc2" x="159.843364" y="320.4" style="fill: #a9a9a9; stroke: #a9a9a9; stroke-width: 0.8"/>
      </g>
     </g>
     <g id="text_1">
      <!-- 2021-09 -->
      <g style="fill: #a9a9a9" transform="translate(138.951958 334.998438) scale(0.1 -0.1)">
       <defs>
        <path id="DejaVuSans-32" d="M 1228 531 
L 3431 531 
L 3431 0 
L 469 0 
L 469 531 
Q 828 903 1448 1529 
Q 2069 2156 2228 2338 
Q 2531 2678 2651 2914 
Q 2772 3150 2772 3378 
Q 2772 3750 2511 3984 
Q 2250 4219 1831 4219 
Q 1534 4219 1204 4116 
Q 875 4013 500 3803 
L 500 4441 
Q 881 4594 1212 4672 
Q 1544 4750 1819 4750 
Q 2544 4750 2975 4387 
Q 3406 4025 3406 3419 
Q 3406 3131 3298 2873 
Q 3191 2616 2906 2266 
Q 2828 2175 2409 1742 
Q 1991 1309 1228 531 
z
" transform="scale(0.015625)"/>
        <path id="DejaVuSans-30" d="M 2034 4250 
Q 1547 4250 1301 3770 
Q 1056 3291 1056 2328 
Q 1056 1369 1301 889 
Q 1547 409 2034 409 
Q 2525 409 2770 889 
Q 3016 1369 3016 2328 
Q 3016 3291 2770 3770 
Q 2525 4250 2034 4250 
z
M 2034 4750 
Q 2819 4750 3233 4129 
Q 3647 3509 3647 2328 
Q 3647 1150 3233 529 
Q 2819 -91 2034 -91 
Q 1250 -91 836 529 
Q 422 1150 422 2328 
Q 422 3509 836 4129 
Q 1250 4750 2034 4750 
z
" transform="scale(0.015625)"/>
        <path id="DejaVuSans-31" d="M 794 531 
L 1825 531 
L 1825 4091 
L 703 3866 
L 703 4441 
L 1819 4666 
L 2450 4666 
L 2450 531 
L 3481 531 
L 3481 0 
L 794 0 
L 794 531 
z
" transform="scale(0.015625)"/>
        <path id="DejaVuSans-2d" d="M 313 2009 
L 1997 2009 
L 1997 1497 
L 313 1497 
L 313 2009 
z
" transform="scale(0.015625)"/>
        <path id="DejaVuSans-39" d="M 703 97 
L 703 672 
Q 941 559 1184 500 
Q 1428 441 1663 441 
Q 2288 441 2617 861 
Q 2947 1281 2994 2138 
Q 2813 1869 2534 1725 
Q 2256 1581 1919 1581 
Q 1219 1581 811 2004 
Q 403 2428 403 3163 
Q 403 3881 828 4315 
Q 1253 4750 1959 4750 
Q 2769 4750 3195 4129 
Q 3622 3509 3622 2328 
Q 3622 1225 3098 567 
Q 2575 -91 1691 -91 
Q 1453 -91 1209 -44 
Q 966 3 703 97 
z
M 1959 2075 
Q 2384 2075 2632 2365 
Q 2881 2656 2881 3163 
Q 2881 3666 2632 3958 
Q 2384 4250 1959 4250 
Q 1534 4250 1286 3958 
Q 1038 3666 1038 3163 
Q 1038 2656 1286 2365 
Q 1534 2075 1959 2075 
z
" transform="scale(0.015625)"/>
       </defs>
       <use xlink:href="#DejaVuSans-32"/>
       <use xlink:href="#DejaVuSans-30" x="63.623047"/>
       <use xlink:href="#DejaVuSans-32" x="127.246094"/>
       <use xlink:href="#DejaVuSans-31" x="190.869141"/>
       <use xlink:href="#DejaVuSans-2d" x="254.492188"/>
       <use xlink:href="#DejaVuSans-30" x="290.576172"/>
       <use xlink:href="#DejaVuSans-39" x="354.199219"/>
      </g>
     </g>
    </g>
    <g id="xtick_2">
     <g id="line2d_3">
      <path d="M 226.808853 320.4 
L 226.808853 43.2 
" clip-path="url(#p5253f9f657)" style="fill: none; stroke-dasharray: 5.12,1.28,0.8,1.28; stroke-dashoffset: 0; stroke: #b0b0b0; stroke-width: 0.8"/>
     </g>
     <g id="line2d_4">
      <g>
       <use xlink:href="#m616c036fc2" x="226.808853" y="320.4" style="fill: #a9a9a9; stroke: #a9a9a9; stroke-width: 0.8"/>
      </g>
     </g>
     <g id="text_2">
      <!-- 2022-01 -->
      <g style="fill: #a9a9a9" transform="translate(205.917447 334.998438) scale(0.1 -0.1)">
       <use xlink:href="#DejaVuSans-32"/>
       <use xlink:href="#DejaVuSans-30" x="63.623047"/>
       <use xlink:href="#DejaVuSans-32" x="127.246094"/>
       <use xlink:href="#DejaVuSans-32" x="190.869141"/>
       <use xlink:href="#DejaVuSans-2d" x="254.492188"/>
       <use xlink:href="#DejaVuSans-30" x="290.576172"/>
       <use xlink:href="#DejaVuSans-31" x="354.199219"/>
      </g>
     </g>
    </g>
    <g id="xtick_3">
     <g id="line2d_5">
      <path d="M 292.676547 320.4 
L 292.676547 43.2 
" clip-path="url(#p5253f9f657)" style="fill: none; stroke-dasharray: 5.12,1.28,0.8,1.28; stroke-dashoffset: 0; stroke: #b0b0b0; stroke-width: 0.8"/>
     </g>
     <g id="line2d_6">
      <g>
       <use xlink:href="#m616c036fc2" x="292.676547" y="320.4" style="fill: #a9a9a9; stroke: #a9a9a9; stroke-width: 0.8"/>
      </g>
     </g>
     <g id="text_3">
      <!-- 2022-05 -->
      <g style="fill: #a9a9a9" transform="translate(271.785141 334.998438) scale(0.1 -0.1)">
       <defs>
        <path id="DejaVuSans-35" d="M 691 4666 
L 3169 4666 
L 3169 4134 
L 1269 4134 
L 1269 2991 
Q 1406 3038 1543 3061 
Q 1681 3084 1819 3084 
Q 2600 3084 3056 2656 
Q 3513 2228 3513 1497 
Q 3513 744 3044 326 
Q 2575 -91 1722 -91 
Q 1428 -91 1123 -41 
Q 819 9 494 109 
L 494 744 
Q 775 591 1075 516 
Q 1375 441 1709 441 
Q 2250 441 2565 725 
Q 2881 1009 2881 1497 
Q 2881 1984 2565 2268 
Q 2250 2553 1709 2553 
Q 1456 2553 1204 2497 
Q 953 2441 691 2322 
L 691 4666 
z
" transform="scale(0.015625)"/>
       </defs>
       <use xlink:href="#DejaVuSans-32"/>
       <use xlink:href="#DejaVuSans-30" x="63.623047"/>
       <use xlink:href="#DejaVuSans-32" x="127.246094"/>
       <use xlink:href="#DejaVuSans-32" x="190.869141"/>
       <use xlink:href="#DejaVuSans-2d" x="254.492188"/>
       <use xlink:href="#DejaVuSans-30" x="290.576172"/>
       <use xlink:href="#DejaVuSans-35" x="354.199219"/>
      </g>
     </g>
    </g>
    <g id="xtick_4">
     <g id="line2d_7">
      <path d="M 360.190934 320.4 
L 360.190934 43.2 
" clip-path="url(#p5253f9f657)" style="fill: none; stroke-dasharray: 5.12,1.28,0.8,1.28; stroke-dashoffset: 0; stroke: #b0b0b0; stroke-width: 0.8"/>
     </g>
     <g id="line2d_8">
      <g>
       <use xlink:href="#m616c036fc2" x="360.190934" y="320.4" style="fill: #a9a9a9; stroke: #a9a9a9; stroke-width: 0.8"/>
      </g>
     </g>
     <g id="text_4">
      <!-- 2022-09 -->
      <g style="fill: #a9a9a9" transform="translate(339.299527 334.998438) scale(0.1 -0.1)">
       <use xlink:href="#DejaVuSans-32"/>
       <use xlink:href="#DejaVuSans-30" x="63.623047"/>
       <use xlink:href="#DejaVuSans-32" x="127.246094"/>
       <use xlink:href="#DejaVuSans-32" x="190.869141"/>
       <use xlink:href="#DejaVuSans-2d" x="254.492188"/>
       <use xlink:href="#DejaVuSans-30" x="290.576172"/>
       <use xlink:href="#DejaVuSans-39" x="354.199219"/>
      </g>
     </g>
    </g>
    <g id="xtick_5">
     <g id="line2d_9">
      <path d="M 427.156423 320.4 
L 427.156423 43.2 
" clip-path="url(#p5253f9f657)" style="fill: none; stroke-dasharray: 5.12,1.28,0.8,1.28; stroke-dashoffset: 0; stroke: #b0b0b0; stroke-width: 0.8"/>
     </g>
     <g id="line2d_10">
      <g>
       <use xlink:href="#m616c036fc2" x="427.156423" y="320.4" style="fill: #a9a9a9; stroke: #a9a9a9; stroke-width: 0.8"/>
      </g>
     </g>
     <g id="text_5">
      <!-- 2023-01 -->
      <g style="fill: #a9a9a9" transform="translate(406.265016 334.998438) scale(0.1 -0.1)">
       <defs>
        <path id="DejaVuSans-33" d="M 2597 2516 
Q 3050 2419 3304 2112 
Q 3559 1806 3559 1356 
Q 3559 666 3084 287 
Q 2609 -91 1734 -91 
Q 1441 -91 1130 -33 
Q 819 25 488 141 
L 488 750 
Q 750 597 1062 519 
Q 1375 441 1716 441 
Q 2309 441 2620 675 
Q 2931 909 2931 1356 
Q 2931 1769 2642 2001 
Q 2353 2234 1838 2234 
L 1294 2234 
L 1294 2753 
L 1863 2753 
Q 2328 2753 2575 2939 
Q 2822 3125 2822 3475 
Q 2822 3834 2567 4026 
Q 2313 4219 1838 4219 
Q 1578 4219 1281 4162 
Q 984 4106 628 3988 
L 628 4550 
Q 988 4650 1302 4700 
Q 1616 4750 1894 4750 
Q 2613 4750 3031 4423 
Q 3450 4097 3450 3541 
Q 3450 3153 3228 2886 
Q 3006 2619 2597 2516 
z
" transform="scale(0.015625)"/>
       </defs>
       <use xlink:href="#DejaVuSans-32"/>
       <use xlink:href="#DejaVuSans-30" x="63.623047"/>
       <use xlink:href="#DejaVuSans-32" x="127.246094"/>
       <use xlink:href="#DejaVuSans-33" x="190.869141"/>
       <use xlink:href="#DejaVuSans-2d" x="254.492188"/>
       <use xlink:href="#DejaVuSans-30" x="290.576172"/>
       <use xlink:href="#DejaVuSans-31" x="354.199219"/>
      </g>
     </g>
    </g>
    <g id="xtick_6">
     <g id="line2d_11">
      <path d="M 493.024117 320.4 
L 493.024117 43.2 
" clip-path="url(#p5253f9f657)" style="fill: none; stroke-dasharray: 5.12,1.28,0.8,1.28; stroke-dashoffset: 0; stroke: #b0b0b0; stroke-width: 0.8"/>
     </g>
     <g id="line2d_12">
      <g>
       <use xlink:href="#m616c036fc2" x="493.024117" y="320.4" style="fill: #a9a9a9; stroke: #a9a9a9; stroke-width: 0.8"/>
      </g>
     </g>
     <g id="text_6">
      <!-- 2023-05 -->
      <g style="fill: #a9a9a9" transform="translate(472.13271 334.998438) scale(0.1 -0.1)">
       <use xlink:href="#DejaVuSans-32"/>
       <use xlink:href="#DejaVuSans-30" x="63.623047"/>
       <use xlink:href="#DejaVuSans-32" x="127.246094"/>
       <use xlink:href="#DejaVuSans-33" x="190.869141"/>
       <use xlink:href="#DejaVuSans-2d" x="254.492188"/>
       <use xlink:href="#DejaVuSans-30" x="290.576172"/>
       <use xlink:href="#DejaVuSans-35" x="354.199219"/>
      </g>
     </g>
    </g>
    <g id="xtick_7">
     <g id="line2d_13">
      <path d="M 560.538503 320.4 
L 560.538503 43.2 
" clip-path="url(#p5253f9f657)" style="fill: none; stroke-dasharray: 5.12,1.28,0.8,1.28; stroke-dashoffset: 0; stroke: #b0b0b0; stroke-width: 0.8"/>
     </g>
     <g id="line2d_14">
      <g>
       <use xlink:href="#m616c036fc2" x="560.538503" y="320.4" style="fill: #a9a9a9; stroke: #a9a9a9; stroke-width: 0.8"/>
      </g>
     </g>
     <g id="text_7">
      <!-- 2023-09 -->
      <g style="fill: #a9a9a9" transform="translate(539.647097 334.998438) scale(0.1 -0.1)">
       <use xlink:href="#DejaVuSans-32"/>
       <use xlink:href="#DejaVuSans-30" x="63.623047"/>
       <use xlink:href="#DejaVuSans-32" x="127.246094"/>
       <use xlink:href="#DejaVuSans-33" x="190.869141"/>
       <use xlink:href="#DejaVuSans-2d" x="254.492188"/>
       <use xlink:href="#DejaVuSans-30" x="290.576172"/>
       <use xlink:href="#DejaVuSans-39" x="354.199219"/>
      </g>
     </g>
    </g>
    <g id="xtick_8">
     <g id="line2d_15">
      <path d="M 627.503992 320.4 
L 627.503992 43.2 
" clip-path="url(#p5253f9f657)" style="fill: none; stroke-dasharray: 5.12,1.28,0.8,1.28; stroke-dashoffset: 0; stroke: #b0b0b0; stroke-width: 0.8"/>
     </g>
     <g id="line2d_16">
      <g>
       <use xlink:href="#m616c036fc2" x="627.503992" y="320.4" style="fill: #a9a9a9; stroke: #a9a9a9; stroke-width: 0.8"/>
      </g>
     </g>
     <g id="text_8">
      <!-- 2024-01 -->
      <g style="fill: #a9a9a9" transform="translate(606.612586 334.998438) scale(0.1 -0.1)">
       <defs>
        <path id="DejaVuSans-34" d="M 2419 4116 
L 825 1625 
L 2419 1625 
L 2419 4116 
z
M 2253 4666 
L 3047 4666 
L 3047 1625 
L 3713 1625 
L 3713 1100 
L 3047 1100 
L 3047 0 
L 2419 0 
L 2419 1100 
L 313 1100 
L 313 1709 
L 2253 4666 
z
" transform="scale(0.015625)"/>
       </defs>
       <use xlink:href="#DejaVuSans-32"/>
       <use xlink:href="#DejaVuSans-30" x="63.623047"/>
       <use xlink:href="#DejaVuSans-32" x="127.246094"/>
       <use xlink:href="#DejaVuSans-34" x="190.869141"/>
       <use xlink:href="#DejaVuSans-2d" x="254.492188"/>
       <use xlink:href="#DejaVuSans-30" x="290.576172"/>
       <use xlink:href="#DejaVuSans-31" x="354.199219"/>
      </g>
     </g>
    </g>
    <g id="xtick_9">
     <g id="line2d_17">
      <path d="M 693.920584 320.4 
L 693.920584 43.2 
" clip-path="url(#p5253f9f657)" style="fill: none; stroke-dasharray: 5.12,1.28,0.8,1.28; stroke-dashoffset: 0; stroke: #b0b0b0; stroke-width: 0.8"/>
     </g>
     <g id="line2d_18">
      <g>
       <use xlink:href="#m616c036fc2" x="693.920584" y="320.4" style="fill: #a9a9a9; stroke: #a9a9a9; stroke-width: 0.8"/>
      </g>
     </g>
     <g id="text_9">
      <!-- 2024-05 -->
      <g style="fill: #a9a9a9" transform="translate(673.029177 334.998438) scale(0.1 -0.1)">
       <use xlink:href="#DejaVuSans-32"/>
       <use xlink:href="#DejaVuSans-30" x="63.623047"/>
       <use xlink:href="#DejaVuSans-32" x="127.246094"/>
       <use xlink:href="#DejaVuSans-34" x="190.869141"/>
       <use xlink:href="#DejaVuSans-2d" x="254.492188"/>
       <use xlink:href="#DejaVuSans-30" x="290.576172"/>
       <use xlink:href="#DejaVuSans-35" x="354.199219"/>
      </g>
     </g>
    </g>
    <g id="xtick_10">
     <g id="line2d_19">
      <path d="M 761.43497 320.4 
L 761.43497 43.2 
" clip-path="url(#p5253f9f657)" style="fill: none; stroke-dasharray: 5.12,1.28,0.8,1.28; stroke-dashoffset: 0; stroke: #b0b0b0; stroke-width: 0.8"/>
     </g>
     <g id="line2d_20">
      <g>
       <use xlink:href="#m616c036fc2" x="761.43497" y="320.4" style="fill: #a9a9a9; stroke: #a9a9a9; stroke-width: 0.8"/>
      </g>
     </g>
     <g id="text_10">
      <!-- 2024-09 -->
      <g style="fill: #a9a9a9" transform="translate(740.543564 334.998438) scale(0.1 -0.1)">
       <use xlink:href="#DejaVuSans-32"/>
       <use xlink:href="#DejaVuSans-30" x="63.623047"/>
       <use xlink:href="#DejaVuSans-32" x="127.246094"/>
       <use xlink:href="#DejaVuSans-34" x="190.869141"/>
       <use xlink:href="#DejaVuSans-2d" x="254.492188"/>
       <use xlink:href="#DejaVuSans-30" x="290.576172"/>
       <use xlink:href="#DejaVuSans-39" x="354.199219"/>
      </g>
     </g>
    </g>
   </g>
   <g id="matplotlib.axis_2">
    <g id="ytick_1">
     <g id="line2d_21">
      <path d="M 108 307.839088 
L 777.6 307.839088 
" clip-path="url(#p5253f9f657)" style="fill: none; stroke-dasharray: 5.12,1.28,0.8,1.28; stroke-dashoffset: 0; stroke: #b0b0b0; stroke-width: 0.8"/>
     </g>
     <g id="line2d_22">
      <defs>
       <path id="m6a37041c3b" d="M 0 0 
L -3.5 0 
" style="stroke: #a9a9a9; stroke-width: 0.8"/>
      </defs>
      <g>
       <use xlink:href="#m6a37041c3b" x="108" y="307.839088" style="fill: #a9a9a9; stroke: #a9a9a9; stroke-width: 0.8"/>
      </g>
     </g>
     <g id="text_11">
      <!-- 0 -->
      <g style="fill: #a9a9a9" transform="translate(94.6375 311.638307) scale(0.1 -0.1)">
       <use xlink:href="#DejaVuSans-30"/>
      </g>
     </g>
    </g>
    <g id="ytick_2">
     <g id="line2d_23">
      <path d="M 108 276.56873 
L 777.6 276.56873 
" clip-path="url(#p5253f9f657)" style="fill: none; stroke-dasharray: 5.12,1.28,0.8,1.28; stroke-dashoffset: 0; stroke: #b0b0b0; stroke-width: 0.8"/>
     </g>
     <g id="line2d_24">
      <g>
       <use xlink:href="#m6a37041c3b" x="108" y="276.56873" style="fill: #a9a9a9; stroke: #a9a9a9; stroke-width: 0.8"/>
      </g>
     </g>
     <g id="text_12">
      <!-- 800 -->
      <g style="fill: #a9a9a9" transform="translate(81.9125 280.367948) scale(0.1 -0.1)">
       <defs>
        <path id="DejaVuSans-38" d="M 2034 2216 
Q 1584 2216 1326 1975 
Q 1069 1734 1069 1313 
Q 1069 891 1326 650 
Q 1584 409 2034 409 
Q 2484 409 2743 651 
Q 3003 894 3003 1313 
Q 3003 1734 2745 1975 
Q 2488 2216 2034 2216 
z
M 1403 2484 
Q 997 2584 770 2862 
Q 544 3141 544 3541 
Q 544 4100 942 4425 
Q 1341 4750 2034 4750 
Q 2731 4750 3128 4425 
Q 3525 4100 3525 3541 
Q 3525 3141 3298 2862 
Q 3072 2584 2669 2484 
Q 3125 2378 3379 2068 
Q 3634 1759 3634 1313 
Q 3634 634 3220 271 
Q 2806 -91 2034 -91 
Q 1263 -91 848 271 
Q 434 634 434 1313 
Q 434 1759 690 2068 
Q 947 2378 1403 2484 
z
M 1172 3481 
Q 1172 3119 1398 2916 
Q 1625 2713 2034 2713 
Q 2441 2713 2670 2916 
Q 2900 3119 2900 3481 
Q 2900 3844 2670 4047 
Q 2441 4250 2034 4250 
Q 1625 4250 1398 4047 
Q 1172 3844 1172 3481 
z
" transform="scale(0.015625)"/>
       </defs>
       <use xlink:href="#DejaVuSans-38"/>
       <use xlink:href="#DejaVuSans-30" x="63.623047"/>
       <use xlink:href="#DejaVuSans-30" x="127.246094"/>
      </g>
     </g>
    </g>
    <g id="ytick_3">
     <g id="line2d_25">
      <path d="M 108 245.298371 
L 777.6 245.298371 
" clip-path="url(#p5253f9f657)" style="fill: none; stroke-dasharray: 5.12,1.28,0.8,1.28; stroke-dashoffset: 0; stroke: #b0b0b0; stroke-width: 0.8"/>
     </g>
     <g id="line2d_26">
      <g>
       <use xlink:href="#m6a37041c3b" x="108" y="245.298371" style="fill: #a9a9a9; stroke: #a9a9a9; stroke-width: 0.8"/>
      </g>
     </g>
     <g id="text_13">
      <!-- 1600 -->
      <g style="fill: #a9a9a9" transform="translate(75.55 249.09759) scale(0.1 -0.1)">
       <defs>
        <path id="DejaVuSans-36" d="M 2113 2584 
Q 1688 2584 1439 2293 
Q 1191 2003 1191 1497 
Q 1191 994 1439 701 
Q 1688 409 2113 409 
Q 2538 409 2786 701 
Q 3034 994 3034 1497 
Q 3034 2003 2786 2293 
Q 2538 2584 2113 2584 
z
M 3366 4563 
L 3366 3988 
Q 3128 4100 2886 4159 
Q 2644 4219 2406 4219 
Q 1781 4219 1451 3797 
Q 1122 3375 1075 2522 
Q 1259 2794 1537 2939 
Q 1816 3084 2150 3084 
Q 2853 3084 3261 2657 
Q 3669 2231 3669 1497 
Q 3669 778 3244 343 
Q 2819 -91 2113 -91 
Q 1303 -91 875 529 
Q 447 1150 447 2328 
Q 447 3434 972 4092 
Q 1497 4750 2381 4750 
Q 2619 4750 2861 4703 
Q 3103 4656 3366 4563 
z
" transform="scale(0.015625)"/>
       </defs>
       <use xlink:href="#DejaVuSans-31"/>
       <use xlink:href="#DejaVuSans-36" x="63.623047"/>
       <use xlink:href="#DejaVuSans-30" x="127.246094"/>
       <use xlink:href="#DejaVuSans-30" x="190.869141"/>
      </g>
     </g>
    </g>
    <g id="ytick_4">
     <g id="line2d_27">
      <path d="M 108 214.028013 
L 777.6 214.028013 
" clip-path="url(#p5253f9f657)" style="fill: none; stroke-dasharray: 5.12,1.28,0.8,1.28; stroke-dashoffset: 0; stroke: #b0b0b0; stroke-width: 0.8"/>
     </g>
     <g id="line2d_28">
      <g>
       <use xlink:href="#m6a37041c3b" x="108" y="214.028013" style="fill: #a9a9a9; stroke: #a9a9a9; stroke-width: 0.8"/>
      </g>
     </g>
     <g id="text_14">
      <!-- 2400 -->
      <g style="fill: #a9a9a9" transform="translate(75.55 217.827232) scale(0.1 -0.1)">
       <use xlink:href="#DejaVuSans-32"/>
       <use xlink:href="#DejaVuSans-34" x="63.623047"/>
       <use xlink:href="#DejaVuSans-30" x="127.246094"/>
       <use xlink:href="#DejaVuSans-30" x="190.869141"/>
      </g>
     </g>
    </g>
    <g id="ytick_5">
     <g id="line2d_29">
      <path d="M 108 182.757655 
L 777.6 182.757655 
" clip-path="url(#p5253f9f657)" style="fill: none; stroke-dasharray: 5.12,1.28,0.8,1.28; stroke-dashoffset: 0; stroke: #b0b0b0; stroke-width: 0.8"/>
     </g>
     <g id="line2d_30">
      <g>
       <use xlink:href="#m6a37041c3b" x="108" y="182.757655" style="fill: #a9a9a9; stroke: #a9a9a9; stroke-width: 0.8"/>
      </g>
     </g>
     <g id="text_15">
      <!-- 3200 -->
      <g style="fill: #a9a9a9" transform="translate(75.55 186.556873) scale(0.1 -0.1)">
       <use xlink:href="#DejaVuSans-33"/>
       <use xlink:href="#DejaVuSans-32" x="63.623047"/>
       <use xlink:href="#DejaVuSans-30" x="127.246094"/>
       <use xlink:href="#DejaVuSans-30" x="190.869141"/>
      </g>
     </g>
    </g>
    <g id="ytick_6">
     <g id="line2d_31">
      <path d="M 108 151.487296 
L 777.6 151.487296 
" clip-path="url(#p5253f9f657)" style="fill: none; stroke-dasharray: 5.12,1.28,0.8,1.28; stroke-dashoffset: 0; stroke: #b0b0b0; stroke-width: 0.8"/>
     </g>
     <g id="line2d_32">
      <g>
       <use xlink:href="#m6a37041c3b" x="108" y="151.487296" style="fill: #a9a9a9; stroke: #a9a9a9; stroke-width: 0.8"/>
      </g>
     </g>
     <g id="text_16">
      <!-- 4000 -->
      <g style="fill: #a9a9a9" transform="translate(75.55 155.286515) scale(0.1 -0.1)">
       <use xlink:href="#DejaVuSans-34"/>
       <use xlink:href="#DejaVuSans-30" x="63.623047"/>
       <use xlink:href="#DejaVuSans-30" x="127.246094"/>
       <use xlink:href="#DejaVuSans-30" x="190.869141"/>
      </g>
     </g>
    </g>
    <g id="ytick_7">
     <g id="line2d_33">
      <path d="M 108 120.216938 
L 777.6 120.216938 
" clip-path="url(#p5253f9f657)" style="fill: none; stroke-dasharray: 5.12,1.28,0.8,1.28; stroke-dashoffset: 0; stroke: #b0b0b0; stroke-width: 0.8"/>
     </g>
     <g id="line2d_34">
      <g>
       <use xlink:href="#m6a37041c3b" x="108" y="120.216938" style="fill: #a9a9a9; stroke: #a9a9a9; stroke-width: 0.8"/>
      </g>
     </g>
     <g id="text_17">
      <!-- 4800 -->
      <g style="fill: #a9a9a9" transform="translate(75.55 124.016157) scale(0.1 -0.1)">
       <use xlink:href="#DejaVuSans-34"/>
       <use xlink:href="#DejaVuSans-38" x="63.623047"/>
       <use xlink:href="#DejaVuSans-30" x="127.246094"/>
       <use xlink:href="#DejaVuSans-30" x="190.869141"/>
      </g>
     </g>
    </g>
    <g id="ytick_8">
     <g id="line2d_35">
      <path d="M 108 88.94658 
L 777.6 88.94658 
" clip-path="url(#p5253f9f657)" style="fill: none; stroke-dasharray: 5.12,1.28,0.8,1.28; stroke-dashoffset: 0; stroke: #b0b0b0; stroke-width: 0.8"/>
     </g>
     <g id="line2d_36">
      <g>
       <use xlink:href="#m6a37041c3b" x="108" y="88.94658" style="fill: #a9a9a9; stroke: #a9a9a9; stroke-width: 0.8"/>
      </g>
     </g>
     <g id="text_18">
      <!-- 5600 -->
      <g style="fill: #a9a9a9" transform="translate(75.55 92.745799) scale(0.1 -0.1)">
       <use xlink:href="#DejaVuSans-35"/>
       <use xlink:href="#DejaVuSans-36" x="63.623047"/>
       <use xlink:href="#DejaVuSans-30" x="127.246094"/>
       <use xlink:href="#DejaVuSans-30" x="190.869141"/>
      </g>
     </g>
    </g>
    <g id="ytick_9">
     <g id="line2d_37">
      <path d="M 108 57.676221 
L 777.6 57.676221 
" clip-path="url(#p5253f9f657)" style="fill: none; stroke-dasharray: 5.12,1.28,0.8,1.28; stroke-dashoffset: 0; stroke: #b0b0b0; stroke-width: 0.8"/>
     </g>
     <g id="line2d_38">
      <g>
       <use xlink:href="#m6a37041c3b" x="108" y="57.676221" style="fill: #a9a9a9; stroke: #a9a9a9; stroke-width: 0.8"/>
      </g>
     </g>
     <g id="text_19">
      <!-- 6400 -->
      <g style="fill: #a9a9a9" transform="translate(75.55 61.47544) scale(0.1 -0.1)">
       <use xlink:href="#DejaVuSans-36"/>
       <use xlink:href="#DejaVuSans-34" x="63.623047"/>
       <use xlink:href="#DejaVuSans-30" x="127.246094"/>
       <use xlink:href="#DejaVuSans-30" x="190.869141"/>
      </g>
     </g>
    </g>
   </g>
   <g id="line2d_39">
    <path d="M 138.436364 307.721824 
L 141.729748 307.448208 
L 142.278646 307.213681 
L 143.925338 307.057329 
L 147.218723 306.392834 
L 150.512108 306.119218 
L 151.609902 305.689251 
L 152.1588 304.985668 
L 152.707697 304.594788 
L 153.256595 303.383062 
L 153.805492 303.304886 
L 154.35439 302.874919 
L 155.452185 302.327687 
L 157.647774 300.607818 
L 159.843364 299.552443 
L 161.490057 298.809772 
L 162.038954 297.949837 
L 163.136749 297.168078 
L 163.685646 296.93355 
L 169.174621 296.151792 
L 169.723518 295.878176 
L 173.5658 295.565472 
L 175.212493 295.135505 
L 180.15257 294.47101 
L 180.701467 294.158306 
L 181.250365 294.08013 
L 182.34816 293.728339 
L 186.190442 293.102932 
L 187.288237 292.790228 
L 188.934929 292.633876 
L 190.032724 292.516612 
L 190.581621 292.360261 
L 191.130519 292.321173 
L 192.777211 291.813029 
L 193.875006 291.734853 
L 194.972801 291.578502 
L 196.070596 291.343974 
L 196.619493 291.187622 
L 197.168391 290.444951 
L 198.815083 289.819544 
L 200.461776 289.389577 
L 201.010673 289.115961 
L 201.55957 289.076873 
L 204.304058 288.295114 
L 205.401853 288.216938 
L 205.95075 288.138762 
L 207.597442 287.630619 
L 209.793032 287.083388 
L 210.34193 286.84886 
L 210.890827 286.770684 
L 211.439725 286.497068 
L 216.928699 285.676221 
L 219.673186 284.894463 
L 220.222084 284.542671 
L 222.417674 283.956352 
L 224.613263 282.822801 
L 226.259956 282.431922 
L 226.808853 282.353746 
L 227.357751 282.08013 
L 228.455546 281.884691 
L 229.55334 281.376547 
L 232.297828 280.672964 
L 233.94452 280.242997 
L 235.591212 279.656678 
L 236.14011 279.578502 
L 237.237905 279.148534 
L 238.3357 279.070358 
L 239.982392 278.601303 
L 240.531289 278.601303 
L 241.080187 278.366775 
L 242.177982 278.249511 
L 242.726879 278.054072 
L 243.824674 278.014984 
L 246.020264 277.741368 
L 247.118059 277.194137 
L 253.704828 274.262541 
L 254.253726 273.676221 
L 255.351521 272.034528 
L 255.900418 271.878176 
L 256.449316 271.878176 
L 257.54711 271.057329 
L 258.096008 270.900977 
L 258.644905 270.627362 
L 259.193803 270.510098 
L 259.7427 270.001954 
L 260.291598 269.845603 
L 261.93829 269.063844 
L 263.036085 267.500326 
L 263.584982 267.148534 
L 264.13388 266.210423 
L 264.682777 265.624104 
L 267.976162 263.904235 
L 269.073957 263.0443 
L 269.622854 262.692508 
L 270.171752 261.871661 
L 270.720649 260.659935 
L 271.269547 259.839088 
L 271.818444 259.409121 
L 272.367342 259.174593 
L 274.562931 257.259283 
L 275.660726 256.360261 
L 276.209624 255.891205 
L 276.758521 255.148534 
L 277.856316 254.171336 
L 280.051906 252.725081 
L 280.600803 252.256026 
L 281.149701 252.138762 
L 282.247496 251.552443 
L 284.443085 250.418893 
L 285.54088 249.363518 
L 286.089778 248.699023 
L 287.187573 247.917264 
L 287.73647 247.760912 
L 288.285368 247.487296 
L 289.383163 246.744625 
L 289.93206 246.431922 
L 290.480957 246.353746 
L 294.32324 243.969381 
L 296.518829 242.796743 
L 297.067727 242.288599 
L 305.850086 239.239739 
L 306.947881 238.262541 
L 308.594573 237.480782 
L 309.692368 236.816287 
L 310.790163 236.503583 
L 311.339061 236.151792 
L 311.887958 235.99544 
L 313.53465 234.940065 
L 316.279138 234.27557 
L 317.92583 233.337459 
L 318.474727 233.259283 
L 319.572522 232.985668 
L 320.12142 232.829316 
L 321.768112 231.578502 
L 323.414804 231.187622 
L 323.963702 230.992182 
L 324.512599 230.562215 
L 327.805984 229.467752 
L 328.354882 229.428664 
L 328.903779 229.272313 
L 330.001574 228.803257 
L 333.843856 227.435179 
L 334.941651 227.278827 
L 335.490548 227.122476 
L 336.039446 226.84886 
L 336.588343 226.731596 
L 339.332831 225.441694 
L 341.52842 224.269055 
L 345.9196 222.510098 
L 346.468497 222.431922 
L 347.566292 221.767427 
L 348.11519 221.689251 
L 350.31078 220.790228 
L 352.506369 220.438436 
L 353.604164 219.891205 
L 354.153062 219.42215 
L 354.701959 218.444951 
L 356.348652 218.132248 
L 360.739831 216.060586 
L 364.033216 214.692508 
L 365.131011 214.45798 
L 366.228806 213.910749 
L 366.777703 213.676221 
L 367.326601 213.598046 
L 369.52219 212.620847 
L 371.168883 211.60456 
L 371.71778 211.526384 
L 372.266678 211.330945 
L 372.815575 211.291857 
L 375.011165 210.66645 
L 375.560062 210.627362 
L 376.10896 210.197394 
L 377.206755 209.806515 
L 379.951242 208.75114 
L 380.500139 208.360261 
L 381.049037 208.164821 
L 382.146832 207.578502 
L 384.342422 206.953094 
L 384.891319 206.679479 
L 386.538011 205.389577 
L 387.086909 205.272313 
L 388.184704 204.412378 
L 388.733601 204.334202 
L 389.282499 203.474267 
L 389.831396 203.239739 
L 390.380293 202.809772 
L 390.929191 202.731596 
L 392.026986 202.067101 
L 392.575883 201.949837 
L 393.124781 201.715309 
L 393.673678 201.285342 
L 394.222576 201.089902 
L 395.869268 199.956352 
L 398.064858 198.822801 
L 398.613755 198.744625 
L 400.260448 197.923779 
L 400.809345 197.024756 
L 401.358242 196.5557 
L 401.90714 196.242997 
L 402.456037 196.125733 
L 403.553832 195.42215 
L 404.10273 195.304886 
L 405.200525 194.757655 
L 406.847217 194.054072 
L 407.945012 193.272313 
L 409.042807 192.099674 
L 410.140602 191.435179 
L 410.689499 191.083388 
L 411.238397 190.497068 
L 413.433986 189.011726 
L 413.982884 188.386319 
L 414.531781 187.956352 
L 415.629576 187.565472 
L 416.727371 186.822801 
L 418.374063 186.001954 
L 418.922961 185.923779 
L 420.569653 185.024756 
L 421.667448 184.360261 
L 427.156423 182.405863 
L 427.70532 181.975896 
L 429.90091 181.155049 
L 430.449807 180.998697 
L 430.998705 180.56873 
L 433.743192 179.083388 
L 434.840987 176.894463 
L 435.938782 175.643648 
L 437.036577 174.979153 
L 438.683269 174.314658 
L 439.232167 174.236482 
L 439.781064 173.923779 
L 442.525551 173.063844 
L 443.074449 172.829316 
L 444.172244 172.086645 
L 445.818936 171.383062 
L 446.916731 170.796743 
L 447.465628 170.405863 
L 448.014526 170.171336 
L 448.563423 169.780456 
L 449.112321 169.194137 
L 450.210116 168.607818 
L 452.954603 167.161564 
L 456.247988 165.558958 
L 456.796885 165.441694 
L 458.443577 164.855375 
L 458.992475 164.699023 
L 461.188065 163.721824 
L 462.285859 163.291857 
L 462.834757 162.861889 
L 463.932552 162.510098 
L 467.225937 160.829316 
L 468.323731 159.969381 
L 469.421526 159.578502 
L 469.970424 159.109446 
L 470.519321 159.03127 
L 471.617116 158.210423 
L 472.714911 157.663192 
L 473.263809 157.428664 
L 473.812706 156.881433 
L 477.654988 155.396091 
L 478.752783 154.927036 
L 480.399475 154.418893 
L 481.49727 154.262541 
L 482.046168 154.028013 
L 482.595065 153.949837 
L 483.69286 153.480782 
L 484.241758 153.441694 
L 486.437347 152.620847 
L 488.08404 151.487296 
L 490.828527 150.197394 
L 493.573014 148.712052 
L 494.121912 148.594788 
L 495.768604 147.656678 
L 497.415296 147.109446 
L 498.513091 146.757655 
L 500.708681 146.054072 
L 501.806476 145.70228 
L 503.453168 145.428664 
L 505.648758 144.725081 
L 506.197656 144.490554 
L 506.746553 144.412378 
L 507.29545 144.138762 
L 508.393245 143.904235 
L 510.039938 143.317915 
L 511.137733 143.200651 
L 512.235528 142.927036 
L 513.88222 142.65342 
L 514.431117 142.497068 
L 515.528912 142.379805 
L 518.273399 141.676221 
L 519.371194 141.402606 
L 519.920092 141.089902 
L 522.664579 140.386319 
L 523.213477 140.269055 
L 525.409066 139.448208 
L 528.153554 138.627362 
L 528.702451 138.627362 
L 529.800246 138.236482 
L 530.349143 137.689251 
L 531.446938 137.259283 
L 534.740323 136.086645 
L 535.28922 135.734853 
L 535.838118 135.61759 
L 536.387015 135.304886 
L 537.48481 135.109446 
L 538.582605 134.679479 
L 539.131503 134.562215 
L 539.6804 134.210423 
L 540.229297 134.09316 
L 540.778195 133.624104 
L 542.424887 133.311401 
L 543.522682 132.803257 
L 544.07158 132.17785 
L 545.169375 131.943322 
L 550.109452 130.887948 
L 550.658349 130.887948 
L 551.207246 130.65342 
L 553.402836 130.262541 
L 553.951734 130.028013 
L 556.147324 129.637134 
L 557.245118 129.168078 
L 557.794016 129.12899 
L 559.440708 128.738111 
L 561.087401 128.308143 
L 563.28299 127.643648 
L 563.831888 127.526384 
L 564.380785 127.252769 
L 564.929683 127.174593 
L 567.67417 126.119218 
L 568.223067 125.728339 
L 569.320862 125.415635 
L 570.418657 125.063844 
L 571.516452 124.594788 
L 573.163145 123.852117 
L 574.809837 123.734853 
L 577.005427 123.109446 
L 577.554324 122.757655 
L 578.652119 122.444951 
L 581.396606 121.233225 
L 581.945504 121.194137 
L 587.983376 119.122476 
L 590.178965 118.575244 
L 590.727863 118.418893 
L 591.825658 117.910749 
L 592.923453 117.676221 
L 593.47235 117.558958 
L 594.021248 117.12899 
L 594.570145 116.855375 
L 595.119043 116.190879 
L 595.66794 115.8 
L 596.765735 115.487296 
L 597.314632 115.057329 
L 601.705812 113.259283 
L 602.254709 113.102932 
L 602.803607 112.75114 
L 604.999197 112.086645 
L 606.096992 111.539414 
L 607.194786 110.914007 
L 607.743684 110.796743 
L 608.841479 110.132248 
L 609.390376 109.89772 
L 610.488171 109.233225 
L 612.134864 108.451466 
L 612.683761 108.060586 
L 613.781556 107.708795 
L 614.879351 107.0443 
L 615.428248 106.84886 
L 615.977146 106.45798 
L 623.112813 103.99544 
L 623.66171 103.878176 
L 624.210607 103.526384 
L 624.759505 103.448208 
L 625.8573 103.174593 
L 626.955095 102.940065 
L 630.797377 101.063844 
L 631.346274 100.985668 
L 632.992967 100.086645 
L 636.286351 98.796743 
L 638.481941 97.936808 
L 639.030839 97.780456 
L 639.579736 97.428664 
L 640.677531 97.272313 
L 641.226428 96.920521 
L 641.775326 96.881433 
L 642.873121 96.529642 
L 643.970916 95.98241 
L 644.519813 95.904235 
L 647.2643 94.809772 
L 647.813198 94.692508 
L 648.910993 94.340717 
L 650.008788 94.067101 
L 651.106583 93.793485 
L 652.753275 93.168078 
L 654.948865 91.956352 
L 656.04666 91.526384 
L 656.595557 91.174593 
L 657.693352 90.940065 
L 658.242249 90.627362 
L 658.791147 90.510098 
L 660.437839 89.650163 
L 660.986737 89.493811 
L 663.182326 88.477524 
L 664.829019 88.047557 
L 668.122403 86.757655 
L 669.769096 86.210423 
L 678.551455 82.575244 
L 680.747045 81.715309 
L 682.393737 80.816287 
L 682.942635 80.699023 
L 684.04043 80.269055 
L 684.589327 80.269055 
L 685.687122 79.8 
L 686.784917 78.822801 
L 687.333814 78.353746 
L 688.980507 77.571987 
L 689.529404 77.454723 
L 690.078302 77.181107 
L 690.627199 77.102932 
L 691.176096 76.712052 
L 691.724994 76.594788 
L 692.822789 75.930293 
L 694.469481 75.109446 
L 695.018379 74.953094 
L 696.116173 74.405863 
L 697.762866 74.014984 
L 700.507353 73.115961 
L 701.056251 72.998697 
L 703.25184 71.943322 
L 704.349635 71.435179 
L 705.44743 71.161564 
L 709.289712 69.363518 
L 712.0342 68.386319 
L 713.680892 67.409121 
L 714.229789 67.291857 
L 715.327584 66.744625 
L 716.425379 66.353746 
L 716.974277 65.884691 
L 717.523174 65.571987 
L 719.169866 65.063844 
L 720.267661 64.321173 
L 720.816559 64.282085 
L 721.914354 63.969381 
L 722.463251 63.852117 
L 724.658841 63.03127 
L 726.305533 62.523127 
L 726.854431 62.444951 
L 727.952226 61.858632 
L 728.501123 61.663192 
L 729.05002 61.233225 
L 730.696713 60.803257 
L 731.24561 60.451466 
L 732.343405 60.17785 
L 733.990098 59.278827 
L 734.538995 59.239739 
L 736.185687 58.731596 
L 737.283482 58.614332 
L 738.381277 58.184365 
L 738.930175 58.028013 
L 739.479072 57.754397 
L 743.321354 56.93355 
L 744.968047 56.347231 
L 745.516944 56.269055 
L 747.163636 55.8 
L 747.163636 55.8 
" clip-path="url(#p5253f9f657)" style="fill: none; stroke: #1f77b4; stroke-width: 1.5; stroke-linecap: square"/>
   </g>
   <g id="line2d_40">
    <path d="M 138.985261 307.8 
L 140.631953 307.721824 
L 142.278646 307.682736 
L 145.57203 307.60456 
L 148.316518 307.487296 
L 150.512108 307.487296 
L 151.061005 307.330945 
L 153.256595 307.252769 
L 154.903287 307.057329 
L 156.54998 306.900977 
L 159.843364 306.744625 
L 160.392262 306.744625 
L 160.941159 306.627362 
L 163.136749 306.549186 
L 164.234544 306.47101 
L 168.625723 306.392834 
L 171.370211 306.27557 
L 177.95698 306.197394 
L 180.701467 306.08013 
L 183.994852 306.001954 
L 186.190442 305.923779 
L 191.130519 305.845603 
L 192.777211 305.806515 
L 194.423904 305.767427 
L 196.070596 305.571987 
L 199.363981 305.532899 
L 200.461776 305.454723 
L 204.304058 305.376547 
L 210.34193 305.024756 
L 214.184212 304.94658 
L 215.282007 304.868404 
L 216.928699 304.790228 
L 220.222084 304.633876 
L 222.417674 304.594788 
L 224.064366 304.438436 
L 231.200033 304.008469 
L 233.94452 303.930293 
L 238.884597 303.656678 
L 240.531289 303.578502 
L 246.020264 303.265798 
L 252.058136 303.187622 
L 254.253726 302.953094 
L 255.351521 302.874919 
L 262.487187 302.288599 
L 265.780572 301.858632 
L 267.976162 301.780456 
L 272.367342 301.194137 
L 275.660726 301.115961 
L 277.307419 300.959609 
L 278.405214 300.920521 
L 279.503008 300.803257 
L 281.149701 300.725081 
L 282.247496 300.56873 
L 284.991983 300.256026 
L 287.187573 300.17785 
L 288.285368 300.099674 
L 290.480957 300.021498 
L 291.578752 299.943322 
L 294.32324 299.669707 
L 294.872137 299.513355 
L 298.165522 299.357003 
L 300.910009 299.278827 
L 308.045676 298.84886 
L 309.692368 298.770684 
L 316.828035 298.340717 
L 320.670317 298.262541 
L 321.219215 298.145277 
L 325.610394 298.067101 
L 329.452676 297.871661 
L 335.490548 297.793485 
L 339.332831 297.598046 
L 343.72401 297.51987 
L 348.11519 297.285342 
L 351.957472 297.207166 
L 362.386523 296.542671 
L 367.875498 296.464495 
L 370.071088 296.229967 
L 371.71778 296.190879 
L 373.364472 296.151792 
L 375.560062 295.917264 
L 381.049037 295.60456 
L 384.342422 295.526384 
L 385.989114 295.487296 
L 387.635806 295.448208 
L 389.282499 295.291857 
L 393.673678 295.213681 
L 394.771473 295.057329 
L 395.869268 294.979153 
L 398.613755 294.861889 
L 399.71155 294.783713 
L 400.809345 294.705537 
L 405.749422 294.627362 
L 406.847217 294.510098 
L 409.042807 294.47101 
L 409.591704 294.353746 
L 410.689499 294.27557 
L 411.238397 294.158306 
L 412.885089 294.08013 
L 417.825166 293.806515 
L 418.922961 293.767427 
L 420.569653 293.611075 
L 422.216346 293.571987 
L 423.863038 293.493811 
L 426.607525 293.376547 
L 434.29209 293.298371 
L 438.134372 293.102932 
L 442.525551 293.024756 
L 444.721141 292.94658 
L 446.916731 292.907492 
L 448.014526 292.790228 
L 450.210116 292.712052 
L 455.69909 292.399349 
L 458.992475 292.360261 
L 460.639167 292.203909 
L 462.285859 292.164821 
L 466.128142 292.086645 
L 468.323731 292.008469 
L 474.910501 291.930293 
L 477.654988 291.813029 
L 480.948373 291.734853 
L 482.595065 291.539414 
L 485.88845 291.500326 
L 487.535142 291.343974 
L 489.730732 291.265798 
L 496.317501 291.187622 
L 499.061989 291.070358 
L 508.393245 291.03127 
L 509.49104 290.953094 
L 511.137733 290.914007 
L 518.273399 290.835831 
L 519.371194 290.757655 
L 525.409066 290.679479 
L 527.604656 290.601303 
L 534.191426 290.562215 
L 535.28922 290.484039 
L 543.522682 290.444951 
L 545.169375 290.288599 
L 558.891811 290.210423 
L 560.538503 290.171336 
L 575.358734 290.09316 
L 577.005427 290.054072 
L 586.885581 289.975896 
L 587.983376 289.89772 
L 590.727863 289.819544 
L 592.374555 289.663192 
L 595.119043 289.585016 
L 597.314632 289.50684 
L 600.608017 289.428664 
L 602.254709 289.389577 
L 604.450299 289.311401 
L 606.096992 289.272313 
L 608.841479 289.194137 
L 609.939274 289.115961 
L 613.232658 289.037785 
L 615.977146 288.920521 
L 617.074941 288.881433 
L 618.172735 288.803257 
L 619.819428 288.764169 
L 622.015018 288.685993 
L 624.210607 288.607818 
L 631.346274 288.529642 
L 633.541864 288.451466 
L 637.933044 288.37329 
L 641.775326 288.17785 
L 646.715403 288.099674 
L 647.813198 288.021498 
L 657.693352 287.943322 
L 659.340044 287.904235 
L 662.084532 287.865147 
L 664.280121 287.630619 
L 665.926814 287.591531 
L 669.220198 287.513355 
L 674.709173 287.200651 
L 677.45366 287.122476 
L 679.64925 287.0443 
L 685.687122 286.966124 
L 688.431609 286.65342 
L 690.627199 286.575244 
L 694.469481 286.497068 
L 695.018379 286.379805 
L 699.958456 286.301629 
L 702.702943 286.184365 
L 709.83861 286.145277 
L 710.387507 286.028013 
L 714.778687 285.949837 
L 716.425379 285.910749 
L 719.169866 285.832573 
L 720.816559 285.793485 
L 730.147815 285.715309 
L 732.892303 285.598046 
L 740.576867 285.51987 
L 742.772457 285.441694 
L 747.163636 285.363518 
L 747.163636 285.363518 
" clip-path="url(#p5253f9f657)" style="fill: none; stroke: #ff7f0e; stroke-width: 1.5; stroke-linecap: square"/>
   </g>
   <g id="patch_3">
    <path d="M 108 320.4 
L 108 43.2 
" style="fill: none; stroke: #a9a9a9; stroke-width: 0.8; stroke-linejoin: miter; stroke-linecap: square"/>
   </g>
   <g id="patch_4">
    <path d="M 777.6 320.4 
L 777.6 43.2 
" style="fill: none"/>
   </g>
   <g id="patch_5">
    <path d="M 108 320.4 
L 777.6 320.4 
" style="fill: none; stroke: #a9a9a9; stroke-width: 0.8; stroke-linejoin: miter; stroke-linecap: square"/>
   </g>
   <g id="patch_6">
    <path d="M 108 43.2 
L 777.6 43.2 
" style="fill: none"/>
   </g>
   <g id="text_20">
    <!-- get_subscribe history -->
    <g style="fill: #a9a9a9" transform="translate(378.6075 37.2) scale(0.12 -0.12)">
     <defs>
      <path id="DejaVuSans-67" d="M 2906 1791 
Q 2906 2416 2648 2759 
Q 2391 3103 1925 3103 
Q 1463 3103 1205 2759 
Q 947 2416 947 1791 
Q 947 1169 1205 825 
Q 1463 481 1925 481 
Q 2391 481 2648 825 
Q 2906 1169 2906 1791 
z
M 3481 434 
Q 3481 -459 3084 -895 
Q 2688 -1331 1869 -1331 
Q 1566 -1331 1297 -1286 
Q 1028 -1241 775 -1147 
L 775 -588 
Q 1028 -725 1275 -790 
Q 1522 -856 1778 -856 
Q 2344 -856 2625 -561 
Q 2906 -266 2906 331 
L 2906 616 
Q 2728 306 2450 153 
Q 2172 0 1784 0 
Q 1141 0 747 490 
Q 353 981 353 1791 
Q 353 2603 747 3093 
Q 1141 3584 1784 3584 
Q 2172 3584 2450 3431 
Q 2728 3278 2906 2969 
L 2906 3500 
L 3481 3500 
L 3481 434 
z
" transform="scale(0.015625)"/>
      <path id="DejaVuSans-65" d="M 3597 1894 
L 3597 1613 
L 953 1613 
Q 991 1019 1311 708 
Q 1631 397 2203 397 
Q 2534 397 2845 478 
Q 3156 559 3463 722 
L 3463 178 
Q 3153 47 2828 -22 
Q 2503 -91 2169 -91 
Q 1331 -91 842 396 
Q 353 884 353 1716 
Q 353 2575 817 3079 
Q 1281 3584 2069 3584 
Q 2775 3584 3186 3129 
Q 3597 2675 3597 1894 
z
M 3022 2063 
Q 3016 2534 2758 2815 
Q 2500 3097 2075 3097 
Q 1594 3097 1305 2825 
Q 1016 2553 972 2059 
L 3022 2063 
z
" transform="scale(0.015625)"/>
      <path id="DejaVuSans-74" d="M 1172 4494 
L 1172 3500 
L 2356 3500 
L 2356 3053 
L 1172 3053 
L 1172 1153 
Q 1172 725 1289 603 
Q 1406 481 1766 481 
L 2356 481 
L 2356 0 
L 1766 0 
Q 1100 0 847 248 
Q 594 497 594 1153 
L 594 3053 
L 172 3053 
L 172 3500 
L 594 3500 
L 594 4494 
L 1172 4494 
z
" transform="scale(0.015625)"/>
      <path id="DejaVuSans-5f" d="M 3263 -1063 
L 3263 -1509 
L -63 -1509 
L -63 -1063 
L 3263 -1063 
z
" transform="scale(0.015625)"/>
      <path id="DejaVuSans-73" d="M 2834 3397 
L 2834 2853 
Q 2591 2978 2328 3040 
Q 2066 3103 1784 3103 
Q 1356 3103 1142 2972 
Q 928 2841 928 2578 
Q 928 2378 1081 2264 
Q 1234 2150 1697 2047 
L 1894 2003 
Q 2506 1872 2764 1633 
Q 3022 1394 3022 966 
Q 3022 478 2636 193 
Q 2250 -91 1575 -91 
Q 1294 -91 989 -36 
Q 684 19 347 128 
L 347 722 
Q 666 556 975 473 
Q 1284 391 1588 391 
Q 1994 391 2212 530 
Q 2431 669 2431 922 
Q 2431 1156 2273 1281 
Q 2116 1406 1581 1522 
L 1381 1569 
Q 847 1681 609 1914 
Q 372 2147 372 2553 
Q 372 3047 722 3315 
Q 1072 3584 1716 3584 
Q 2034 3584 2315 3537 
Q 2597 3491 2834 3397 
z
" transform="scale(0.015625)"/>
      <path id="DejaVuSans-75" d="M 544 1381 
L 544 3500 
L 1119 3500 
L 1119 1403 
Q 1119 906 1312 657 
Q 1506 409 1894 409 
Q 2359 409 2629 706 
Q 2900 1003 2900 1516 
L 2900 3500 
L 3475 3500 
L 3475 0 
L 2900 0 
L 2900 538 
Q 2691 219 2414 64 
Q 2138 -91 1772 -91 
Q 1169 -91 856 284 
Q 544 659 544 1381 
z
M 1991 3584 
L 1991 3584 
z
" transform="scale(0.015625)"/>
      <path id="DejaVuSans-62" d="M 3116 1747 
Q 3116 2381 2855 2742 
Q 2594 3103 2138 3103 
Q 1681 3103 1420 2742 
Q 1159 2381 1159 1747 
Q 1159 1113 1420 752 
Q 1681 391 2138 391 
Q 2594 391 2855 752 
Q 3116 1113 3116 1747 
z
M 1159 2969 
Q 1341 3281 1617 3432 
Q 1894 3584 2278 3584 
Q 2916 3584 3314 3078 
Q 3713 2572 3713 1747 
Q 3713 922 3314 415 
Q 2916 -91 2278 -91 
Q 1894 -91 1617 61 
Q 1341 213 1159 525 
L 1159 0 
L 581 0 
L 581 4863 
L 1159 4863 
L 1159 2969 
z
" transform="scale(0.015625)"/>
      <path id="DejaVuSans-63" d="M 3122 3366 
L 3122 2828 
Q 2878 2963 2633 3030 
Q 2388 3097 2138 3097 
Q 1578 3097 1268 2742 
Q 959 2388 959 1747 
Q 959 1106 1268 751 
Q 1578 397 2138 397 
Q 2388 397 2633 464 
Q 2878 531 3122 666 
L 3122 134 
Q 2881 22 2623 -34 
Q 2366 -91 2075 -91 
Q 1284 -91 818 406 
Q 353 903 353 1747 
Q 353 2603 823 3093 
Q 1294 3584 2113 3584 
Q 2378 3584 2631 3529 
Q 2884 3475 3122 3366 
z
" transform="scale(0.015625)"/>
      <path id="DejaVuSans-72" d="M 2631 2963 
Q 2534 3019 2420 3045 
Q 2306 3072 2169 3072 
Q 1681 3072 1420 2755 
Q 1159 2438 1159 1844 
L 1159 0 
L 581 0 
L 581 3500 
L 1159 3500 
L 1159 2956 
Q 1341 3275 1631 3429 
Q 1922 3584 2338 3584 
Q 2397 3584 2469 3576 
Q 2541 3569 2628 3553 
L 2631 2963 
z
" transform="scale(0.015625)"/>
      <path id="DejaVuSans-69" d="M 603 3500 
L 1178 3500 
L 1178 0 
L 603 0 
L 603 3500 
z
M 603 4863 
L 1178 4863 
L 1178 4134 
L 603 4134 
L 603 4863 
z
" transform="scale(0.015625)"/>
      <path id="DejaVuSans-20" transform="scale(0.015625)"/>
      <path id="DejaVuSans-68" d="M 3513 2113 
L 3513 0 
L 2938 0 
L 2938 2094 
Q 2938 2591 2744 2837 
Q 2550 3084 2163 3084 
Q 1697 3084 1428 2787 
Q 1159 2491 1159 1978 
L 1159 0 
L 581 0 
L 581 4863 
L 1159 4863 
L 1159 2956 
Q 1366 3272 1645 3428 
Q 1925 3584 2291 3584 
Q 2894 3584 3203 3211 
Q 3513 2838 3513 2113 
z
" transform="scale(0.015625)"/>
      <path id="DejaVuSans-6f" d="M 1959 3097 
Q 1497 3097 1228 2736 
Q 959 2375 959 1747 
Q 959 1119 1226 758 
Q 1494 397 1959 397 
Q 2419 397 2687 759 
Q 2956 1122 2956 1747 
Q 2956 2369 2687 2733 
Q 2419 3097 1959 3097 
z
M 1959 3584 
Q 2709 3584 3137 3096 
Q 3566 2609 3566 1747 
Q 3566 888 3137 398 
Q 2709 -91 1959 -91 
Q 1206 -91 779 398 
Q 353 888 353 1747 
Q 353 2609 779 3096 
Q 1206 3584 1959 3584 
z
" transform="scale(0.015625)"/>
      <path id="DejaVuSans-79" d="M 2059 -325 
Q 1816 -950 1584 -1140 
Q 1353 -1331 966 -1331 
L 506 -1331 
L 506 -850 
L 844 -850 
Q 1081 -850 1212 -737 
Q 1344 -625 1503 -206 
L 1606 56 
L 191 3500 
L 800 3500 
L 1894 763 
L 2988 3500 
L 3597 3500 
L 2059 -325 
z
" transform="scale(0.015625)"/>
     </defs>
     <use xlink:href="#DejaVuSans-67"/>
     <use xlink:href="#DejaVuSans-65" x="63.476562"/>
     <use xlink:href="#DejaVuSans-74" x="125"/>
     <use xlink:href="#DejaVuSans-5f" x="164.208984"/>
     <use xlink:href="#DejaVuSans-73" x="214.208984"/>
     <use xlink:href="#DejaVuSans-75" x="266.308594"/>
     <use xlink:href="#DejaVuSans-62" x="329.6875"/>
     <use xlink:href="#DejaVuSans-73" x="393.164062"/>
     <use xlink:href="#DejaVuSans-63" x="445.263672"/>
     <use xlink:href="#DejaVuSans-72" x="500.244141"/>
     <use xlink:href="#DejaVuSans-69" x="541.357422"/>
     <use xlink:href="#DejaVuSans-62" x="569.140625"/>
     <use xlink:href="#DejaVuSans-65" x="632.617188"/>
     <use xlink:href="#DejaVuSans-20" x="694.140625"/>
     <use xlink:href="#DejaVuSans-68" x="725.927734"/>
     <use xlink:href="#DejaVuSans-69" x="789.306641"/>
     <use xlink:href="#DejaVuSans-73" x="817.089844"/>
     <use xlink:href="#DejaVuSans-74" x="869.189453"/>
     <use xlink:href="#DejaVuSans-6f" x="908.398438"/>
     <use xlink:href="#DejaVuSans-72" x="969.580078"/>
     <use xlink:href="#DejaVuSans-79" x="1010.693359"/>
    </g>
   </g>
   <g id="legend_1">
    <g id="line2d_41">
     <path d="M 815.08 328.498438 
L 825.08 328.498438 
L 835.08 328.498438 
" style="fill: none; stroke: #1f77b4; stroke-width: 1.5; stroke-linecap: square"/>
    </g>
    <g id="text_21">
     <!-- star -->
     <g style="fill: #a9a9a9" transform="translate(843.08 331.998438) scale(0.1 -0.1)">
      <defs>
       <path id="DejaVuSans-61" d="M 2194 1759 
Q 1497 1759 1228 1600 
Q 959 1441 959 1056 
Q 959 750 1161 570 
Q 1363 391 1709 391 
Q 2188 391 2477 730 
Q 2766 1069 2766 1631 
L 2766 1759 
L 2194 1759 
z
M 3341 1997 
L 3341 0 
L 2766 0 
L 2766 531 
Q 2569 213 2275 61 
Q 1981 -91 1556 -91 
Q 1019 -91 701 211 
Q 384 513 384 1019 
Q 384 1609 779 1909 
Q 1175 2209 1959 2209 
L 2766 2209 
L 2766 2266 
Q 2766 2663 2505 2880 
Q 2244 3097 1772 3097 
Q 1472 3097 1187 3025 
Q 903 2953 641 2809 
L 641 3341 
Q 956 3463 1253 3523 
Q 1550 3584 1831 3584 
Q 2591 3584 2966 3190 
Q 3341 2797 3341 1997 
z
" transform="scale(0.015625)"/>
      </defs>
      <use xlink:href="#DejaVuSans-73"/>
      <use xlink:href="#DejaVuSans-74" x="52.099609"/>
      <use xlink:href="#DejaVuSans-61" x="91.308594"/>
      <use xlink:href="#DejaVuSans-72" x="152.587891"/>
     </g>
    </g>
    <g id="line2d_42">
     <path d="M 815.08 343.176562 
L 825.08 343.176562 
L 835.08 343.176562 
" style="fill: none; stroke: #ff7f0e; stroke-width: 1.5; stroke-linecap: square"/>
    </g>
    <g id="text_22">
     <!-- fork -->
     <g style="fill: #a9a9a9" transform="translate(843.08 346.676562) scale(0.1 -0.1)">
      <defs>
       <path id="DejaVuSans-66" d="M 2375 4863 
L 2375 4384 
L 1825 4384 
Q 1516 4384 1395 4259 
Q 1275 4134 1275 3809 
L 1275 3500 
L 2222 3500 
L 2222 3053 
L 1275 3053 
L 1275 0 
L 697 0 
L 697 3053 
L 147 3053 
L 147 3500 
L 697 3500 
L 697 3744 
Q 697 4328 969 4595 
Q 1241 4863 1831 4863 
L 2375 4863 
z
" transform="scale(0.015625)"/>
       <path id="DejaVuSans-6b" d="M 581 4863 
L 1159 4863 
L 1159 1991 
L 2875 3500 
L 3609 3500 
L 1753 1863 
L 3688 0 
L 2938 0 
L 1159 1709 
L 1159 0 
L 581 0 
L 581 4863 
z
" transform="scale(0.015625)"/>
      </defs>
      <use xlink:href="#DejaVuSans-66"/>
      <use xlink:href="#DejaVuSans-6f" x="35.205078"/>
      <use xlink:href="#DejaVuSans-72" x="96.386719"/>
      <use xlink:href="#DejaVuSans-6b" x="137.5"/>
     </g>
    </g>
   </g>
  </g>
 </g>
 <defs>
  <clipPath id="p5253f9f657">
   <rect x="108" y="43.2" width="669.6" height="277.2"/>
  </clipPath>
 </defs>
</svg>
