<?xml version="1.0" encoding="utf-8" standalone="no"?>
<!DOCTYPE svg PUBLIC "-//W3C//DTD SVG 1.1//EN"
  "http://www.w3.org/Graphics/SVG/1.1/DTD/svg11.dtd">
<svg xmlns:xlink="http://www.w3.org/1999/xlink" width="864pt" height="360pt" viewBox="0 0 864 360" xmlns="http://www.w3.org/2000/svg" version="1.1">
 <metadata>
  <rdf:RDF xmlns:dc="http://purl.org/dc/elements/1.1/" xmlns:cc="http://creativecommons.org/ns#" xmlns:rdf="http://www.w3.org/1999/02/22-rdf-syntax-ns#">
   <cc:Work>
    <dc:type rdf:resource="http://purl.org/dc/dcmitype/StillImage"/>
    <dc:date>2024-08-07T08:11:52.311947</dc:date>
    <dc:format>image/svg+xml</dc:format>
    <dc:creator>
     <cc:Agent>
      <dc:title>Matplotlib v3.9.1.post1, https://matplotlib.org/</dc:title>
     </cc:Agent>
    </dc:creator>
   </cc:Work>
  </rdf:RDF>
 </metadata>
 <defs>
  <style type="text/css">*{stroke-linejoin: round; stroke-linecap: butt}</style>
 </defs>
 <g id="figure_1">
  <g id="patch_1">
   <path d="M 0 360 
L 864 360 
L 864 0 
L 0 0 
L 0 360 
z
" style="fill: none; opacity: 0"/>
  </g>
  <g id="axes_1">
   <g id="patch_2">
    <path d="M 108 320.4 
L 777.6 320.4 
L 777.6 43.2 
L 108 43.2 
L 108 320.4 
z
" style="fill: none; opacity: 0"/>
   </g>
   <g id="matplotlib.axis_1">
    <g id="xtick_1">
     <g id="line2d_1">
      <path d="M 159.824079 320.4 
L 159.824079 43.2 
" clip-path="url(#p27859beae1)" style="fill: none; stroke-dasharray: 5.12,1.28,0.8,1.28; stroke-dashoffset: 0; stroke: #b0b0b0; stroke-width: 0.8"/>
     </g>
     <g id="line2d_2">
      <defs>
       <path id="m45832e89c6" d="M 0 0 
L 0 3.5 
" style="stroke: #a9a9a9; stroke-width: 0.8"/>
      </defs>
      <g>
       <use xlink:href="#m45832e89c6" x="159.824079" y="320.4" style="fill: #a9a9a9; stroke: #a9a9a9; stroke-width: 0.8"/>
      </g>
     </g>
     <g id="text_1">
      <!-- 2021-09 -->
      <g style="fill: #a9a9a9" transform="translate(138.932672 334.998438) scale(0.1 -0.1)">
       <defs>
        <path id="DejaVuSans-32" d="M 1228 531 
L 3431 531 
L 3431 0 
L 469 0 
L 469 531 
Q 828 903 1448 1529 
Q 2069 2156 2228 2338 
Q 2531 2678 2651 2914 
Q 2772 3150 2772 3378 
Q 2772 3750 2511 3984 
Q 2250 4219 1831 4219 
Q 1534 4219 1204 4116 
Q 875 4013 500 3803 
L 500 4441 
Q 881 4594 1212 4672 
Q 1544 4750 1819 4750 
Q 2544 4750 2975 4387 
Q 3406 4025 3406 3419 
Q 3406 3131 3298 2873 
Q 3191 2616 2906 2266 
Q 2828 2175 2409 1742 
Q 1991 1309 1228 531 
z
" transform="scale(0.015625)"/>
        <path id="DejaVuSans-30" d="M 2034 4250 
Q 1547 4250 1301 3770 
Q 1056 3291 1056 2328 
Q 1056 1369 1301 889 
Q 1547 409 2034 409 
Q 2525 409 2770 889 
Q 3016 1369 3016 2328 
Q 3016 3291 2770 3770 
Q 2525 4250 2034 4250 
z
M 2034 4750 
Q 2819 4750 3233 4129 
Q 3647 3509 3647 2328 
Q 3647 1150 3233 529 
Q 2819 -91 2034 -91 
Q 1250 -91 836 529 
Q 422 1150 422 2328 
Q 422 3509 836 4129 
Q 1250 4750 2034 4750 
z
" transform="scale(0.015625)"/>
        <path id="DejaVuSans-31" d="M 794 531 
L 1825 531 
L 1825 4091 
L 703 3866 
L 703 4441 
L 1819 4666 
L 2450 4666 
L 2450 531 
L 3481 531 
L 3481 0 
L 794 0 
L 794 531 
z
" transform="scale(0.015625)"/>
        <path id="DejaVuSans-2d" d="M 313 2009 
L 1997 2009 
L 1997 1497 
L 313 1497 
L 313 2009 
z
" transform="scale(0.015625)"/>
        <path id="DejaVuSans-39" d="M 703 97 
L 703 672 
Q 941 559 1184 500 
Q 1428 441 1663 441 
Q 2288 441 2617 861 
Q 2947 1281 2994 2138 
Q 2813 1869 2534 1725 
Q 2256 1581 1919 1581 
Q 1219 1581 811 2004 
Q 403 2428 403 3163 
Q 403 3881 828 4315 
Q 1253 4750 1959 4750 
Q 2769 4750 3195 4129 
Q 3622 3509 3622 2328 
Q 3622 1225 3098 567 
Q 2575 -91 1691 -91 
Q 1453 -91 1209 -44 
Q 966 3 703 97 
z
M 1959 2075 
Q 2384 2075 2632 2365 
Q 2881 2656 2881 3163 
Q 2881 3666 2632 3958 
Q 2384 4250 1959 4250 
Q 1534 4250 1286 3958 
Q 1038 3666 1038 3163 
Q 1038 2656 1286 2365 
Q 1534 2075 1959 2075 
z
" transform="scale(0.015625)"/>
       </defs>
       <use xlink:href="#DejaVuSans-32"/>
       <use xlink:href="#DejaVuSans-30" x="63.623047"/>
       <use xlink:href="#DejaVuSans-32" x="127.246094"/>
       <use xlink:href="#DejaVuSans-31" x="190.869141"/>
       <use xlink:href="#DejaVuSans-2d" x="254.492188"/>
       <use xlink:href="#DejaVuSans-30" x="290.576172"/>
       <use xlink:href="#DejaVuSans-39" x="354.199219"/>
      </g>
     </g>
    </g>
    <g id="xtick_2">
     <g id="line2d_3">
      <path d="M 226.729238 320.4 
L 226.729238 43.2 
" clip-path="url(#p27859beae1)" style="fill: none; stroke-dasharray: 5.12,1.28,0.8,1.28; stroke-dashoffset: 0; stroke: #b0b0b0; stroke-width: 0.8"/>
     </g>
     <g id="line2d_4">
      <g>
       <use xlink:href="#m45832e89c6" x="226.729238" y="320.4" style="fill: #a9a9a9; stroke: #a9a9a9; stroke-width: 0.8"/>
      </g>
     </g>
     <g id="text_2">
      <!-- 2022-01 -->
      <g style="fill: #a9a9a9" transform="translate(205.837832 334.998438) scale(0.1 -0.1)">
       <use xlink:href="#DejaVuSans-32"/>
       <use xlink:href="#DejaVuSans-30" x="63.623047"/>
       <use xlink:href="#DejaVuSans-32" x="127.246094"/>
       <use xlink:href="#DejaVuSans-32" x="190.869141"/>
       <use xlink:href="#DejaVuSans-2d" x="254.492188"/>
       <use xlink:href="#DejaVuSans-30" x="290.576172"/>
       <use xlink:href="#DejaVuSans-31" x="354.199219"/>
      </g>
     </g>
    </g>
    <g id="xtick_3">
     <g id="line2d_5">
      <path d="M 292.537592 320.4 
L 292.537592 43.2 
" clip-path="url(#p27859beae1)" style="fill: none; stroke-dasharray: 5.12,1.28,0.8,1.28; stroke-dashoffset: 0; stroke: #b0b0b0; stroke-width: 0.8"/>
     </g>
     <g id="line2d_6">
      <g>
       <use xlink:href="#m45832e89c6" x="292.537592" y="320.4" style="fill: #a9a9a9; stroke: #a9a9a9; stroke-width: 0.8"/>
      </g>
     </g>
     <g id="text_3">
      <!-- 2022-05 -->
      <g style="fill: #a9a9a9" transform="translate(271.646186 334.998438) scale(0.1 -0.1)">
       <defs>
        <path id="DejaVuSans-35" d="M 691 4666 
L 3169 4666 
L 3169 4134 
L 1269 4134 
L 1269 2991 
Q 1406 3038 1543 3061 
Q 1681 3084 1819 3084 
Q 2600 3084 3056 2656 
Q 3513 2228 3513 1497 
Q 3513 744 3044 326 
Q 2575 -91 1722 -91 
Q 1428 -91 1123 -41 
Q 819 9 494 109 
L 494 744 
Q 775 591 1075 516 
Q 1375 441 1709 441 
Q 2250 441 2565 725 
Q 2881 1009 2881 1497 
Q 2881 1984 2565 2268 
Q 2250 2553 1709 2553 
Q 1456 2553 1204 2497 
Q 953 2441 691 2322 
L 691 4666 
z
" transform="scale(0.015625)"/>
       </defs>
       <use xlink:href="#DejaVuSans-32"/>
       <use xlink:href="#DejaVuSans-30" x="63.623047"/>
       <use xlink:href="#DejaVuSans-32" x="127.246094"/>
       <use xlink:href="#DejaVuSans-32" x="190.869141"/>
       <use xlink:href="#DejaVuSans-2d" x="254.492188"/>
       <use xlink:href="#DejaVuSans-30" x="290.576172"/>
       <use xlink:href="#DejaVuSans-35" x="354.199219"/>
      </g>
     </g>
    </g>
    <g id="xtick_4">
     <g id="line2d_7">
      <path d="M 359.991155 320.4 
L 359.991155 43.2 
" clip-path="url(#p27859beae1)" style="fill: none; stroke-dasharray: 5.12,1.28,0.8,1.28; stroke-dashoffset: 0; stroke: #b0b0b0; stroke-width: 0.8"/>
     </g>
     <g id="line2d_8">
      <g>
       <use xlink:href="#m45832e89c6" x="359.991155" y="320.4" style="fill: #a9a9a9; stroke: #a9a9a9; stroke-width: 0.8"/>
      </g>
     </g>
     <g id="text_4">
      <!-- 2022-09 -->
      <g style="fill: #a9a9a9" transform="translate(339.099749 334.998438) scale(0.1 -0.1)">
       <use xlink:href="#DejaVuSans-32"/>
       <use xlink:href="#DejaVuSans-30" x="63.623047"/>
       <use xlink:href="#DejaVuSans-32" x="127.246094"/>
       <use xlink:href="#DejaVuSans-32" x="190.869141"/>
       <use xlink:href="#DejaVuSans-2d" x="254.492188"/>
       <use xlink:href="#DejaVuSans-30" x="290.576172"/>
       <use xlink:href="#DejaVuSans-39" x="354.199219"/>
      </g>
     </g>
    </g>
    <g id="xtick_5">
     <g id="line2d_9">
      <path d="M 426.896314 320.4 
L 426.896314 43.2 
" clip-path="url(#p27859beae1)" style="fill: none; stroke-dasharray: 5.12,1.28,0.8,1.28; stroke-dashoffset: 0; stroke: #b0b0b0; stroke-width: 0.8"/>
     </g>
     <g id="line2d_10">
      <g>
       <use xlink:href="#m45832e89c6" x="426.896314" y="320.4" style="fill: #a9a9a9; stroke: #a9a9a9; stroke-width: 0.8"/>
      </g>
     </g>
     <g id="text_5">
      <!-- 2023-01 -->
      <g style="fill: #a9a9a9" transform="translate(406.004908 334.998438) scale(0.1 -0.1)">
       <defs>
        <path id="DejaVuSans-33" d="M 2597 2516 
Q 3050 2419 3304 2112 
Q 3559 1806 3559 1356 
Q 3559 666 3084 287 
Q 2609 -91 1734 -91 
Q 1441 -91 1130 -33 
Q 819 25 488 141 
L 488 750 
Q 750 597 1062 519 
Q 1375 441 1716 441 
Q 2309 441 2620 675 
Q 2931 909 2931 1356 
Q 2931 1769 2642 2001 
Q 2353 2234 1838 2234 
L 1294 2234 
L 1294 2753 
L 1863 2753 
Q 2328 2753 2575 2939 
Q 2822 3125 2822 3475 
Q 2822 3834 2567 4026 
Q 2313 4219 1838 4219 
Q 1578 4219 1281 4162 
Q 984 4106 628 3988 
L 628 4550 
Q 988 4650 1302 4700 
Q 1616 4750 1894 4750 
Q 2613 4750 3031 4423 
Q 3450 4097 3450 3541 
Q 3450 3153 3228 2886 
Q 3006 2619 2597 2516 
z
" transform="scale(0.015625)"/>
       </defs>
       <use xlink:href="#DejaVuSans-32"/>
       <use xlink:href="#DejaVuSans-30" x="63.623047"/>
       <use xlink:href="#DejaVuSans-32" x="127.246094"/>
       <use xlink:href="#DejaVuSans-33" x="190.869141"/>
       <use xlink:href="#DejaVuSans-2d" x="254.492188"/>
       <use xlink:href="#DejaVuSans-30" x="290.576172"/>
       <use xlink:href="#DejaVuSans-31" x="354.199219"/>
      </g>
     </g>
    </g>
    <g id="xtick_6">
     <g id="line2d_11">
      <path d="M 492.704668 320.4 
L 492.704668 43.2 
" clip-path="url(#p27859beae1)" style="fill: none; stroke-dasharray: 5.12,1.28,0.8,1.28; stroke-dashoffset: 0; stroke: #b0b0b0; stroke-width: 0.8"/>
     </g>
     <g id="line2d_12">
      <g>
       <use xlink:href="#m45832e89c6" x="492.704668" y="320.4" style="fill: #a9a9a9; stroke: #a9a9a9; stroke-width: 0.8"/>
      </g>
     </g>
     <g id="text_6">
      <!-- 2023-05 -->
      <g style="fill: #a9a9a9" transform="translate(471.813262 334.998438) scale(0.1 -0.1)">
       <use xlink:href="#DejaVuSans-32"/>
       <use xlink:href="#DejaVuSans-30" x="63.623047"/>
       <use xlink:href="#DejaVuSans-32" x="127.246094"/>
       <use xlink:href="#DejaVuSans-33" x="190.869141"/>
       <use xlink:href="#DejaVuSans-2d" x="254.492188"/>
       <use xlink:href="#DejaVuSans-30" x="290.576172"/>
       <use xlink:href="#DejaVuSans-35" x="354.199219"/>
      </g>
     </g>
    </g>
    <g id="xtick_7">
     <g id="line2d_13">
      <path d="M 560.158231 320.4 
L 560.158231 43.2 
" clip-path="url(#p27859beae1)" style="fill: none; stroke-dasharray: 5.12,1.28,0.8,1.28; stroke-dashoffset: 0; stroke: #b0b0b0; stroke-width: 0.8"/>
     </g>
     <g id="line2d_14">
      <g>
       <use xlink:href="#m45832e89c6" x="560.158231" y="320.4" style="fill: #a9a9a9; stroke: #a9a9a9; stroke-width: 0.8"/>
      </g>
     </g>
     <g id="text_7">
      <!-- 2023-09 -->
      <g style="fill: #a9a9a9" transform="translate(539.266825 334.998438) scale(0.1 -0.1)">
       <use xlink:href="#DejaVuSans-32"/>
       <use xlink:href="#DejaVuSans-30" x="63.623047"/>
       <use xlink:href="#DejaVuSans-32" x="127.246094"/>
       <use xlink:href="#DejaVuSans-33" x="190.869141"/>
       <use xlink:href="#DejaVuSans-2d" x="254.492188"/>
       <use xlink:href="#DejaVuSans-30" x="290.576172"/>
       <use xlink:href="#DejaVuSans-39" x="354.199219"/>
      </g>
     </g>
    </g>
    <g id="xtick_8">
     <g id="line2d_15">
      <path d="M 627.063391 320.4 
L 627.063391 43.2 
" clip-path="url(#p27859beae1)" style="fill: none; stroke-dasharray: 5.12,1.28,0.8,1.28; stroke-dashoffset: 0; stroke: #b0b0b0; stroke-width: 0.8"/>
     </g>
     <g id="line2d_16">
      <g>
       <use xlink:href="#m45832e89c6" x="627.063391" y="320.4" style="fill: #a9a9a9; stroke: #a9a9a9; stroke-width: 0.8"/>
      </g>
     </g>
     <g id="text_8">
      <!-- 2024-01 -->
      <g style="fill: #a9a9a9" transform="translate(606.171984 334.998438) scale(0.1 -0.1)">
       <defs>
        <path id="DejaVuSans-34" d="M 2419 4116 
L 825 1625 
L 2419 1625 
L 2419 4116 
z
M 2253 4666 
L 3047 4666 
L 3047 1625 
L 3713 1625 
L 3713 1100 
L 3047 1100 
L 3047 0 
L 2419 0 
L 2419 1100 
L 313 1100 
L 313 1709 
L 2253 4666 
z
" transform="scale(0.015625)"/>
       </defs>
       <use xlink:href="#DejaVuSans-32"/>
       <use xlink:href="#DejaVuSans-30" x="63.623047"/>
       <use xlink:href="#DejaVuSans-32" x="127.246094"/>
       <use xlink:href="#DejaVuSans-34" x="190.869141"/>
       <use xlink:href="#DejaVuSans-2d" x="254.492188"/>
       <use xlink:href="#DejaVuSans-30" x="290.576172"/>
       <use xlink:href="#DejaVuSans-31" x="354.199219"/>
      </g>
     </g>
    </g>
    <g id="xtick_9">
     <g id="line2d_17">
      <path d="M 693.420147 320.4 
L 693.420147 43.2 
" clip-path="url(#p27859beae1)" style="fill: none; stroke-dasharray: 5.12,1.28,0.8,1.28; stroke-dashoffset: 0; stroke: #b0b0b0; stroke-width: 0.8"/>
     </g>
     <g id="line2d_18">
      <g>
       <use xlink:href="#m45832e89c6" x="693.420147" y="320.4" style="fill: #a9a9a9; stroke: #a9a9a9; stroke-width: 0.8"/>
      </g>
     </g>
     <g id="text_9">
      <!-- 2024-05 -->
      <g style="fill: #a9a9a9" transform="translate(672.528741 334.998438) scale(0.1 -0.1)">
       <use xlink:href="#DejaVuSans-32"/>
       <use xlink:href="#DejaVuSans-30" x="63.623047"/>
       <use xlink:href="#DejaVuSans-32" x="127.246094"/>
       <use xlink:href="#DejaVuSans-34" x="190.869141"/>
       <use xlink:href="#DejaVuSans-2d" x="254.492188"/>
       <use xlink:href="#DejaVuSans-30" x="290.576172"/>
       <use xlink:href="#DejaVuSans-35" x="354.199219"/>
      </g>
     </g>
    </g>
    <g id="xtick_10">
     <g id="line2d_19">
      <path d="M 760.87371 320.4 
L 760.87371 43.2 
" clip-path="url(#p27859beae1)" style="fill: none; stroke-dasharray: 5.12,1.28,0.8,1.28; stroke-dashoffset: 0; stroke: #b0b0b0; stroke-width: 0.8"/>
     </g>
     <g id="line2d_20">
      <g>
       <use xlink:href="#m45832e89c6" x="760.87371" y="320.4" style="fill: #a9a9a9; stroke: #a9a9a9; stroke-width: 0.8"/>
      </g>
     </g>
     <g id="text_10">
      <!-- 2024-09 -->
      <g style="fill: #a9a9a9" transform="translate(739.982304 334.998438) scale(0.1 -0.1)">
       <use xlink:href="#DejaVuSans-32"/>
       <use xlink:href="#DejaVuSans-30" x="63.623047"/>
       <use xlink:href="#DejaVuSans-32" x="127.246094"/>
       <use xlink:href="#DejaVuSans-34" x="190.869141"/>
       <use xlink:href="#DejaVuSans-2d" x="254.492188"/>
       <use xlink:href="#DejaVuSans-30" x="290.576172"/>
       <use xlink:href="#DejaVuSans-39" x="354.199219"/>
      </g>
     </g>
    </g>
   </g>
   <g id="matplotlib.axis_2">
    <g id="ytick_1">
     <g id="line2d_21">
      <path d="M 108 307.839076 
L 777.6 307.839076 
" clip-path="url(#p27859beae1)" style="fill: none; stroke-dasharray: 5.12,1.28,0.8,1.28; stroke-dashoffset: 0; stroke: #b0b0b0; stroke-width: 0.8"/>
     </g>
     <g id="line2d_22">
      <defs>
       <path id="m8a1afd7c16" d="M 0 0 
L -3.5 0 
" style="stroke: #a9a9a9; stroke-width: 0.8"/>
      </defs>
      <g>
       <use xlink:href="#m8a1afd7c16" x="108" y="307.839076" style="fill: #a9a9a9; stroke: #a9a9a9; stroke-width: 0.8"/>
      </g>
     </g>
     <g id="text_11">
      <!-- 0 -->
      <g style="fill: #a9a9a9" transform="translate(94.6375 311.638295) scale(0.1 -0.1)">
       <use xlink:href="#DejaVuSans-30"/>
      </g>
     </g>
    </g>
    <g id="ytick_2">
     <g id="line2d_23">
      <path d="M 108 276.578415 
L 777.6 276.578415 
" clip-path="url(#p27859beae1)" style="fill: none; stroke-dasharray: 5.12,1.28,0.8,1.28; stroke-dashoffset: 0; stroke: #b0b0b0; stroke-width: 0.8"/>
     </g>
     <g id="line2d_24">
      <g>
       <use xlink:href="#m8a1afd7c16" x="108" y="276.578415" style="fill: #a9a9a9; stroke: #a9a9a9; stroke-width: 0.8"/>
      </g>
     </g>
     <g id="text_12">
      <!-- 800 -->
      <g style="fill: #a9a9a9" transform="translate(81.9125 280.377634) scale(0.1 -0.1)">
       <defs>
        <path id="DejaVuSans-38" d="M 2034 2216 
Q 1584 2216 1326 1975 
Q 1069 1734 1069 1313 
Q 1069 891 1326 650 
Q 1584 409 2034 409 
Q 2484 409 2743 651 
Q 3003 894 3003 1313 
Q 3003 1734 2745 1975 
Q 2488 2216 2034 2216 
z
M 1403 2484 
Q 997 2584 770 2862 
Q 544 3141 544 3541 
Q 544 4100 942 4425 
Q 1341 4750 2034 4750 
Q 2731 4750 3128 4425 
Q 3525 4100 3525 3541 
Q 3525 3141 3298 2862 
Q 3072 2584 2669 2484 
Q 3125 2378 3379 2068 
Q 3634 1759 3634 1313 
Q 3634 634 3220 271 
Q 2806 -91 2034 -91 
Q 1263 -91 848 271 
Q 434 634 434 1313 
Q 434 1759 690 2068 
Q 947 2378 1403 2484 
z
M 1172 3481 
Q 1172 3119 1398 2916 
Q 1625 2713 2034 2713 
Q 2441 2713 2670 2916 
Q 2900 3119 2900 3481 
Q 2900 3844 2670 4047 
Q 2441 4250 2034 4250 
Q 1625 4250 1398 4047 
Q 1172 3844 1172 3481 
z
" transform="scale(0.015625)"/>
       </defs>
       <use xlink:href="#DejaVuSans-38"/>
       <use xlink:href="#DejaVuSans-30" x="63.623047"/>
       <use xlink:href="#DejaVuSans-30" x="127.246094"/>
      </g>
     </g>
    </g>
    <g id="ytick_3">
     <g id="line2d_25">
      <path d="M 108 245.317755 
L 777.6 245.317755 
" clip-path="url(#p27859beae1)" style="fill: none; stroke-dasharray: 5.12,1.28,0.8,1.28; stroke-dashoffset: 0; stroke: #b0b0b0; stroke-width: 0.8"/>
     </g>
     <g id="line2d_26">
      <g>
       <use xlink:href="#m8a1afd7c16" x="108" y="245.317755" style="fill: #a9a9a9; stroke: #a9a9a9; stroke-width: 0.8"/>
      </g>
     </g>
     <g id="text_13">
      <!-- 1600 -->
      <g style="fill: #a9a9a9" transform="translate(75.55 249.116973) scale(0.1 -0.1)">
       <defs>
        <path id="DejaVuSans-36" d="M 2113 2584 
Q 1688 2584 1439 2293 
Q 1191 2003 1191 1497 
Q 1191 994 1439 701 
Q 1688 409 2113 409 
Q 2538 409 2786 701 
Q 3034 994 3034 1497 
Q 3034 2003 2786 2293 
Q 2538 2584 2113 2584 
z
M 3366 4563 
L 3366 3988 
Q 3128 4100 2886 4159 
Q 2644 4219 2406 4219 
Q 1781 4219 1451 3797 
Q 1122 3375 1075 2522 
Q 1259 2794 1537 2939 
Q 1816 3084 2150 3084 
Q 2853 3084 3261 2657 
Q 3669 2231 3669 1497 
Q 3669 778 3244 343 
Q 2819 -91 2113 -91 
Q 1303 -91 875 529 
Q 447 1150 447 2328 
Q 447 3434 972 4092 
Q 1497 4750 2381 4750 
Q 2619 4750 2861 4703 
Q 3103 4656 3366 4563 
z
" transform="scale(0.015625)"/>
       </defs>
       <use xlink:href="#DejaVuSans-31"/>
       <use xlink:href="#DejaVuSans-36" x="63.623047"/>
       <use xlink:href="#DejaVuSans-30" x="127.246094"/>
       <use xlink:href="#DejaVuSans-30" x="190.869141"/>
      </g>
     </g>
    </g>
    <g id="ytick_4">
     <g id="line2d_27">
      <path d="M 108 214.057094 
L 777.6 214.057094 
" clip-path="url(#p27859beae1)" style="fill: none; stroke-dasharray: 5.12,1.28,0.8,1.28; stroke-dashoffset: 0; stroke: #b0b0b0; stroke-width: 0.8"/>
     </g>
     <g id="line2d_28">
      <g>
       <use xlink:href="#m8a1afd7c16" x="108" y="214.057094" style="fill: #a9a9a9; stroke: #a9a9a9; stroke-width: 0.8"/>
      </g>
     </g>
     <g id="text_14">
      <!-- 2400 -->
      <g style="fill: #a9a9a9" transform="translate(75.55 217.856313) scale(0.1 -0.1)">
       <use xlink:href="#DejaVuSans-32"/>
       <use xlink:href="#DejaVuSans-34" x="63.623047"/>
       <use xlink:href="#DejaVuSans-30" x="127.246094"/>
       <use xlink:href="#DejaVuSans-30" x="190.869141"/>
      </g>
     </g>
    </g>
    <g id="ytick_5">
     <g id="line2d_29">
      <path d="M 108 182.796434 
L 777.6 182.796434 
" clip-path="url(#p27859beae1)" style="fill: none; stroke-dasharray: 5.12,1.28,0.8,1.28; stroke-dashoffset: 0; stroke: #b0b0b0; stroke-width: 0.8"/>
     </g>
     <g id="line2d_30">
      <g>
       <use xlink:href="#m8a1afd7c16" x="108" y="182.796434" style="fill: #a9a9a9; stroke: #a9a9a9; stroke-width: 0.8"/>
      </g>
     </g>
     <g id="text_15">
      <!-- 3200 -->
      <g style="fill: #a9a9a9" transform="translate(75.55 186.595652) scale(0.1 -0.1)">
       <use xlink:href="#DejaVuSans-33"/>
       <use xlink:href="#DejaVuSans-32" x="63.623047"/>
       <use xlink:href="#DejaVuSans-30" x="127.246094"/>
       <use xlink:href="#DejaVuSans-30" x="190.869141"/>
      </g>
     </g>
    </g>
    <g id="ytick_6">
     <g id="line2d_31">
      <path d="M 108 151.535773 
L 777.6 151.535773 
" clip-path="url(#p27859beae1)" style="fill: none; stroke-dasharray: 5.12,1.28,0.8,1.28; stroke-dashoffset: 0; stroke: #b0b0b0; stroke-width: 0.8"/>
     </g>
     <g id="line2d_32">
      <g>
       <use xlink:href="#m8a1afd7c16" x="108" y="151.535773" style="fill: #a9a9a9; stroke: #a9a9a9; stroke-width: 0.8"/>
      </g>
     </g>
     <g id="text_16">
      <!-- 4000 -->
      <g style="fill: #a9a9a9" transform="translate(75.55 155.334992) scale(0.1 -0.1)">
       <use xlink:href="#DejaVuSans-34"/>
       <use xlink:href="#DejaVuSans-30" x="63.623047"/>
       <use xlink:href="#DejaVuSans-30" x="127.246094"/>
       <use xlink:href="#DejaVuSans-30" x="190.869141"/>
      </g>
     </g>
    </g>
    <g id="ytick_7">
     <g id="line2d_33">
      <path d="M 108 120.275112 
L 777.6 120.275112 
" clip-path="url(#p27859beae1)" style="fill: none; stroke-dasharray: 5.12,1.28,0.8,1.28; stroke-dashoffset: 0; stroke: #b0b0b0; stroke-width: 0.8"/>
     </g>
     <g id="line2d_34">
      <g>
       <use xlink:href="#m8a1afd7c16" x="108" y="120.275112" style="fill: #a9a9a9; stroke: #a9a9a9; stroke-width: 0.8"/>
      </g>
     </g>
     <g id="text_17">
      <!-- 4800 -->
      <g style="fill: #a9a9a9" transform="translate(75.55 124.074331) scale(0.1 -0.1)">
       <use xlink:href="#DejaVuSans-34"/>
       <use xlink:href="#DejaVuSans-38" x="63.623047"/>
       <use xlink:href="#DejaVuSans-30" x="127.246094"/>
       <use xlink:href="#DejaVuSans-30" x="190.869141"/>
      </g>
     </g>
    </g>
    <g id="ytick_8">
     <g id="line2d_35">
      <path d="M 108 89.014452 
L 777.6 89.014452 
" clip-path="url(#p27859beae1)" style="fill: none; stroke-dasharray: 5.12,1.28,0.8,1.28; stroke-dashoffset: 0; stroke: #b0b0b0; stroke-width: 0.8"/>
     </g>
     <g id="line2d_36">
      <g>
       <use xlink:href="#m8a1afd7c16" x="108" y="89.014452" style="fill: #a9a9a9; stroke: #a9a9a9; stroke-width: 0.8"/>
      </g>
     </g>
     <g id="text_18">
      <!-- 5600 -->
      <g style="fill: #a9a9a9" transform="translate(75.55 92.813671) scale(0.1 -0.1)">
       <use xlink:href="#DejaVuSans-35"/>
       <use xlink:href="#DejaVuSans-36" x="63.623047"/>
       <use xlink:href="#DejaVuSans-30" x="127.246094"/>
       <use xlink:href="#DejaVuSans-30" x="190.869141"/>
      </g>
     </g>
    </g>
    <g id="ytick_9">
     <g id="line2d_37">
      <path d="M 108 57.753791 
L 777.6 57.753791 
" clip-path="url(#p27859beae1)" style="fill: none; stroke-dasharray: 5.12,1.28,0.8,1.28; stroke-dashoffset: 0; stroke: #b0b0b0; stroke-width: 0.8"/>
     </g>
     <g id="line2d_38">
      <g>
       <use xlink:href="#m8a1afd7c16" x="108" y="57.753791" style="fill: #a9a9a9; stroke: #a9a9a9; stroke-width: 0.8"/>
      </g>
     </g>
     <g id="text_19">
      <!-- 6400 -->
      <g style="fill: #a9a9a9" transform="translate(75.55 61.55301) scale(0.1 -0.1)">
       <use xlink:href="#DejaVuSans-36"/>
       <use xlink:href="#DejaVuSans-34" x="63.623047"/>
       <use xlink:href="#DejaVuSans-30" x="127.246094"/>
       <use xlink:href="#DejaVuSans-30" x="190.869141"/>
      </g>
     </g>
    </g>
   </g>
   <g id="line2d_39">
    <path d="M 138.436364 307.721848 
L 141.726781 307.448318 
L 142.275184 307.213863 
L 143.920393 307.057559 
L 147.210811 306.39327 
L 150.501229 306.119739 
L 151.598034 305.689905 
L 152.146437 304.986541 
L 152.69484 304.595782 
L 153.243243 303.384432 
L 153.791646 303.30628 
L 154.340049 302.876446 
L 155.436855 302.329384 
L 157.630467 300.610048 
L 159.824079 299.555001 
L 161.469287 298.81256 
L 162.01769 297.952892 
L 163.114496 297.171375 
L 163.662899 296.93692 
L 169.146929 296.155404 
L 169.695332 295.881873 
L 173.534152 295.569267 
L 175.179361 295.139432 
L 180.114988 294.475143 
L 180.663391 294.162537 
L 181.211794 294.084385 
L 182.3086 293.732703 
L 186.14742 293.10749 
L 187.244226 292.794883 
L 188.889435 292.63858 
L 189.986241 292.521352 
L 190.534644 292.365049 
L 191.083047 292.325973 
L 192.728256 291.817987 
L 193.825061 291.739836 
L 194.921867 291.583532 
L 196.018673 291.349077 
L 196.567076 291.192774 
L 197.115479 290.450333 
L 198.760688 289.82512 
L 200.405897 289.395286 
L 200.9543 289.121755 
L 201.502703 289.082679 
L 204.244717 288.301163 
L 205.341523 288.223011 
L 205.889926 288.14486 
L 207.535135 287.636874 
L 209.728747 287.089812 
L 210.27715 286.855357 
L 210.825553 286.777206 
L 211.373956 286.503675 
L 216.857985 285.683083 
L 219.6 284.901566 
L 220.148403 284.549884 
L 222.342015 283.963746 
L 224.535627 282.830547 
L 226.180835 282.439789 
L 226.729238 282.361637 
L 227.277641 282.088107 
L 228.374447 281.892728 
L 229.471253 281.384742 
L 232.213268 280.681377 
L 233.858477 280.251543 
L 235.503686 279.665405 
L 236.052088 279.587254 
L 237.148894 279.15742 
L 238.2457 279.079268 
L 239.890909 278.610358 
L 240.439312 278.610358 
L 240.987715 278.375903 
L 242.084521 278.258676 
L 242.632924 278.063297 
L 243.72973 278.024221 
L 245.923342 277.75069 
L 247.020147 277.203628 
L 253.600983 274.272942 
L 254.149386 273.686804 
L 255.246192 272.045619 
L 255.794595 271.889316 
L 256.342998 271.889316 
L 257.439803 271.068724 
L 257.988206 270.912421 
L 258.536609 270.63889 
L 259.085012 270.521662 
L 259.633415 270.013677 
L 260.181818 269.857373 
L 261.827027 269.075857 
L 262.923833 267.512824 
L 263.472236 267.161141 
L 264.020639 266.223321 
L 264.569042 265.637184 
L 267.859459 263.917848 
L 268.956265 263.05818 
L 269.504668 262.706497 
L 270.053071 261.885905 
L 270.601474 260.674554 
L 271.149877 259.853962 
L 271.69828 259.424128 
L 272.246683 259.189673 
L 274.440295 257.274957 
L 275.537101 256.376213 
L 276.085504 255.907303 
L 276.633907 255.164863 
L 277.730713 254.187967 
L 279.924324 252.742162 
L 280.472727 252.273252 
L 281.02113 252.156024 
L 282.117936 251.569887 
L 284.311548 250.436688 
L 285.408354 249.381641 
L 285.956757 248.717352 
L 287.053563 247.935835 
L 287.601966 247.779532 
L 288.150369 247.506001 
L 289.247174 246.76356 
L 289.795577 246.450954 
L 290.34398 246.372802 
L 294.182801 243.989177 
L 296.376413 242.816902 
L 296.924816 242.308916 
L 305.699263 239.261002 
L 306.796069 238.284106 
L 308.441278 237.50259 
L 309.538084 236.838301 
L 310.634889 236.525694 
L 311.183292 236.174011 
L 311.731695 236.017708 
L 313.376904 234.962661 
L 316.118919 234.298372 
L 317.764128 233.360552 
L 318.312531 233.2824 
L 319.409337 233.00887 
L 319.95774 232.852566 
L 321.602948 231.60214 
L 323.248157 231.211382 
L 323.79656 231.016002 
L 324.344963 230.586168 
L 327.635381 229.492045 
L 328.183784 229.452969 
L 328.732187 229.296666 
L 329.828993 228.827756 
L 333.667813 227.460102 
L 334.764619 227.303799 
L 335.313022 227.147496 
L 335.861425 226.873965 
L 336.409828 226.756737 
L 339.151843 225.467235 
L 341.345455 224.29496 
L 345.732678 222.536548 
L 346.281081 222.458397 
L 347.377887 221.794108 
L 347.92629 221.715956 
L 350.119902 220.817212 
L 352.313514 220.46553 
L 353.410319 219.918468 
L 353.958722 219.449558 
L 354.507125 218.472662 
L 356.152334 218.160056 
L 360.539558 216.089037 
L 363.829975 214.721383 
L 364.926781 214.486928 
L 366.023587 213.939867 
L 366.57199 213.705412 
L 367.120393 213.62726 
L 369.314005 212.650364 
L 370.959214 211.634393 
L 371.507617 211.556241 
L 372.05602 211.360862 
L 372.604423 211.321786 
L 374.798034 210.696573 
L 375.346437 210.657497 
L 375.89484 210.227663 
L 376.991646 209.836905 
L 379.733661 208.781858 
L 380.282064 208.391099 
L 380.830467 208.19572 
L 381.927273 207.609583 
L 384.120885 206.98437 
L 384.669287 206.710839 
L 386.314496 205.421337 
L 386.862899 205.304109 
L 387.959705 204.444441 
L 388.508108 204.366289 
L 389.056511 203.506621 
L 389.604914 203.272166 
L 390.153317 202.842332 
L 390.70172 202.76418 
L 391.798526 202.099891 
L 392.346929 201.982664 
L 392.895332 201.748209 
L 393.443735 201.318375 
L 393.992138 201.122996 
L 395.637346 199.989797 
L 397.830958 198.856598 
L 398.379361 198.778446 
L 400.02457 197.957854 
L 400.572973 197.05911 
L 401.121376 196.5902 
L 401.669779 196.277593 
L 402.218182 196.160366 
L 403.314988 195.457001 
L 403.863391 195.339774 
L 404.960197 194.792712 
L 406.605405 194.089347 
L 407.702211 193.307831 
L 408.799017 192.135556 
L 409.895823 191.471267 
L 410.444226 191.119584 
L 410.992629 190.533447 
L 413.186241 189.048566 
L 413.734644 188.423352 
L 414.283047 187.993518 
L 415.379853 187.60276 
L 416.476658 186.860319 
L 418.121867 186.039727 
L 418.67027 185.961575 
L 420.315479 185.062831 
L 421.412285 184.398542 
L 426.896314 182.444751 
L 427.444717 182.014917 
L 429.638329 181.194325 
L 430.186732 181.038021 
L 430.735135 180.608187 
L 433.47715 179.123306 
L 434.573956 176.93506 
L 435.670762 175.684633 
L 436.767568 175.020344 
L 438.412776 174.356055 
L 438.961179 174.277904 
L 439.509582 173.965297 
L 442.251597 173.105629 
L 442.8 172.871174 
L 443.896806 172.128733 
L 445.542015 171.425368 
L 446.638821 170.839231 
L 447.187224 170.448473 
L 447.735627 170.214018 
L 448.284029 169.823259 
L 448.832432 169.237122 
L 449.929238 168.650985 
L 452.671253 167.205179 
L 455.961671 165.60307 
L 456.510074 165.485843 
L 458.155283 164.899705 
L 458.703686 164.743402 
L 460.897297 163.766506 
L 461.994103 163.336672 
L 462.542506 162.906838 
L 463.639312 162.555156 
L 466.92973 160.874895 
L 468.026536 160.015227 
L 469.123342 159.624469 
L 469.671744 159.155559 
L 470.220147 159.077407 
L 471.316953 158.256815 
L 472.413759 157.709753 
L 472.962162 157.475298 
L 473.510565 156.928237 
L 477.349386 155.443356 
L 478.446192 154.974446 
L 480.0914 154.46646 
L 481.188206 154.310157 
L 481.736609 154.075702 
L 482.285012 153.99755 
L 483.381818 153.52864 
L 483.930221 153.489564 
L 486.123833 152.668972 
L 487.769042 151.535773 
L 490.511057 150.246271 
L 493.253071 148.761389 
L 493.801474 148.644162 
L 495.446683 147.706342 
L 497.091892 147.159281 
L 498.188698 146.807598 
L 500.38231 146.104233 
L 501.479115 145.752551 
L 503.124324 145.47902 
L 505.317936 144.775655 
L 505.866339 144.5412 
L 506.414742 144.463049 
L 506.963145 144.189518 
L 508.059951 143.955063 
L 509.70516 143.368925 
L 510.801966 143.251698 
L 511.898771 142.978167 
L 513.54398 142.704636 
L 514.092383 142.548333 
L 515.189189 142.431106 
L 517.931204 141.727741 
L 519.02801 141.45421 
L 519.576413 141.141603 
L 522.318428 140.438238 
L 522.86683 140.321011 
L 525.060442 139.500419 
L 527.802457 138.679826 
L 528.35086 138.679826 
L 529.447666 138.289068 
L 529.996069 137.742007 
L 531.092875 137.312172 
L 534.383292 136.139898 
L 534.931695 135.788215 
L 535.480098 135.670988 
L 536.028501 135.358381 
L 537.125307 135.163002 
L 538.222113 134.733168 
L 538.770516 134.61594 
L 539.318919 134.264258 
L 539.867322 134.147031 
L 540.415725 133.678121 
L 542.060934 133.365514 
L 543.15774 132.857528 
L 543.706143 132.232315 
L 544.802948 131.99786 
L 549.738575 130.942813 
L 550.286978 130.942813 
L 550.835381 130.708358 
L 553.028993 130.3176 
L 553.577396 130.083145 
L 555.771007 129.692386 
L 556.867813 129.223477 
L 557.416216 129.184401 
L 559.061425 128.793642 
L 560.706634 128.363808 
L 562.900246 127.699519 
L 563.448649 127.582292 
L 563.997052 127.308761 
L 564.545455 127.230609 
L 567.287469 126.175562 
L 567.835872 125.784804 
L 568.932678 125.472197 
L 570.029484 125.120515 
L 571.12629 124.651605 
L 572.771499 123.909164 
L 574.416708 123.791937 
L 576.610319 123.166724 
L 577.158722 122.815041 
L 578.255528 122.502434 
L 580.997543 121.291084 
L 581.545946 121.252008 
L 587.578378 119.180989 
L 589.77199 118.633928 
L 590.320393 118.477624 
L 591.417199 117.969639 
L 592.514005 117.735184 
L 593.062408 117.617956 
L 593.610811 117.188122 
L 594.159214 116.914591 
L 594.707617 116.250302 
L 595.25602 115.859544 
L 596.352826 115.546938 
L 596.901229 115.117103 
L 601.288452 113.319615 
L 601.836855 113.163312 
L 602.385258 112.81163 
L 604.57887 112.147341 
L 605.675676 111.600279 
L 606.772482 110.975066 
L 607.320885 110.857838 
L 608.41769 110.193549 
L 608.966093 109.959094 
L 610.062899 109.294805 
L 611.708108 108.513289 
L 612.256511 108.122531 
L 613.353317 107.770848 
L 614.450123 107.106559 
L 614.998526 106.91118 
L 615.546929 106.520422 
L 622.676167 104.058645 
L 623.22457 103.941417 
L 623.772973 103.589735 
L 624.321376 103.511583 
L 625.418182 103.238052 
L 626.514988 103.003597 
L 630.353808 101.127958 
L 630.902211 101.049806 
L 632.54742 100.151062 
L 635.837838 98.86156 
L 638.03145 98.001892 
L 638.579853 97.845588 
L 639.128256 97.493906 
L 640.225061 97.337603 
L 640.773464 96.98592 
L 641.321867 96.946844 
L 642.418673 96.595162 
L 643.515479 96.0481 
L 644.063882 95.969949 
L 646.805897 94.875826 
L 647.3543 94.758598 
L 648.451106 94.406916 
L 649.547912 94.133385 
L 650.644717 93.859854 
L 652.289926 93.234641 
L 654.483538 92.02329 
L 655.580344 91.593456 
L 656.128747 91.241774 
L 657.225553 91.007319 
L 657.773956 90.694712 
L 658.322359 90.577485 
L 659.967568 89.717817 
L 660.515971 89.561513 
L 662.709582 88.545542 
L 664.354791 88.115708 
L 667.645209 86.826206 
L 669.290418 86.279144 
L 678.064865 82.645092 
L 680.258477 81.785424 
L 681.903686 80.88668 
L 682.452088 80.769453 
L 683.548894 80.339619 
L 684.097297 80.339619 
L 685.194103 79.870709 
L 686.290909 78.893813 
L 686.839312 78.424903 
L 688.484521 77.643387 
L 689.032924 77.526159 
L 689.581327 77.252628 
L 690.12973 77.174477 
L 690.678133 76.783718 
L 691.226536 76.666491 
L 692.323342 76.002202 
L 693.96855 75.18161 
L 694.516953 75.025306 
L 695.613759 74.478245 
L 697.258968 74.087486 
L 700.000983 73.188742 
L 700.549386 73.071515 
L 702.742998 72.016468 
L 703.839803 71.508482 
L 704.936609 71.234951 
L 708.77543 69.437463 
L 711.517445 68.460568 
L 713.162654 67.483672 
L 713.711057 67.366444 
L 714.807862 66.819383 
L 715.904668 66.428625 
L 716.453071 65.959715 
L 717.001474 65.647108 
L 718.646683 65.139122 
L 719.743489 64.396682 
L 720.291892 64.357606 
L 721.388698 64.044999 
L 721.937101 63.927772 
L 724.130713 63.107179 
L 725.775921 62.599194 
L 726.324324 62.521042 
L 727.42113 61.934905 
L 727.969533 61.739526 
L 728.517936 61.309691 
L 730.163145 60.879857 
L 730.711548 60.528175 
L 731.808354 60.254644 
L 733.453563 59.3559 
L 734.001966 59.316824 
L 735.647174 58.808839 
L 736.74398 58.691611 
L 737.840786 58.261777 
L 738.389189 58.105474 
L 738.937592 57.831943 
L 742.776413 57.011351 
L 744.421622 56.425213 
L 744.970025 56.347062 
L 746.615233 55.8 
L 747.163636 55.8 
L 747.163636 55.8 
" clip-path="url(#p27859beae1)" style="fill: none; stroke: #1f77b4; stroke-width: 1.5; stroke-linecap: square"/>
   </g>
   <g id="line2d_40">
    <path d="M 138.984767 307.8 
L 140.629975 307.721848 
L 142.275184 307.682773 
L 145.565602 307.604621 
L 148.307617 307.487393 
L 150.501229 307.487393 
L 151.049631 307.33109 
L 153.243243 307.252938 
L 154.888452 307.057559 
L 156.533661 306.901256 
L 159.824079 306.744953 
L 160.372482 306.744953 
L 160.920885 306.627725 
L 163.114496 306.549574 
L 164.211302 306.471422 
L 168.598526 306.39327 
L 171.340541 306.276043 
L 177.921376 306.197891 
L 180.663391 306.080664 
L 183.953808 306.002512 
L 186.14742 305.92436 
L 191.083047 305.846209 
L 192.728256 305.807133 
L 194.373464 305.768057 
L 196.018673 305.572678 
L 199.309091 305.533602 
L 200.405897 305.45545 
L 204.244717 305.377299 
L 210.27715 305.025616 
L 214.115971 304.947465 
L 215.212776 304.869313 
L 216.857985 304.791161 
L 220.148403 304.634858 
L 222.342015 304.595782 
L 223.987224 304.439479 
L 231.116462 304.009645 
L 233.858477 303.931493 
L 238.794103 303.657962 
L 240.439312 303.579811 
L 245.923342 303.267204 
L 251.955774 303.189053 
L 254.149386 302.954598 
L 255.246192 302.876446 
L 262.37543 302.290309 
L 265.665848 301.860474 
L 267.859459 301.782323 
L 272.246683 301.196185 
L 275.537101 301.118034 
L 277.18231 300.961731 
L 278.279115 300.922655 
L 279.375921 300.805427 
L 281.02113 300.727276 
L 282.117936 300.570972 
L 284.859951 300.258366 
L 287.053563 300.180214 
L 288.150369 300.102062 
L 290.34398 300.023911 
L 291.440786 299.945759 
L 294.182801 299.672228 
L 294.731204 299.515925 
L 298.021622 299.359622 
L 300.763636 299.28147 
L 307.892875 298.851636 
L 309.538084 298.773484 
L 316.667322 298.34365 
L 320.506143 298.265499 
L 321.054545 298.148271 
L 325.441769 298.070119 
L 329.28059 297.87474 
L 335.313022 297.796589 
L 339.151843 297.601209 
L 343.539066 297.523058 
L 347.92629 297.288603 
L 351.765111 297.210451 
L 362.184767 296.546162 
L 367.668796 296.468011 
L 369.862408 296.233556 
L 371.507617 296.19448 
L 373.152826 296.155404 
L 375.346437 295.920949 
L 380.830467 295.608342 
L 384.120885 295.530191 
L 385.766093 295.491115 
L 387.411302 295.452039 
L 389.056511 295.295736 
L 393.443735 295.217584 
L 394.540541 295.061281 
L 395.637346 294.983129 
L 398.379361 294.865902 
L 399.476167 294.78775 
L 400.572973 294.709598 
L 405.5086 294.631447 
L 406.605405 294.514219 
L 408.799017 294.475143 
L 409.34742 294.357916 
L 410.444226 294.279764 
L 410.992629 294.162537 
L 412.637838 294.084385 
L 417.573464 293.810854 
L 418.67027 293.771779 
L 420.315479 293.615475 
L 421.960688 293.576399 
L 423.605897 293.498248 
L 426.347912 293.38102 
L 434.025553 293.302869 
L 437.864373 293.10749 
L 442.251597 293.029338 
L 444.445209 292.951186 
L 446.638821 292.91211 
L 447.735627 292.794883 
L 449.929238 292.716731 
L 455.413268 292.404125 
L 458.703686 292.365049 
L 460.348894 292.208746 
L 461.994103 292.16967 
L 465.832924 292.091518 
L 468.026536 292.013366 
L 474.607371 291.935215 
L 477.349386 291.817987 
L 480.639803 291.739836 
L 482.285012 291.544457 
L 485.57543 291.505381 
L 487.220639 291.349077 
L 489.414251 291.270926 
L 495.995086 291.192774 
L 498.737101 291.075547 
L 508.059951 291.036471 
L 509.156757 290.958319 
L 510.801966 290.919243 
L 517.931204 290.841092 
L 519.02801 290.76294 
L 525.060442 290.684788 
L 527.254054 290.606637 
L 533.834889 290.567561 
L 534.931695 290.489409 
L 543.15774 290.450333 
L 544.802948 290.29403 
L 558.513022 290.215878 
L 560.158231 290.176803 
L 574.965111 290.098651 
L 576.610319 290.059575 
L 586.481572 289.981423 
L 587.578378 289.903272 
L 590.320393 289.82512 
L 591.965602 289.668817 
L 594.707617 289.590665 
L 596.901229 289.512514 
L 600.191646 289.434362 
L 601.836855 289.395286 
L 604.030467 289.317134 
L 605.675676 289.278059 
L 608.41769 289.199907 
L 609.514496 289.121755 
L 612.804914 289.043604 
L 615.546929 288.926376 
L 616.643735 288.8873 
L 617.740541 288.809149 
L 619.385749 288.770073 
L 621.579361 288.691921 
L 623.772973 288.61377 
L 630.902211 288.535618 
L 633.095823 288.457466 
L 637.483047 288.379315 
L 641.321867 288.183935 
L 646.257494 288.105784 
L 647.3543 288.027632 
L 657.225553 287.949481 
L 658.870762 287.910405 
L 661.612776 287.871329 
L 663.806388 287.636874 
L 665.451597 287.597798 
L 668.742015 287.519646 
L 674.226044 287.20704 
L 676.968059 287.128888 
L 679.161671 287.050737 
L 685.194103 286.972585 
L 687.936118 286.659978 
L 690.12973 286.581827 
L 693.96855 286.503675 
L 694.516953 286.386448 
L 699.45258 286.308296 
L 702.194595 286.191068 
L 709.323833 286.151993 
L 709.872236 286.034765 
L 714.259459 285.956613 
L 715.904668 285.917538 
L 718.646683 285.839386 
L 720.291892 285.80031 
L 729.614742 285.722158 
L 732.356757 285.604931 
L 740.034398 285.526779 
L 742.22801 285.448628 
L 747.163636 285.370476 
L 747.163636 285.370476 
" clip-path="url(#p27859beae1)" style="fill: none; stroke: #ff7f0e; stroke-width: 1.5; stroke-linecap: square"/>
   </g>
   <g id="patch_3">
    <path d="M 108 320.4 
L 108 43.2 
" style="fill: none; stroke: #a9a9a9; stroke-width: 0.8; stroke-linejoin: miter; stroke-linecap: square"/>
   </g>
   <g id="patch_4">
    <path d="M 777.6 320.4 
L 777.6 43.2 
" style="fill: none"/>
   </g>
   <g id="patch_5">
    <path d="M 108 320.4 
L 777.6 320.4 
" style="fill: none; stroke: #a9a9a9; stroke-width: 0.8; stroke-linejoin: miter; stroke-linecap: square"/>
   </g>
   <g id="patch_6">
    <path d="M 108 43.2 
L 777.6 43.2 
" style="fill: none"/>
   </g>
   <g id="text_20">
    <!-- get_subscribe history -->
    <g style="fill: #a9a9a9" transform="translate(378.6075 37.2) scale(0.12 -0.12)">
     <defs>
      <path id="DejaVuSans-67" d="M 2906 1791 
Q 2906 2416 2648 2759 
Q 2391 3103 1925 3103 
Q 1463 3103 1205 2759 
Q 947 2416 947 1791 
Q 947 1169 1205 825 
Q 1463 481 1925 481 
Q 2391 481 2648 825 
Q 2906 1169 2906 1791 
z
M 3481 434 
Q 3481 -459 3084 -895 
Q 2688 -1331 1869 -1331 
Q 1566 -1331 1297 -1286 
Q 1028 -1241 775 -1147 
L 775 -588 
Q 1028 -725 1275 -790 
Q 1522 -856 1778 -856 
Q 2344 -856 2625 -561 
Q 2906 -266 2906 331 
L 2906 616 
Q 2728 306 2450 153 
Q 2172 0 1784 0 
Q 1141 0 747 490 
Q 353 981 353 1791 
Q 353 2603 747 3093 
Q 1141 3584 1784 3584 
Q 2172 3584 2450 3431 
Q 2728 3278 2906 2969 
L 2906 3500 
L 3481 3500 
L 3481 434 
z
" transform="scale(0.015625)"/>
      <path id="DejaVuSans-65" d="M 3597 1894 
L 3597 1613 
L 953 1613 
Q 991 1019 1311 708 
Q 1631 397 2203 397 
Q 2534 397 2845 478 
Q 3156 559 3463 722 
L 3463 178 
Q 3153 47 2828 -22 
Q 2503 -91 2169 -91 
Q 1331 -91 842 396 
Q 353 884 353 1716 
Q 353 2575 817 3079 
Q 1281 3584 2069 3584 
Q 2775 3584 3186 3129 
Q 3597 2675 3597 1894 
z
M 3022 2063 
Q 3016 2534 2758 2815 
Q 2500 3097 2075 3097 
Q 1594 3097 1305 2825 
Q 1016 2553 972 2059 
L 3022 2063 
z
" transform="scale(0.015625)"/>
      <path id="DejaVuSans-74" d="M 1172 4494 
L 1172 3500 
L 2356 3500 
L 2356 3053 
L 1172 3053 
L 1172 1153 
Q 1172 725 1289 603 
Q 1406 481 1766 481 
L 2356 481 
L 2356 0 
L 1766 0 
Q 1100 0 847 248 
Q 594 497 594 1153 
L 594 3053 
L 172 3053 
L 172 3500 
L 594 3500 
L 594 4494 
L 1172 4494 
z
" transform="scale(0.015625)"/>
      <path id="DejaVuSans-5f" d="M 3263 -1063 
L 3263 -1509 
L -63 -1509 
L -63 -1063 
L 3263 -1063 
z
" transform="scale(0.015625)"/>
      <path id="DejaVuSans-73" d="M 2834 3397 
L 2834 2853 
Q 2591 2978 2328 3040 
Q 2066 3103 1784 3103 
Q 1356 3103 1142 2972 
Q 928 2841 928 2578 
Q 928 2378 1081 2264 
Q 1234 2150 1697 2047 
L 1894 2003 
Q 2506 1872 2764 1633 
Q 3022 1394 3022 966 
Q 3022 478 2636 193 
Q 2250 -91 1575 -91 
Q 1294 -91 989 -36 
Q 684 19 347 128 
L 347 722 
Q 666 556 975 473 
Q 1284 391 1588 391 
Q 1994 391 2212 530 
Q 2431 669 2431 922 
Q 2431 1156 2273 1281 
Q 2116 1406 1581 1522 
L 1381 1569 
Q 847 1681 609 1914 
Q 372 2147 372 2553 
Q 372 3047 722 3315 
Q 1072 3584 1716 3584 
Q 2034 3584 2315 3537 
Q 2597 3491 2834 3397 
z
" transform="scale(0.015625)"/>
      <path id="DejaVuSans-75" d="M 544 1381 
L 544 3500 
L 1119 3500 
L 1119 1403 
Q 1119 906 1312 657 
Q 1506 409 1894 409 
Q 2359 409 2629 706 
Q 2900 1003 2900 1516 
L 2900 3500 
L 3475 3500 
L 3475 0 
L 2900 0 
L 2900 538 
Q 2691 219 2414 64 
Q 2138 -91 1772 -91 
Q 1169 -91 856 284 
Q 544 659 544 1381 
z
M 1991 3584 
L 1991 3584 
z
" transform="scale(0.015625)"/>
      <path id="DejaVuSans-62" d="M 3116 1747 
Q 3116 2381 2855 2742 
Q 2594 3103 2138 3103 
Q 1681 3103 1420 2742 
Q 1159 2381 1159 1747 
Q 1159 1113 1420 752 
Q 1681 391 2138 391 
Q 2594 391 2855 752 
Q 3116 1113 3116 1747 
z
M 1159 2969 
Q 1341 3281 1617 3432 
Q 1894 3584 2278 3584 
Q 2916 3584 3314 3078 
Q 3713 2572 3713 1747 
Q 3713 922 3314 415 
Q 2916 -91 2278 -91 
Q 1894 -91 1617 61 
Q 1341 213 1159 525 
L 1159 0 
L 581 0 
L 581 4863 
L 1159 4863 
L 1159 2969 
z
" transform="scale(0.015625)"/>
      <path id="DejaVuSans-63" d="M 3122 3366 
L 3122 2828 
Q 2878 2963 2633 3030 
Q 2388 3097 2138 3097 
Q 1578 3097 1268 2742 
Q 959 2388 959 1747 
Q 959 1106 1268 751 
Q 1578 397 2138 397 
Q 2388 397 2633 464 
Q 2878 531 3122 666 
L 3122 134 
Q 2881 22 2623 -34 
Q 2366 -91 2075 -91 
Q 1284 -91 818 406 
Q 353 903 353 1747 
Q 353 2603 823 3093 
Q 1294 3584 2113 3584 
Q 2378 3584 2631 3529 
Q 2884 3475 3122 3366 
z
" transform="scale(0.015625)"/>
      <path id="DejaVuSans-72" d="M 2631 2963 
Q 2534 3019 2420 3045 
Q 2306 3072 2169 3072 
Q 1681 3072 1420 2755 
Q 1159 2438 1159 1844 
L 1159 0 
L 581 0 
L 581 3500 
L 1159 3500 
L 1159 2956 
Q 1341 3275 1631 3429 
Q 1922 3584 2338 3584 
Q 2397 3584 2469 3576 
Q 2541 3569 2628 3553 
L 2631 2963 
z
" transform="scale(0.015625)"/>
      <path id="DejaVuSans-69" d="M 603 3500 
L 1178 3500 
L 1178 0 
L 603 0 
L 603 3500 
z
M 603 4863 
L 1178 4863 
L 1178 4134 
L 603 4134 
L 603 4863 
z
" transform="scale(0.015625)"/>
      <path id="DejaVuSans-20" transform="scale(0.015625)"/>
      <path id="DejaVuSans-68" d="M 3513 2113 
L 3513 0 
L 2938 0 
L 2938 2094 
Q 2938 2591 2744 2837 
Q 2550 3084 2163 3084 
Q 1697 3084 1428 2787 
Q 1159 2491 1159 1978 
L 1159 0 
L 581 0 
L 581 4863 
L 1159 4863 
L 1159 2956 
Q 1366 3272 1645 3428 
Q 1925 3584 2291 3584 
Q 2894 3584 3203 3211 
Q 3513 2838 3513 2113 
z
" transform="scale(0.015625)"/>
      <path id="DejaVuSans-6f" d="M 1959 3097 
Q 1497 3097 1228 2736 
Q 959 2375 959 1747 
Q 959 1119 1226 758 
Q 1494 397 1959 397 
Q 2419 397 2687 759 
Q 2956 1122 2956 1747 
Q 2956 2369 2687 2733 
Q 2419 3097 1959 3097 
z
M 1959 3584 
Q 2709 3584 3137 3096 
Q 3566 2609 3566 1747 
Q 3566 888 3137 398 
Q 2709 -91 1959 -91 
Q 1206 -91 779 398 
Q 353 888 353 1747 
Q 353 2609 779 3096 
Q 1206 3584 1959 3584 
z
" transform="scale(0.015625)"/>
      <path id="DejaVuSans-79" d="M 2059 -325 
Q 1816 -950 1584 -1140 
Q 1353 -1331 966 -1331 
L 506 -1331 
L 506 -850 
L 844 -850 
Q 1081 -850 1212 -737 
Q 1344 -625 1503 -206 
L 1606 56 
L 191 3500 
L 800 3500 
L 1894 763 
L 2988 3500 
L 3597 3500 
L 2059 -325 
z
" transform="scale(0.015625)"/>
     </defs>
     <use xlink:href="#DejaVuSans-67"/>
     <use xlink:href="#DejaVuSans-65" x="63.476562"/>
     <use xlink:href="#DejaVuSans-74" x="125"/>
     <use xlink:href="#DejaVuSans-5f" x="164.208984"/>
     <use xlink:href="#DejaVuSans-73" x="214.208984"/>
     <use xlink:href="#DejaVuSans-75" x="266.308594"/>
     <use xlink:href="#DejaVuSans-62" x="329.6875"/>
     <use xlink:href="#DejaVuSans-73" x="393.164062"/>
     <use xlink:href="#DejaVuSans-63" x="445.263672"/>
     <use xlink:href="#DejaVuSans-72" x="500.244141"/>
     <use xlink:href="#DejaVuSans-69" x="541.357422"/>
     <use xlink:href="#DejaVuSans-62" x="569.140625"/>
     <use xlink:href="#DejaVuSans-65" x="632.617188"/>
     <use xlink:href="#DejaVuSans-20" x="694.140625"/>
     <use xlink:href="#DejaVuSans-68" x="725.927734"/>
     <use xlink:href="#DejaVuSans-69" x="789.306641"/>
     <use xlink:href="#DejaVuSans-73" x="817.089844"/>
     <use xlink:href="#DejaVuSans-74" x="869.189453"/>
     <use xlink:href="#DejaVuSans-6f" x="908.398438"/>
     <use xlink:href="#DejaVuSans-72" x="969.580078"/>
     <use xlink:href="#DejaVuSans-79" x="1010.693359"/>
    </g>
   </g>
   <g id="legend_1">
    <g id="line2d_41">
     <path d="M 815.08 328.498438 
L 825.08 328.498438 
L 835.08 328.498438 
" style="fill: none; stroke: #1f77b4; stroke-width: 1.5; stroke-linecap: square"/>
    </g>
    <g id="text_21">
     <!-- star -->
     <g style="fill: #a9a9a9" transform="translate(843.08 331.998438) scale(0.1 -0.1)">
      <defs>
       <path id="DejaVuSans-61" d="M 2194 1759 
Q 1497 1759 1228 1600 
Q 959 1441 959 1056 
Q 959 750 1161 570 
Q 1363 391 1709 391 
Q 2188 391 2477 730 
Q 2766 1069 2766 1631 
L 2766 1759 
L 2194 1759 
z
M 3341 1997 
L 3341 0 
L 2766 0 
L 2766 531 
Q 2569 213 2275 61 
Q 1981 -91 1556 -91 
Q 1019 -91 701 211 
Q 384 513 384 1019 
Q 384 1609 779 1909 
Q 1175 2209 1959 2209 
L 2766 2209 
L 2766 2266 
Q 2766 2663 2505 2880 
Q 2244 3097 1772 3097 
Q 1472 3097 1187 3025 
Q 903 2953 641 2809 
L 641 3341 
Q 956 3463 1253 3523 
Q 1550 3584 1831 3584 
Q 2591 3584 2966 3190 
Q 3341 2797 3341 1997 
z
" transform="scale(0.015625)"/>
      </defs>
      <use xlink:href="#DejaVuSans-73"/>
      <use xlink:href="#DejaVuSans-74" x="52.099609"/>
      <use xlink:href="#DejaVuSans-61" x="91.308594"/>
      <use xlink:href="#DejaVuSans-72" x="152.587891"/>
     </g>
    </g>
    <g id="line2d_42">
     <path d="M 815.08 343.176562 
L 825.08 343.176562 
L 835.08 343.176562 
" style="fill: none; stroke: #ff7f0e; stroke-width: 1.5; stroke-linecap: square"/>
    </g>
    <g id="text_22">
     <!-- fork -->
     <g style="fill: #a9a9a9" transform="translate(843.08 346.676562) scale(0.1 -0.1)">
      <defs>
       <path id="DejaVuSans-66" d="M 2375 4863 
L 2375 4384 
L 1825 4384 
Q 1516 4384 1395 4259 
Q 1275 4134 1275 3809 
L 1275 3500 
L 2222 3500 
L 2222 3053 
L 1275 3053 
L 1275 0 
L 697 0 
L 697 3053 
L 147 3053 
L 147 3500 
L 697 3500 
L 697 3744 
Q 697 4328 969 4595 
Q 1241 4863 1831 4863 
L 2375 4863 
z
" transform="scale(0.015625)"/>
       <path id="DejaVuSans-6b" d="M 581 4863 
L 1159 4863 
L 1159 1991 
L 2875 3500 
L 3609 3500 
L 1753 1863 
L 3688 0 
L 2938 0 
L 1159 1709 
L 1159 0 
L 581 0 
L 581 4863 
z
" transform="scale(0.015625)"/>
      </defs>
      <use xlink:href="#DejaVuSans-66"/>
      <use xlink:href="#DejaVuSans-6f" x="35.205078"/>
      <use xlink:href="#DejaVuSans-72" x="96.386719"/>
      <use xlink:href="#DejaVuSans-6b" x="137.5"/>
     </g>
    </g>
   </g>
  </g>
 </g>
 <defs>
  <clipPath id="p27859beae1">
   <rect x="108" y="43.2" width="669.6" height="277.2"/>
  </clipPath>
 </defs>
</svg>
