<?xml version="1.0" encoding="utf-8" standalone="no"?>
<!DOCTYPE svg PUBLIC "-//W3C//DTD SVG 1.1//EN"
  "http://www.w3.org/Graphics/SVG/1.1/DTD/svg11.dtd">
<svg xmlns:xlink="http://www.w3.org/1999/xlink" width="864pt" height="360pt" viewBox="0 0 864 360" xmlns="http://www.w3.org/2000/svg" version="1.1">
 <metadata>
  <rdf:RDF xmlns:dc="http://purl.org/dc/elements/1.1/" xmlns:cc="http://creativecommons.org/ns#" xmlns:rdf="http://www.w3.org/1999/02/22-rdf-syntax-ns#">
   <cc:Work>
    <dc:type rdf:resource="http://purl.org/dc/dcmitype/StillImage"/>
    <dc:date>2024-08-08T08:11:42.451088</dc:date>
    <dc:format>image/svg+xml</dc:format>
    <dc:creator>
     <cc:Agent>
      <dc:title>Matplotlib v3.9.1.post1, https://matplotlib.org/</dc:title>
     </cc:Agent>
    </dc:creator>
   </cc:Work>
  </rdf:RDF>
 </metadata>
 <defs>
  <style type="text/css">*{stroke-linejoin: round; stroke-linecap: butt}</style>
 </defs>
 <g id="figure_1">
  <g id="patch_1">
   <path d="M 0 360 
L 864 360 
L 864 0 
L 0 0 
L 0 360 
z
" style="fill: none; opacity: 0"/>
  </g>
  <g id="axes_1">
   <g id="patch_2">
    <path d="M 108 320.4 
L 777.6 320.4 
L 777.6 43.2 
L 108 43.2 
L 108 320.4 
z
" style="fill: none; opacity: 0"/>
   </g>
   <g id="matplotlib.axis_1">
    <g id="xtick_1">
     <g id="line2d_1">
      <path d="M 159.804828 320.4 
L 159.804828 43.2 
" clip-path="url(#pd361d75cba)" style="fill: none; stroke-dasharray: 5.12,1.28,0.8,1.28; stroke-dashoffset: 0; stroke: #b0b0b0; stroke-width: 0.8"/>
     </g>
     <g id="line2d_2">
      <defs>
       <path id="m2bb132a38d" d="M 0 0 
L 0 3.5 
" style="stroke: #a9a9a9; stroke-width: 0.8"/>
      </defs>
      <g>
       <use xlink:href="#m2bb132a38d" x="159.804828" y="320.4" style="fill: #a9a9a9; stroke: #a9a9a9; stroke-width: 0.8"/>
      </g>
     </g>
     <g id="text_1">
      <!-- 2021-09 -->
      <g style="fill: #a9a9a9" transform="translate(138.913422 334.998438) scale(0.1 -0.1)">
       <defs>
        <path id="DejaVuSans-32" d="M 1228 531 
L 3431 531 
L 3431 0 
L 469 0 
L 469 531 
Q 828 903 1448 1529 
Q 2069 2156 2228 2338 
Q 2531 2678 2651 2914 
Q 2772 3150 2772 3378 
Q 2772 3750 2511 3984 
Q 2250 4219 1831 4219 
Q 1534 4219 1204 4116 
Q 875 4013 500 3803 
L 500 4441 
Q 881 4594 1212 4672 
Q 1544 4750 1819 4750 
Q 2544 4750 2975 4387 
Q 3406 4025 3406 3419 
Q 3406 3131 3298 2873 
Q 3191 2616 2906 2266 
Q 2828 2175 2409 1742 
Q 1991 1309 1228 531 
z
" transform="scale(0.015625)"/>
        <path id="DejaVuSans-30" d="M 2034 4250 
Q 1547 4250 1301 3770 
Q 1056 3291 1056 2328 
Q 1056 1369 1301 889 
Q 1547 409 2034 409 
Q 2525 409 2770 889 
Q 3016 1369 3016 2328 
Q 3016 3291 2770 3770 
Q 2525 4250 2034 4250 
z
M 2034 4750 
Q 2819 4750 3233 4129 
Q 3647 3509 3647 2328 
Q 3647 1150 3233 529 
Q 2819 -91 2034 -91 
Q 1250 -91 836 529 
Q 422 1150 422 2328 
Q 422 3509 836 4129 
Q 1250 4750 2034 4750 
z
" transform="scale(0.015625)"/>
        <path id="DejaVuSans-31" d="M 794 531 
L 1825 531 
L 1825 4091 
L 703 3866 
L 703 4441 
L 1819 4666 
L 2450 4666 
L 2450 531 
L 3481 531 
L 3481 0 
L 794 0 
L 794 531 
z
" transform="scale(0.015625)"/>
        <path id="DejaVuSans-2d" d="M 313 2009 
L 1997 2009 
L 1997 1497 
L 313 1497 
L 313 2009 
z
" transform="scale(0.015625)"/>
        <path id="DejaVuSans-39" d="M 703 97 
L 703 672 
Q 941 559 1184 500 
Q 1428 441 1663 441 
Q 2288 441 2617 861 
Q 2947 1281 2994 2138 
Q 2813 1869 2534 1725 
Q 2256 1581 1919 1581 
Q 1219 1581 811 2004 
Q 403 2428 403 3163 
Q 403 3881 828 4315 
Q 1253 4750 1959 4750 
Q 2769 4750 3195 4129 
Q 3622 3509 3622 2328 
Q 3622 1225 3098 567 
Q 2575 -91 1691 -91 
Q 1453 -91 1209 -44 
Q 966 3 703 97 
z
M 1959 2075 
Q 2384 2075 2632 2365 
Q 2881 2656 2881 3163 
Q 2881 3666 2632 3958 
Q 2384 4250 1959 4250 
Q 1534 4250 1286 3958 
Q 1038 3666 1038 3163 
Q 1038 2656 1286 2365 
Q 1534 2075 1959 2075 
z
" transform="scale(0.015625)"/>
       </defs>
       <use xlink:href="#DejaVuSans-32"/>
       <use xlink:href="#DejaVuSans-30" x="63.623047"/>
       <use xlink:href="#DejaVuSans-32" x="127.246094"/>
       <use xlink:href="#DejaVuSans-31" x="190.869141"/>
       <use xlink:href="#DejaVuSans-2d" x="254.492188"/>
       <use xlink:href="#DejaVuSans-30" x="290.576172"/>
       <use xlink:href="#DejaVuSans-39" x="354.199219"/>
      </g>
     </g>
    </g>
    <g id="xtick_2">
     <g id="line2d_3">
      <path d="M 226.649767 320.4 
L 226.649767 43.2 
" clip-path="url(#pd361d75cba)" style="fill: none; stroke-dasharray: 5.12,1.28,0.8,1.28; stroke-dashoffset: 0; stroke: #b0b0b0; stroke-width: 0.8"/>
     </g>
     <g id="line2d_4">
      <g>
       <use xlink:href="#m2bb132a38d" x="226.649767" y="320.4" style="fill: #a9a9a9; stroke: #a9a9a9; stroke-width: 0.8"/>
      </g>
     </g>
     <g id="text_2">
      <!-- 2022-01 -->
      <g style="fill: #a9a9a9" transform="translate(205.758361 334.998438) scale(0.1 -0.1)">
       <use xlink:href="#DejaVuSans-32"/>
       <use xlink:href="#DejaVuSans-30" x="63.623047"/>
       <use xlink:href="#DejaVuSans-32" x="127.246094"/>
       <use xlink:href="#DejaVuSans-32" x="190.869141"/>
       <use xlink:href="#DejaVuSans-2d" x="254.492188"/>
       <use xlink:href="#DejaVuSans-30" x="290.576172"/>
       <use xlink:href="#DejaVuSans-31" x="354.199219"/>
      </g>
     </g>
    </g>
    <g id="xtick_3">
     <g id="line2d_5">
      <path d="M 292.398887 320.4 
L 292.398887 43.2 
" clip-path="url(#pd361d75cba)" style="fill: none; stroke-dasharray: 5.12,1.28,0.8,1.28; stroke-dashoffset: 0; stroke: #b0b0b0; stroke-width: 0.8"/>
     </g>
     <g id="line2d_6">
      <g>
       <use xlink:href="#m2bb132a38d" x="292.398887" y="320.4" style="fill: #a9a9a9; stroke: #a9a9a9; stroke-width: 0.8"/>
      </g>
     </g>
     <g id="text_3">
      <!-- 2022-05 -->
      <g style="fill: #a9a9a9" transform="translate(271.507481 334.998438) scale(0.1 -0.1)">
       <defs>
        <path id="DejaVuSans-35" d="M 691 4666 
L 3169 4666 
L 3169 4134 
L 1269 4134 
L 1269 2991 
Q 1406 3038 1543 3061 
Q 1681 3084 1819 3084 
Q 2600 3084 3056 2656 
Q 3513 2228 3513 1497 
Q 3513 744 3044 326 
Q 2575 -91 1722 -91 
Q 1428 -91 1123 -41 
Q 819 9 494 109 
L 494 744 
Q 775 591 1075 516 
Q 1375 441 1709 441 
Q 2250 441 2565 725 
Q 2881 1009 2881 1497 
Q 2881 1984 2565 2268 
Q 2250 2553 1709 2553 
Q 1456 2553 1204 2497 
Q 953 2441 691 2322 
L 691 4666 
z
" transform="scale(0.015625)"/>
       </defs>
       <use xlink:href="#DejaVuSans-32"/>
       <use xlink:href="#DejaVuSans-30" x="63.623047"/>
       <use xlink:href="#DejaVuSans-32" x="127.246094"/>
       <use xlink:href="#DejaVuSans-32" x="190.869141"/>
       <use xlink:href="#DejaVuSans-2d" x="254.492188"/>
       <use xlink:href="#DejaVuSans-30" x="290.576172"/>
       <use xlink:href="#DejaVuSans-35" x="354.199219"/>
      </g>
     </g>
    </g>
    <g id="xtick_4">
     <g id="line2d_7">
      <path d="M 359.791736 320.4 
L 359.791736 43.2 
" clip-path="url(#pd361d75cba)" style="fill: none; stroke-dasharray: 5.12,1.28,0.8,1.28; stroke-dashoffset: 0; stroke: #b0b0b0; stroke-width: 0.8"/>
     </g>
     <g id="line2d_8">
      <g>
       <use xlink:href="#m2bb132a38d" x="359.791736" y="320.4" style="fill: #a9a9a9; stroke: #a9a9a9; stroke-width: 0.8"/>
      </g>
     </g>
     <g id="text_4">
      <!-- 2022-09 -->
      <g style="fill: #a9a9a9" transform="translate(338.900329 334.998438) scale(0.1 -0.1)">
       <use xlink:href="#DejaVuSans-32"/>
       <use xlink:href="#DejaVuSans-30" x="63.623047"/>
       <use xlink:href="#DejaVuSans-32" x="127.246094"/>
       <use xlink:href="#DejaVuSans-32" x="190.869141"/>
       <use xlink:href="#DejaVuSans-2d" x="254.492188"/>
       <use xlink:href="#DejaVuSans-30" x="290.576172"/>
       <use xlink:href="#DejaVuSans-39" x="354.199219"/>
      </g>
     </g>
    </g>
    <g id="xtick_5">
     <g id="line2d_9">
      <path d="M 426.636675 320.4 
L 426.636675 43.2 
" clip-path="url(#pd361d75cba)" style="fill: none; stroke-dasharray: 5.12,1.28,0.8,1.28; stroke-dashoffset: 0; stroke: #b0b0b0; stroke-width: 0.8"/>
     </g>
     <g id="line2d_10">
      <g>
       <use xlink:href="#m2bb132a38d" x="426.636675" y="320.4" style="fill: #a9a9a9; stroke: #a9a9a9; stroke-width: 0.8"/>
      </g>
     </g>
     <g id="text_5">
      <!-- 2023-01 -->
      <g style="fill: #a9a9a9" transform="translate(405.745268 334.998438) scale(0.1 -0.1)">
       <defs>
        <path id="DejaVuSans-33" d="M 2597 2516 
Q 3050 2419 3304 2112 
Q 3559 1806 3559 1356 
Q 3559 666 3084 287 
Q 2609 -91 1734 -91 
Q 1441 -91 1130 -33 
Q 819 25 488 141 
L 488 750 
Q 750 597 1062 519 
Q 1375 441 1716 441 
Q 2309 441 2620 675 
Q 2931 909 2931 1356 
Q 2931 1769 2642 2001 
Q 2353 2234 1838 2234 
L 1294 2234 
L 1294 2753 
L 1863 2753 
Q 2328 2753 2575 2939 
Q 2822 3125 2822 3475 
Q 2822 3834 2567 4026 
Q 2313 4219 1838 4219 
Q 1578 4219 1281 4162 
Q 984 4106 628 3988 
L 628 4550 
Q 988 4650 1302 4700 
Q 1616 4750 1894 4750 
Q 2613 4750 3031 4423 
Q 3450 4097 3450 3541 
Q 3450 3153 3228 2886 
Q 3006 2619 2597 2516 
z
" transform="scale(0.015625)"/>
       </defs>
       <use xlink:href="#DejaVuSans-32"/>
       <use xlink:href="#DejaVuSans-30" x="63.623047"/>
       <use xlink:href="#DejaVuSans-32" x="127.246094"/>
       <use xlink:href="#DejaVuSans-33" x="190.869141"/>
       <use xlink:href="#DejaVuSans-2d" x="254.492188"/>
       <use xlink:href="#DejaVuSans-30" x="290.576172"/>
       <use xlink:href="#DejaVuSans-31" x="354.199219"/>
      </g>
     </g>
    </g>
    <g id="xtick_6">
     <g id="line2d_11">
      <path d="M 492.385795 320.4 
L 492.385795 43.2 
" clip-path="url(#pd361d75cba)" style="fill: none; stroke-dasharray: 5.12,1.28,0.8,1.28; stroke-dashoffset: 0; stroke: #b0b0b0; stroke-width: 0.8"/>
     </g>
     <g id="line2d_12">
      <g>
       <use xlink:href="#m2bb132a38d" x="492.385795" y="320.4" style="fill: #a9a9a9; stroke: #a9a9a9; stroke-width: 0.8"/>
      </g>
     </g>
     <g id="text_6">
      <!-- 2023-05 -->
      <g style="fill: #a9a9a9" transform="translate(471.494389 334.998438) scale(0.1 -0.1)">
       <use xlink:href="#DejaVuSans-32"/>
       <use xlink:href="#DejaVuSans-30" x="63.623047"/>
       <use xlink:href="#DejaVuSans-32" x="127.246094"/>
       <use xlink:href="#DejaVuSans-33" x="190.869141"/>
       <use xlink:href="#DejaVuSans-2d" x="254.492188"/>
       <use xlink:href="#DejaVuSans-30" x="290.576172"/>
       <use xlink:href="#DejaVuSans-35" x="354.199219"/>
      </g>
     </g>
    </g>
    <g id="xtick_7">
     <g id="line2d_13">
      <path d="M 559.778643 320.4 
L 559.778643 43.2 
" clip-path="url(#pd361d75cba)" style="fill: none; stroke-dasharray: 5.12,1.28,0.8,1.28; stroke-dashoffset: 0; stroke: #b0b0b0; stroke-width: 0.8"/>
     </g>
     <g id="line2d_14">
      <g>
       <use xlink:href="#m2bb132a38d" x="559.778643" y="320.4" style="fill: #a9a9a9; stroke: #a9a9a9; stroke-width: 0.8"/>
      </g>
     </g>
     <g id="text_7">
      <!-- 2023-09 -->
      <g style="fill: #a9a9a9" transform="translate(538.887237 334.998438) scale(0.1 -0.1)">
       <use xlink:href="#DejaVuSans-32"/>
       <use xlink:href="#DejaVuSans-30" x="63.623047"/>
       <use xlink:href="#DejaVuSans-32" x="127.246094"/>
       <use xlink:href="#DejaVuSans-33" x="190.869141"/>
       <use xlink:href="#DejaVuSans-2d" x="254.492188"/>
       <use xlink:href="#DejaVuSans-30" x="290.576172"/>
       <use xlink:href="#DejaVuSans-39" x="354.199219"/>
      </g>
     </g>
    </g>
    <g id="xtick_8">
     <g id="line2d_15">
      <path d="M 626.623582 320.4 
L 626.623582 43.2 
" clip-path="url(#pd361d75cba)" style="fill: none; stroke-dasharray: 5.12,1.28,0.8,1.28; stroke-dashoffset: 0; stroke: #b0b0b0; stroke-width: 0.8"/>
     </g>
     <g id="line2d_16">
      <g>
       <use xlink:href="#m2bb132a38d" x="626.623582" y="320.4" style="fill: #a9a9a9; stroke: #a9a9a9; stroke-width: 0.8"/>
      </g>
     </g>
     <g id="text_8">
      <!-- 2024-01 -->
      <g style="fill: #a9a9a9" transform="translate(605.732176 334.998438) scale(0.1 -0.1)">
       <defs>
        <path id="DejaVuSans-34" d="M 2419 4116 
L 825 1625 
L 2419 1625 
L 2419 4116 
z
M 2253 4666 
L 3047 4666 
L 3047 1625 
L 3713 1625 
L 3713 1100 
L 3047 1100 
L 3047 0 
L 2419 0 
L 2419 1100 
L 313 1100 
L 313 1709 
L 2253 4666 
z
" transform="scale(0.015625)"/>
       </defs>
       <use xlink:href="#DejaVuSans-32"/>
       <use xlink:href="#DejaVuSans-30" x="63.623047"/>
       <use xlink:href="#DejaVuSans-32" x="127.246094"/>
       <use xlink:href="#DejaVuSans-34" x="190.869141"/>
       <use xlink:href="#DejaVuSans-2d" x="254.492188"/>
       <use xlink:href="#DejaVuSans-30" x="290.576172"/>
       <use xlink:href="#DejaVuSans-31" x="354.199219"/>
      </g>
     </g>
    </g>
    <g id="xtick_9">
     <g id="line2d_17">
      <path d="M 692.920612 320.4 
L 692.920612 43.2 
" clip-path="url(#pd361d75cba)" style="fill: none; stroke-dasharray: 5.12,1.28,0.8,1.28; stroke-dashoffset: 0; stroke: #b0b0b0; stroke-width: 0.8"/>
     </g>
     <g id="line2d_18">
      <g>
       <use xlink:href="#m2bb132a38d" x="692.920612" y="320.4" style="fill: #a9a9a9; stroke: #a9a9a9; stroke-width: 0.8"/>
      </g>
     </g>
     <g id="text_9">
      <!-- 2024-05 -->
      <g style="fill: #a9a9a9" transform="translate(672.029206 334.998438) scale(0.1 -0.1)">
       <use xlink:href="#DejaVuSans-32"/>
       <use xlink:href="#DejaVuSans-30" x="63.623047"/>
       <use xlink:href="#DejaVuSans-32" x="127.246094"/>
       <use xlink:href="#DejaVuSans-34" x="190.869141"/>
       <use xlink:href="#DejaVuSans-2d" x="254.492188"/>
       <use xlink:href="#DejaVuSans-30" x="290.576172"/>
       <use xlink:href="#DejaVuSans-35" x="354.199219"/>
      </g>
     </g>
    </g>
    <g id="xtick_10">
     <g id="line2d_19">
      <path d="M 760.31346 320.4 
L 760.31346 43.2 
" clip-path="url(#pd361d75cba)" style="fill: none; stroke-dasharray: 5.12,1.28,0.8,1.28; stroke-dashoffset: 0; stroke: #b0b0b0; stroke-width: 0.8"/>
     </g>
     <g id="line2d_20">
      <g>
       <use xlink:href="#m2bb132a38d" x="760.31346" y="320.4" style="fill: #a9a9a9; stroke: #a9a9a9; stroke-width: 0.8"/>
      </g>
     </g>
     <g id="text_10">
      <!-- 2024-09 -->
      <g style="fill: #a9a9a9" transform="translate(739.422054 334.998438) scale(0.1 -0.1)">
       <use xlink:href="#DejaVuSans-32"/>
       <use xlink:href="#DejaVuSans-30" x="63.623047"/>
       <use xlink:href="#DejaVuSans-32" x="127.246094"/>
       <use xlink:href="#DejaVuSans-34" x="190.869141"/>
       <use xlink:href="#DejaVuSans-2d" x="254.492188"/>
       <use xlink:href="#DejaVuSans-30" x="290.576172"/>
       <use xlink:href="#DejaVuSans-39" x="354.199219"/>
      </g>
     </g>
    </g>
   </g>
   <g id="matplotlib.axis_2">
    <g id="ytick_1">
     <g id="line2d_21">
      <path d="M 108 307.839027 
L 777.6 307.839027 
" clip-path="url(#pd361d75cba)" style="fill: none; stroke-dasharray: 5.12,1.28,0.8,1.28; stroke-dashoffset: 0; stroke: #b0b0b0; stroke-width: 0.8"/>
     </g>
     <g id="line2d_22">
      <defs>
       <path id="m4ea20bd44d" d="M 0 0 
L -3.5 0 
" style="stroke: #a9a9a9; stroke-width: 0.8"/>
      </defs>
      <g>
       <use xlink:href="#m4ea20bd44d" x="108" y="307.839027" style="fill: #a9a9a9; stroke: #a9a9a9; stroke-width: 0.8"/>
      </g>
     </g>
     <g id="text_11">
      <!-- 0 -->
      <g style="fill: #a9a9a9" transform="translate(94.6375 311.638246) scale(0.1 -0.1)">
       <use xlink:href="#DejaVuSans-30"/>
      </g>
     </g>
    </g>
    <g id="ytick_2">
     <g id="line2d_23">
      <path d="M 108 276.617098 
L 777.6 276.617098 
" clip-path="url(#pd361d75cba)" style="fill: none; stroke-dasharray: 5.12,1.28,0.8,1.28; stroke-dashoffset: 0; stroke: #b0b0b0; stroke-width: 0.8"/>
     </g>
     <g id="line2d_24">
      <g>
       <use xlink:href="#m4ea20bd44d" x="108" y="276.617098" style="fill: #a9a9a9; stroke: #a9a9a9; stroke-width: 0.8"/>
      </g>
     </g>
     <g id="text_12">
      <!-- 800 -->
      <g style="fill: #a9a9a9" transform="translate(81.9125 280.416316) scale(0.1 -0.1)">
       <defs>
        <path id="DejaVuSans-38" d="M 2034 2216 
Q 1584 2216 1326 1975 
Q 1069 1734 1069 1313 
Q 1069 891 1326 650 
Q 1584 409 2034 409 
Q 2484 409 2743 651 
Q 3003 894 3003 1313 
Q 3003 1734 2745 1975 
Q 2488 2216 2034 2216 
z
M 1403 2484 
Q 997 2584 770 2862 
Q 544 3141 544 3541 
Q 544 4100 942 4425 
Q 1341 4750 2034 4750 
Q 2731 4750 3128 4425 
Q 3525 4100 3525 3541 
Q 3525 3141 3298 2862 
Q 3072 2584 2669 2484 
Q 3125 2378 3379 2068 
Q 3634 1759 3634 1313 
Q 3634 634 3220 271 
Q 2806 -91 2034 -91 
Q 1263 -91 848 271 
Q 434 634 434 1313 
Q 434 1759 690 2068 
Q 947 2378 1403 2484 
z
M 1172 3481 
Q 1172 3119 1398 2916 
Q 1625 2713 2034 2713 
Q 2441 2713 2670 2916 
Q 2900 3119 2900 3481 
Q 2900 3844 2670 4047 
Q 2441 4250 2034 4250 
Q 1625 4250 1398 4047 
Q 1172 3844 1172 3481 
z
" transform="scale(0.015625)"/>
       </defs>
       <use xlink:href="#DejaVuSans-38"/>
       <use xlink:href="#DejaVuSans-30" x="63.623047"/>
       <use xlink:href="#DejaVuSans-30" x="127.246094"/>
      </g>
     </g>
    </g>
    <g id="ytick_3">
     <g id="line2d_25">
      <path d="M 108 245.395168 
L 777.6 245.395168 
" clip-path="url(#pd361d75cba)" style="fill: none; stroke-dasharray: 5.12,1.28,0.8,1.28; stroke-dashoffset: 0; stroke: #b0b0b0; stroke-width: 0.8"/>
     </g>
     <g id="line2d_26">
      <g>
       <use xlink:href="#m4ea20bd44d" x="108" y="245.395168" style="fill: #a9a9a9; stroke: #a9a9a9; stroke-width: 0.8"/>
      </g>
     </g>
     <g id="text_13">
      <!-- 1600 -->
      <g style="fill: #a9a9a9" transform="translate(75.55 249.194387) scale(0.1 -0.1)">
       <defs>
        <path id="DejaVuSans-36" d="M 2113 2584 
Q 1688 2584 1439 2293 
Q 1191 2003 1191 1497 
Q 1191 994 1439 701 
Q 1688 409 2113 409 
Q 2538 409 2786 701 
Q 3034 994 3034 1497 
Q 3034 2003 2786 2293 
Q 2538 2584 2113 2584 
z
M 3366 4563 
L 3366 3988 
Q 3128 4100 2886 4159 
Q 2644 4219 2406 4219 
Q 1781 4219 1451 3797 
Q 1122 3375 1075 2522 
Q 1259 2794 1537 2939 
Q 1816 3084 2150 3084 
Q 2853 3084 3261 2657 
Q 3669 2231 3669 1497 
Q 3669 778 3244 343 
Q 2819 -91 2113 -91 
Q 1303 -91 875 529 
Q 447 1150 447 2328 
Q 447 3434 972 4092 
Q 1497 4750 2381 4750 
Q 2619 4750 2861 4703 
Q 3103 4656 3366 4563 
z
" transform="scale(0.015625)"/>
       </defs>
       <use xlink:href="#DejaVuSans-31"/>
       <use xlink:href="#DejaVuSans-36" x="63.623047"/>
       <use xlink:href="#DejaVuSans-30" x="127.246094"/>
       <use xlink:href="#DejaVuSans-30" x="190.869141"/>
      </g>
     </g>
    </g>
    <g id="ytick_4">
     <g id="line2d_27">
      <path d="M 108 214.173238 
L 777.6 214.173238 
" clip-path="url(#pd361d75cba)" style="fill: none; stroke-dasharray: 5.12,1.28,0.8,1.28; stroke-dashoffset: 0; stroke: #b0b0b0; stroke-width: 0.8"/>
     </g>
     <g id="line2d_28">
      <g>
       <use xlink:href="#m4ea20bd44d" x="108" y="214.173238" style="fill: #a9a9a9; stroke: #a9a9a9; stroke-width: 0.8"/>
      </g>
     </g>
     <g id="text_14">
      <!-- 2400 -->
      <g style="fill: #a9a9a9" transform="translate(75.55 217.972457) scale(0.1 -0.1)">
       <use xlink:href="#DejaVuSans-32"/>
       <use xlink:href="#DejaVuSans-34" x="63.623047"/>
       <use xlink:href="#DejaVuSans-30" x="127.246094"/>
       <use xlink:href="#DejaVuSans-30" x="190.869141"/>
      </g>
     </g>
    </g>
    <g id="ytick_5">
     <g id="line2d_29">
      <path d="M 108 182.951309 
L 777.6 182.951309 
" clip-path="url(#pd361d75cba)" style="fill: none; stroke-dasharray: 5.12,1.28,0.8,1.28; stroke-dashoffset: 0; stroke: #b0b0b0; stroke-width: 0.8"/>
     </g>
     <g id="line2d_30">
      <g>
       <use xlink:href="#m4ea20bd44d" x="108" y="182.951309" style="fill: #a9a9a9; stroke: #a9a9a9; stroke-width: 0.8"/>
      </g>
     </g>
     <g id="text_15">
      <!-- 3200 -->
      <g style="fill: #a9a9a9" transform="translate(75.55 186.750527) scale(0.1 -0.1)">
       <use xlink:href="#DejaVuSans-33"/>
       <use xlink:href="#DejaVuSans-32" x="63.623047"/>
       <use xlink:href="#DejaVuSans-30" x="127.246094"/>
       <use xlink:href="#DejaVuSans-30" x="190.869141"/>
      </g>
     </g>
    </g>
    <g id="ytick_6">
     <g id="line2d_31">
      <path d="M 108 151.729379 
L 777.6 151.729379 
" clip-path="url(#pd361d75cba)" style="fill: none; stroke-dasharray: 5.12,1.28,0.8,1.28; stroke-dashoffset: 0; stroke: #b0b0b0; stroke-width: 0.8"/>
     </g>
     <g id="line2d_32">
      <g>
       <use xlink:href="#m4ea20bd44d" x="108" y="151.729379" style="fill: #a9a9a9; stroke: #a9a9a9; stroke-width: 0.8"/>
      </g>
     </g>
     <g id="text_16">
      <!-- 4000 -->
      <g style="fill: #a9a9a9" transform="translate(75.55 155.528598) scale(0.1 -0.1)">
       <use xlink:href="#DejaVuSans-34"/>
       <use xlink:href="#DejaVuSans-30" x="63.623047"/>
       <use xlink:href="#DejaVuSans-30" x="127.246094"/>
       <use xlink:href="#DejaVuSans-30" x="190.869141"/>
      </g>
     </g>
    </g>
    <g id="ytick_7">
     <g id="line2d_33">
      <path d="M 108 120.507449 
L 777.6 120.507449 
" clip-path="url(#pd361d75cba)" style="fill: none; stroke-dasharray: 5.12,1.28,0.8,1.28; stroke-dashoffset: 0; stroke: #b0b0b0; stroke-width: 0.8"/>
     </g>
     <g id="line2d_34">
      <g>
       <use xlink:href="#m4ea20bd44d" x="108" y="120.507449" style="fill: #a9a9a9; stroke: #a9a9a9; stroke-width: 0.8"/>
      </g>
     </g>
     <g id="text_17">
      <!-- 4800 -->
      <g style="fill: #a9a9a9" transform="translate(75.55 124.306668) scale(0.1 -0.1)">
       <use xlink:href="#DejaVuSans-34"/>
       <use xlink:href="#DejaVuSans-38" x="63.623047"/>
       <use xlink:href="#DejaVuSans-30" x="127.246094"/>
       <use xlink:href="#DejaVuSans-30" x="190.869141"/>
      </g>
     </g>
    </g>
    <g id="ytick_8">
     <g id="line2d_35">
      <path d="M 108 89.28552 
L 777.6 89.28552 
" clip-path="url(#pd361d75cba)" style="fill: none; stroke-dasharray: 5.12,1.28,0.8,1.28; stroke-dashoffset: 0; stroke: #b0b0b0; stroke-width: 0.8"/>
     </g>
     <g id="line2d_36">
      <g>
       <use xlink:href="#m4ea20bd44d" x="108" y="89.28552" style="fill: #a9a9a9; stroke: #a9a9a9; stroke-width: 0.8"/>
      </g>
     </g>
     <g id="text_18">
      <!-- 5600 -->
      <g style="fill: #a9a9a9" transform="translate(75.55 93.084738) scale(0.1 -0.1)">
       <use xlink:href="#DejaVuSans-35"/>
       <use xlink:href="#DejaVuSans-36" x="63.623047"/>
       <use xlink:href="#DejaVuSans-30" x="127.246094"/>
       <use xlink:href="#DejaVuSans-30" x="190.869141"/>
      </g>
     </g>
    </g>
    <g id="ytick_9">
     <g id="line2d_37">
      <path d="M 108 58.06359 
L 777.6 58.06359 
" clip-path="url(#pd361d75cba)" style="fill: none; stroke-dasharray: 5.12,1.28,0.8,1.28; stroke-dashoffset: 0; stroke: #b0b0b0; stroke-width: 0.8"/>
     </g>
     <g id="line2d_38">
      <g>
       <use xlink:href="#m4ea20bd44d" x="108" y="58.06359" style="fill: #a9a9a9; stroke: #a9a9a9; stroke-width: 0.8"/>
      </g>
     </g>
     <g id="text_19">
      <!-- 6400 -->
      <g style="fill: #a9a9a9" transform="translate(75.55 61.862809) scale(0.1 -0.1)">
       <use xlink:href="#DejaVuSans-36"/>
       <use xlink:href="#DejaVuSans-34" x="63.623047"/>
       <use xlink:href="#DejaVuSans-30" x="127.246094"/>
       <use xlink:href="#DejaVuSans-30" x="190.869141"/>
      </g>
     </g>
    </g>
   </g>
   <g id="line2d_39">
    <path d="M 138.436364 307.721945 
L 141.72382 307.448753 
L 142.271729 307.214589 
L 143.915457 307.058479 
L 147.202913 306.395013 
L 150.490369 306.121821 
L 151.586188 305.69252 
L 152.134097 304.990026 
L 152.682006 304.599752 
L 153.229916 303.389902 
L 153.777825 303.311848 
L 154.325734 302.882546 
L 155.421553 302.336162 
L 157.61319 300.618956 
L 159.804828 299.565216 
L 161.448556 298.823695 
L 161.996465 297.965092 
L 163.092284 297.184544 
L 163.640193 296.950379 
L 169.119286 296.169831 
L 169.667196 295.896639 
L 173.502561 295.58442 
L 175.146289 295.155118 
L 180.077473 294.491652 
L 180.625383 294.179433 
L 181.173292 294.101378 
L 182.269111 293.750132 
L 186.104476 293.125693 
L 187.200295 292.813474 
L 188.844023 292.657364 
L 189.939841 292.540282 
L 190.487751 292.384172 
L 191.03566 292.345145 
L 192.679388 291.837788 
L 193.775207 291.759734 
L 194.871025 291.603624 
L 195.966844 291.36946 
L 196.514753 291.21335 
L 197.062663 290.471829 
L 198.706391 289.84739 
L 200.350119 289.418089 
L 200.898028 289.144897 
L 201.445937 289.10587 
L 204.185484 288.325321 
L 205.281303 288.247267 
L 205.829212 288.169212 
L 207.47294 287.661855 
L 209.664577 287.115472 
L 210.212487 286.881307 
L 210.760396 286.803252 
L 211.308305 286.53006 
L 216.787399 285.710485 
L 219.526945 284.929937 
L 220.074855 284.57869 
L 222.266492 283.993279 
L 224.458129 282.861484 
L 226.101857 282.47121 
L 226.649767 282.393155 
L 227.197676 282.119963 
L 228.293495 281.924826 
L 229.389313 281.417469 
L 232.12886 280.714976 
L 233.772588 280.285674 
L 235.416316 279.700263 
L 235.964226 279.622208 
L 237.060044 279.192907 
L 238.155863 279.114852 
L 239.799591 278.646523 
L 240.3475 278.646523 
L 240.89541 278.412359 
L 241.991228 278.295276 
L 242.539138 278.100139 
L 243.634956 278.061112 
L 245.826594 277.78792 
L 246.922412 277.241536 
L 253.497324 274.31448 
L 254.045234 273.729069 
L 255.141052 272.089918 
L 255.688962 271.933808 
L 256.236871 271.933808 
L 257.33269 271.114233 
L 257.880599 270.958123 
L 258.428508 270.684931 
L 258.976418 270.567849 
L 259.524327 270.060492 
L 260.072236 269.904383 
L 261.715964 269.123835 
L 262.811783 267.562738 
L 263.359692 267.211491 
L 263.907602 266.274834 
L 264.455511 265.689422 
L 267.742967 263.972216 
L 268.838786 263.113613 
L 269.386695 262.762366 
L 269.934604 261.942791 
L 270.482514 260.732941 
L 271.030423 259.913365 
L 271.578332 259.484064 
L 272.126242 259.249899 
L 274.317879 257.337556 
L 275.413698 256.439926 
L 275.961607 255.971597 
L 276.509516 255.230076 
L 277.605335 254.254391 
L 279.796972 252.810376 
L 280.344882 252.342047 
L 280.892791 252.224965 
L 281.98861 251.639554 
L 284.180247 250.507759 
L 285.276066 249.454019 
L 285.823975 248.790553 
L 286.919794 248.010005 
L 287.467703 247.853895 
L 288.015612 247.580703 
L 289.111431 246.839182 
L 289.65934 246.526963 
L 290.20725 246.448908 
L 294.042615 244.068236 
L 296.234253 242.897414 
L 296.782162 242.390057 
L 305.548711 239.345919 
L 306.64453 238.370234 
L 308.288258 237.589686 
L 309.384077 236.92622 
L 310.479895 236.614 
L 311.027805 236.262754 
L 311.575714 236.106644 
L 313.219442 235.052904 
L 315.958989 234.389438 
L 317.602717 233.45278 
L 318.150626 233.374725 
L 319.246445 233.101533 
L 319.794354 232.945424 
L 321.438082 231.696546 
L 323.08181 231.306272 
L 323.629719 231.111135 
L 324.177629 230.681834 
L 327.465085 229.589066 
L 328.012994 229.550039 
L 328.560903 229.393929 
L 329.656722 228.9256 
L 333.492087 227.559641 
L 334.587906 227.403531 
L 335.135815 227.247421 
L 335.683725 226.97423 
L 336.231634 226.857147 
L 338.971181 225.569243 
L 341.162818 224.39842 
L 345.546093 222.642187 
L 346.094002 222.564132 
L 347.189821 221.900666 
L 347.73773 221.822611 
L 349.929367 220.924981 
L 352.121005 220.573734 
L 353.216824 220.02735 
L 353.764733 219.559021 
L 354.312642 218.583336 
L 355.95637 218.271117 
L 360.339645 216.202664 
L 363.627101 214.836704 
L 364.72292 214.60254 
L 365.818738 214.056156 
L 366.366648 213.821992 
L 366.914557 213.743937 
L 369.106194 212.768252 
L 370.749922 211.753539 
L 371.297832 211.675484 
L 371.845741 211.480347 
L 372.39365 211.441319 
L 374.585288 210.816881 
L 375.133197 210.777853 
L 375.681106 210.348552 
L 376.776925 209.958278 
L 379.516472 208.904538 
L 380.064381 208.514264 
L 380.61229 208.319127 
L 381.708109 207.733715 
L 383.899746 207.109277 
L 384.447656 206.836085 
L 386.091384 205.54818 
L 386.639293 205.431098 
L 387.735112 204.572495 
L 388.283021 204.49444 
L 388.83093 203.635837 
L 389.37884 203.401673 
L 389.926749 202.972371 
L 390.474658 202.894316 
L 391.570477 202.23085 
L 392.118386 202.113768 
L 392.666296 201.879604 
L 393.214205 201.450302 
L 393.762114 201.255165 
L 395.405842 200.12337 
L 397.59748 198.991575 
L 398.145389 198.91352 
L 399.789117 198.093945 
L 400.337026 197.196314 
L 400.884936 196.727985 
L 401.432845 196.415766 
L 401.980754 196.298684 
L 403.076573 195.59619 
L 403.624482 195.479108 
L 404.720301 194.932724 
L 406.364029 194.230231 
L 407.459848 193.449683 
L 408.555666 192.27886 
L 409.651485 191.615394 
L 410.199394 191.264147 
L 410.747304 190.678736 
L 412.938941 189.195695 
L 413.486851 188.571256 
L 414.03476 188.141954 
L 415.130579 187.75168 
L 416.226397 187.01016 
L 417.870125 186.190584 
L 418.418035 186.112529 
L 420.061763 185.214899 
L 421.157581 184.551433 
L 426.636675 182.600062 
L 427.184584 182.17076 
L 429.376221 181.351185 
L 429.924131 181.195075 
L 430.47204 180.765774 
L 433.211587 179.282732 
L 434.307405 177.097197 
L 435.403224 175.84832 
L 436.499043 175.184854 
L 438.142771 174.521388 
L 438.69068 174.443333 
L 439.238589 174.131114 
L 441.978136 173.27251 
L 442.526045 173.038346 
L 443.621864 172.296825 
L 445.265592 171.594332 
L 446.361411 171.008921 
L 446.90932 170.618646 
L 447.457229 170.384482 
L 448.005139 169.994208 
L 448.553048 169.408797 
L 449.648867 168.823385 
L 452.388413 167.379371 
L 455.675869 165.779247 
L 456.223779 165.662165 
L 457.867507 165.076754 
L 458.415416 164.920644 
L 460.607053 163.944959 
L 461.702872 163.515657 
L 462.250781 163.086356 
L 463.3466 162.735109 
L 466.634056 161.05693 
L 467.729875 160.198327 
L 468.825693 159.808053 
L 469.373603 159.339724 
L 469.921512 159.26167 
L 471.017331 158.442094 
L 472.113149 157.89571 
L 472.661059 157.661546 
L 473.208968 157.115162 
L 477.044334 155.63212 
L 478.140152 155.163791 
L 479.78388 154.656435 
L 480.879699 154.500325 
L 481.427608 154.266161 
L 481.975518 154.188106 
L 483.071336 153.719777 
L 483.619246 153.68075 
L 485.810883 152.861174 
L 487.454611 151.729379 
L 490.194158 150.441474 
L 492.933704 148.958433 
L 493.481614 148.84135 
L 495.125342 147.904693 
L 496.76907 147.358309 
L 497.864888 147.007062 
L 500.056526 146.304569 
L 501.152344 145.953322 
L 502.796072 145.68013 
L 504.98771 144.977637 
L 505.535619 144.743472 
L 506.083528 144.665417 
L 506.631438 144.392225 
L 507.727256 144.158061 
L 509.370984 143.57265 
L 510.466803 143.455568 
L 511.562622 143.182376 
L 513.20635 142.909184 
L 513.754259 142.753074 
L 514.850078 142.635992 
L 517.589624 141.933499 
L 518.685443 141.660307 
L 519.233352 141.348087 
L 521.972899 140.645594 
L 522.520808 140.528512 
L 524.712446 139.708936 
L 527.451992 138.88936 
L 527.999902 138.88936 
L 529.09572 138.499086 
L 529.64363 137.952702 
L 530.739448 137.523401 
L 534.026905 136.352579 
L 534.574814 136.001332 
L 535.122723 135.88425 
L 535.670633 135.57203 
L 536.766451 135.376893 
L 537.86227 134.947592 
L 538.410179 134.83051 
L 538.958089 134.479263 
L 539.505998 134.362181 
L 540.053907 133.893852 
L 541.697635 133.581632 
L 542.793454 133.074276 
L 543.341363 132.449837 
L 544.437182 132.215673 
L 549.368366 131.161933 
L 549.916275 131.161933 
L 550.464185 130.927768 
L 552.655822 130.537494 
L 553.203731 130.30333 
L 555.395369 129.913056 
L 556.491187 129.444727 
L 557.039097 129.405699 
L 558.682825 129.015425 
L 560.326553 128.586124 
L 562.51819 127.922658 
L 563.066099 127.805575 
L 563.614009 127.532383 
L 564.161918 127.454329 
L 566.901465 126.400589 
L 567.449374 126.010314 
L 568.545193 125.698095 
L 569.641011 125.346848 
L 570.73683 124.878519 
L 572.380558 124.136999 
L 574.024286 124.019916 
L 576.215923 123.395478 
L 576.763833 123.044231 
L 577.859651 122.732012 
L 580.599198 121.522162 
L 581.147107 121.483135 
L 587.17411 119.414682 
L 589.365747 118.868298 
L 589.913657 118.712188 
L 591.009475 118.204832 
L 592.105294 117.970667 
L 592.653204 117.853585 
L 593.201113 117.424284 
L 593.749022 117.151092 
L 594.296932 116.487626 
L 594.844841 116.097352 
L 595.94066 115.785132 
L 596.488569 115.355831 
L 600.871844 113.56057 
L 601.419753 113.40446 
L 601.967662 113.053214 
L 604.1593 112.389748 
L 605.255118 111.843364 
L 606.350937 111.218925 
L 606.898846 111.101843 
L 607.994665 110.438377 
L 608.542574 110.204212 
L 609.638393 109.540746 
L 611.282121 108.760198 
L 611.83003 108.369924 
L 612.925849 108.018677 
L 614.021668 107.355211 
L 614.569577 107.160074 
L 615.117486 106.7698 
L 622.240308 104.311073 
L 622.788217 104.193991 
L 623.336126 103.842744 
L 623.884036 103.764689 
L 624.979854 103.491498 
L 626.075673 103.257333 
L 629.911038 101.384017 
L 630.458948 101.305963 
L 632.102676 100.408332 
L 635.390132 99.120427 
L 637.581769 98.261824 
L 638.129678 98.105715 
L 638.677588 97.754468 
L 639.773406 97.598358 
L 640.321316 97.247112 
L 640.869225 97.208084 
L 641.965044 96.856838 
L 643.060862 96.310454 
L 643.608772 96.232399 
L 646.348318 95.139631 
L 646.896228 95.022549 
L 647.992046 94.671302 
L 649.087865 94.398111 
L 650.183684 94.124919 
L 651.827412 93.50048 
L 654.019049 92.29063 
L 655.114868 91.861329 
L 655.662777 91.510082 
L 656.758596 91.275918 
L 657.306505 90.963698 
L 657.854415 90.846616 
L 659.498143 89.988013 
L 660.046052 89.831903 
L 662.237689 88.817191 
L 663.881417 88.387889 
L 667.168873 87.099985 
L 668.812601 86.553601 
L 677.579151 82.924051 
L 679.770788 82.065448 
L 681.414516 81.167818 
L 681.962425 81.050736 
L 683.058244 80.621434 
L 683.606153 80.621434 
L 684.701972 80.153105 
L 685.797791 79.17742 
L 686.3457 78.709091 
L 687.989428 77.928543 
L 688.537337 77.81146 
L 689.085247 77.538269 
L 689.633156 77.460214 
L 690.181065 77.06994 
L 690.728975 76.952857 
L 691.824793 76.289391 
L 693.468521 75.469816 
L 694.016431 75.313706 
L 695.112249 74.767322 
L 696.755977 74.377048 
L 699.495524 73.479418 
L 700.043433 73.362335 
L 702.235071 72.308595 
L 703.330889 71.801239 
L 704.426708 71.528047 
L 708.262073 69.732786 
L 711.00162 68.757101 
L 712.645348 67.781416 
L 713.193258 67.664333 
L 714.289076 67.11795 
L 715.384895 66.727675 
L 715.932804 66.259346 
L 716.480714 65.947127 
L 718.124442 65.439771 
L 719.22026 64.69825 
L 719.76817 64.659223 
L 720.863988 64.347003 
L 721.411898 64.229921 
L 723.603535 63.410345 
L 725.247263 62.902989 
L 725.795172 62.824934 
L 726.890991 62.239523 
L 727.4389 62.044386 
L 727.98681 61.615084 
L 729.630538 61.185783 
L 730.178447 60.834536 
L 731.274266 60.561344 
L 732.917994 59.663714 
L 733.465903 59.624686 
L 735.109631 59.11733 
L 736.20545 59.000248 
L 737.301268 58.570946 
L 737.849178 58.414837 
L 738.397087 58.141645 
L 742.232452 57.322069 
L 743.87618 56.736658 
L 744.42409 56.658603 
L 747.163636 55.8 
L 747.163636 55.8 
" clip-path="url(#pd361d75cba)" style="fill: none; stroke: #1f77b4; stroke-width: 1.5; stroke-linecap: square"/>
   </g>
   <g id="line2d_40">
    <path d="M 138.984273 307.8 
L 140.628001 307.721945 
L 142.271729 307.682918 
L 145.559185 307.604863 
L 148.298732 307.487781 
L 150.490369 307.487781 
L 151.038278 307.331671 
L 153.229916 307.253616 
L 154.873644 307.058479 
L 156.517372 306.90237 
L 159.804828 306.74626 
L 160.352737 306.74626 
L 160.900646 306.629178 
L 163.092284 306.551123 
L 164.188102 306.473068 
L 168.571377 306.395013 
L 171.310924 306.277931 
L 177.885836 306.199876 
L 180.625383 306.082794 
L 183.912839 306.004739 
L 186.104476 305.926684 
L 191.03566 305.848629 
L 192.679388 305.809602 
L 194.323116 305.770575 
L 195.966844 305.575438 
L 199.2543 305.53641 
L 200.350119 305.458355 
L 204.185484 305.3803 
L 210.212487 305.029054 
L 214.047852 304.950999 
L 215.143671 304.872944 
L 216.787399 304.794889 
L 220.074855 304.63878 
L 222.266492 304.599752 
L 223.91022 304.443643 
L 231.033041 304.014341 
L 233.772588 303.936286 
L 238.703772 303.663094 
L 240.3475 303.585039 
L 245.826594 303.27282 
L 251.853596 303.194765 
L 254.045234 302.960601 
L 255.141052 302.882546 
L 262.263874 302.297135 
L 265.55133 301.867833 
L 267.742967 301.789779 
L 272.126242 301.204367 
L 275.413698 301.126313 
L 277.057426 300.970203 
L 278.153244 300.931175 
L 279.249063 300.814093 
L 280.892791 300.736038 
L 281.98861 300.579929 
L 284.728156 300.267709 
L 286.919794 300.189655 
L 288.015612 300.1116 
L 290.20725 300.033545 
L 291.303068 299.95549 
L 294.042615 299.682298 
L 294.590525 299.526189 
L 297.877981 299.370079 
L 300.617527 299.292024 
L 307.740349 298.862723 
L 309.384077 298.784668 
L 316.506898 298.355366 
L 320.342263 298.277311 
L 320.890173 298.160229 
L 325.273447 298.082174 
L 329.108813 297.887037 
L 335.135815 297.808982 
L 338.971181 297.613845 
L 343.354455 297.535791 
L 347.73773 297.301626 
L 351.573095 297.223571 
L 361.983373 296.560105 
L 367.462466 296.48205 
L 369.654104 296.247886 
L 371.297832 296.208859 
L 372.94156 296.169831 
L 375.133197 295.935667 
L 380.61229 295.623447 
L 383.899746 295.545393 
L 385.543474 295.506365 
L 387.187202 295.467338 
L 388.83093 295.311228 
L 393.214205 295.233173 
L 394.310024 295.077064 
L 395.405842 294.999009 
L 398.145389 294.881927 
L 399.241208 294.803872 
L 400.337026 294.725817 
L 405.26821 294.647762 
L 406.364029 294.53068 
L 408.555666 294.491652 
L 409.103576 294.37457 
L 410.199394 294.296515 
L 410.747304 294.179433 
L 412.391032 294.101378 
L 417.322216 293.828186 
L 418.418035 293.789159 
L 420.061763 293.633049 
L 421.705491 293.594022 
L 423.349219 293.515967 
L 426.088765 293.398885 
L 433.759496 293.32083 
L 437.594861 293.125693 
L 441.978136 293.047638 
L 444.169773 292.969583 
L 446.361411 292.930556 
L 447.457229 292.813474 
L 449.648867 292.735419 
L 455.12796 292.4232 
L 458.415416 292.384172 
L 460.059144 292.228063 
L 461.702872 292.189035 
L 465.538237 292.11098 
L 467.729875 292.032926 
L 474.304787 291.954871 
L 477.044334 291.837788 
L 480.33179 291.759734 
L 481.975518 291.564597 
L 485.262974 291.525569 
L 486.906702 291.36946 
L 489.098339 291.291405 
L 495.673251 291.21335 
L 498.412798 291.096268 
L 507.727256 291.05724 
L 508.823075 290.979185 
L 510.466803 290.940158 
L 517.589624 290.862103 
L 518.685443 290.784048 
L 524.712446 290.705993 
L 526.904083 290.627939 
L 533.478995 290.588911 
L 534.574814 290.510856 
L 542.793454 290.471829 
L 544.437182 290.315719 
L 558.134915 290.237665 
L 559.778643 290.198637 
L 574.572195 290.120582 
L 576.215923 290.081555 
L 586.078291 290.0035 
L 587.17411 289.925445 
L 589.913657 289.84739 
L 591.557385 289.691281 
L 594.296932 289.613226 
L 596.488569 289.535171 
L 599.776025 289.457116 
L 601.419753 289.418089 
L 603.61139 289.340034 
L 605.255118 289.301007 
L 607.994665 289.222952 
L 609.090484 289.144897 
L 612.37794 289.066842 
L 615.117486 288.94976 
L 616.213305 288.910733 
L 617.309124 288.832678 
L 618.952852 288.79365 
L 621.144489 288.715595 
L 623.336126 288.637541 
L 630.458948 288.559486 
L 632.650585 288.481431 
L 637.03386 288.403376 
L 640.869225 288.208239 
L 645.800409 288.130184 
L 646.896228 288.052129 
L 656.758596 287.974075 
L 658.402324 287.935047 
L 661.141871 287.89602 
L 663.333508 287.661855 
L 664.977236 287.622828 
L 668.264692 287.544773 
L 673.743785 287.232554 
L 676.483332 287.154499 
L 678.674969 287.076444 
L 684.701972 286.998389 
L 687.441519 286.68617 
L 689.633156 286.608115 
L 693.468521 286.53006 
L 694.016431 286.412978 
L 698.947615 286.334923 
L 701.687161 286.217841 
L 708.809983 286.178814 
L 709.357892 286.061731 
L 713.741167 285.983677 
L 715.384895 285.944649 
L 718.124442 285.866594 
L 719.76817 285.827567 
L 729.082628 285.749512 
L 731.822175 285.63243 
L 739.492906 285.554375 
L 741.684543 285.47632 
L 747.163636 285.398265 
L 747.163636 285.398265 
" clip-path="url(#pd361d75cba)" style="fill: none; stroke: #ff7f0e; stroke-width: 1.5; stroke-linecap: square"/>
   </g>
   <g id="patch_3">
    <path d="M 108 320.4 
L 108 43.2 
" style="fill: none; stroke: #a9a9a9; stroke-width: 0.8; stroke-linejoin: miter; stroke-linecap: square"/>
   </g>
   <g id="patch_4">
    <path d="M 777.6 320.4 
L 777.6 43.2 
" style="fill: none"/>
   </g>
   <g id="patch_5">
    <path d="M 108 320.4 
L 777.6 320.4 
" style="fill: none; stroke: #a9a9a9; stroke-width: 0.8; stroke-linejoin: miter; stroke-linecap: square"/>
   </g>
   <g id="patch_6">
    <path d="M 108 43.2 
L 777.6 43.2 
" style="fill: none"/>
   </g>
   <g id="text_20">
    <!-- get_subscribe history -->
    <g style="fill: #a9a9a9" transform="translate(378.6075 37.2) scale(0.12 -0.12)">
     <defs>
      <path id="DejaVuSans-67" d="M 2906 1791 
Q 2906 2416 2648 2759 
Q 2391 3103 1925 3103 
Q 1463 3103 1205 2759 
Q 947 2416 947 1791 
Q 947 1169 1205 825 
Q 1463 481 1925 481 
Q 2391 481 2648 825 
Q 2906 1169 2906 1791 
z
M 3481 434 
Q 3481 -459 3084 -895 
Q 2688 -1331 1869 -1331 
Q 1566 -1331 1297 -1286 
Q 1028 -1241 775 -1147 
L 775 -588 
Q 1028 -725 1275 -790 
Q 1522 -856 1778 -856 
Q 2344 -856 2625 -561 
Q 2906 -266 2906 331 
L 2906 616 
Q 2728 306 2450 153 
Q 2172 0 1784 0 
Q 1141 0 747 490 
Q 353 981 353 1791 
Q 353 2603 747 3093 
Q 1141 3584 1784 3584 
Q 2172 3584 2450 3431 
Q 2728 3278 2906 2969 
L 2906 3500 
L 3481 3500 
L 3481 434 
z
" transform="scale(0.015625)"/>
      <path id="DejaVuSans-65" d="M 3597 1894 
L 3597 1613 
L 953 1613 
Q 991 1019 1311 708 
Q 1631 397 2203 397 
Q 2534 397 2845 478 
Q 3156 559 3463 722 
L 3463 178 
Q 3153 47 2828 -22 
Q 2503 -91 2169 -91 
Q 1331 -91 842 396 
Q 353 884 353 1716 
Q 353 2575 817 3079 
Q 1281 3584 2069 3584 
Q 2775 3584 3186 3129 
Q 3597 2675 3597 1894 
z
M 3022 2063 
Q 3016 2534 2758 2815 
Q 2500 3097 2075 3097 
Q 1594 3097 1305 2825 
Q 1016 2553 972 2059 
L 3022 2063 
z
" transform="scale(0.015625)"/>
      <path id="DejaVuSans-74" d="M 1172 4494 
L 1172 3500 
L 2356 3500 
L 2356 3053 
L 1172 3053 
L 1172 1153 
Q 1172 725 1289 603 
Q 1406 481 1766 481 
L 2356 481 
L 2356 0 
L 1766 0 
Q 1100 0 847 248 
Q 594 497 594 1153 
L 594 3053 
L 172 3053 
L 172 3500 
L 594 3500 
L 594 4494 
L 1172 4494 
z
" transform="scale(0.015625)"/>
      <path id="DejaVuSans-5f" d="M 3263 -1063 
L 3263 -1509 
L -63 -1509 
L -63 -1063 
L 3263 -1063 
z
" transform="scale(0.015625)"/>
      <path id="DejaVuSans-73" d="M 2834 3397 
L 2834 2853 
Q 2591 2978 2328 3040 
Q 2066 3103 1784 3103 
Q 1356 3103 1142 2972 
Q 928 2841 928 2578 
Q 928 2378 1081 2264 
Q 1234 2150 1697 2047 
L 1894 2003 
Q 2506 1872 2764 1633 
Q 3022 1394 3022 966 
Q 3022 478 2636 193 
Q 2250 -91 1575 -91 
Q 1294 -91 989 -36 
Q 684 19 347 128 
L 347 722 
Q 666 556 975 473 
Q 1284 391 1588 391 
Q 1994 391 2212 530 
Q 2431 669 2431 922 
Q 2431 1156 2273 1281 
Q 2116 1406 1581 1522 
L 1381 1569 
Q 847 1681 609 1914 
Q 372 2147 372 2553 
Q 372 3047 722 3315 
Q 1072 3584 1716 3584 
Q 2034 3584 2315 3537 
Q 2597 3491 2834 3397 
z
" transform="scale(0.015625)"/>
      <path id="DejaVuSans-75" d="M 544 1381 
L 544 3500 
L 1119 3500 
L 1119 1403 
Q 1119 906 1312 657 
Q 1506 409 1894 409 
Q 2359 409 2629 706 
Q 2900 1003 2900 1516 
L 2900 3500 
L 3475 3500 
L 3475 0 
L 2900 0 
L 2900 538 
Q 2691 219 2414 64 
Q 2138 -91 1772 -91 
Q 1169 -91 856 284 
Q 544 659 544 1381 
z
M 1991 3584 
L 1991 3584 
z
" transform="scale(0.015625)"/>
      <path id="DejaVuSans-62" d="M 3116 1747 
Q 3116 2381 2855 2742 
Q 2594 3103 2138 3103 
Q 1681 3103 1420 2742 
Q 1159 2381 1159 1747 
Q 1159 1113 1420 752 
Q 1681 391 2138 391 
Q 2594 391 2855 752 
Q 3116 1113 3116 1747 
z
M 1159 2969 
Q 1341 3281 1617 3432 
Q 1894 3584 2278 3584 
Q 2916 3584 3314 3078 
Q 3713 2572 3713 1747 
Q 3713 922 3314 415 
Q 2916 -91 2278 -91 
Q 1894 -91 1617 61 
Q 1341 213 1159 525 
L 1159 0 
L 581 0 
L 581 4863 
L 1159 4863 
L 1159 2969 
z
" transform="scale(0.015625)"/>
      <path id="DejaVuSans-63" d="M 3122 3366 
L 3122 2828 
Q 2878 2963 2633 3030 
Q 2388 3097 2138 3097 
Q 1578 3097 1268 2742 
Q 959 2388 959 1747 
Q 959 1106 1268 751 
Q 1578 397 2138 397 
Q 2388 397 2633 464 
Q 2878 531 3122 666 
L 3122 134 
Q 2881 22 2623 -34 
Q 2366 -91 2075 -91 
Q 1284 -91 818 406 
Q 353 903 353 1747 
Q 353 2603 823 3093 
Q 1294 3584 2113 3584 
Q 2378 3584 2631 3529 
Q 2884 3475 3122 3366 
z
" transform="scale(0.015625)"/>
      <path id="DejaVuSans-72" d="M 2631 2963 
Q 2534 3019 2420 3045 
Q 2306 3072 2169 3072 
Q 1681 3072 1420 2755 
Q 1159 2438 1159 1844 
L 1159 0 
L 581 0 
L 581 3500 
L 1159 3500 
L 1159 2956 
Q 1341 3275 1631 3429 
Q 1922 3584 2338 3584 
Q 2397 3584 2469 3576 
Q 2541 3569 2628 3553 
L 2631 2963 
z
" transform="scale(0.015625)"/>
      <path id="DejaVuSans-69" d="M 603 3500 
L 1178 3500 
L 1178 0 
L 603 0 
L 603 3500 
z
M 603 4863 
L 1178 4863 
L 1178 4134 
L 603 4134 
L 603 4863 
z
" transform="scale(0.015625)"/>
      <path id="DejaVuSans-20" transform="scale(0.015625)"/>
      <path id="DejaVuSans-68" d="M 3513 2113 
L 3513 0 
L 2938 0 
L 2938 2094 
Q 2938 2591 2744 2837 
Q 2550 3084 2163 3084 
Q 1697 3084 1428 2787 
Q 1159 2491 1159 1978 
L 1159 0 
L 581 0 
L 581 4863 
L 1159 4863 
L 1159 2956 
Q 1366 3272 1645 3428 
Q 1925 3584 2291 3584 
Q 2894 3584 3203 3211 
Q 3513 2838 3513 2113 
z
" transform="scale(0.015625)"/>
      <path id="DejaVuSans-6f" d="M 1959 3097 
Q 1497 3097 1228 2736 
Q 959 2375 959 1747 
Q 959 1119 1226 758 
Q 1494 397 1959 397 
Q 2419 397 2687 759 
Q 2956 1122 2956 1747 
Q 2956 2369 2687 2733 
Q 2419 3097 1959 3097 
z
M 1959 3584 
Q 2709 3584 3137 3096 
Q 3566 2609 3566 1747 
Q 3566 888 3137 398 
Q 2709 -91 1959 -91 
Q 1206 -91 779 398 
Q 353 888 353 1747 
Q 353 2609 779 3096 
Q 1206 3584 1959 3584 
z
" transform="scale(0.015625)"/>
      <path id="DejaVuSans-79" d="M 2059 -325 
Q 1816 -950 1584 -1140 
Q 1353 -1331 966 -1331 
L 506 -1331 
L 506 -850 
L 844 -850 
Q 1081 -850 1212 -737 
Q 1344 -625 1503 -206 
L 1606 56 
L 191 3500 
L 800 3500 
L 1894 763 
L 2988 3500 
L 3597 3500 
L 2059 -325 
z
" transform="scale(0.015625)"/>
     </defs>
     <use xlink:href="#DejaVuSans-67"/>
     <use xlink:href="#DejaVuSans-65" x="63.476562"/>
     <use xlink:href="#DejaVuSans-74" x="125"/>
     <use xlink:href="#DejaVuSans-5f" x="164.208984"/>
     <use xlink:href="#DejaVuSans-73" x="214.208984"/>
     <use xlink:href="#DejaVuSans-75" x="266.308594"/>
     <use xlink:href="#DejaVuSans-62" x="329.6875"/>
     <use xlink:href="#DejaVuSans-73" x="393.164062"/>
     <use xlink:href="#DejaVuSans-63" x="445.263672"/>
     <use xlink:href="#DejaVuSans-72" x="500.244141"/>
     <use xlink:href="#DejaVuSans-69" x="541.357422"/>
     <use xlink:href="#DejaVuSans-62" x="569.140625"/>
     <use xlink:href="#DejaVuSans-65" x="632.617188"/>
     <use xlink:href="#DejaVuSans-20" x="694.140625"/>
     <use xlink:href="#DejaVuSans-68" x="725.927734"/>
     <use xlink:href="#DejaVuSans-69" x="789.306641"/>
     <use xlink:href="#DejaVuSans-73" x="817.089844"/>
     <use xlink:href="#DejaVuSans-74" x="869.189453"/>
     <use xlink:href="#DejaVuSans-6f" x="908.398438"/>
     <use xlink:href="#DejaVuSans-72" x="969.580078"/>
     <use xlink:href="#DejaVuSans-79" x="1010.693359"/>
    </g>
   </g>
   <g id="legend_1">
    <g id="line2d_41">
     <path d="M 815.08 328.498438 
L 825.08 328.498438 
L 835.08 328.498438 
" style="fill: none; stroke: #1f77b4; stroke-width: 1.5; stroke-linecap: square"/>
    </g>
    <g id="text_21">
     <!-- star -->
     <g style="fill: #a9a9a9" transform="translate(843.08 331.998438) scale(0.1 -0.1)">
      <defs>
       <path id="DejaVuSans-61" d="M 2194 1759 
Q 1497 1759 1228 1600 
Q 959 1441 959 1056 
Q 959 750 1161 570 
Q 1363 391 1709 391 
Q 2188 391 2477 730 
Q 2766 1069 2766 1631 
L 2766 1759 
L 2194 1759 
z
M 3341 1997 
L 3341 0 
L 2766 0 
L 2766 531 
Q 2569 213 2275 61 
Q 1981 -91 1556 -91 
Q 1019 -91 701 211 
Q 384 513 384 1019 
Q 384 1609 779 1909 
Q 1175 2209 1959 2209 
L 2766 2209 
L 2766 2266 
Q 2766 2663 2505 2880 
Q 2244 3097 1772 3097 
Q 1472 3097 1187 3025 
Q 903 2953 641 2809 
L 641 3341 
Q 956 3463 1253 3523 
Q 1550 3584 1831 3584 
Q 2591 3584 2966 3190 
Q 3341 2797 3341 1997 
z
" transform="scale(0.015625)"/>
      </defs>
      <use xlink:href="#DejaVuSans-73"/>
      <use xlink:href="#DejaVuSans-74" x="52.099609"/>
      <use xlink:href="#DejaVuSans-61" x="91.308594"/>
      <use xlink:href="#DejaVuSans-72" x="152.587891"/>
     </g>
    </g>
    <g id="line2d_42">
     <path d="M 815.08 343.176562 
L 825.08 343.176562 
L 835.08 343.176562 
" style="fill: none; stroke: #ff7f0e; stroke-width: 1.5; stroke-linecap: square"/>
    </g>
    <g id="text_22">
     <!-- fork -->
     <g style="fill: #a9a9a9" transform="translate(843.08 346.676562) scale(0.1 -0.1)">
      <defs>
       <path id="DejaVuSans-66" d="M 2375 4863 
L 2375 4384 
L 1825 4384 
Q 1516 4384 1395 4259 
Q 1275 4134 1275 3809 
L 1275 3500 
L 2222 3500 
L 2222 3053 
L 1275 3053 
L 1275 0 
L 697 0 
L 697 3053 
L 147 3053 
L 147 3500 
L 697 3500 
L 697 3744 
Q 697 4328 969 4595 
Q 1241 4863 1831 4863 
L 2375 4863 
z
" transform="scale(0.015625)"/>
       <path id="DejaVuSans-6b" d="M 581 4863 
L 1159 4863 
L 1159 1991 
L 2875 3500 
L 3609 3500 
L 1753 1863 
L 3688 0 
L 2938 0 
L 1159 1709 
L 1159 0 
L 581 0 
L 581 4863 
z
" transform="scale(0.015625)"/>
      </defs>
      <use xlink:href="#DejaVuSans-66"/>
      <use xlink:href="#DejaVuSans-6f" x="35.205078"/>
      <use xlink:href="#DejaVuSans-72" x="96.386719"/>
      <use xlink:href="#DejaVuSans-6b" x="137.5"/>
     </g>
    </g>
   </g>
  </g>
 </g>
 <defs>
  <clipPath id="pd361d75cba">
   <rect x="108" y="43.2" width="669.6" height="277.2"/>
  </clipPath>
 </defs>
</svg>
